<svg width="1440" height="1950" viewBox="0 0 1440 1950" fill="none" xmlns="http://www.w3.org/2000/svg">
<path d="M504.362 2142.82C182.597 2148.97 -130.16 2120.94 -353.357 2055.77C-629.257 1975.85 -659.797 1795.01 -1029.03 1756.58C-1217.42 1737 -1456.09 1763.26 -1642.58 1818.96C-1829.06 1874.66 -1971.02 1957.87 -2176.09 1999.41C-2458.15 2056.93 -2761.28 2010.04 -2895.21 1924.38C-3177.9 1744.01 -3124.27 1378.41 -2912.73 1146.2C-2781.26 1003.38 -2540.01 869.827 -2225.63 765.834C-1852.77 643.775 -1115.35 556.308 -699.702 561.958C-498.273 564.696 -322.804 602.307 -120.925 599.462C276.437 593.684 466.962 429.631 686.764 318.88C1059.89 131.571 1696.85 59.5066 2141.13 131.969C2601.66 206.991 2831.28 504.663 2232.22 679.281C2110.55 714.804 1971.53 737.612 1855.47 775.68C1643.9 845.207 1547.31 953.863 1551.19 1047.12C1563.05 1299.97 2199.06 1403.12 2214.63 1641.33C2229.9 1876.82 1392.48 2070.95 860.776 2122.73C741.08 2133.99 621.698 2140.77 504.379 2142.98" fill="#2F4858"/>
</svg>
