<svg width="95" height="121" viewBox="0 0 95 121" fill="none" xmlns="http://www.w3.org/2000/svg">
<g filter="url(#filter0_d_215_1692)">
<ellipse rx="10.1821" ry="17.6557" transform="matrix(-0.402115 0.915589 -0.913867 -0.406014 21.2277 69.7259)" fill="#F5F2EB"/>
<ellipse rx="11.2973" ry="5.02274" transform="matrix(0.638664 0.769486 -0.76585 0.643019 22.2318 58.3389)" fill="#F5F2EB"/>
<path d="M34.15 83.3537C32.961 87.5572 26.0711 87.7767 20.0469 86.3123C14.4496 84.7106 4.4726 86.4806 12.077 74.7697C13.266 70.5662 18.7674 68.457 24.3647 70.0586C29.962 71.6603 35.339 79.1502 34.15 83.3537Z" fill="#F5F2EB"/>
<path d="M50.9425 15.0498C52.0086 19.0512 50.027 23.0619 46.5167 24.0079C43.0063 24.954 39.2964 22.4771 38.2304 18.4757C37.1644 14.4742 37.5539 7.51602 41.0643 6.56998C44.5747 5.62394 49.8765 11.0483 50.9425 15.0498Z" fill="#E13030"/>
<path d="M62.8073 12.1357C62.7443 17.2776 59.4122 21.4052 55.3648 21.355C51.3174 21.3048 48.0874 17.0959 48.1504 11.9541C48.2134 6.81224 51.2258 0.0363098 55.2732 0.0864813C59.3206 0.136653 62.8703 6.99392 62.8073 12.1357Z" fill="#E13030"/>
<path d="M72.0378 19.5962C70.2043 24.4861 65.8516 27.363 62.3157 26.0219C58.7799 24.6807 57.3998 19.6295 59.2332 14.7395C61.0667 9.84959 67.293 4.20345 70.8289 5.54458C74.3648 6.8857 73.8712 14.7062 72.0378 19.5962Z" fill="#E13030"/>
<path d="M43.8466 102.381C48.6346 104.011 50.491 110.161 49.9508 111.766C49.4106 113.371 47.3435 108.193 42.6304 105.961C37.9173 103.728 33.1573 107.746 33.6975 106.14C34.2378 104.535 39.0586 100.751 43.8466 102.381Z" fill="#EF8132"/>
<path d="M47.4626 101.476C52.1488 103.382 53.6485 109.63 53.0169 111.201C52.3852 112.772 50.6194 107.482 46.0426 104.979C41.4657 102.477 36.4827 106.21 37.1143 104.639C37.7459 103.068 42.7763 99.5706 47.4626 101.476Z" fill="#EF8132"/>
<path d="M40.5545 103.325C43.9421 104.702 44.4863 110.562 43.8547 112.133C43.223 113.704 42.3843 108.791 39.1373 106.829C35.8903 104.867 31.7366 108.938 32.3682 107.367C32.9998 105.796 37.1669 101.947 40.5545 103.325Z" fill="#EF8132"/>
<path d="M64.9347 99.8089C69.7465 101.366 71.6947 107.488 71.1785 109.101C70.6624 110.714 68.5181 105.567 63.7722 103.407C59.0262 101.246 54.3268 105.335 54.843 103.721C55.3592 102.108 60.1228 98.2515 64.9347 99.8089Z" fill="#EF8132"/>
<path d="M66.8829 97.632C71.7139 99.1282 73.7387 105.224 73.2428 106.844C72.7469 108.464 70.5382 103.344 65.7656 101.244C60.993 99.1439 56.3452 103.292 56.8411 101.672C57.337 100.053 62.0519 96.1357 66.8829 97.632Z" fill="#EF8132"/>
<path d="M61.6544 100.802C65.0621 102.128 65.6939 107.979 65.0859 109.559C64.4778 111.14 63.5657 106.24 60.2897 104.327C57.0137 102.415 52.9214 106.548 53.5295 104.968C54.1375 103.387 58.2466 99.4759 61.6544 100.802Z" fill="#EF8132"/>
<path d="M84.3914 40.6838C84.3914 43.0588 84.0524 50.1023 82.6965 51.871C80.1504 61.0766 69.9913 63.5272 58.2894 63.5272C43.8737 63.5272 32.1875 53.2998 32.1875 40.6838C32.1875 28.0677 43.8737 17.8403 58.2894 17.8403C72.7051 17.8403 84.3914 28.0677 84.3914 40.6838Z" fill="#F5F2EB"/>
<ellipse cx="50.1546" cy="86.0295" rx="31.5257" ry="17.7292" fill="#F5F2EB"/>
<path d="M87.57 81.7715C86.0864 94.7094 71.378 105.123 51.4041 105.123C31.4303 105.123 15.2383 94.668 15.2383 81.7715C15.2383 68.875 31.74 44.8193 51.7138 44.8193C71.6877 44.8193 89.9811 70.4115 87.57 81.7715Z" fill="#F5F2EB"/>
<path d="M89.8153 67.265C91.1711 81.6065 87.1034 98.5051 65.7472 91.2473C52.8293 91.2473 43.0352 79.1159 43.0352 67.265C43.0352 55.4141 53.5072 45.8071 66.4252 45.8071C79.3432 45.8071 87.4423 55.3536 89.8153 67.265Z" fill="#F5F2EB"/>
<ellipse cx="61.4216" cy="38.9788" rx="4.74581" ry="4.77325" fill="#FFF9F9"/>
<ellipse cx="61.7601" cy="38.6381" rx="3.72885" ry="3.75041" fill="black"/>
<path d="M64.1338 38.2969C64.1338 39.0501 63.5267 39.6607 62.7778 39.6607C62.0289 39.6607 61.4219 39.0501 61.4219 38.2969C61.4219 37.5437 62.0289 36.9331 62.7778 36.9331C63.5267 36.9331 64.1338 37.5437 64.1338 38.2969Z" fill="#FFF9F9"/>
<ellipse cx="77.613" cy="38.9788" rx="4.74581" ry="4.77325" fill="#FFF9F9"/>
<ellipse cx="77.2757" cy="38.6381" rx="3.72885" ry="3.75041" fill="black"/>
<ellipse cx="76.2583" cy="38.2969" rx="1.35594" ry="1.36379" fill="#FFF9F9"/>
<ellipse rx="2.37998" ry="3.73178" transform="matrix(0.980253 -0.183164 0.182143 0.986094 71.8604 51.2776)" fill="#E13030"/>
<ellipse rx="2.37925" ry="3.59612" transform="matrix(0.964853 0.253912 -0.252341 0.970005 67.9858 51.2545)" fill="#E13030"/>
<path d="M70.7961 50.3725C72.3125 49.6527 72.7993 47.7725 73.0862 45.855C72.8803 44.0378 74.4769 41.1662 68.5552 42.1674C64.1662 42.9094 65.867 44.4956 66.4574 46.4963C67.421 48.2416 69.1288 50.1555 70.7961 50.3725Z" fill="#FFCD1A"/>
<path d="M27.9531 79.8047L26.6929 84.8708L25.488 88.229L22.8359 90.9768L20.6533 93.314" stroke="#E0DEDB" stroke-width="3" stroke-linecap="round"/>
<path d="M37.3672 75.1509L35.3048 85.6476L33.496 90.5571L29.6686 94.6301L25.7209 96.9544" stroke="#E0DEDB" stroke-width="3" stroke-linecap="round"/>
<path d="M46.567 71.6267L46.567 77.5877L45.3357 84.4859L43.8091 88.4238L38.4181 95.1285L32.1557 97.9773L26.5631 98.058" stroke="#E0DEDB" stroke-width="3" stroke-linecap="round"/>
</g>
<defs>
<filter id="filter0_d_215_1692" x="0.578125" y="0.0864258" width="93.4727" height="120.351" filterUnits="userSpaceOnUse" color-interpolation-filters="sRGB">
<feFlood flood-opacity="0" result="BackgroundImageFix"/>
<feColorMatrix in="SourceAlpha" type="matrix" values="0 0 0 0 0 0 0 0 0 0 0 0 0 0 0 0 0 0 127 0" result="hardAlpha"/>
<feOffset dy="4"/>
<feGaussianBlur stdDeviation="2"/>
<feComposite in2="hardAlpha" operator="out"/>
<feColorMatrix type="matrix" values="0 0 0 0 0 0 0 0 0 0 0 0 0 0 0 0 0 0 0.25 0"/>
<feBlend mode="normal" in2="BackgroundImageFix" result="effect1_dropShadow_215_1692"/>
<feBlend mode="normal" in="SourceGraphic" in2="effect1_dropShadow_215_1692" result="shape"/>
</filter>
</defs>
</svg>
