<svg width="142" height="182" viewBox="0 0 142 182" fill="none" xmlns="http://www.w3.org/2000/svg">
<g filter="url(#filter0_d_215_1603)">
<path d="M68.1596 161.313C62.2255 163.322 59.9247 170.9 60.5942 172.878C61.2638 174.856 63.8257 168.475 69.6669 165.724C75.5082 162.974 81.4076 167.924 80.7381 165.946C80.0686 163.968 74.0938 159.304 68.1596 161.313Z" fill="#35312D"/>
<path d="M62.8335 159.358C57.0254 161.707 55.1668 169.405 55.9496 171.341C56.7324 173.277 58.9209 166.759 64.5934 163.675C70.2658 160.591 76.4416 165.192 75.6588 163.256C74.876 161.32 68.6415 157.01 62.8335 159.358Z" fill="#35312D"/>
<path d="M41.4666 158.67C35.1344 160.065 31.7423 166.842 32.1529 168.707C32.5635 170.572 36.0572 164.912 42.3969 162.83C48.7366 160.748 54.0744 165.734 53.6638 163.869C53.2531 162.004 47.7989 157.276 41.4666 158.67Z" fill="#35312D"/>
<path d="M35.9636 157.229C29.4395 158.299 25.4682 164.138 25.7368 165.776C26.0054 167.414 29.9912 162.554 36.5773 160.883C43.1633 159.213 48.1761 163.691 47.9075 162.053C47.6389 160.415 42.4877 156.159 35.9636 157.229Z" fill="#35312D"/>
<path d="M81.1572 35.672C72.7792 50.1258 62.6498 59.9082 58.5324 57.5216C54.415 55.135 57.8689 41.4832 66.2468 27.0294C74.6248 12.5756 84.3516 1.41288 88.469 3.79946C92.5863 6.18604 89.5351 21.2182 81.1572 35.672Z" fill="#98E27D"/>
<path d="M85.967 49.4395C75.5156 62.473 64.0334 70.6252 60.3206 67.648C56.6078 64.6707 62.0705 51.6915 72.5218 38.658C82.9731 25.6246 94.2644 16.0472 97.9772 19.0244C101.69 22.0016 96.4183 36.406 85.967 49.4395Z" fill="#98E27D"/>
<path d="M84.7817 62.8029C72.877 74.5238 60.8826 81.645 57.9914 78.7085C55.1002 75.772 62.4071 63.8898 74.3118 52.1689C86.2165 40.4479 98.2858 31.9884 101.177 34.9249C104.068 37.8614 96.6864 51.0819 84.7817 62.8029Z" fill="#98E27D"/>
<path d="M87.5245 72.2014C77.0992 82.4657 66.5953 88.702 64.0634 86.1304C61.5316 83.5588 67.9304 73.1532 78.3557 62.8888C88.781 52.6245 99.3505 45.2162 101.882 47.7878C104.414 50.3594 97.9498 61.937 87.5245 72.2014Z" fill="#98E27D"/>
<path d="M115.02 140.508C106.117 132.976 108.183 121.879 110.313 119.361C112.443 116.844 116.195 122.723 122.917 131.125C131.32 139.108 138.122 146.966 135.992 149.484C133.861 152.002 123.923 148.04 115.02 140.508Z" fill="#096A37"/>
<path d="M115.488 146.173C107.294 141.578 101.713 135.961 103.022 133.627C104.331 131.293 112.034 133.125 120.228 137.72C128.422 142.315 134.776 147.695 133.467 150.029C132.158 152.363 123.682 150.768 115.488 146.173Z" fill="#98E27D"/>
<path d="M103.78 146.15C96.0189 140.857 90.9495 134.774 92.4572 132.563C93.965 130.353 101.479 132.851 109.24 138.144C117.001 143.436 122.861 149.35 121.354 151.561C119.846 153.772 111.541 151.443 103.78 146.15Z" fill="#98E27D"/>
<ellipse cx="59.8775" cy="121.418" rx="55.8775" ry="43.2736" fill="#61B7E8"/>
<path d="M90.5475 81.0853C90.5475 98.4878 73.8067 112.595 53.1558 112.595C32.5049 112.595 12.8813 104.337 13.2432 82.7659C13.5566 64.0812 30.7928 49.1133 51.4437 49.1133C72.0946 49.1133 90.5475 63.6829 90.5475 81.0853Z" fill="#61B7E8"/>
<ellipse cx="59.3605" cy="31.1863" rx="7.98251" ry="30.2495" transform="rotate(19.3355 59.3605 31.1863)" fill="#61B7E8"/>
<path d="M59.29 39.8546C50.912 54.3084 40.7826 64.0908 36.6652 61.7042C32.5478 59.3177 36.0017 45.6658 44.3796 31.212C52.7576 16.7583 62.4844 5.5955 66.6018 7.98208C70.7192 10.3687 67.6679 25.4008 59.29 39.8546Z" fill="#61B7E8"/>
<path d="M51.5288 89.4585C48.189 95.3853 45.2308 87.9549 40.3548 97.8611C38.2531 95.95 37.5029 88.9127 38.6103 85.9478C39.7176 82.9828 43.3217 77.7243 48.1717 78.712C52.7931 81.6529 53.6411 85.7098 51.5288 89.4585Z" fill="#3A3A3A"/>
<path d="M97.793 121.614L99.6062 128.862L101.34 133.666L105.156 137.597L108.296 140.94" stroke="#096A37" stroke-width="3" stroke-linecap="round"/>
<path d="M85.9453 116.797L88.9128 131.813L91.5153 138.837L97.0224 144.663L102.703 147.988" stroke="#096A37" stroke-width="3" stroke-linecap="round"/>
<path d="M72.713 111.755L72.713 120.283L74.4846 130.151L76.6811 135.785L84.438 145.376L93.4485 149.452L101.495 149.567" stroke="#096A37" stroke-width="3" stroke-linecap="round"/>
<circle r="7.56237" transform="matrix(-1 0 0 1 61.4298 71.4222)" fill="#FFF9F9"/>
<circle r="7.56237" transform="matrix(-1 0 0 1 36.2189 71.4222)" fill="#FFF9F9"/>
<circle cx="37.2994" cy="72.2628" r="5.04158" fill="black"/>
<circle cx="38.1376" cy="71.4227" r="1.68053" fill="#FFF9F9"/>
<circle cx="59.9908" cy="72.2628" r="5.04158" fill="black"/>
<path d="M60.8337 71.4227C60.8337 72.3508 60.0813 73.1032 59.1532 73.1032C58.225 73.1032 57.4726 72.3508 57.4726 71.4227C57.4726 70.4946 58.225 69.7422 59.1532 69.7422C60.0813 69.7422 60.8337 70.4946 60.8337 71.4227Z" fill="#FFF9F9"/>
</g>
<defs>
<filter id="filter0_d_215_1603" x="0" y="2.51904" width="140.387" height="178.733" filterUnits="userSpaceOnUse" color-interpolation-filters="sRGB">
<feFlood flood-opacity="0" result="BackgroundImageFix"/>
<feColorMatrix in="SourceAlpha" type="matrix" values="0 0 0 0 0 0 0 0 0 0 0 0 0 0 0 0 0 0 127 0" result="hardAlpha"/>
<feOffset dy="4"/>
<feGaussianBlur stdDeviation="2"/>
<feComposite in2="hardAlpha" operator="out"/>
<feColorMatrix type="matrix" values="0 0 0 0 0 0 0 0 0 0 0 0 0 0 0 0 0 0 0.25 0"/>
<feBlend mode="normal" in2="BackgroundImageFix" result="effect1_dropShadow_215_1603"/>
<feBlend mode="normal" in="SourceGraphic" in2="effect1_dropShadow_215_1603" result="shape"/>
</filter>
</defs>
</svg>
