<svg width="259" height="285" viewBox="0 0 259 285" fill="none" xmlns="http://www.w3.org/2000/svg">
<g filter="url(#filter0_d_216_1012)">
<g style="mix-blend-mode:multiply">
<path d="M152.996 207.78C161.109 198.448 167.936 187.428 170.17 175.08C170.307 174.244 170.134 173.387 169.685 172.67C169.235 171.953 168.539 171.427 167.73 171.191C166.92 170.954 166.052 171.024 165.289 171.387C164.527 171.749 163.924 172.38 163.593 173.159L163.379 173.662L162.843 174.918C158.092 184.35 151.04 192.42 142.346 198.376C142.9 176.839 143.686 152.735 143.686 152.358C143.696 152.143 143.661 151.929 143.584 151.728C143.507 151.527 143.39 151.345 143.239 151.192C143.091 151.032 142.911 150.904 142.711 150.818C142.511 150.731 142.296 150.687 142.078 150.689H115.952C115.734 150.687 115.518 150.731 115.318 150.818C115.118 150.904 114.939 151.032 114.79 151.192C114.64 151.345 114.522 151.527 114.446 151.728C114.369 151.929 114.334 152.143 114.343 152.358C114.343 152.95 116.238 210.742 116.238 226.895C116.218 235.157 114.162 243.285 110.251 250.554C106.341 257.823 100.699 264.006 93.8285 268.551C93.5115 268.764 93.2799 269.082 93.1752 269.451C93.0704 269.819 93.0993 270.212 93.2567 270.561C93.4151 270.887 93.6759 271.151 93.9989 271.314C94.3219 271.476 94.6891 271.527 95.0437 271.458L115.291 266.074L112.521 274.671C112.416 274.989 112.411 275.332 112.507 275.653C112.603 275.974 112.795 276.258 113.057 276.466C113.351 276.672 113.699 276.784 114.057 276.789C114.362 276.792 114.66 276.705 114.915 276.538C115.022 276.538 125.208 269.879 134.447 262.879L162.843 271.405C163.212 271.517 163.609 271.492 163.961 271.334C164.313 271.177 164.598 270.898 164.762 270.548C164.927 270.198 164.961 269.8 164.858 269.427C164.755 269.054 164.522 268.73 164.201 268.515C157.333 263.968 151.693 257.785 147.782 250.516C143.872 243.248 141.814 235.12 141.792 226.859C141.792 224.741 141.792 221.887 141.792 218.549C145.802 215.26 149.549 211.659 152.996 207.78Z" fill="#8B603F"/>
<path d="M61.9048 78.234C59.7841 74.6041 58.3256 70.6231 57.5981 66.4783C56.7727 61.8299 56.8685 57.0635 57.8802 52.4523C58.8918 47.8411 60.7994 43.4756 63.4936 39.606C66.1878 35.7364 69.6157 32.4387 73.5809 29.9018C77.5461 27.3649 81.9708 25.6387 86.6013 24.8219C87.7842 24.607 88.977 24.4513 90.1753 24.3553C92.3714 17.8591 96.375 12.131 101.712 7.8493C107.049 3.56759 113.496 0.911619 120.29 0.195898C127.083 -0.519823 133.938 0.734685 140.044 3.81087C146.15 6.88705 151.25 11.6561 154.74 17.5532C155.312 17.4275 155.884 17.266 156.527 17.1583C164.491 15.7509 172.687 17.5088 179.383 22.0605C186.08 26.6123 190.751 33.601 192.41 41.5491C196.865 42.5507 201.061 44.482 204.725 47.2177C208.388 49.9535 211.438 53.4324 213.676 57.4288C215.915 61.4252 217.291 65.8496 217.716 70.4148C218.141 74.9801 217.606 79.5841 216.144 83.928C214.683 88.2719 212.328 92.2585 209.233 95.6291C206.138 98.9997 202.372 101.679 198.179 103.493C193.986 105.307 189.46 106.215 184.895 106.158C180.33 106.101 175.828 105.081 171.681 103.163C169.506 108.034 166.277 112.356 162.228 115.815C158.18 119.275 153.414 121.783 148.279 123.159C143.143 124.534 137.766 124.742 132.541 123.767C127.315 122.791 122.372 120.658 118.071 117.521C113.216 121.379 107.446 123.904 101.327 124.849C95.2084 125.794 88.9501 125.126 83.1654 122.912C77.3807 120.697 72.268 117.011 68.328 112.215C64.3881 107.42 61.756 101.678 60.6897 95.5535C59.6634 89.7682 60.0809 83.8176 61.9048 78.234Z" fill="#61AA31"/>
<path d="M139.948 128.183C136.244 123.742 133.925 118.303 133.281 112.546C132.637 106.789 133.697 100.969 136.329 95.8137C138.96 90.6583 143.046 86.3962 148.076 83.5602C153.106 80.7241 158.856 79.4399 164.609 79.868C166.363 75.1052 169.326 70.8856 173.204 67.6277C178.695 63.0026 185.68 60.555 192.843 60.7468C200.007 60.9386 206.853 63.7564 212.09 68.6687C215.975 66.8143 220.218 65.841 224.519 65.8177C228.821 65.7944 233.074 66.7218 236.979 68.534C240.884 70.3462 244.343 72.9989 247.113 76.304C249.883 79.6091 251.895 83.4857 253.006 87.659C254.118 91.8323 254.302 96.2001 253.545 100.453C252.788 104.705 251.108 108.738 248.626 112.266C246.144 115.794 242.919 118.731 239.18 120.867C235.442 123.004 231.281 124.288 226.993 124.629C225.653 129.876 222.897 134.649 219.03 138.423C215.162 142.198 210.332 144.828 205.072 146.023C199.812 147.218 194.326 146.932 189.217 145.196C184.108 143.461 179.575 140.344 176.117 136.188C175.938 135.99 175.796 135.757 175.635 135.542C169.732 138.536 162.994 139.439 156.516 138.103C150.037 136.767 144.199 133.271 139.948 128.183Z" fill="#3D9738"/>
<path d="M4.0997 107.13C3.58431 101.163 5.07744 95.1938 8.34004 90.1794C11.6026 85.165 16.4461 81.395 22.0949 79.473C22.5051 74.4955 24.2009 69.7115 27.0148 65.5934C29.8286 61.4753 33.6632 58.1655 38.14 55.9908C42.6168 53.8161 47.581 52.8517 52.5423 53.1928C57.5037 53.5339 62.2907 55.1687 66.4306 57.9358C69.7166 55.5358 73.4918 53.8978 77.4842 53.14C81.4766 52.3822 85.5866 52.5234 89.5181 53.5535C93.4495 54.5835 97.1045 56.4767 100.219 59.0967C103.335 61.7166 105.832 64.9981 107.532 68.7044C115.124 68.5352 122.5 71.2518 128.183 76.3104C133.867 81.369 137.438 88.3965 138.184 95.9867C138.929 103.577 136.793 111.17 132.203 117.246C127.613 123.322 120.908 127.433 113.429 128.757C112.653 133.602 110.698 138.179 107.736 142.083C104.775 145.986 100.9 149.094 96.4543 151.131C92.0091 153.168 87.1317 154.07 82.2556 153.758C77.3795 153.447 72.6556 151.93 68.5036 149.343C63.9702 153.212 58.3481 155.565 52.4205 156.073C44.8079 156.741 37.2427 154.347 31.3861 149.417C25.5294 144.487 21.86 137.425 21.1835 129.78C16.5033 128 12.4177 124.931 9.39588 120.925C6.37401 116.918 4.53836 112.137 4.0997 107.13Z" fill="#8FBF3E"/>
<path d="M38.1016 153.453C38.1029 159.492 40.2114 165.34 44.0606 169.98C47.9098 174.619 53.2562 177.758 59.1704 178.849C60.0126 183.068 61.8044 187.037 64.4088 190.454C67.0131 193.87 70.361 196.643 74.1963 198.56C78.0316 200.478 82.2528 201.488 86.5368 201.516C90.8209 201.543 95.0544 200.585 98.9135 198.717C103 201.965 107.916 203.99 113.096 204.561C118.276 205.132 123.512 204.226 128.203 201.946C132.894 199.666 136.851 196.105 139.619 191.671C142.388 187.237 143.856 182.109 143.857 176.875C143.857 176.875 143.857 176.875 143.857 176.767C144.59 176.767 145.322 176.875 146.073 176.875C152.638 176.685 158.905 174.08 163.685 169.556C168.465 165.032 171.424 158.903 172.002 152.332C172.58 145.761 170.735 139.206 166.818 133.91C162.901 128.615 157.185 124.948 150.755 123.606C149.652 118.87 147.305 114.516 143.96 110.999C140.614 107.482 136.391 104.929 131.73 103.606C127.069 102.283 122.14 102.239 117.457 103.477C112.773 104.716 108.505 107.192 105.097 110.648C101.153 107.102 96.3211 104.703 91.1209 103.711C85.9207 102.719 80.5495 103.17 75.5858 105.016C70.6221 106.863 66.254 110.034 62.9521 114.189C59.6501 118.344 57.5394 123.325 56.8473 128.596C51.4524 130.121 46.7015 133.375 43.3176 137.862C39.9337 142.349 38.1021 147.824 38.1016 153.453Z" fill="#61AA31"/>
<path d="M216.844 159.931C218.751 156.856 219.76 153.306 219.757 149.683C219.759 146.032 218.744 142.452 216.827 139.35C214.909 136.248 212.165 133.746 208.905 132.129C205.646 130.512 202 129.843 198.382 130.198C194.763 130.554 191.316 131.919 188.43 134.141C185.133 131.884 181.286 130.573 177.302 130.347C173.319 130.121 169.349 130.989 165.82 132.858C162.291 134.727 159.335 137.527 157.27 140.956C155.206 144.385 154.111 148.314 154.102 152.321C154.102 152.896 154.102 153.452 154.102 154.116C151.788 155.826 149.975 158.13 148.854 160.786C147.733 163.443 147.345 166.353 147.731 169.212C148.117 172.071 149.262 174.773 151.046 177.034C152.831 179.295 155.189 181.031 157.872 182.061C157.872 182.653 157.872 183.263 157.872 183.855C157.874 188.291 159.374 192.595 162.129 196.062C164.883 199.529 168.728 201.955 173.034 202.941C177.34 203.927 181.851 203.416 185.83 201.491C189.809 199.566 193.019 196.341 194.935 192.345C197.04 193.956 199.449 195.12 202.017 195.766C204.584 196.411 207.255 196.525 209.868 196.101C212.48 195.676 214.979 194.722 217.213 193.296C219.446 191.87 221.367 190.002 222.859 187.807C224.35 185.611 225.381 183.133 225.888 180.524C226.395 177.916 226.369 175.231 225.809 172.633C225.25 170.035 224.17 167.578 222.634 165.413C221.099 163.248 219.141 161.419 216.88 160.039L216.844 159.931Z" fill="#8FBF3E"/>
</g>
</g>
<defs>
<filter id="filter0_d_216_1012" x="0" y="0" width="258.004" height="284.789" filterUnits="userSpaceOnUse" color-interpolation-filters="sRGB">
<feFlood flood-opacity="0" result="BackgroundImageFix"/>
<feColorMatrix in="SourceAlpha" type="matrix" values="0 0 0 0 0 0 0 0 0 0 0 0 0 0 0 0 0 0 127 0" result="hardAlpha"/>
<feOffset dy="4"/>
<feGaussianBlur stdDeviation="2"/>
<feComposite in2="hardAlpha" operator="out"/>
<feColorMatrix type="matrix" values="0 0 0 0 0 0 0 0 0 0 0 0 0 0 0 0 0 0 0.25 0"/>
<feBlend mode="normal" in2="BackgroundImageFix" result="effect1_dropShadow_216_1012"/>
<feBlend mode="normal" in="SourceGraphic" in2="effect1_dropShadow_216_1012" result="shape"/>
</filter>
</defs>
</svg>
