<svg width="200" height="200" viewBox="0 0 200 200" fill="none" xmlns="http://www.w3.org/2000/svg">
<g clip-path="url(#clip0_51_192)">
<g filter="url(#filter0_d_51_192)">
<ellipse cx="89.497" cy="124.267" rx="15.777" ry="27.4636" transform="rotate(113.832 89.497 124.267)" fill="#F5F2EB"/>
<ellipse cx="91.0573" cy="106.639" rx="17.53" ry="7.80175" transform="rotate(50.1453 91.0573 106.639)" fill="#F5F2EB"/>
<path d="M109.609 145.363C107.758 151.871 97.0302 152.21 87.6506 149.943C78.9358 147.464 63.4018 150.204 75.2416 132.075C77.093 125.568 85.6586 122.303 94.3734 124.782C103.088 127.262 111.46 138.856 109.609 145.363Z" fill="#F5F2EB"/>
<path d="M135.756 39.6272C137.416 45.8215 134.331 52.0302 128.865 53.4947C123.4 54.9592 117.624 51.1249 115.964 44.9306C114.304 38.7362 114.911 27.9647 120.376 26.5002C125.842 25.0357 134.097 33.4328 135.756 39.6272Z" fill="#E13030"/>
<path d="M154.235 35.1158C154.137 43.0755 148.949 49.4652 142.647 49.3875C136.345 49.3099 131.316 42.7943 131.415 34.8346C131.513 26.8749 136.203 16.3856 142.505 16.4632C148.806 16.5409 154.333 27.1561 154.235 35.1158Z" fill="#E13030"/>
<path d="M168.607 46.6645C165.752 54.2342 158.975 58.6877 153.47 56.6116C147.964 54.5355 145.816 46.716 148.67 39.1462C151.525 31.5764 161.219 22.836 166.725 24.9121C172.23 26.9883 171.461 39.0947 168.607 46.6645Z" fill="#E13030"/>
<path d="M124.711 174.818C132.166 177.341 135.056 186.862 134.215 189.347C133.374 191.832 130.156 183.815 122.817 180.36C115.479 176.904 108.068 183.123 108.909 180.638C109.75 178.153 117.256 172.295 124.711 174.818Z" fill="#EF8132"/>
<path d="M130.34 173.418C137.637 176.368 139.972 186.039 138.988 188.472C138.005 190.904 135.255 182.715 128.129 178.84C121.003 174.966 113.245 180.746 114.228 178.314C115.212 175.882 123.044 170.467 130.34 173.418Z" fill="#EF8132"/>
<path d="M119.585 176.279C124.859 178.412 125.707 187.482 124.723 189.914C123.74 192.346 122.434 184.74 117.378 181.703C112.323 178.666 105.856 184.968 106.839 182.536C107.822 180.104 114.311 174.146 119.585 176.279Z" fill="#EF8132"/>
<path d="M157.542 170.837C165.034 173.248 168.067 182.724 167.264 185.221C166.46 187.718 163.121 179.751 155.732 176.406C148.343 173.061 141.026 179.391 141.83 176.894C142.633 174.396 150.05 168.426 157.542 170.837Z" fill="#EF8132"/>
<path d="M160.576 167.467C168.097 169.783 171.25 179.22 170.478 181.727C169.706 184.235 166.267 176.31 158.836 173.059C151.405 169.807 144.169 176.229 144.941 173.722C145.713 171.214 153.054 165.151 160.576 167.467Z" fill="#EF8132"/>
<path d="M152.439 172.374C157.745 174.427 158.728 183.484 157.782 185.93C156.835 188.377 155.415 180.792 150.314 177.831C145.213 174.871 138.842 181.269 139.788 178.823C140.735 176.376 147.133 170.321 152.439 172.374Z" fill="#EF8132"/>
<path d="M187.839 79.3088C187.839 82.9855 187.311 93.889 185.2 96.627C181.235 110.878 165.418 114.671 147.198 114.671C124.753 114.671 106.558 98.8389 106.558 79.3088C106.558 59.7788 124.753 43.9465 147.198 43.9465C169.643 43.9465 187.839 59.7788 187.839 79.3088Z" fill="#F5F2EB"/>
<ellipse cx="134.531" cy="149.506" rx="49.085" ry="27.4454" fill="#F5F2EB"/>
<path d="M192.786 142.914C190.476 162.942 167.575 179.062 136.477 179.062C105.378 179.062 80.167 162.878 80.167 142.914C80.167 122.95 105.86 85.7109 136.959 85.7109C168.058 85.7109 196.54 125.328 192.786 142.914Z" fill="#F5F2EB"/>
<path d="M196.282 120.457C198.393 142.658 192.06 168.818 158.809 157.582C138.696 157.582 123.446 138.802 123.446 120.457C123.446 102.111 139.751 87.2395 159.864 87.2395C179.977 87.2395 192.587 102.018 196.282 120.457Z" fill="#F5F2EB"/>
<circle cx="152.078" cy="76.6699" r="7.38914" fill="#FFF9F9"/>
<circle cx="152.606" cy="76.1422" r="5.80575" fill="black"/>
<path d="M156.3 75.6144C156.3 76.7803 155.354 77.7255 154.188 77.7255C153.022 77.7255 152.077 76.7803 152.077 75.6144C152.077 74.4484 153.022 73.5032 154.188 73.5032C155.354 73.5032 156.3 74.4484 156.3 75.6144Z" fill="#FFF9F9"/>
<circle cx="177.282" cy="76.6699" r="7.38914" fill="#FFF9F9"/>
<circle cx="176.754" cy="76.1422" r="5.80575" fill="black"/>
<circle cx="175.17" cy="75.6144" r="2.11118" fill="#FFF9F9"/>
<ellipse cx="168.334" cy="95.7085" rx="3.69457" ry="5.79404" transform="rotate(-10.5244 168.334 95.7085)" fill="#E13030"/>
<ellipse cx="162.298" cy="95.672" rx="3.69457" ry="5.5817" transform="rotate(14.6626 162.298 95.672)" fill="#E13030"/>
<path d="M166.674 94.3072C169.035 93.1929 169.793 90.2824 170.24 87.3139C169.919 84.5009 172.405 80.0555 163.185 81.6054C156.351 82.7541 158.999 85.2096 159.919 88.3068C161.419 91.0085 164.078 93.9712 166.674 94.3072Z" fill="#FFCD1A"/>
<path d="M99.9668 139.869L98.0047 147.712L96.1287 152.91L91.9994 157.164L88.6011 160.782" stroke="#E0DEDB" stroke-width="3" stroke-linecap="round"/>
<path d="M114.618 132.665L111.407 148.914L108.59 156.514L102.631 162.819L96.4846 166.417" stroke="#E0DEDB" stroke-width="3" stroke-linecap="round"/>
<path d="M128.941 127.209L128.941 136.437L127.024 147.116L124.647 153.212L116.254 163.591L106.503 168.001L97.7957 168.126" stroke="#E0DEDB" stroke-width="3" stroke-linecap="round"/>
</g>
</g>
<defs>
<filter id="filter0_d_51_192" x="59.5728" y="16.4629" width="141.075" height="181.923" filterUnits="userSpaceOnUse" color-interpolation-filters="sRGB">
<feFlood flood-opacity="0" result="BackgroundImageFix"/>
<feColorMatrix in="SourceAlpha" type="matrix" values="0 0 0 0 0 0 0 0 0 0 0 0 0 0 0 0 0 0 127 0" result="hardAlpha"/>
<feOffset dy="4"/>
<feGaussianBlur stdDeviation="2"/>
<feComposite in2="hardAlpha" operator="out"/>
<feColorMatrix type="matrix" values="0 0 0 0 0 0 0 0 0 0 0 0 0 0 0 0 0 0 0.25 0"/>
<feBlend mode="normal" in2="BackgroundImageFix" result="effect1_dropShadow_51_192"/>
<feBlend mode="normal" in="SourceGraphic" in2="effect1_dropShadow_51_192" result="shape"/>
</filter>
<clipPath id="clip0_51_192">
<rect width="200" height="200" fill="white"/>
</clipPath>
</defs>
</svg>
