<svg width="24" height="14" viewBox="0 0 24 14" fill="none" xmlns="http://www.w3.org/2000/svg">
<g clip-path="url(#clip0_192_4877)" filter="url(#filter0_i_192_4877)">
<path d="M22.2659 7.61053C22.8144 8.01488 23.5204 8.29945 23.895 8.88481C23.3826 8.97486 22.6793 8.96315 22.2956 9.40082C22.5658 9.65748 22.917 9.82408 23.18 10.0852C22.5181 10.2086 22.9603 11.2325 22.7639 11.7449C22.528 12.3618 21.6923 11.8989 21.1763 11.7882C21.0862 12.179 20.862 12.1682 20.5513 12.2862C20.2883 12.3852 20.0443 12.7662 19.8056 12.8175C19.4085 12.9022 19.168 12.333 18.7637 12.4483C18.4179 12.5473 18.4197 13.6955 17.9091 13.039C17.9478 13.1719 17.9994 13.3007 18.0631 13.4236C17.7236 13.4614 17.348 13.1534 17.0319 13.0417C17.294 13.1363 16.3691 13.3236 16.3953 13.3191C16.1044 13.3668 15.7451 13.5956 15.5343 13.2453C15.555 13.3641 15.4956 13.4398 15.4866 13.5325C15.1552 13.3254 15.1264 12.7437 14.7662 12.4996C14.6131 12.6185 14.496 12.7851 14.3159 12.8598C14.2406 12.7362 14.1348 12.6339 14.0088 12.5626C13.8773 12.786 13.4685 13.8324 13.1019 13.664C12.9984 13.6163 12.9164 13.465 12.7994 13.4371C12.6823 13.4092 12.6012 13.474 12.4824 13.4596C12.3383 13.4425 12.314 13.3479 12.1681 13.4344C12.078 13.4857 12.0357 13.6217 11.9438 13.682C11.6737 13.8621 11.5782 13.5442 11.3621 13.492C11.1964 13.4524 10.9397 13.6658 10.8046 13.7433C10.2778 14.0495 10.249 13.4839 9.93202 13.2489C9.66185 13.0453 9.51506 13.3533 9.2404 13.3921C8.94772 13.4326 8.68386 13.2435 8.45512 13.0895C8.00484 12.7896 7.85535 13.175 7.41048 13.1354C6.85935 13.0859 6.944 12.7491 6.40187 13.1471C6.00743 13.4362 5.70304 13.2804 5.70845 12.7869C5.70845 13.2372 3.51651 13.1309 3.79748 12.315C3.31479 12.3942 2.92215 12.8166 2.40614 12.6014C1.74784 12.3312 2.64388 11.8494 2.38182 11.5459C2.26475 11.4108 1.02019 11.8395 1.02199 11.7458C1.02649 11.5558 1.13366 11.4126 1.21471 11.2496C1.29576 11.0866 1.34619 10.9047 1.43264 10.7408C1.49838 10.6184 1.65058 10.4617 1.67129 10.3374C1.44165 10.3374 1.22101 10.2302 0.994976 10.2419C1.05982 10.0285 1.29846 9.86641 1.46236 9.71781C1.65868 9.53771 1.94145 9.45666 2.11886 9.26214C1.96487 9.18289 1.87661 9.0406 1.72532 8.96586C1.54521 8.8758 1.33088 8.88121 1.17509 8.73352C1.41283 8.3823 1.86491 8.26163 2.16569 7.96715C1.78656 7.97525 1.25343 7.92572 0.904922 7.79785C1.07603 7.42862 1.47047 6.84507 1.8532 6.68567C1.72892 6.62533 1.58303 6.61633 1.44615 6.55959C1.45336 6.55959 1.82618 6.27772 1.87301 6.25521C2.09731 6.14768 2.34509 6.09843 2.59345 6.11202C2.3494 5.89859 1.82978 5.86797 1.72712 5.51406C2.07113 5.16735 2.44756 4.98904 2.87712 4.79362C2.65379 4.64052 2.37011 4.4334 2.24674 4.18665C2.56733 3.82643 3.08695 3.9417 3.48679 3.84624C3.17791 3.57608 2.71322 3.43019 2.47818 3.04745C3.01851 2.56386 3.81189 2.68724 4.49271 2.63861C4.39815 2.27839 3.97759 2.06496 3.98029 1.60388C4.41706 1.58406 5.16541 1.74076 5.4671 2.10728C5.45027 1.84898 5.45328 1.58976 5.4761 1.33191C5.794 1.46519 6.00473 1.6507 6.19654 1.29499C6.37665 0.96899 6.36675 0.533124 6.53965 0.190916C7.00704 0.400744 7.84995 0.786178 7.89948 1.37964C8.11021 1.40035 8.27051 1.20854 8.43441 1.09687C8.64116 0.970977 8.85804 0.862536 9.0828 0.77267C9.24524 0.88346 9.37295 1.03802 9.45113 1.21844C9.60422 0.990603 10.0176 0.630384 10.3111 0.622279C10.5552 0.615074 10.6543 0.914056 10.6362 1.17972C10.657 0.874432 11.5341 0.162099 11.8277 0.232341C11.8853 0.449374 11.9853 1.21574 12.169 1.3067C12.232 1.33912 12.8345 1.17251 12.8336 1.16171C12.839 1.34364 12.8039 1.52449 12.7309 1.69123C13.1533 0.816797 14.2916 0.346711 15.1597 0C15.4245 0.284573 15.5785 0.744753 15.6442 1.12118C15.6685 1.25626 15.6199 1.56335 15.7667 1.63089C15.9135 1.69843 16.2404 1.43367 16.3304 1.33912C16.4475 1.59577 16.6726 1.85513 16.8113 2.08927C16.9914 1.95869 17.3282 1.62639 17.5696 1.63089C17.6848 1.63089 18.2252 1.92717 18.0198 2.09648C18.4503 1.74706 19.0204 1.38324 19.5913 1.36343C19.6814 1.75157 19.2851 2.34323 19.1933 2.73406C19.3905 2.72506 19.576 2.64401 19.7957 2.67103C19.5976 2.82232 19.4445 3.06547 19.3184 3.27709C19.6976 3.1249 20.0146 3.14111 20.4099 3.16543C20.7197 3.18434 21.1303 3.2906 21.4194 3.24017C21.1366 3.56617 20.717 3.86245 20.5036 4.23077C20.8214 4.4343 21.4149 4.39107 21.794 4.52796C22.2246 4.67481 22.6067 4.93673 22.899 5.28532C22.3641 5.47893 21.8688 5.65004 21.5041 6.10572C21.6842 6.27772 22.1047 6.34616 22.3542 6.42271C22.301 6.63614 21.9823 6.75591 21.9039 6.98915C22.1047 7.0711 22.3479 7.10893 22.5442 7.18637C22.4478 7.33136 22.274 7.41241 22.2137 7.56821L22.2659 7.61053Z" fill="#6AB944"/>
<g clip-path="url(#clip1_192_4877)" filter="url(#filter1_i_192_4877)">
<path d="M19.969 7.90259C19.5252 7.77828 19.126 7.79404 18.6707 7.86232C18.8511 8.53202 18.9483 9.13431 18.7224 9.82765C18.2847 9.33478 17.7016 8.74125 17.0775 8.54253C17.0635 8.81041 16.9899 9.10892 16.7807 9.28576C16.4192 8.87606 16.3929 8.82091 15.9806 9.19822C15.8937 8.88054 15.7239 8.59169 15.4886 8.36131C15.7635 8.34556 15.9578 8.44886 16.2012 8.46899C16.1931 8.24419 16.2181 8.01941 16.2756 7.80192C16.6984 7.77653 17.0153 7.87283 17.397 8.0164C17.439 8.03215 17.5406 7.24953 17.5449 7.19C18.3249 7.47188 17.91 6.91687 18.4685 6.78905C18.9194 6.6875 19.8596 7.49202 19.969 7.90259Z" fill="#559933"/>
<path d="M14.5492 7.33207C14.2297 7.28655 13.9775 6.96439 13.6545 6.94863C13.461 7.64022 12.7161 8.37995 12.175 8.81679C11.9746 8.30116 12.0936 7.52379 11.7041 7.10358C11.501 7.22964 11.3031 7.40823 11.0913 7.50278C10.9958 7.33412 10.9488 7.14233 10.9556 6.94863C10.6886 6.94863 10.2806 7.12897 10.06 7.27342C10.2701 6.84358 10.2579 6.4085 10.2894 5.92001C10.5669 5.97341 10.7271 6.29294 10.9766 6.20277C11.0921 6.16075 11.3425 5.69153 11.4064 5.57422C11.4861 5.92439 11.7443 6.38836 12.0341 6.59146C12.171 6.35885 12.3286 6.1391 12.5051 5.93489C12.7344 6.21503 12.8211 6.57308 13.2238 6.46015C13.6414 6.34021 13.7149 5.75981 14.1526 6.14675C14.2866 6.27018 14.5159 7.32769 14.5492 7.33207Z" fill="#559933"/>
<path d="M6.46118 10.2993C6.43433 9.91771 6.46382 9.53424 6.54872 9.16125C6.07949 9.11223 5.68906 9.43001 5.25572 9.56395C4.74973 9.72065 4.2306 9.8327 3.72548 9.95876C3.62131 9.40374 3.98811 8.82071 4.10892 8.31909C3.25801 8.24293 3.53464 8.19829 3.42258 7.47519C3.33504 7.5137 3.2405 7.50145 3.1547 7.54697C3.16696 7.28434 3.42784 6.87289 3.66158 6.73633C3.71109 6.82216 3.78741 6.88938 3.87882 6.92765C3.97023 6.96592 4.07167 6.97313 4.16757 6.94818C4.07565 7.29835 3.85242 7.85599 4.30414 7.91727C4.61491 7.96017 5.17956 7.5671 5.48946 7.47956C5.48246 7.73431 5.47895 7.99519 5.49384 8.24818C5.56584 8.24804 5.63645 8.22833 5.69813 8.19117C5.7598 8.15401 5.81022 8.1008 5.84401 8.03721C6.02872 8.3795 6.22219 8.18866 6.4568 7.99431C6.63189 8.30596 6.66778 8.76031 6.95492 8.98967C7.19694 8.76872 7.46789 8.58171 7.76031 8.43377C7.76031 8.54408 7.82509 8.60098 7.83559 8.7034C8.10698 8.75505 8.30395 8.55721 8.55957 8.55108C8.50179 9.00543 7.93802 9.33021 7.62287 9.61735C7.54583 9.67512 6.46818 10.4376 6.46118 10.2993Z" fill="#559933"/>
<path d="M10.0032 2.35824C9.98619 2.74712 9.9275 3.13306 9.82809 3.50942C9.51994 3.34134 9.25819 3.05507 8.9693 2.85898C8.97805 3.33433 8.78108 4.05218 8.4633 4.39972C7.94768 4.05568 7.72882 3.30107 7.21232 2.96928C7.15892 3.15662 7.05125 3.35709 6.88054 3.45164C6.80875 3.29756 6.72034 3.14349 6.64855 2.98329C6.6348 3.06965 6.59148 3.14856 6.52599 3.20652C6.3264 3.00342 6.23448 2.65675 6.06289 2.40989C6.30626 2.42302 6.51023 2.51231 6.7501 2.51494C6.73347 2.40376 6.78687 2.25231 6.76848 2.14551C7.26222 2.31622 7.65704 2.95527 8.12189 3.23278C8.19367 2.901 8.25233 2.51669 8.36351 2.20066C8.4134 2.22079 9.03933 2.55608 9.02795 2.57009C9.11549 2.45978 9.16277 2.29521 9.24593 2.16039C9.50856 2.42739 9.61448 2.26457 9.89287 2.19366L10.0032 2.35824Z" fill="#559933"/>
<path d="M17.9572 3.42053C17.9012 3.70854 17.7138 3.95804 17.6298 4.24693C17.4439 4.09138 17.2447 3.95253 17.0345 3.83198C16.9715 4.0946 16.8402 4.32571 16.75 4.57784C16.7412 4.60235 16.3473 4.02719 16.3123 3.97905C16.2037 3.82322 16.181 3.66827 15.9446 3.68928C15.9921 3.87813 16.0013 4.07459 15.9717 4.26706C15.7721 4.15063 15.52 4.09198 15.3143 3.97642C15.4894 4.51305 15.4675 5.00854 15.5183 5.5942C15.7879 5.39548 15.928 5.01117 16.1853 4.83083C16.42 5.31057 16.4821 5.89622 16.7193 6.35582C17.0004 5.86733 17.3742 5.21777 17.4424 4.66275C17.6343 4.66662 17.8215 4.72228 17.9843 4.82383C17.9581 4.61986 17.8697 4.39662 17.825 4.19265C17.8311 4.21891 18.8151 4.39575 18.8851 4.39225C18.8694 4.25568 18.844 4.07884 18.7267 3.97817C19.1329 4.17252 19.5601 4.3476 19.9567 4.56821C19.8038 4.16335 19.5406 3.80943 19.1968 3.54659C19.083 3.45905 18.7976 3.23231 18.6409 3.25332C18.4466 3.27871 18.4886 3.48181 18.3074 3.53608C18.1855 3.51535 18.0675 3.4764 17.9572 3.42053Z" fill="#559933"/>
<path d="M13.4672 1.80762C13.9486 1.89516 13.7648 3.25294 13.7298 3.61799C13.4944 3.28352 13.241 2.96206 12.9708 2.65503C12.8237 2.99031 12.6591 3.37287 12.3738 3.60924C12.3815 3.29344 12.2986 2.98203 12.1348 2.71193C12.0131 2.81523 11.8844 2.91153 11.7566 3.00169C11.7645 2.7522 11.7793 2.47644 11.7146 2.25934C11.9404 2.30311 12.1777 2.44055 12.4096 2.52196C12.5507 2.35115 12.6534 2.15202 12.7108 1.93806C12.9314 2.06237 13.1152 2.26721 13.3525 2.35213C13.3907 2.16476 13.4494 1.98216 13.5276 1.80762H13.4672Z" fill="#559933"/>
<path d="M15.1724 1.58835C15.3405 1.9499 15.1637 2.43051 15.0236 2.77893C14.7181 2.54432 14.2436 2.25368 14.0397 1.93065C14.241 1.6899 14.5544 1.94465 14.7733 2.01819C14.8993 1.86674 14.9869 1.68815 15.1173 1.5332L15.1724 1.58835Z" fill="#559933"/>
<path d="M22.3799 8.95607C22.3615 9.28522 22.5628 10.397 22.2398 10.5957C21.9868 10.7516 20.7428 10.0145 20.4303 9.87789C20.376 10.0442 20.3069 10.5196 20.137 10.6106C19.9672 10.7017 19.7641 10.4951 19.568 10.4171C19.3229 10.9984 19.034 10.4933 18.6926 10.6579C18.1805 10.9039 18.3888 11.4589 17.7979 10.9319C17.7009 11.0577 17.5931 11.1749 17.4757 11.2821C17.4343 11.3109 17.3868 11.33 17.3369 11.3377C17.287 11.3454 17.236 11.3417 17.1877 11.3267C16.7588 11.2558 16.4926 10.9004 16.0961 10.7682C16.2204 11.0632 15.872 11.6953 15.8221 12.0262C15.5358 12.0095 15.1725 11.5683 14.9834 11.3845C14.7654 11.1718 14.5895 10.8925 14.3706 10.6947C14.3514 10.8006 14.3058 11.0693 14.1955 11.1026C14.0852 11.1359 13.9408 10.9573 13.862 10.8899C13.7648 11.2619 13.6782 11.1227 13.5118 10.8969C13.314 10.6343 13.1468 10.2841 12.8842 10.081C12.8526 10.2561 12.927 10.4977 12.9148 10.6938C12.9008 10.9275 12.857 11.1578 12.8395 11.3941C12.822 11.6305 12.6916 11.8633 12.7134 12.0778C12.3405 12.0358 12.0402 11.4388 11.768 11.2155C11.6691 11.3407 11.6297 11.4782 11.459 11.4545C11.3276 11.4326 11.1902 11.2672 11.093 11.184C10.9854 11.3871 10.8225 11.4248 10.6326 11.5237C10.594 11.4834 10.3533 10.9879 10.3699 10.9757C10.2601 11.0356 10.1607 11.1131 10.0758 11.205C10.039 10.7463 9.83155 10.3296 9.76939 9.87088C9.21963 10.2097 9.02879 11.1971 8.40111 11.4677C8.05094 11.6174 8.12622 11.2716 7.80144 11.205C7.58696 11.1613 7.28494 11.3862 7.06171 11.4563C7.07632 11.1598 7.12508 10.8661 7.20703 10.5809C6.46467 10.8846 5.63127 11.2812 4.8644 11.4221C4.83463 11.0439 4.84601 10.7218 5.00096 10.3813C4.64116 10.3743 3.83402 10.8347 3.51887 10.6036C3.20372 10.3725 3.41995 9.65378 3.28951 9.32637C2.99449 9.39815 2.61981 9.64852 2.30291 9.61176C2.2425 9.60475 2.04028 8.95169 2.02715 8.86852C2.00718 8.76399 2.0104 8.65634 2.03657 8.55318C2.06273 8.45003 2.11122 8.35386 2.1786 8.27148C1.92122 8.43169 1.58243 8.44657 1.31543 8.59714C1.00203 8.77223 0.851458 9.09613 0.583576 9.31149C0.785799 9.39203 1.05193 9.37714 1.23139 9.46731C0.973677 9.68079 0.733885 9.91502 0.514418 10.1677C0.375225 10.3357 0.134485 10.6054 0.130108 10.8303C0.424252 10.8496 0.714014 10.7559 1.01516 10.7428C1.28829 10.7349 1.59294 10.7507 1.8792 10.7691C1.7225 11.1963 1.64109 11.5193 1.77853 11.9605C1.97112 11.9693 2.31516 11.7854 2.47887 11.6856C2.66775 11.567 2.86915 11.4695 3.07941 11.395C3.07416 11.5867 3.04614 11.838 3.1258 11.9982C3.22823 11.9202 3.63268 11.6165 3.7386 11.648C3.82614 11.6716 4.07914 12.2415 4.2017 12.1627C4.53349 11.9491 4.60177 11.7557 4.96945 12.0192C5.25308 12.2231 5.51134 12.7939 5.86676 12.8718C6.22218 12.9497 6.35962 12.414 6.70454 12.2424C7.03632 12.0761 6.82272 12.1093 7.10898 12.2923C7.27006 12.3956 7.35147 12.533 7.55632 12.5794C7.605 12.4136 7.66198 12.2502 7.72703 12.0901C7.93976 12.1444 8.28905 12.4936 8.47202 12.6661C8.5775 12.4959 8.71447 12.3473 8.87559 12.2284C8.98151 12.3676 9.08044 12.5689 9.22576 12.6924C9.32205 12.5453 9.40084 12.3299 9.56542 12.2407C10.0189 12.6967 10.1843 13.2413 10.7718 13.5853C10.8103 13.0819 10.9346 12.8692 11.1981 12.4402C11.3986 12.5934 11.5439 12.8228 11.7487 12.9804C11.9238 12.8053 12.0035 12.5278 12.2013 12.3422C12.5384 12.5322 13.0076 13.229 13.363 13.0636C13.8007 12.8596 13.8629 12.0218 14.0957 11.676C14.3505 11.8327 14.3864 12.1934 14.586 12.3763C14.6572 12.2475 14.7502 12.132 14.8609 12.0349C15.1568 12.2205 15.3546 12.6547 15.6487 12.8885C15.8545 12.618 16.0628 12.2757 16.2615 11.9868C16.4296 12.1689 16.6213 12.4945 16.8927 12.5252C16.9286 12.3772 16.9575 12.2415 17.0013 12.098C17.0361 12.116 17.07 12.1359 17.1028 12.1575C17.4241 12.0393 18.0281 12.962 18.5035 12.9252C18.493 12.512 18.5394 12.0612 18.57 11.634C18.7871 11.6944 18.9648 11.9097 19.2065 11.9211C19.1968 11.8336 19.2397 11.7163 19.224 11.6322C19.5697 11.9069 19.9792 12.0897 20.4145 12.1636C20.4315 11.8443 20.4068 11.5241 20.341 11.2112C20.5231 11.3241 20.7314 11.4922 20.9661 11.4598C20.9521 11.3582 20.9993 11.2234 20.9818 11.1236C21.6165 11.1998 22.1111 11.8555 22.8202 11.7609C22.8657 11.3171 22.6898 10.9118 22.7327 10.4679C22.8666 10.5117 22.9953 10.5616 23.1161 10.608C23.173 10.1554 22.73 9.3824 22.4735 9.05674L22.3799 8.95607Z" fill="#559933"/>
<path d="M6.56624 4.31428C6.45944 4.506 5.74072 5.18358 5.52186 5.00499C5.27762 4.80452 5.76961 4.19173 5.82914 3.993C5.56651 4.10856 5.1962 4.44297 4.89331 4.38782C4.53176 4.32304 4.5195 3.84506 4.63944 3.56667C4.28927 3.92209 3.90145 3.81617 3.93034 3.29004C3.8892 3.60169 3.62657 3.92122 3.53903 4.23725C3.42806 4.58323 3.37684 4.94558 3.38758 5.30877C3.6362 5.33415 3.91283 5.08903 4.11856 4.96647C4.13782 5.17833 4.03102 5.52324 4.13344 5.6922C4.32516 5.61429 4.65169 5.07415 4.85654 5.13368C4.94408 5.15732 5.10516 6.03537 5.26799 5.96096C5.54375 5.83402 5.79324 5.63792 6.05587 5.47685C6.3185 5.76924 6.29574 5.91456 6.60564 5.67819C6.79998 5.53112 7.02847 5.10479 7.17554 4.89031C7.01794 4.95271 6.85653 5.00505 6.6923 5.04701C6.67101 4.8012 6.68694 4.55359 6.73958 4.31253L6.56624 4.31428Z" fill="#559933"/>
</g>
</g>
<defs>
<filter id="filter0_i_192_4877" x="0.89502" y="0" width="23" height="17.8311" filterUnits="userSpaceOnUse" color-interpolation-filters="sRGB">
<feFlood flood-opacity="0" result="BackgroundImageFix"/>
<feBlend mode="normal" in="SourceGraphic" in2="BackgroundImageFix" result="shape"/>
<feColorMatrix in="SourceAlpha" type="matrix" values="0 0 0 0 0 0 0 0 0 0 0 0 0 0 0 0 0 0 127 0" result="hardAlpha"/>
<feOffset dy="4"/>
<feGaussianBlur stdDeviation="2"/>
<feComposite in2="hardAlpha" operator="arithmetic" k2="-1" k3="1"/>
<feColorMatrix type="matrix" values="0 0 0 0 0 0 0 0 0 0 0 0 0 0 0 0 0 0 0.25 0"/>
<feBlend mode="normal" in2="shape" result="effect1_innerShadow_192_4877"/>
</filter>
<filter id="filter1_i_192_4877" x="0.128296" y="1.5332" width="23" height="16.0381" filterUnits="userSpaceOnUse" color-interpolation-filters="sRGB">
<feFlood flood-opacity="0" result="BackgroundImageFix"/>
<feBlend mode="normal" in="SourceGraphic" in2="BackgroundImageFix" result="shape"/>
<feColorMatrix in="SourceAlpha" type="matrix" values="0 0 0 0 0 0 0 0 0 0 0 0 0 0 0 0 0 0 127 0" result="hardAlpha"/>
<feOffset dy="4"/>
<feGaussianBlur stdDeviation="2"/>
<feComposite in2="hardAlpha" operator="arithmetic" k2="-1" k3="1"/>
<feColorMatrix type="matrix" values="0 0 0 0 0 0 0 0 0 0 0 0 0 0 0 0 0 0 0.25 0"/>
<feBlend mode="normal" in2="shape" result="effect1_innerShadow_192_4877"/>
</filter>
<clipPath id="clip0_192_4877">
<rect width="23" height="13.8306" fill="white" transform="matrix(-1 0 0 1 23.895 0)"/>
</clipPath>
<clipPath id="clip1_192_4877">
<rect width="23" height="12.0379" fill="white" transform="matrix(-1 0 0 1 23.1283 1.5332)"/>
</clipPath>
</defs>
</svg>
