<svg width="66" height="76" viewBox="0 0 66 76" fill="none" xmlns="http://www.w3.org/2000/svg">
<g clip-path="url(#clip0_1161_631)" filter="url(#filter0_d_1161_631)">
<path d="M45.0585 31.3359H19.2445V60.6896H45.0585V31.3359Z" fill="#99D4E0"/>
<path d="M45.6363 27.8516H18.6667C18.0865 27.8516 17.6161 28.3219 17.6161 28.9021V31.6337C17.6161 32.2139 18.0865 32.6842 18.6667 32.6842H45.6363C46.2166 32.6842 46.6869 32.2139 46.6869 31.6337V28.9021C46.6869 28.3219 46.2166 27.8516 45.6363 27.8516Z" fill="#4ECCB6"/>
<g style="mix-blend-mode:screen" opacity="0.3">
<g style="mix-blend-mode:multiply" opacity="0.3">
<path d="M20.6403 33.3473L19.9017 34.0859L20.6403 34.8245L21.3789 34.0859L20.6403 33.3473Z" fill="#99D4E0"/>
</g>
<g style="mix-blend-mode:multiply" opacity="0.3">
<path d="M22.9438 33.3473L22.2052 34.0859L22.9438 34.8245L23.6824 34.0859L22.9438 33.3473Z" fill="#99D4E0"/>
</g>
<g style="mix-blend-mode:multiply" opacity="0.3">
<path d="M25.2486 33.3454L24.51 34.084L25.2486 34.8226L25.9872 34.084L25.2486 33.3454Z" fill="#99D4E0"/>
</g>
<g style="mix-blend-mode:multiply" opacity="0.3">
<path d="M27.5519 33.3473L26.8134 34.0859L27.5519 34.8245L28.2905 34.0859L27.5519 33.3473Z" fill="#99D4E0"/>
</g>
<g style="mix-blend-mode:multiply" opacity="0.3">
<path d="M29.8554 33.3473L29.1168 34.0859L29.8554 34.8245L30.594 34.0859L29.8554 33.3473Z" fill="#99D4E0"/>
</g>
<g style="mix-blend-mode:multiply" opacity="0.3">
<path d="M32.1588 33.3473L31.4202 34.0859L32.1588 34.8245L32.8973 34.0859L32.1588 33.3473Z" fill="#99D4E0"/>
</g>
<g style="mix-blend-mode:multiply" opacity="0.3">
<path d="M34.4601 33.3473L33.7216 34.0859L34.4601 34.8245L35.1987 34.0859L34.4601 33.3473Z" fill="#99D4E0"/>
</g>
<g style="mix-blend-mode:multiply" opacity="0.3">
<path d="M36.7636 33.3464L36.025 34.085L36.7636 34.8236L37.5022 34.085L36.7636 33.3464Z" fill="#99D4E0"/>
</g>
<g style="mix-blend-mode:multiply" opacity="0.3">
<path d="M39.067 33.3464L38.3284 34.085L39.067 34.8236L39.8055 34.085L39.067 33.3464Z" fill="#99D4E0"/>
</g>
<g style="mix-blend-mode:multiply" opacity="0.3">
<path d="M41.3704 33.3483L40.6318 34.0869L41.3704 34.8255L42.109 34.0869L41.3704 33.3483Z" fill="#99D4E0"/>
</g>
<g style="mix-blend-mode:multiply" opacity="0.3">
<path d="M43.6738 33.3483L42.9352 34.0869L43.6738 34.8255L44.4124 34.0869L43.6738 33.3483Z" fill="#99D4E0"/>
</g>
</g>
<g style="mix-blend-mode:screen" opacity="0.3">
<g style="mix-blend-mode:multiply" opacity="0.3">
<path d="M20.6392 56.2184L19.9006 56.957L20.6392 57.6956L21.3778 56.957L20.6392 56.2184Z" fill="#99D4E0"/>
</g>
<g style="mix-blend-mode:multiply" opacity="0.3">
<path d="M22.9426 56.2175L22.204 56.9561L22.9426 57.6946L23.6812 56.9561L22.9426 56.2175Z" fill="#99D4E0"/>
</g>
<g style="mix-blend-mode:multiply" opacity="0.3">
<path d="M25.2475 56.2165L24.5089 56.9551L25.2475 57.6937L25.9861 56.9551L25.2475 56.2165Z" fill="#99D4E0"/>
</g>
<g style="mix-blend-mode:multiply" opacity="0.3">
<path d="M27.5508 56.2165L26.8123 56.9551L27.5508 57.6937L28.2894 56.9551L27.5508 56.2165Z" fill="#99D4E0"/>
</g>
<g style="mix-blend-mode:multiply" opacity="0.3">
<path d="M29.8543 56.2155L29.1157 56.9541L29.8543 57.6927L30.5929 56.9541L29.8543 56.2155Z" fill="#99D4E0"/>
</g>
<g style="mix-blend-mode:multiply" opacity="0.3">
<path d="M32.1577 56.2175L31.4191 56.9561L32.1577 57.6946L32.8962 56.9561L32.1577 56.2175Z" fill="#99D4E0"/>
</g>
<g style="mix-blend-mode:multiply" opacity="0.3">
<path d="M34.4611 56.2175L33.7225 56.9561L34.4611 57.6946L35.1997 56.9561L34.4611 56.2175Z" fill="#99D4E0"/>
</g>
<g style="mix-blend-mode:multiply" opacity="0.3">
<path d="M36.7645 56.2175L36.0259 56.9561L36.7645 57.6946L37.5031 56.9561L36.7645 56.2175Z" fill="#99D4E0"/>
</g>
<g style="mix-blend-mode:multiply" opacity="0.3">
<path d="M39.0679 56.2175L38.3293 56.9561L39.0679 57.6946L39.8065 56.956L39.0679 56.2175Z" fill="#99D4E0"/>
</g>
<g style="mix-blend-mode:multiply" opacity="0.3">
<path d="M41.3713 56.2165L40.6327 56.9551L41.3713 57.6937L42.1099 56.9551L41.3713 56.2165Z" fill="#99D4E0"/>
</g>
<g style="mix-blend-mode:multiply" opacity="0.3">
<path d="M43.6727 56.2165L42.9341 56.9551L43.6727 57.6937L44.4113 56.9551L43.6727 56.2165Z" fill="#99D4E0"/>
</g>
</g>
<g opacity="0.4">
<g style="mix-blend-mode:multiply" opacity="0.4">
<path d="M19.464 30.7042L18.6497 31.5186L19.464 32.3329L20.2783 31.5186L19.464 30.7042Z" fill="#4ECCB6"/>
</g>
<g style="mix-blend-mode:multiply" opacity="0.4">
<path d="M22.0031 30.7052L21.1888 31.5195L22.0031 32.3338L22.8175 31.5195L22.0031 30.7052Z" fill="#4ECCB6"/>
</g>
<g style="mix-blend-mode:multiply" opacity="0.4">
<path d="M24.5425 30.7033L23.7281 31.5176L24.5425 32.3319L25.3568 31.5176L24.5425 30.7033Z" fill="#4ECCB6"/>
</g>
<g style="mix-blend-mode:multiply" opacity="0.4">
<path d="M27.0803 30.7052L26.266 31.5195L27.0803 32.3338L27.8946 31.5195L27.0803 30.7052Z" fill="#4ECCB6"/>
</g>
<g style="mix-blend-mode:multiply" opacity="0.4">
<path d="M29.6195 30.7033L28.8052 31.5176L29.6195 32.3319L30.4338 31.5176L29.6195 30.7033Z" fill="#4ECCB6"/>
</g>
<g style="mix-blend-mode:multiply" opacity="0.4">
<path d="M32.1573 30.7052L31.343 31.5195L32.1573 32.3338L32.9716 31.5195L32.1573 30.7052Z" fill="#4ECCB6"/>
</g>
<g style="mix-blend-mode:multiply" opacity="0.4">
<path d="M34.6966 30.7033L33.8823 31.5176L34.6966 32.3319L35.5109 31.5176L34.6966 30.7033Z" fill="#4ECCB6"/>
</g>
<g style="mix-blend-mode:multiply" opacity="0.4">
<path d="M37.2358 30.7033L36.4215 31.5176L37.2358 32.3319L38.0501 31.5176L37.2358 30.7033Z" fill="#4ECCB6"/>
</g>
<g style="mix-blend-mode:multiply" opacity="0.4">
<path d="M39.7737 30.7033L38.9594 31.5176L39.7737 32.3319L40.588 31.5176L39.7737 30.7033Z" fill="#4ECCB6"/>
</g>
<g style="mix-blend-mode:multiply" opacity="0.4">
<path d="M42.3128 30.7033L41.4985 31.5176L42.3128 32.3319L43.1271 31.5176L42.3128 30.7033Z" fill="#4ECCB6"/>
</g>
<g style="mix-blend-mode:multiply" opacity="0.4">
<path d="M44.8507 30.7033L44.0364 31.5176L44.8507 32.3319L45.665 31.5176L44.8507 30.7033Z" fill="#4ECCB6"/>
</g>
</g>
<g style="mix-blend-mode:multiply" opacity="0.3">
<path d="M42.8604 37.7773L37.5085 43.1293L32.1566 37.7773L26.8047 43.1293L21.4528 37.7773L19.2445 39.9856V49.3661L21.4528 51.5743L26.8047 46.2224L32.1566 51.5743L37.5085 46.2224L42.8604 51.5743L45.0606 49.3762V39.9755L42.8604 37.7773Z" fill="#4ECCB6"/>
</g>
<path d="M33.6779 2.12009C33.6779 2.42178 33.5885 2.71669 33.4209 2.96754C33.2532 3.21838 33.015 3.41389 32.7363 3.52935C32.4576 3.6448 32.1509 3.675 31.855 3.61615C31.5591 3.55729 31.2873 3.41201 31.074 3.19869C30.8606 2.98536 30.7154 2.71357 30.6565 2.41768C30.5977 2.12178 30.6279 1.81508 30.7433 1.53636C30.8588 1.25764 31.0543 1.01941 31.3051 0.851797C31.556 0.684188 31.8509 0.594727 32.1526 0.594727C32.5571 0.594727 32.9451 0.755434 33.2312 1.0415C33.5172 1.32756 33.6779 1.71554 33.6779 2.12009Z" fill="#FC869A"/>
<path d="M31.9525 3.91826C28.2937 8.81761 24.6085 13.6159 20.5476 18.0486C18.0141 20.8145 14.9997 23.346 12.5753 26.3664H24.9661C26.4173 18.5251 28.8331 10.8935 32.1586 3.64551L32.0677 3.75057C32.0592 3.76835 32.0491 3.78526 32.0374 3.80107L31.9525 3.91826Z" fill="#FFF677"/>
<path d="M20.5477 18.049C24.6086 13.6042 28.2937 8.81802 31.9525 3.91867L32.0374 3.80149C32.0491 3.78567 32.0593 3.76876 32.0677 3.75098C24.2227 12.9436 15.0725 20.7523 5.13037 26.3668H12.5754C14.9998 23.3464 18.0141 20.8149 20.5477 18.049Z" fill="#FC869A"/>
<path d="M51.756 26.3664C48.9154 22.756 45.2808 19.776 42.3149 16.4444C38.7934 12.4866 35.577 8.22565 32.3626 3.91826L32.2778 3.80107L32.1586 3.64551C35.4801 10.8948 37.8952 18.526 39.349 26.3664H51.756Z" fill="#FFF677"/>
<path d="M32.3626 3.91826C35.577 8.22565 38.7934 12.4866 42.3149 16.4444C45.2808 19.776 48.9154 22.756 51.756 26.3664H59.1747C49.1962 20.7397 40.0117 12.8765 32.1586 3.64551L32.2778 3.80107L32.3626 3.91826Z" fill="#FC869A"/>
<path d="M39.3491 26.3664C37.8952 18.526 35.4802 10.8948 32.1586 3.64551C28.8332 10.8935 26.4173 18.5251 24.9662 26.3664H39.3491Z" fill="#FC869A"/>
<path d="M23.1539 29.7668H5.15454V27.3525C5.76065 17.7679 22.5498 17.7679 23.1539 27.3525V29.7668Z" fill="#FFEBB0"/>
<path d="M21.2628 26.2654C21.342 26.2464 21.4242 26.2439 21.5044 26.2582C21.5845 26.2724 21.6609 26.3031 21.7286 26.3483C21.7963 26.3935 21.8539 26.4523 21.8978 26.5208C21.9417 26.5894 21.971 26.6663 21.9837 26.7468C21.9964 26.8272 21.9924 26.9094 21.9718 26.9881C21.9512 27.0669 21.9145 27.1406 21.8641 27.2045C21.8136 27.2684 21.7505 27.3212 21.6787 27.3595C21.6068 27.3978 21.5278 27.4208 21.4467 27.4271C21.299 27.4333 21.1538 27.3869 21.037 27.2963C20.9201 27.2057 20.8391 27.0767 20.8082 26.9322C20.7916 26.785 20.8283 26.6368 20.9118 26.5144C20.9952 26.392 21.1198 26.3037 21.2628 26.2654Z" fill="white"/>
<path d="M20.1637 24.134C20.2281 24.0853 20.3018 24.0504 20.3803 24.0313C20.4588 24.0123 20.5403 24.0095 20.6199 24.0233C20.6995 24.037 20.7754 24.0669 20.8429 24.1112C20.9105 24.1555 20.9682 24.2131 21.0125 24.2806C21.0569 24.3481 21.0869 24.424 21.1007 24.5035C21.1146 24.5831 21.1119 24.6647 21.0929 24.7432C21.074 24.8217 21.0391 24.8954 20.9905 24.9599C20.9418 25.0244 20.8805 25.0781 20.8102 25.1179C20.6791 25.1903 20.5258 25.2116 20.3799 25.1776C20.2341 25.1437 20.1059 25.0569 20.0202 24.9341C19.9408 24.8067 19.9115 24.6543 19.938 24.5064C19.9645 24.3586 20.0449 24.2259 20.1637 24.134Z" fill="white"/>
<path d="M18.2605 22.6754C18.2979 22.6044 18.3494 22.5418 18.4118 22.4914C18.4742 22.4409 18.5463 22.4038 18.6235 22.3822C18.7008 22.3606 18.7817 22.3549 18.8612 22.3656C18.9407 22.3763 19.0172 22.4031 19.086 22.4444C19.1548 22.4857 19.2145 22.5406 19.2614 22.6057C19.3082 22.6708 19.3413 22.7448 19.3586 22.8232C19.3759 22.9015 19.377 22.9826 19.3619 23.0614C19.3468 23.1402 19.3157 23.2151 19.2707 23.2815C19.1839 23.4084 19.0522 23.4975 18.9021 23.5309C18.7521 23.5643 18.595 23.5394 18.4626 23.4613C18.3377 23.3785 18.2479 23.2523 18.2106 23.1071C18.1733 22.962 18.1911 22.8082 18.2605 22.6754Z" fill="white"/>
<path d="M15.9716 21.9293C15.9864 21.8504 16.0172 21.7753 16.062 21.7087C16.1069 21.6421 16.1648 21.5854 16.2324 21.5419C16.2999 21.4985 16.3756 21.4693 16.4548 21.4562C16.534 21.4431 16.6151 21.4462 16.693 21.4655C16.771 21.4848 16.8442 21.5198 16.9081 21.5683C16.9721 21.6169 17.0254 21.678 17.0649 21.7479C17.1044 21.8178 17.1293 21.895 17.1379 21.9748C17.1465 22.0547 17.1388 22.1354 17.1151 22.2121C17.0707 22.3561 16.9728 22.4776 16.8417 22.5518C16.7105 22.6259 16.556 22.647 16.4097 22.6109C16.2635 22.5747 16.1366 22.4839 16.0551 22.3572C15.9736 22.2305 15.9438 22.0774 15.9716 21.9293Z" fill="white"/>
<path d="M13.5653 21.7797C13.5606 21.6995 13.5724 21.6191 13.5999 21.5436C13.6273 21.4681 13.6699 21.3989 13.7251 21.3404C13.7802 21.282 13.8468 21.2354 13.9206 21.2035C13.9944 21.1717 14.0739 21.1553 14.1543 21.1553C14.2347 21.1553 14.3142 21.1717 14.388 21.2035C14.4618 21.2354 14.5283 21.282 14.5835 21.3404C14.6386 21.3989 14.6812 21.4681 14.7087 21.5436C14.7362 21.6191 14.7479 21.6995 14.7432 21.7797C14.7344 21.93 14.6685 22.0711 14.559 22.1744C14.4496 22.2776 14.3048 22.3352 14.1543 22.3352C14.0038 22.3352 13.859 22.2776 13.7495 22.1744C13.64 22.0711 13.5741 21.93 13.5653 21.7797Z" fill="white"/>
<path d="M11.1954 22.2128C11.1768 22.1379 11.1732 22.06 11.1847 21.9837C11.1962 21.9073 11.2227 21.834 11.2625 21.7678C11.3024 21.7017 11.3549 21.6441 11.417 21.5982C11.4792 21.5524 11.5497 21.5192 11.6247 21.5007C11.6996 21.4821 11.7775 21.4785 11.8539 21.49C11.9302 21.5015 12.0036 21.528 12.0697 21.5678C12.1358 21.6077 12.1935 21.6602 12.2393 21.7223C12.2851 21.7845 12.3183 21.855 12.3369 21.93C12.3744 22.0814 12.3502 22.2414 12.2697 22.375C12.1892 22.5085 12.0589 22.6046 11.9075 22.6422C11.7562 22.6797 11.5961 22.6555 11.4625 22.575C11.329 22.4945 11.2329 22.3642 11.1954 22.2128Z" fill="white"/>
<path d="M9.03973 23.2834C8.99469 23.2171 8.96366 23.1422 8.94855 23.0634C8.93343 22.9846 8.93456 22.9035 8.95184 22.8252C8.96913 22.7468 9.00222 22.6728 9.04908 22.6077C9.09595 22.5425 9.15561 22.4877 9.22441 22.4464C9.29321 22.4051 9.36971 22.3783 9.44923 22.3676C9.52875 22.3569 9.60962 22.3625 9.68689 22.3841C9.76416 22.4057 9.8362 22.4429 9.89862 22.4933C9.96104 22.5437 10.0125 22.6064 10.0499 22.6773C10.1202 22.8108 10.1367 22.966 10.0961 23.1112C10.0554 23.2564 9.96075 23.3805 9.83145 23.4581C9.70216 23.5357 9.54807 23.5608 9.40083 23.5283C9.25359 23.4959 9.12438 23.4082 9.03973 23.2834Z" fill="white"/>
<path d="M7.50023 25.1181C7.43563 25.0758 7.37999 25.0212 7.3365 24.9574C7.293 24.8936 7.26251 24.8218 7.24675 24.7462C7.23099 24.6706 7.23028 24.5926 7.24465 24.5167C7.25902 24.4409 7.2882 24.3685 7.33052 24.3039C7.37284 24.2393 7.42747 24.1837 7.49129 24.1402C7.55511 24.0967 7.62687 24.0662 7.70247 24.0505C7.77808 24.0347 7.85605 24.034 7.93193 24.0484C8.00781 24.0627 8.08012 24.0919 8.14472 24.1342C8.26405 24.2275 8.34484 24.3615 8.37167 24.5105C8.39851 24.6596 8.3695 24.8133 8.29019 24.9424C8.2033 25.0639 8.07463 25.149 7.92884 25.1814C7.78306 25.2138 7.63043 25.1913 7.50023 25.1181Z" fill="white"/>
<path d="M6.85776 27.4271C6.77658 27.4208 6.69759 27.3978 6.62575 27.3595C6.55391 27.3212 6.49079 27.2684 6.44034 27.2045C6.3899 27.1406 6.35323 27.0669 6.33264 26.9881C6.31206 26.9094 6.308 26.8272 6.32073 26.7468C6.33346 26.6663 6.36269 26.5894 6.4066 26.5208C6.4505 26.4523 6.50812 26.3935 6.57584 26.3483C6.64355 26.3031 6.71989 26.2724 6.80005 26.2582C6.88021 26.2439 6.96245 26.2464 7.04161 26.2654C7.18467 26.3037 7.30925 26.392 7.39267 26.5144C7.4761 26.6368 7.51283 26.785 7.49619 26.9322C7.46531 27.0767 7.38429 27.2057 7.26744 27.2963C7.1506 27.3869 7.00548 27.4333 6.85776 27.4271Z" fill="white"/>
<path d="M16.5251 25.1585C16.4059 25.1282 16.2786 25.0979 16.1453 25.0696C15.8342 25.0009 15.4907 24.9343 15.1351 24.8676C15.0381 24.6837 14.9331 24.5039 14.8442 24.3322C14.7715 24.2029 14.6967 24.0797 14.626 23.9605C14.5553 23.8413 14.4825 23.7301 14.424 23.6271C14.4009 23.5783 14.3644 23.537 14.3188 23.5081C14.2732 23.4792 14.2204 23.4639 14.1664 23.4639C14.1124 23.4639 14.0595 23.4792 14.0139 23.5081C13.9683 23.537 13.9318 23.5783 13.9088 23.6271C13.8401 23.7301 13.7694 23.8433 13.7067 23.9605L13.4885 24.3322C13.3916 24.5039 13.2865 24.6837 13.1976 24.8676C12.84 24.9282 12.4965 24.9949 12.1874 25.0696C12.0541 25.0979 11.9248 25.1282 11.8056 25.1585C11.551 25.2272 11.5106 25.4434 11.6763 25.6555C11.7571 25.7545 11.8399 25.8576 11.9288 25.9626C12.0177 26.0677 12.1107 26.1647 12.2076 26.2839C12.3369 26.4293 12.4723 26.5768 12.6117 26.7243C12.5652 27.0758 12.5268 27.4132 12.4945 27.7345C12.4824 27.8698 12.4703 28.0032 12.4582 28.1385C12.4339 28.4194 12.6339 28.5204 12.8966 28.4032L13.6259 28.0719C13.7976 27.9951 13.9734 27.9183 14.1532 27.8355L14.6826 28.0719C14.9432 28.185 15.1917 28.2901 15.4321 28.3972C15.6725 28.5042 15.8948 28.4133 15.8705 28.1325C15.8604 28.0052 15.8483 27.8719 15.8342 27.7284C15.8018 27.4132 15.7634 27.0758 15.717 26.7182C15.8584 26.5708 15.9958 26.4233 16.121 26.2778C16.22 26.1687 16.313 26.0616 16.4019 25.9566C16.4908 25.8515 16.5736 25.7545 16.6524 25.6495C16.8181 25.4454 16.7797 25.2272 16.5251 25.1585Z" fill="#FFD84F"/>
<path d="M11.2682 27.5322C10.1974 27.5564 9.44986 27.1665 9.29833 26.522C9.26321 26.3923 9.25955 26.2561 9.28766 26.1247C9.31577 25.9932 9.37484 25.8704 9.45996 25.7664C9.52753 25.6864 9.61315 25.6237 9.70975 25.5833C9.80635 25.5429 9.91116 25.526 10.0156 25.5341C10.1204 25.5391 10.2218 25.5736 10.3079 25.6336C10.3941 25.6937 10.4615 25.7768 10.5025 25.8735C10.5326 25.9524 10.5391 26.0384 10.5212 26.1209C10.5032 26.2034 10.4616 26.2789 10.4014 26.3382C10.3722 26.369 10.3565 26.4101 10.3576 26.4526C10.3587 26.495 10.3767 26.5353 10.4075 26.5645C10.4383 26.5937 10.4795 26.6094 10.5219 26.6083C10.5643 26.6072 10.6046 26.5892 10.6338 26.5584C10.7376 26.4548 10.8087 26.3229 10.8382 26.1792C10.8676 26.0355 10.8542 25.8864 10.7995 25.7503C10.7385 25.5966 10.6347 25.4637 10.5004 25.3673C10.3661 25.271 10.2069 25.2153 10.0418 25.2068C9.8878 25.1954 9.73326 25.2202 9.5905 25.2791C9.44775 25.3381 9.32072 25.4295 9.21954 25.5462C9.10166 25.6879 9.01912 25.8556 8.97873 26.0354C8.93834 26.2153 8.94124 26.4021 8.9872 26.5806C9.02055 26.7363 9.08292 26.8844 9.17105 27.017C9.08326 27.0203 8.99629 27.0352 8.91245 27.0615C8.81336 27.0918 8.72225 27.1438 8.64573 27.2137C8.5692 27.2836 8.50918 27.3696 8.46999 27.4655C8.42797 27.5736 8.413 27.6902 8.42638 27.8054C8.43977 27.9205 8.48109 28.0307 8.54676 28.1262C8.60949 28.2186 8.69379 28.2943 8.79236 28.3467C8.89093 28.3992 9.0008 28.4268 9.11246 28.4272C9.23724 28.4367 9.36129 28.4012 9.46211 28.327C9.56293 28.2529 9.63385 28.1451 9.662 28.0231C9.66482 27.9807 9.651 27.9388 9.62347 27.9064C9.59594 27.8739 9.55686 27.8535 9.51451 27.8494C9.49364 27.8475 9.4726 27.8497 9.45261 27.856C9.43262 27.8623 9.41409 27.8725 9.3981 27.8861C9.3821 27.8996 9.36898 27.9162 9.35948 27.9349C9.34998 27.9536 9.3443 27.974 9.34278 27.9949C9.31807 28.0325 9.28358 28.0627 9.24301 28.0823C9.20244 28.1019 9.15732 28.1101 9.11246 28.106C9.05246 28.1053 8.99351 28.0901 8.94072 28.0616C8.88792 28.0331 8.84285 27.9922 8.80941 27.9423C8.77327 27.8897 8.75068 27.829 8.74363 27.7656C8.73658 27.7021 8.7453 27.6379 8.769 27.5787C8.78973 27.5252 8.8226 27.4773 8.86503 27.4387C8.90746 27.4002 8.95827 27.372 9.01346 27.3564C9.10949 27.3284 9.21032 27.3207 9.30948 27.3339C9.40865 27.3471 9.50395 27.381 9.58926 27.4332L9.60947 27.4433C10.0809 27.7275 10.6251 27.8679 11.1752 27.8474H11.2742C11.3166 27.8474 11.3572 27.8306 11.3871 27.8006C11.417 27.7707 11.4338 27.7301 11.4338 27.6878C11.4338 27.6454 11.417 27.6048 11.3871 27.5749C11.3572 27.545 11.3166 27.5282 11.2742 27.5282L11.2682 27.5322Z" fill="#FC9DB2"/>
<path d="M17.0424 27.532C18.1131 27.5562 18.8607 27.1663 19.0122 26.5218C19.0478 26.3921 19.0517 26.2558 19.0236 26.1243C18.9955 25.9928 18.9361 25.87 18.8506 25.7662C18.783 25.6862 18.6974 25.6235 18.6008 25.5831C18.5042 25.5427 18.3994 25.5258 18.295 25.5339C18.1904 25.539 18.0894 25.5736 18.0036 25.6336C17.9178 25.6937 17.8507 25.7768 17.8101 25.8733C17.7791 25.9519 17.772 26.0379 17.7896 26.1205C17.8072 26.2032 17.8488 26.2788 17.9091 26.338C17.924 26.3528 17.9358 26.3704 17.9439 26.3899C17.952 26.4093 17.9561 26.4301 17.9561 26.4511C17.9561 26.4721 17.952 26.493 17.9439 26.5124C17.9358 26.5318 17.924 26.5494 17.9091 26.5643C17.8944 26.5791 17.877 26.5909 17.8577 26.5989C17.8385 26.607 17.8178 26.6111 17.797 26.6111C17.7761 26.6111 17.7554 26.607 17.7362 26.5989C17.7169 26.5909 17.6995 26.5791 17.6848 26.5643C17.5802 26.4612 17.5084 26.3294 17.4785 26.1856C17.4487 26.0418 17.4621 25.8923 17.5171 25.7561C17.5785 25.6027 17.6824 25.4701 17.8166 25.3738C17.9509 25.2775 18.1098 25.2216 18.2748 25.2126C18.4288 25.2013 18.5833 25.2261 18.7261 25.285C18.8688 25.3439 18.9959 25.4354 19.097 25.5521C19.2149 25.6938 19.2975 25.8614 19.3379 26.0413C19.3783 26.2211 19.3753 26.408 19.3294 26.5865C19.296 26.7422 19.2337 26.8902 19.1455 27.0229C19.234 27.0262 19.3216 27.0412 19.4062 27.0673C19.5048 27.0968 19.5956 27.1477 19.6721 27.2166C19.7487 27.2854 19.8089 27.3704 19.8486 27.4653C19.8912 27.5733 19.9064 27.69 19.893 27.8053C19.8796 27.9205 19.838 28.0307 19.7718 28.126C19.7092 28.2185 19.625 28.2943 19.5264 28.3467C19.4278 28.3992 19.3178 28.4268 19.2061 28.427C19.0816 28.4364 18.9578 28.4008 18.8574 28.3266C18.7569 28.2525 18.6864 28.1447 18.6586 28.0229C18.6567 28.002 18.6589 27.9808 18.6652 27.9607C18.6715 27.9406 18.6817 27.9219 18.6952 27.9058C18.7087 27.8896 18.7253 27.8763 18.744 27.8666C18.7627 27.8569 18.7831 27.851 18.8041 27.8492C18.825 27.8473 18.846 27.8495 18.866 27.8558C18.886 27.8621 18.9045 27.8723 18.9205 27.8859C18.9365 27.8994 18.9496 27.916 18.9591 27.9347C18.9686 27.9534 18.9743 27.9738 18.9758 27.9947C19.0009 28.032 19.0354 28.062 19.0759 28.0815C19.1164 28.1011 19.1613 28.1094 19.2061 28.1058C19.2661 28.1051 19.3251 28.0899 19.3779 28.0614C19.4307 28.0329 19.4758 27.992 19.5092 27.9421C19.5453 27.8895 19.5679 27.8288 19.575 27.7654C19.582 27.7019 19.5733 27.6377 19.5496 27.5785C19.5294 27.5251 19.4969 27.4771 19.4548 27.4386C19.4127 27.4 19.3621 27.3718 19.3072 27.3562C19.2108 27.3281 19.1096 27.3204 19.0102 27.3336C18.9107 27.3469 18.815 27.3807 18.7293 27.433L18.7091 27.4431C18.2382 27.7269 17.6948 27.8673 17.1454 27.8472H17.0444C17.002 27.8472 16.9614 27.8304 16.9315 27.8004C16.9016 27.7705 16.8848 27.7299 16.8848 27.6876C16.8848 27.6452 16.9016 27.6046 16.9315 27.5747C16.9614 27.5448 17.002 27.528 17.0444 27.528L17.0424 27.532Z" fill="#FC9DB2"/>
<path d="M41.1512 29.7668H23.1539V27.3525C23.76 17.7679 40.5491 17.7679 41.1512 27.3525V29.7668Z" fill="#FFEBB0"/>
<path d="M39.2662 26.2657C39.3455 26.2464 39.4279 26.2438 39.5082 26.2581C39.5885 26.2723 39.665 26.303 39.7329 26.3484C39.8007 26.3937 39.8585 26.4525 39.9024 26.5213C39.9463 26.59 39.9755 26.6671 39.9881 26.7477C40.0008 26.8283 39.9965 26.9107 39.9757 26.9896C39.9549 27.0684 39.9179 27.1421 39.8671 27.206C39.8164 27.2699 39.7529 27.3225 39.6808 27.3606C39.6086 27.3987 39.5294 27.4214 39.448 27.4274C39.3004 27.4331 39.1555 27.3866 39.0387 27.2961C38.922 27.2055 38.8408 27.0768 38.8096 26.9324C38.7935 26.785 38.8307 26.6368 38.9144 26.5145C38.9982 26.3922 39.123 26.3039 39.2662 26.2657Z" fill="white"/>
<path d="M38.1631 24.1342C38.2935 24.0488 38.4526 24.0186 38.6053 24.0505C38.758 24.0823 38.8918 24.1735 38.9773 24.3039C39.0627 24.4344 39.0929 24.5935 39.061 24.7462C39.0292 24.8989 38.938 25.0327 38.8076 25.1181C38.743 25.1605 38.6707 25.1896 38.5948 25.204C38.5189 25.2184 38.4409 25.2177 38.3653 25.2019C38.2897 25.1862 38.218 25.1557 38.1541 25.1122C38.0903 25.0687 38.0357 25.013 37.9934 24.9484C37.9079 24.818 37.8778 24.6589 37.9096 24.5062C37.9414 24.3535 38.0326 24.2197 38.1631 24.1342Z" fill="white"/>
<path d="M36.2599 22.6754C36.2973 22.6044 36.3488 22.5418 36.4112 22.4914C36.4736 22.4409 36.5457 22.4038 36.6229 22.3822C36.7002 22.3606 36.7811 22.3549 36.8606 22.3656C36.9401 22.3763 37.0166 22.4031 37.0854 22.4444C37.1542 22.4857 37.2139 22.5406 37.2607 22.6057C37.3076 22.6708 37.3407 22.7448 37.358 22.8232C37.3753 22.9015 37.3764 22.9826 37.3613 23.0614C37.3462 23.1402 37.3151 23.2151 37.2701 23.2815C37.1836 23.4052 37.0541 23.4922 36.9069 23.5254C36.7597 23.5587 36.6053 23.5358 36.4741 23.4613C36.3471 23.3803 36.2549 23.255 36.2153 23.1097C36.1757 22.9644 36.1916 22.8096 36.2599 22.6754Z" fill="white"/>
<path d="M33.9688 21.9293C33.9836 21.8504 34.0144 21.7753 34.0592 21.7087C34.104 21.6421 34.162 21.5854 34.2296 21.5419C34.2971 21.4985 34.3728 21.4693 34.452 21.4562C34.5312 21.4431 34.6123 21.4462 34.6902 21.4655C34.7682 21.4848 34.8414 21.5198 34.9053 21.5683C34.9693 21.6169 35.0226 21.678 35.0621 21.7479C35.1016 21.8178 35.1265 21.895 35.1351 21.9748C35.1437 22.0547 35.136 22.1354 35.1123 22.2121C35.0679 22.3561 34.97 22.4776 34.8389 22.5518C34.7077 22.6259 34.5532 22.647 34.4069 22.6109C34.2607 22.5747 34.1338 22.4839 34.0523 22.3572C33.9708 22.2305 33.9409 22.0774 33.9688 21.9293Z" fill="white"/>
<path d="M31.5667 21.7804C31.5667 21.6239 31.6288 21.4739 31.7394 21.3632C31.8501 21.2526 32.0001 21.1904 32.1566 21.1904C32.3131 21.1904 32.4631 21.2526 32.5737 21.3632C32.6844 21.4739 32.7465 21.6239 32.7465 21.7804C32.7465 21.9368 32.6844 22.0869 32.5737 22.1975C32.4631 22.3082 32.3131 22.3703 32.1566 22.3703C32.0001 22.3703 31.8501 22.3082 31.7394 22.1975C31.6288 22.0869 31.5667 21.9368 31.5667 21.7804Z" fill="white"/>
<path d="M29.1927 22.2121C29.1691 22.1354 29.1613 22.0547 29.1699 21.9748C29.1785 21.895 29.2034 21.8178 29.2429 21.7479C29.2824 21.678 29.3358 21.6169 29.3997 21.5683C29.4637 21.5198 29.5368 21.4848 29.6148 21.4655C29.6927 21.4462 29.7738 21.4431 29.853 21.4562C29.9322 21.4693 30.0079 21.4985 30.0755 21.5419C30.143 21.5854 30.201 21.6421 30.2458 21.7087C30.2907 21.7753 30.3214 21.8504 30.3363 21.9293C30.3641 22.0774 30.3342 22.2305 30.2527 22.3572C30.1712 22.4839 30.0444 22.5747 29.8981 22.6109C29.7518 22.647 29.5973 22.6259 29.4661 22.5518C29.335 22.4776 29.2372 22.3561 29.1927 22.2121Z" fill="white"/>
<path d="M27.037 23.2835C26.9908 23.2179 26.9589 23.1433 26.9433 23.0646C26.9277 22.9859 26.9288 22.9048 26.9465 22.8266C26.9642 22.7483 26.9981 22.6747 27.0461 22.6103C27.094 22.546 27.1549 22.4925 27.2249 22.4531C27.2926 22.4106 27.3684 22.3825 27.4475 22.3706C27.5267 22.3588 27.6074 22.3635 27.6846 22.3843C27.7618 22.4052 27.8339 22.4418 27.8963 22.4919C27.9587 22.542 28.0101 22.6045 28.0471 22.6754C28.1174 22.8088 28.1339 22.964 28.0933 23.1092C28.0527 23.2544 27.958 23.3786 27.8287 23.4561C27.6994 23.5337 27.5453 23.5588 27.3981 23.5264C27.2508 23.4939 27.1216 23.4062 27.037 23.2815V23.2835Z" fill="white"/>
<path d="M25.5056 25.1181C25.441 25.0758 25.3854 25.0212 25.3419 24.9574C25.2984 24.8936 25.2679 24.8218 25.2521 24.7462C25.2364 24.6706 25.2356 24.5926 25.25 24.5167C25.2644 24.4409 25.2936 24.3685 25.3359 24.3039C25.3782 24.2393 25.4328 24.1837 25.4967 24.1402C25.5605 24.0967 25.6322 24.0662 25.7078 24.0505C25.7835 24.0347 25.8614 24.034 25.9373 24.0484C26.0132 24.0627 26.0855 24.0919 26.1501 24.1342C26.2806 24.2197 26.3717 24.3535 26.4036 24.5062C26.4354 24.6589 26.4053 24.818 26.3198 24.9484C26.2343 25.0789 26.1005 25.1701 25.9479 25.2019C25.7952 25.2337 25.6361 25.2036 25.5056 25.1181Z" fill="white"/>
<path d="M24.857 27.4274C24.7757 27.4214 24.6964 27.3987 24.6243 27.3606C24.5521 27.3225 24.4887 27.2699 24.4379 27.206C24.3871 27.1421 24.3502 27.0684 24.3294 26.9896C24.3085 26.9107 24.3043 26.8283 24.3169 26.7477C24.3295 26.6671 24.3587 26.59 24.4027 26.5213C24.4466 26.4525 24.5043 26.3937 24.5721 26.3484C24.64 26.303 24.7165 26.2723 24.7968 26.2581C24.8772 26.2438 24.9596 26.2464 25.0389 26.2657C25.1821 26.3039 25.3069 26.3922 25.3906 26.5145C25.4744 26.6368 25.5116 26.785 25.4955 26.9324C25.4642 27.0768 25.3831 27.2055 25.2663 27.2961C25.1496 27.3866 25.0047 27.4331 24.857 27.4274Z" fill="white"/>
<path d="M34.5224 25.158C34.4032 25.1277 34.2759 25.0974 34.1426 25.0691C33.8314 25.0004 33.488 24.9337 33.1324 24.867C33.0374 24.6832 32.9304 24.5034 32.8415 24.3316C32.7687 24.2023 32.696 24.0791 32.6233 23.9599C32.5505 23.8407 32.4819 23.7296 32.4212 23.6265C32.3978 23.5778 32.3611 23.5367 32.3154 23.5079C32.2696 23.4791 32.2167 23.4639 32.1626 23.4639C32.1086 23.4639 32.0556 23.4791 32.0099 23.5079C31.9641 23.5367 31.9274 23.5778 31.904 23.6265C31.8353 23.7296 31.7646 23.8427 31.702 23.9599C31.6394 24.0771 31.5565 24.2023 31.4838 24.3316C31.3868 24.5034 31.2818 24.6832 31.1929 24.867C30.8353 24.9276 30.4898 24.9943 30.1827 25.0691C30.0493 25.0974 29.9221 25.1277 29.8029 25.158C29.5483 25.2267 29.5059 25.4428 29.6715 25.655C29.7524 25.754 29.8352 25.857 29.9241 25.9621C30.013 26.0671 30.1059 26.1641 30.2029 26.2833C30.3322 26.4288 30.4696 26.5763 30.607 26.7237C30.5605 27.0753 30.5201 27.4127 30.4898 27.7339C30.4756 27.8693 30.4635 28.0026 30.4514 28.138C30.4272 28.4188 30.6272 28.5198 30.8898 28.4027C31.1525 28.2855 31.3808 28.2006 31.6414 28.0774C31.8131 28.0006 31.9889 27.9238 32.1687 27.841C32.3485 27.9238 32.5243 28.0006 32.696 28.0774C32.9566 28.1905 33.2051 28.2956 33.4476 28.4027C33.69 28.5097 33.9102 28.4188 33.886 28.138C33.8739 28.0107 33.8618 27.8774 33.8476 27.7339C33.8173 27.4187 33.7769 27.0813 33.7304 26.7237C33.8719 26.5763 34.0092 26.4288 34.1345 26.2833C34.2315 26.1742 34.3244 26.0671 34.4133 25.9621C34.5022 25.857 34.585 25.76 34.6638 25.655C34.8194 25.4449 34.777 25.2267 34.5224 25.158Z" fill="#FFD84F"/>
<path d="M29.2654 27.5321C28.1946 27.5563 27.4471 27.1664 27.2976 26.5219C27.2619 26.3922 27.258 26.2559 27.2861 26.1244C27.3143 25.9929 27.3736 25.87 27.4592 25.7663C27.5268 25.6863 27.6124 25.6235 27.709 25.5831C27.8056 25.5427 27.9104 25.5259 28.0148 25.5339C28.1194 25.5391 28.2204 25.5737 28.3062 25.6337C28.392 25.6938 28.459 25.7768 28.4997 25.8734C28.5306 25.952 28.5377 26.038 28.5201 26.1206C28.5025 26.2032 28.461 26.2789 28.4007 26.338C28.3711 26.3683 28.3545 26.4089 28.3545 26.4512C28.3545 26.4935 28.3711 26.5341 28.4007 26.5643C28.4155 26.5792 28.4331 26.5911 28.4525 26.5991C28.472 26.6072 28.4928 26.6114 28.5138 26.6114C28.5348 26.6114 28.5557 26.6072 28.5751 26.5991C28.5945 26.5911 28.6121 26.5792 28.627 26.5643C28.7307 26.4607 28.8019 26.3289 28.8317 26.1853C28.8615 26.0417 28.8486 25.8926 28.7946 25.7562C28.7331 25.603 28.6291 25.4704 28.4949 25.3742C28.3607 25.2779 28.2019 25.2219 28.037 25.2127C27.883 25.2012 27.7284 25.2259 27.5856 25.2849C27.4428 25.3438 27.3158 25.4353 27.2147 25.5521C27.0969 25.6939 27.0143 25.8615 26.9736 26.0412C26.9328 26.221 26.9352 26.4079 26.9804 26.5865C27.0146 26.742 27.0769 26.8899 27.1642 27.0229C27.0764 27.0265 26.9895 27.0414 26.9056 27.0674C26.8066 27.0975 26.7157 27.1494 26.6394 27.2193C26.5632 27.2893 26.5037 27.3754 26.4652 27.4715C26.4221 27.5793 26.4066 27.6962 26.42 27.8115C26.4334 27.9268 26.4753 28.037 26.5419 28.1321C26.6045 28.2246 26.6888 28.3004 26.7874 28.3529C26.886 28.4053 26.996 28.4329 27.1076 28.4331C27.2322 28.4426 27.356 28.4069 27.4564 28.3328C27.5569 28.2586 27.6274 28.1508 27.6552 28.0291C27.6585 27.9868 27.6452 27.9449 27.618 27.9124C27.5908 27.8799 27.5519 27.8594 27.5097 27.8553C27.4888 27.8531 27.4676 27.8551 27.4475 27.8613C27.4274 27.8675 27.4088 27.8777 27.3927 27.8913C27.3767 27.9049 27.3635 27.9216 27.3541 27.9404C27.3447 27.9593 27.3392 27.9798 27.338 28.0008C27.3129 28.0381 27.2784 28.0681 27.2379 28.0877C27.1974 28.1072 27.1525 28.1156 27.1076 28.1119C27.0476 28.1113 26.9887 28.096 26.9359 28.0675C26.8831 28.039 26.838 27.9981 26.8046 27.9483C26.7681 27.8958 26.7452 27.8352 26.7378 27.7718C26.7304 27.7083 26.7388 27.644 26.7622 27.5846C26.7829 27.5311 26.8158 27.4832 26.8582 27.4447C26.9006 27.4061 26.9514 27.3779 27.0066 27.3624C27.103 27.3343 27.2041 27.3266 27.3036 27.3398C27.4031 27.353 27.4988 27.3868 27.5844 27.4391L27.6026 27.4492C28.0741 27.7334 28.6183 27.8739 29.1684 27.8533H29.2694C29.3118 27.8533 29.3524 27.8365 29.3823 27.8066C29.4122 27.7766 29.429 27.736 29.429 27.6937C29.429 27.6514 29.4122 27.6108 29.3823 27.5808C29.3524 27.5509 29.3118 27.5341 29.2694 27.5341L29.2654 27.5321Z" fill="#FC9DB2"/>
<path d="M35.0396 27.5321C36.1104 27.5563 36.8579 27.1664 37.0095 26.5219C37.0441 26.3921 37.0475 26.256 37.0194 26.1247C36.9913 25.9933 36.9325 25.8705 36.8478 25.7663C36.7799 25.6863 36.6939 25.6235 36.597 25.5831C36.5 25.5427 36.3949 25.5259 36.2902 25.5339C36.1856 25.5391 36.0846 25.5737 35.9988 25.6337C35.913 25.6938 35.846 25.7768 35.8053 25.8734C35.7744 25.952 35.7673 26.038 35.7849 26.1206C35.8025 26.2032 35.844 26.2789 35.9043 26.338C35.9339 26.3683 35.9505 26.4089 35.9505 26.4512C35.9505 26.4935 35.9339 26.5341 35.9043 26.5643C35.8895 26.5792 35.8719 26.5911 35.8525 26.5991C35.833 26.6072 35.8122 26.6114 35.7912 26.6114C35.7702 26.6114 35.7494 26.6072 35.7299 26.5991C35.7105 26.5911 35.6929 26.5792 35.6781 26.5643C35.5743 26.4607 35.5031 26.3289 35.4734 26.1853C35.4436 26.0417 35.4564 25.8926 35.5104 25.7562C35.5719 25.603 35.6759 25.4704 35.8101 25.3742C35.9443 25.2779 36.1031 25.2219 36.268 25.2127C36.422 25.2012 36.5766 25.2259 36.7194 25.2849C36.8622 25.3438 36.9892 25.4353 37.0903 25.5521C37.2081 25.6939 37.2907 25.8615 37.3314 26.0412C37.3722 26.221 37.3698 26.4079 37.3246 26.5865C37.2904 26.742 37.2281 26.8899 37.1408 27.0229C37.2286 27.0265 37.3155 27.0414 37.3994 27.0674C37.4984 27.0975 37.5893 27.1494 37.6656 27.2193C37.7418 27.2893 37.8013 27.3754 37.8398 27.4715C37.8829 27.5793 37.8985 27.6962 37.8851 27.8115C37.8716 27.9268 37.8297 28.037 37.7631 28.1321C37.7005 28.2246 37.6162 28.3004 37.5176 28.3529C37.419 28.4053 37.309 28.4329 37.1974 28.4331C37.0728 28.4426 36.9491 28.4069 36.8486 28.3328C36.7481 28.2586 36.6776 28.1508 36.6498 28.0291C36.6465 27.9868 36.6598 27.9449 36.687 27.9124C36.7142 27.8799 36.7531 27.8594 36.7953 27.8553C36.8162 27.8531 36.8374 27.8551 36.8575 27.8613C36.8776 27.8675 36.8962 27.8777 36.9123 27.8913C36.9283 27.9049 36.9415 27.9216 36.9509 27.9404C36.9603 27.9593 36.9658 27.9798 36.967 28.0008C36.9922 28.038 37.0268 28.0679 37.0672 28.0874C37.1077 28.1069 37.1526 28.1154 37.1974 28.1119C37.2574 28.1113 37.3163 28.096 37.3691 28.0675C37.4219 28.039 37.467 27.9981 37.5004 27.9483C37.5369 27.8958 37.5598 27.8352 37.5672 27.7718C37.5746 27.7083 37.5663 27.644 37.5428 27.5846C37.5221 27.5311 37.4892 27.4832 37.4468 27.4447C37.4044 27.4061 37.3536 27.3779 37.2984 27.3624C37.202 27.3343 37.1009 27.3266 37.0014 27.3398C36.9019 27.353 36.8062 27.3868 36.7206 27.4391L36.7024 27.4492C36.2309 27.7334 35.6867 27.8739 35.1366 27.8533H35.0356C34.9933 27.8533 34.9527 27.8365 34.9227 27.8066C34.8928 27.7766 34.876 27.736 34.876 27.6937C34.876 27.6514 34.8928 27.6108 34.9227 27.5808C34.9527 27.5509 34.9933 27.5341 35.0356 27.5341L35.0396 27.5321Z" fill="#FC9DB2"/>
<path d="M59.1504 29.7668H41.1511V27.3525C41.7572 17.7679 58.5463 17.7679 59.1504 27.3525V29.7668Z" fill="#FFEBB0"/>
<path d="M57.2634 26.2654C57.3426 26.2464 57.4248 26.2439 57.505 26.2582C57.5851 26.2724 57.6615 26.3031 57.7292 26.3483C57.7969 26.3935 57.8545 26.4523 57.8984 26.5208C57.9423 26.5894 57.9716 26.6663 57.9843 26.7468C57.997 26.8272 57.993 26.9094 57.9724 26.9881C57.9518 27.0669 57.9151 27.1406 57.8647 27.2045C57.8142 27.2684 57.7511 27.3212 57.6793 27.3595C57.6074 27.3978 57.5285 27.4208 57.4473 27.4271C57.2996 27.4333 57.1544 27.3869 57.0376 27.2963C56.9208 27.2057 56.8397 27.0767 56.8088 26.9322C56.7922 26.785 56.8289 26.6368 56.9124 26.5144C56.9958 26.392 57.1204 26.3037 57.2634 26.2654Z" fill="white"/>
<path d="M56.1603 24.134C56.2247 24.0853 56.2984 24.0504 56.3769 24.0313C56.4553 24.0123 56.5369 24.0095 56.6165 24.0233C56.696 24.037 56.772 24.0669 56.8395 24.1112C56.907 24.1555 56.9648 24.2131 57.0091 24.2806C57.0534 24.3481 57.0835 24.424 57.0973 24.5036C57.1111 24.5831 57.1085 24.6647 57.0895 24.7432C57.0705 24.8217 57.0357 24.8954 56.987 24.9599C56.9384 25.0244 56.877 25.0781 56.8068 25.1179C56.6754 25.1909 56.5217 25.2125 56.3754 25.1785C56.2291 25.1445 56.1005 25.0574 56.0148 24.9341C55.9378 24.8058 55.9101 24.6539 55.9368 24.5067C55.9636 24.3594 56.043 24.227 56.1603 24.134Z" fill="white"/>
<path d="M54.2572 22.6754C54.2946 22.6044 54.346 22.5418 54.4085 22.4914C54.4709 22.4409 54.5429 22.4038 54.6202 22.3822C54.6975 22.3606 54.7783 22.3549 54.8579 22.3656C54.9374 22.3763 55.0139 22.4031 55.0827 22.4444C55.1515 22.4857 55.2111 22.5406 55.258 22.6057C55.3049 22.6708 55.338 22.7448 55.3552 22.8232C55.3725 22.9016 55.3736 22.9826 55.3585 23.0614C55.3434 23.1402 55.3124 23.2151 55.2674 23.2815C55.1827 23.4063 55.0535 23.4939 54.9062 23.5264C54.759 23.5589 54.6049 23.5337 54.4756 23.4562C54.3463 23.3786 54.2517 23.2545 54.211 23.1093C54.1704 22.964 54.1869 22.8088 54.2572 22.6754Z" fill="white"/>
<path d="M51.9722 21.93C52.0097 21.7786 52.1058 21.6483 52.2394 21.5678C52.3729 21.4873 52.533 21.4632 52.6844 21.5007C52.8358 21.5382 52.966 21.6343 53.0465 21.7678C53.1271 21.9014 53.1512 22.0615 53.1137 22.2128C53.0951 22.2878 53.062 22.3583 53.0162 22.4205C52.9703 22.4826 52.9127 22.5351 52.8465 22.575C52.7804 22.6149 52.7071 22.6413 52.6307 22.6528C52.5544 22.6644 52.4765 22.6607 52.4015 22.6422C52.3266 22.6236 52.256 22.5904 52.1939 22.5446C52.1318 22.4988 52.0792 22.4411 52.0394 22.375C51.9995 22.3089 51.9731 22.2355 51.9615 22.1592C51.95 22.0828 51.9536 22.0049 51.9722 21.93Z" fill="white"/>
<path d="M49.5618 21.7797C49.5571 21.6995 49.5688 21.6191 49.5963 21.5436C49.6238 21.4681 49.6664 21.3989 49.7216 21.3404C49.7767 21.282 49.8432 21.2354 49.917 21.2035C49.9908 21.1717 50.0704 21.1553 50.1507 21.1553C50.2311 21.1553 50.3106 21.1717 50.3844 21.2035C50.4582 21.2354 50.5248 21.282 50.5799 21.3404C50.6351 21.3989 50.6777 21.4681 50.7052 21.5436C50.7326 21.6191 50.7444 21.6995 50.7397 21.7797C50.7309 21.93 50.665 22.0711 50.5555 22.1744C50.446 22.2776 50.3012 22.3352 50.1507 22.3352C50.0002 22.3352 49.8554 22.2776 49.746 22.1744C49.6365 22.0711 49.5706 21.93 49.5618 21.7797Z" fill="white"/>
<path d="M47.19 22.2121C47.1664 22.1354 47.1586 22.0547 47.1672 21.9748C47.1759 21.895 47.2007 21.8178 47.2402 21.7479C47.2797 21.678 47.3331 21.6169 47.397 21.5683C47.461 21.5198 47.5342 21.4848 47.6121 21.4655C47.6901 21.4462 47.7711 21.4431 47.8503 21.4562C47.9295 21.4693 48.0052 21.4985 48.0728 21.5419C48.1403 21.5854 48.1983 21.6421 48.2431 21.7087C48.288 21.7753 48.3187 21.8504 48.3336 21.9293C48.3614 22.0774 48.3315 22.2305 48.25 22.3572C48.1685 22.4839 48.0417 22.5747 47.8954 22.6109C47.7492 22.647 47.5946 22.6259 47.4634 22.5518C47.3323 22.4776 47.2345 22.3561 47.19 22.2121Z" fill="white"/>
<path d="M45.0342 23.2834C44.9892 23.2171 44.9582 23.1422 44.9431 23.0634C44.9279 22.9846 44.9291 22.9035 44.9463 22.8252C44.9636 22.7468 44.9967 22.6728 45.0436 22.6077C45.0905 22.5425 45.1501 22.4877 45.2189 22.4464C45.2877 22.4051 45.3642 22.3783 45.4437 22.3676C45.5233 22.3569 45.6041 22.3625 45.6814 22.3841C45.7587 22.4057 45.8307 22.4429 45.8931 22.4933C45.9555 22.5437 46.007 22.6064 46.0444 22.6773C46.1144 22.8104 46.1325 22.9646 46.0952 23.1102C46.0579 23.2558 45.9678 23.3824 45.8424 23.4653C45.7097 23.5432 45.5525 23.5677 45.4024 23.534C45.2523 23.5002 45.1207 23.4106 45.0342 23.2834Z" fill="white"/>
<path d="M43.4866 25.1179C43.4164 25.0781 43.355 25.0244 43.3064 24.9599C43.2577 24.8954 43.2228 24.8217 43.2039 24.7432C43.1849 24.6647 43.1823 24.5831 43.1961 24.5036C43.2099 24.424 43.2399 24.3481 43.2843 24.2806C43.3286 24.2131 43.3864 24.1555 43.4539 24.1112C43.5214 24.0669 43.5973 24.037 43.6769 24.0233C43.7565 24.0095 43.838 24.0123 43.9165 24.0313C43.995 24.0504 44.0687 24.0853 44.1331 24.134C44.254 24.2262 44.3359 24.3604 44.3625 24.5101C44.389 24.6598 44.3584 24.814 44.2766 24.9422C44.1897 25.0636 44.061 25.1488 43.9152 25.1812C43.7694 25.2136 43.6168 25.1911 43.4866 25.1179Z" fill="white"/>
<path d="M42.8543 27.4271C42.7732 27.4208 42.6942 27.3978 42.6223 27.3595C42.5505 27.3212 42.4874 27.2684 42.4369 27.2045C42.3865 27.1406 42.3498 27.0669 42.3292 26.9881C42.3086 26.9094 42.3046 26.8272 42.3173 26.7468C42.33 26.6663 42.3593 26.5894 42.4032 26.5208C42.4471 26.4523 42.5047 26.3935 42.5724 26.3483C42.6401 26.3031 42.7165 26.2724 42.7966 26.2582C42.8768 26.2439 42.959 26.2464 43.0382 26.2654C43.1813 26.3037 43.3058 26.392 43.3893 26.5144C43.4727 26.6368 43.5094 26.785 43.4928 26.9322C43.4619 27.0767 43.3809 27.2057 43.264 27.2963C43.1472 27.3869 43.0021 27.4333 42.8543 27.4271Z" fill="white"/>
<path d="M52.5218 25.1585C52.4005 25.1282 52.2753 25.0979 52.1399 25.0696C51.8308 25.0009 51.4853 24.9343 51.1297 24.8676C51.0328 24.6837 50.9277 24.5039 50.8388 24.3322L50.6206 23.9605C50.5479 23.8433 50.4772 23.7301 50.4085 23.6271C50.3854 23.5783 50.349 23.537 50.3034 23.5081C50.2578 23.4792 50.2049 23.4639 50.1509 23.4639C50.0969 23.4639 50.044 23.4792 49.9984 23.5081C49.9528 23.537 49.9163 23.5783 49.8933 23.6271C49.8246 23.7301 49.7539 23.8433 49.6811 23.9605C49.6084 24.0776 49.5357 24.2029 49.463 24.3322C49.366 24.5039 49.2609 24.6837 49.172 24.8676C48.8144 24.9282 48.471 24.9949 48.1618 25.0696C48.0285 25.0979 47.9012 25.1282 47.782 25.1585C47.5275 25.2272 47.487 25.4434 47.6527 25.6555C47.7315 25.7545 47.8164 25.8576 47.9053 25.9626C47.9942 26.0677 48.0851 26.1647 48.1841 26.2839C48.3114 26.4293 48.4487 26.5768 48.5881 26.7243C48.5417 27.0758 48.5033 27.4132 48.471 27.7345C48.4568 27.8698 48.4447 28.0032 48.4346 28.1385C48.4103 28.4194 48.6104 28.5204 48.873 28.4032C49.1357 28.286 49.3619 28.2012 49.6226 28.0779C49.7943 28.0012 49.9701 27.9244 50.1499 27.8416C50.3297 27.9244 50.5075 28.0012 50.6792 28.0779L51.4288 28.4032C51.6914 28.5204 51.8914 28.4194 51.8672 28.1385C51.855 28.0113 51.8429 27.8779 51.8308 27.7345C51.7985 27.4193 51.7601 27.0819 51.7136 26.7243C51.855 26.5768 51.9904 26.4293 52.1177 26.2839C52.2147 26.1748 52.3076 26.0677 52.3965 25.9626C52.4854 25.8576 52.5703 25.7606 52.649 25.6555C52.8167 25.4454 52.7804 25.2272 52.5218 25.1585Z" fill="#FFD84F"/>
<path d="M47.2628 27.532C46.19 27.5562 45.4444 27.1663 45.2929 26.5218C45.2573 26.3921 45.2534 26.2558 45.2815 26.1243C45.3096 25.9928 45.369 25.87 45.4545 25.7662C45.5221 25.6862 45.6077 25.6235 45.7043 25.5831C45.8009 25.5427 45.9058 25.5258 46.0101 25.5339C46.1148 25.5388 46.2159 25.5733 46.3018 25.6333C46.3876 25.6934 46.4546 25.7766 46.495 25.8733C46.526 25.9519 46.5331 26.0379 46.5155 26.1205C46.4979 26.2032 46.4563 26.2788 46.396 26.338C46.3811 26.3528 46.3693 26.3704 46.3612 26.3899C46.3532 26.4093 46.349 26.4301 46.349 26.4511C46.349 26.4721 46.3532 26.493 46.3612 26.5124C46.3693 26.5318 46.3811 26.5494 46.396 26.5643C46.4107 26.5791 46.4281 26.5909 46.4474 26.5989C46.4666 26.607 46.4873 26.6111 46.5082 26.6111C46.529 26.6111 46.5497 26.607 46.5689 26.5989C46.5882 26.5909 46.6056 26.5791 46.6203 26.5643C46.7249 26.4612 46.7967 26.3294 46.8266 26.1856C46.8564 26.0418 46.843 25.8923 46.788 25.7561C46.7266 25.6027 46.6227 25.4701 46.4885 25.3738C46.3542 25.2775 46.1953 25.2216 46.0303 25.2126C45.8763 25.2013 45.7218 25.2261 45.579 25.285C45.4363 25.3439 45.3092 25.4354 45.2081 25.5521C45.0902 25.6938 45.0076 25.8614 44.9673 26.0413C44.9269 26.2211 44.9298 26.408 44.9757 26.5865C45.0091 26.7422 45.0714 26.8902 45.1596 27.0229C45.072 27.024 44.9851 27.0369 44.901 27.0613C44.8018 27.0913 44.7105 27.1432 44.634 27.2132C44.5574 27.2831 44.4975 27.3692 44.4585 27.4653C44.4165 27.5734 44.4015 27.69 44.4149 27.8052C44.4283 27.9203 44.4696 28.0305 44.5353 28.126C44.598 28.2184 44.6823 28.2941 44.7809 28.3465C44.8795 28.399 44.9893 28.4266 45.101 28.427C45.2255 28.4364 45.3493 28.4008 45.4498 28.3266C45.5503 28.2525 45.6208 28.1447 45.6485 28.0229C45.6473 27.9846 45.6323 27.948 45.6064 27.9198C45.5804 27.8917 45.5452 27.8737 45.5071 27.8694C45.4862 27.8675 45.4652 27.8697 45.4452 27.876C45.4252 27.8823 45.4067 27.8925 45.3907 27.9061C45.3747 27.9196 45.3615 27.9362 45.352 27.9549C45.3425 27.9736 45.3369 27.994 45.3353 28.0149C45.3106 28.0525 45.2761 28.0828 45.2356 28.1023C45.195 28.1219 45.1499 28.1301 45.105 28.126C45.045 28.1253 44.9861 28.1101 44.9333 28.0816C44.8805 28.0531 44.8354 28.0122 44.802 27.9623C44.7653 27.9099 44.7424 27.8492 44.7354 27.7857C44.7283 27.7221 44.7373 27.6578 44.7616 27.5987C44.7818 27.5453 44.8143 27.4974 44.8564 27.4588C44.8985 27.4202 44.949 27.392 45.004 27.3764C45.1004 27.3483 45.2015 27.3406 45.301 27.3538C45.4005 27.3671 45.4962 27.4009 45.5818 27.4532L45.602 27.4633C46.0729 27.7471 46.6163 27.8875 47.1658 27.8674H47.2668C47.3091 27.8674 47.3497 27.8506 47.3797 27.8206C47.4096 27.7907 47.4264 27.7501 47.4264 27.7078C47.4264 27.6654 47.4096 27.6248 47.3797 27.5949C47.3497 27.565 47.3091 27.5482 47.2668 27.5482L47.2628 27.532Z" fill="#FC9DB2"/>
<path d="M53.0369 27.5322C54.1077 27.5564 54.8552 27.1665 55.0068 26.522C55.0419 26.3923 55.0455 26.2561 55.0174 26.1247C54.9893 25.9932 54.9303 25.8704 54.8451 25.7664C54.7776 25.6864 54.6919 25.6237 54.5953 25.5833C54.4987 25.5429 54.3939 25.526 54.2895 25.5341C54.1847 25.5391 54.0833 25.5736 53.9972 25.6336C53.911 25.6937 53.8436 25.7768 53.8026 25.8735C53.7725 25.9524 53.766 26.0384 53.7839 26.1209C53.8018 26.2034 53.8435 26.2789 53.9036 26.3382C53.9328 26.369 53.9486 26.4101 53.9475 26.4526C53.9463 26.495 53.9284 26.5353 53.8976 26.5645C53.8668 26.5937 53.8256 26.6094 53.7832 26.6083C53.7408 26.6072 53.7005 26.5892 53.6713 26.5584C53.5674 26.4548 53.4964 26.3229 53.4669 26.1792C53.4374 26.0355 53.4509 25.8864 53.5056 25.7503C53.5666 25.5966 53.6704 25.4637 53.8047 25.3673C53.939 25.271 54.0982 25.2153 54.2633 25.2068C54.4173 25.1954 54.5718 25.2202 54.7146 25.2791C54.8573 25.3381 54.9844 25.4295 55.0856 25.5462C55.2034 25.6879 55.286 25.8556 55.3264 26.0354C55.3668 26.2153 55.3639 26.4021 55.3179 26.5806C55.2845 26.7363 55.2222 26.8844 55.134 27.017C55.2266 27.019 55.3184 27.034 55.4068 27.0615C55.5059 27.0918 55.597 27.1438 55.6735 27.2137C55.75 27.2836 55.8101 27.3696 55.8492 27.4655C55.8913 27.5736 55.9062 27.6902 55.8929 27.8054C55.8795 27.9205 55.8381 28.0307 55.7725 28.1262C55.7097 28.2186 55.6254 28.2943 55.5269 28.3467C55.4283 28.3992 55.3184 28.4268 55.2068 28.4272C55.0822 28.4371 54.9582 28.4016 54.8576 28.3274C54.757 28.2531 54.6866 28.1451 54.6593 28.0231C54.6605 27.9848 54.6754 27.9482 54.7014 27.9201C54.7274 27.8919 54.7626 27.874 54.8007 27.8696C54.8216 27.8677 54.8426 27.8699 54.8626 27.8762C54.8826 27.8825 54.9011 27.8927 54.9171 27.9063C54.9331 27.9198 54.9462 27.9364 54.9557 27.9551C54.9652 27.9738 54.9709 27.9942 54.9724 28.0151C54.9971 28.0527 55.0316 28.083 55.0722 28.1025C55.1128 28.1221 55.1579 28.1303 55.2027 28.1262C55.2627 28.1254 55.3216 28.1101 55.3744 28.0816C55.4271 28.0531 55.4722 28.0122 55.5058 27.9625C55.5419 27.9099 55.5645 27.8492 55.5716 27.7858C55.5786 27.7223 55.5699 27.6581 55.5462 27.5989C55.5255 27.5454 55.4926 27.4975 55.4502 27.4589C55.4077 27.4204 55.3569 27.3922 55.3017 27.3766C55.2057 27.3486 55.1049 27.3409 55.0057 27.3541C54.9065 27.3673 54.8112 27.4012 54.7259 27.4534L54.7057 27.4635C54.2342 27.7477 53.6901 27.8881 53.14 27.8676H53.041C52.9986 27.8676 52.958 27.8508 52.9281 27.8208C52.8982 27.7909 52.8813 27.7503 52.8813 27.708C52.8813 27.6656 52.8982 27.625 52.9281 27.5951C52.958 27.5652 52.9986 27.5484 53.041 27.5484L53.0369 27.5322Z" fill="#FC9DB2"/>
<path d="M23.6872 30.2939H4.62317V27.3199C4.95451 22.0367 9.79527 19.6426 14.1532 19.6426C18.5111 19.6426 23.3518 22.0367 23.6872 27.3199V30.2939ZM5.68789 29.2352H22.6205V27.3704C22.3235 22.7842 18.0262 20.7033 14.1552 20.7033C10.2842 20.7033 5.98691 22.7903 5.68789 27.3704V29.2352Z" fill="#FFDD7B"/>
<path d="M41.6845 30.2939H22.6205V27.3199C22.9518 22.0367 27.7926 19.6426 32.1505 19.6426C36.5084 19.6426 41.3491 22.0468 41.6805 27.33V30.2939H41.6845ZM23.6872 29.2352H40.6218V27.3704C40.3228 22.7842 36.0255 20.7033 32.1545 20.7033C28.2835 20.7033 23.9862 22.7903 23.6872 27.3704V29.2352Z" fill="#FFDD7B"/>
<path d="M59.6819 30.2939H40.6199V27.3199C40.9532 22.0367 45.794 19.6426 50.1499 19.6426C54.5058 19.6426 59.3485 22.0468 59.6819 27.33V30.2939ZM41.6846 29.2312H58.6172V27.3664C58.3182 22.7802 54.0209 20.6992 50.1499 20.6992C46.2789 20.6992 41.9816 22.7862 41.6846 27.3664V29.2312Z" fill="#FFDD7B"/>
<path d="M58.9626 58.3564H5.34245C4.76223 58.3564 4.29187 58.8268 4.29187 59.407V61.8557C4.29187 62.4359 4.76223 62.9063 5.34245 62.9063H58.9626C59.5428 62.9063 60.0132 62.4359 60.0132 61.8557V59.407C60.0132 58.8268 59.5428 58.3564 58.9626 58.3564Z" fill="#FFF677"/>
<path d="M59.9889 60.6904H4.29187V67.1091H59.9889V60.6904Z" fill="#FC869A"/>
<path d="M60.0132 66.291H4.29187V67.1072H60.0132V66.291Z" fill="#FFDD7B"/>
<path d="M6.55465 63.4899C6.55705 63.6651 6.50727 63.8371 6.41164 63.9839C6.31601 64.1307 6.17886 64.2458 6.01764 64.3144C5.85642 64.383 5.67842 64.4021 5.50631 64.3693C5.3342 64.3364 5.17576 64.2531 5.05115 64.1299C4.92653 64.0067 4.84139 63.8493 4.80656 63.6775C4.77173 63.5058 4.78878 63.3276 4.85554 63.1656C4.92231 63.0036 5.03577 62.8651 5.18147 62.7678C5.32718 62.6705 5.49855 62.6188 5.67377 62.6191C5.90565 62.6191 6.12819 62.7105 6.2931 62.8736C6.45801 63.0366 6.55199 63.258 6.55465 63.4899Z" fill="white"/>
<path d="M10.0842 63.4899C10.0866 63.665 10.0369 63.8369 9.94132 63.9837C9.84578 64.1305 9.70875 64.2455 9.54765 64.3142C9.38654 64.3829 9.20865 64.4021 9.0366 64.3694C8.86454 64.3367 8.7061 64.2536 8.58141 64.1306C8.45672 64.0077 8.37142 63.8504 8.33636 63.6788C8.30129 63.5072 8.31806 63.3291 8.38451 63.167C8.45096 63.005 8.5641 62.8664 8.70955 62.7688C8.85499 62.6713 9.02616 62.6192 9.20129 62.6191C9.43336 62.6191 9.65611 62.7105 9.82135 62.8734C9.98658 63.0364 10.081 63.2579 10.0842 63.4899Z" fill="white"/>
<path d="M13.6137 63.4899C13.6161 63.665 13.5664 63.8369 13.4709 63.9837C13.3753 64.1305 13.2383 64.2455 13.0772 64.3142C12.9161 64.3829 12.7382 64.4021 12.5661 64.3694C12.3941 64.3367 12.2356 64.2536 12.1109 64.1306C11.9863 64.0077 11.901 63.8504 11.8659 63.6788C11.8308 63.5072 11.8476 63.3291 11.9141 63.167C11.9805 63.005 12.0936 62.8664 12.2391 62.7688C12.3845 62.6713 12.5557 62.6192 12.7308 62.6191C12.9629 62.6191 13.1857 62.7105 13.3509 62.8734C13.5161 63.0364 13.6105 63.2579 13.6137 63.4899Z" fill="white"/>
<path d="M17.1413 63.4899C17.1437 63.6651 17.0939 63.8371 16.9983 63.9839C16.9027 64.1307 16.7655 64.2458 16.6043 64.3144C16.4431 64.383 16.2651 64.4021 16.093 64.3693C15.9209 64.3364 15.7624 64.2531 15.6378 64.1299C15.5132 64.0067 15.4281 63.8493 15.3932 63.6775C15.3584 63.5058 15.3755 63.3276 15.4422 63.1656C15.509 63.0036 15.6224 62.8651 15.7681 62.7678C15.9139 62.6705 16.0852 62.6188 16.2604 62.6191C16.4923 62.6191 16.7149 62.7105 16.8798 62.8736C17.0447 63.0366 17.1387 63.258 17.1413 63.4899Z" fill="white"/>
<path d="M20.6709 63.4899C20.6733 63.6651 20.6235 63.8371 20.5279 63.9839C20.4322 64.1307 20.2951 64.2458 20.1338 64.3144C19.9726 64.383 19.7946 64.4021 19.6225 64.3693C19.4504 64.3364 19.292 64.2531 19.1674 64.1299C19.0427 64.0067 18.9576 63.8493 18.9228 63.6775C18.8879 63.5058 18.905 63.3276 18.9718 63.1656C19.0385 63.0036 19.152 62.8651 19.2977 62.7678C19.4434 62.6705 19.6148 62.6188 19.79 62.6191C20.0219 62.6191 20.2444 62.7105 20.4093 62.8736C20.5742 63.0366 20.6682 63.258 20.6709 63.4899Z" fill="white"/>
<path d="M24.2004 63.4899C24.2028 63.665 24.1531 63.8369 24.0575 63.9837C23.962 64.1305 23.825 64.2455 23.6639 64.3142C23.5028 64.3829 23.3249 64.4021 23.1528 64.3694C22.9808 64.3367 22.8223 64.2536 22.6976 64.1306C22.5729 64.0077 22.4876 63.8504 22.4526 63.6788C22.4175 63.5072 22.4343 63.3291 22.5007 63.167C22.5672 63.005 22.6803 62.8664 22.8258 62.7688C22.9712 62.6713 23.1424 62.6192 23.3175 62.6191C23.5496 62.6191 23.7723 62.7105 23.9376 62.8734C24.1028 63.0364 24.1972 63.2579 24.2004 63.4899Z" fill="white"/>
<path d="M27.7279 63.4902C27.7279 63.6645 27.6763 63.8348 27.5795 63.9796C27.4827 64.1245 27.3451 64.2374 27.1842 64.3041C27.0232 64.3707 26.8461 64.3882 26.6752 64.3542C26.5043 64.3202 26.3474 64.2363 26.2242 64.1131C26.101 63.9899 26.0171 63.833 25.9831 63.6621C25.9491 63.4912 25.9666 63.3141 26.0332 63.1532C26.0999 62.9922 26.2128 62.8546 26.3577 62.7578C26.5025 62.661 26.6728 62.6094 26.8471 62.6094C27.0807 62.6094 27.3047 62.7022 27.4699 62.8674C27.6351 63.0326 27.7279 63.2566 27.7279 63.4902Z" fill="white"/>
<path d="M31.2575 63.4902C31.2579 63.665 31.2064 63.836 31.1095 63.9815C31.0127 64.127 30.8748 64.2405 30.7134 64.3076C30.552 64.3746 30.3743 64.3923 30.2028 64.3583C30.0314 64.3243 29.8739 64.2402 29.7503 64.1166C29.6267 63.993 29.5426 63.8355 29.5086 63.664C29.4746 63.4926 29.4922 63.3149 29.5593 63.1535C29.6264 62.9921 29.7398 62.8542 29.8853 62.7573C30.0308 62.6605 30.2018 62.609 30.3766 62.6094C30.4923 62.6094 30.6068 62.6322 30.7137 62.6764C30.8206 62.7207 30.9177 62.7856 30.9995 62.8674C31.0813 62.9492 31.1462 63.0463 31.1904 63.1532C31.2347 63.26 31.2575 63.3746 31.2575 63.4902Z" fill="white"/>
<path d="M34.787 63.4902C34.7874 63.665 34.736 63.8358 34.6392 63.9813C34.5424 64.1268 34.4047 64.2402 34.2434 64.3074C34.0821 64.3745 33.9045 64.3923 33.7331 64.3584C33.5617 64.3246 33.4042 64.2407 33.2805 64.1173C33.1569 63.9939 33.0726 63.8366 33.0384 63.6653C33.0041 63.4939 33.0215 63.3163 33.0883 63.1549C33.155 62.9934 33.2682 62.8554 33.4134 62.7583C33.5586 62.6612 33.7294 62.6094 33.9041 62.6094C34.1379 62.6094 34.3622 62.7021 34.5277 62.8673C34.6932 63.0324 34.7865 63.2564 34.787 63.4902Z" fill="white"/>
<path d="M38.3147 63.4899C38.3167 63.6642 38.2669 63.8352 38.1717 63.9812C38.0765 64.1272 37.9401 64.2417 37.7798 64.3101C37.6195 64.3786 37.4425 64.3979 37.2712 64.3657C37.0999 64.3335 36.942 64.2513 36.8175 64.1293C36.6929 64.0073 36.6074 63.8511 36.5717 63.6805C36.536 63.5099 36.5516 63.3326 36.6168 63.1709C36.6819 63.0092 36.7935 62.8705 36.9375 62.7723C37.0815 62.6741 37.2514 62.6208 37.4257 62.6192C37.659 62.617 37.8836 62.7075 38.0503 62.8707C38.2169 63.034 38.312 63.2567 38.3147 63.4899Z" fill="white"/>
<path d="M41.8442 63.4902C41.8446 63.665 41.7931 63.836 41.6962 63.9815C41.5993 64.127 41.4615 64.2405 41.3001 64.3076C41.1387 64.3746 40.961 64.3923 40.7895 64.3583C40.6181 64.3243 40.4606 64.2402 40.337 64.1166C40.2134 63.993 40.1292 63.8355 40.0952 63.664C40.0612 63.4926 40.0789 63.3149 40.146 63.1535C40.213 62.9921 40.3265 62.8542 40.472 62.7573C40.6175 62.6605 40.7885 62.609 40.9633 62.6094C41.1969 62.6094 41.421 62.7022 41.5862 62.8674C41.7514 63.0326 41.8442 63.2566 41.8442 63.4902Z" fill="white"/>
<path d="M45.3737 63.4899C45.3761 63.6653 45.3263 63.8374 45.2304 63.9843C45.1346 64.1312 44.9972 64.2463 44.8358 64.3148C44.6743 64.3833 44.4961 64.4022 44.3239 64.369C44.1517 64.3358 43.9932 64.2521 43.8688 64.1285C43.7443 64.0049 43.6595 63.8471 43.6252 63.6751C43.5908 63.5031 43.6084 63.3247 43.6758 63.1628C43.7432 63.0009 43.8573 62.8627 44.0035 62.7659C44.1498 62.6691 44.3215 62.618 44.4969 62.6192C44.7279 62.6207 44.9491 62.7128 45.1131 62.8756C45.277 63.0384 45.3706 63.2589 45.3737 63.4899Z" fill="white"/>
<path d="M48.9013 63.4902C48.9013 63.6645 48.8496 63.8348 48.7528 63.9796C48.656 64.1245 48.5185 64.2374 48.3575 64.3041C48.1965 64.3707 48.0194 64.3882 47.8486 64.3542C47.6777 64.3202 47.5207 64.2363 47.3975 64.1131C47.2743 63.9899 47.1904 63.833 47.1565 63.6621C47.1225 63.4912 47.1399 63.3141 47.2066 63.1532C47.2733 62.9922 47.3862 62.8546 47.531 62.7578C47.6759 62.661 47.8462 62.6094 48.0204 62.6094C48.254 62.6094 48.4781 62.7022 48.6433 62.8674C48.8085 63.0326 48.9013 63.2566 48.9013 63.4902Z" fill="white"/>
<path d="M52.4308 63.4902C52.4312 63.665 52.3797 63.836 52.2829 63.9815C52.186 64.127 52.0481 64.2405 51.8867 64.3076C51.7253 64.3746 51.5476 64.3923 51.3762 64.3583C51.2047 64.3243 51.0472 64.2402 50.9236 64.1166C50.8 63.993 50.7159 63.8355 50.6819 63.664C50.6479 63.4926 50.6656 63.3149 50.7326 63.1535C50.7997 62.9921 50.9132 62.8542 51.0587 62.7573C51.2042 62.6605 51.3752 62.609 51.55 62.6094C51.7836 62.6094 52.0076 62.7022 52.1728 62.8674C52.338 63.0326 52.4308 63.2566 52.4308 63.4902Z" fill="white"/>
<path d="M55.9602 63.4902C55.9606 63.665 55.9092 63.8358 55.8124 63.9813C55.7157 64.1268 55.5779 64.2402 55.4166 64.3074C55.2553 64.3745 55.0777 64.3923 54.9063 64.3584C54.735 64.3246 54.5774 64.2407 54.4538 64.1173C54.3301 63.9939 54.2458 63.8366 54.2116 63.6653C54.1773 63.4939 54.1947 63.3163 54.2615 63.1549C54.3282 62.9934 54.4414 62.8554 54.5866 62.7583C54.7319 62.6612 54.9026 62.6094 55.0773 62.6094C55.3112 62.6094 55.5354 62.7021 55.7009 62.8673C55.8665 63.0324 55.9597 63.2564 55.9602 63.4902Z" fill="white"/>
<path d="M59.4879 63.4902C59.4879 63.6645 59.4363 63.8348 59.3395 63.9796C59.2427 64.1245 59.1051 64.2374 58.9442 64.3041C58.7832 64.3707 58.6061 64.3882 58.4352 64.3542C58.2643 64.3202 58.1074 64.2363 57.9842 64.1131C57.861 63.9899 57.7771 63.833 57.7431 63.6621C57.7091 63.4912 57.7266 63.3141 57.7932 63.1532C57.8599 62.9922 57.9728 62.8546 58.1177 62.7578C58.2625 62.661 58.4328 62.6094 58.6071 62.6094C58.7227 62.6094 58.8373 62.6322 58.9442 62.6764C59.051 62.7207 59.1481 62.7856 59.2299 62.8674C59.3117 62.9492 59.3766 63.0463 59.4209 63.1532C59.4652 63.26 59.4879 63.3746 59.4879 63.4902Z" fill="white"/>
</g>
<g clip-path="url(#clip1_1161_631)" filter="url(#filter1_d_1161_631)">
<path d="M9.91932 39.938C9.49369 39.9932 8.92026 40.0976 8.72714 39.8414C8.53403 39.5853 8.72714 38.9153 9.31831 38.7478C9.05425 38.5961 8.86705 38.2157 9.40698 37.934C9.84247 37.7093 10.5026 37.8886 10.9598 38.3281C11.3381 38.6906 11.8938 39.3133 12.8673 39.406C13.8407 39.4986 14.69 39.6523 15.0349 40.1094C15.4881 40.7223 14.9147 41.0947 15.2122 41.5539C15.3856 41.8219 15.6063 42.0583 15.6063 42.3992C15.6063 42.7401 15.3108 43.0081 15.3167 43.2919C15.3226 43.5756 15.63 43.82 15.6694 44.2969C15.7226 44.9136 14.3984 45.5521 15.2753 47.1778C13.5136 47.7887 11.1667 40.2277 9.91932 39.938Z" fill="#C48A51"/>
<path d="M11.6397 39.8082C11.5523 39.5349 11.5301 39.245 11.5749 38.9617C11.6198 38.6784 11.7303 38.4095 11.8978 38.1766C12.1875 37.8297 13.019 37.4672 13.4132 37.5736C13.8073 37.68 12.8791 39.5678 12.0338 39.9776C11.7283 40.1215 11.6909 39.9304 11.6397 39.8082Z" fill="#E6E7E0"/>
<path d="M11.6397 49.6764C10.3431 50.5631 8.05725 52.378 7.28479 53.4086C7.9022 53.9579 8.55451 54.4668 9.23761 54.9319C10.2662 53.6865 12.2407 51.842 13.1787 51.4125C14.1167 50.9829 12.4614 49.1089 11.6397 49.6764Z" fill="#E6E7E0"/>
<path d="M8.6839 51.9736C8.16926 52.4074 7.69565 52.8876 7.26904 53.4082C7.88646 53.9575 8.53876 54.4663 9.22186 54.9314C9.56276 54.5176 10.0101 54.0388 10.487 53.5678C9.96814 52.9501 9.3605 52.4129 8.6839 51.9736Z" fill="#A8805A"/>
<path d="M21.6225 52.5176C22.3457 53.0851 24.0364 54.5453 26.8838 54.3679C27.0119 53.9324 27.1577 52.5176 27.0927 52.2122C26.1074 52.1314 24.4699 51.818 23.329 50.4584C22.188 49.0987 20.4322 51.5855 21.6225 52.5176Z" fill="#E6E7E0"/>
<path d="M25.8001 51.9863C25.7671 52.7803 25.5873 53.5613 25.27 54.2899C25.8033 54.3766 26.3447 54.403 26.8839 54.3687C27.012 53.9332 27.1578 52.5184 27.0928 52.2129C26.6557 52.1781 26.2229 52.1022 25.8001 51.9863Z" fill="#A8805A"/>
<path d="M22.5723 47.2563C22.9092 46.8622 23.8689 46.1587 24.9842 46.742C26.4759 47.5302 25.5636 49.5422 28.2514 49.3313C28.1802 49.612 28.0523 49.8752 27.8755 50.1045C27.6987 50.3339 27.4769 50.5246 27.2235 50.6649C26.9702 50.8053 26.6909 50.8922 26.4026 50.9204C26.1144 50.9486 25.8235 50.9175 25.5478 50.8289C24.9428 50.5866 24.1684 50.0644 23.794 48.7973C23.463 47.682 22.99 47.6268 22.5723 47.2563Z" fill="#C48A51"/>
<path d="M8.86514 40.3439C9.86618 39.8276 10.9874 38.8857 12.4693 39.5734C13.8763 40.2355 14.1423 41.9755 14.1837 43.9086C14.225 45.8417 15.0428 47.0615 16.5877 47.1246C19.1298 47.227 20.5446 46.4388 22.1526 46.8881C23.7605 47.3374 24.5015 49.4951 23.8591 51.4204C23.2167 53.3456 20.5761 54.122 17.7504 54.1555C14.9246 54.189 12.1205 52.9002 11.1549 51.0657C10.2603 49.3749 10.0869 46.1767 9.92727 44.9235C8.06116 45.022 6.00193 45.0535 5.6157 43.7411C5.22947 42.4287 6.14578 41.739 8.86514 40.3439Z" fill="#E6E7E0"/>
<path d="M8.28975 44.0091C8.29774 44.3252 8.28061 44.6415 8.23852 44.955C8.3666 44.955 8.49469 44.955 8.63263 44.955C8.66985 44.6411 8.68302 44.3249 8.67204 44.0091C8.63657 42.7558 8.24443 41.6641 7.65918 40.9941C7.53897 41.0611 7.42271 41.1262 7.31433 41.1912C7.86609 41.7745 8.25231 42.8268 8.28975 44.0091Z" fill="#A8805A"/>
<path d="M13.9452 41.6445C12.4791 42.6022 9.95481 43.2584 8.43748 43.221L8.42566 43.6151H8.56951C9.99422 43.6151 12.4436 43.0535 14.0299 42.0623C14.0043 41.9106 13.9767 41.7766 13.9452 41.6445Z" fill="#A8805A"/>
<path d="M10.7943 41.4984C10.7943 41.6153 10.7596 41.7296 10.6946 41.8268C10.6297 41.924 10.5374 41.9998 10.4293 42.0446C10.3213 42.0893 10.2024 42.101 10.0878 42.0782C9.9731 42.0554 9.86776 41.9991 9.78509 41.9164C9.70241 41.8337 9.64611 41.7284 9.6233 41.6137C9.60049 41.499 9.61219 41.3802 9.65694 41.2722C9.70168 41.1641 9.77745 41.0718 9.87467 41.0069C9.97189 40.9419 10.0862 40.9072 10.2031 40.9072C10.3599 40.9072 10.5103 40.9695 10.6211 41.0804C10.732 41.1912 10.7943 41.3416 10.7943 41.4984Z" fill="#564537"/>
<path d="M21.4175 50.2639C21.7683 49.6727 21.5338 48.0076 21.2559 46.7504C19.9711 46.7031 18.6489 47.2056 16.5877 47.1228C16.2766 47.1216 15.9694 47.0541 15.6864 46.925C15.4034 46.7959 15.1511 46.6081 14.9462 46.374C14.6152 47.448 14.2073 49.6156 14.763 50.2678C15.3186 50.9201 16.9306 51.0659 18.0025 51.0817C19.0745 51.0974 20.9722 51.0147 21.4175 50.2639Z" fill="#D66572"/>
<path d="M18.2351 51.3669C20.1327 51.3669 21.2874 51.0457 21.6658 50.4112C22.0875 49.7018 21.7978 47.9145 21.5495 46.7715C21.3532 46.7507 21.1557 46.7428 20.9584 46.7479C21.2559 48.0662 21.451 49.6426 21.1672 50.1175C20.915 50.5392 19.8174 50.7915 18.2311 50.7915H18.0065C16.4517 50.7678 15.3482 50.5117 14.9896 50.0762C14.5836 49.6032 14.8339 47.81 15.1866 46.6001C15.0196 46.4555 14.8742 46.2876 14.7551 46.1016C14.7274 46.157 14.7037 46.2142 14.6841 46.273C14.6841 46.3045 13.7107 49.4614 14.5541 50.4506C15.1708 51.1738 16.7729 51.3472 18.0084 51.3649L18.2351 51.3669Z" fill="#DB9B45"/>
<path d="M42.9202 39.938C42.4965 39.9932 41.9231 40.0976 41.7379 39.8414C41.5526 39.5853 41.7379 38.9153 42.329 38.7478C42.065 38.5961 41.8758 38.2157 42.4177 37.934C42.8532 37.7093 43.5114 37.8886 43.9705 38.3281C44.3488 38.6906 44.9026 39.3133 45.876 39.406C46.8495 39.4986 47.7008 39.6523 48.0436 40.1094C48.4969 40.7223 47.9215 41.0947 48.221 41.5539C48.3924 41.8219 48.6151 42.0583 48.6151 42.3992C48.6151 42.7401 48.3215 43.0081 48.3254 43.2919C48.3294 43.5756 48.6407 43.82 48.6801 44.2969C48.7314 44.9136 47.4091 45.5521 48.286 47.1778C46.5184 47.7887 44.1676 40.2277 42.9202 39.938Z" fill="#C48A51"/>
<path d="M44.6504 39.8082C44.563 39.5349 44.5408 39.245 44.5857 38.9617C44.6305 38.6784 44.7411 38.4095 44.9085 38.1766C45.1884 37.8297 46.018 37.4672 46.42 37.5736C46.8219 37.68 45.882 39.5678 45.0287 39.9776C44.7312 40.1215 44.6938 39.9304 44.6504 39.8082Z" fill="#E6E7E0"/>
<path d="M44.6346 49.6764C43.338 50.5631 41.0521 52.378 40.2797 53.4086C40.8971 53.9579 41.5494 54.4668 42.2325 54.9319C43.2611 53.6865 45.2356 51.842 46.1736 51.4125C47.1116 50.9829 45.4622 49.1089 44.6346 49.6764Z" fill="#E6E7E0"/>
<path d="M41.6925 51.9736C41.1789 52.4079 40.706 52.888 40.2797 53.4082C40.8971 53.9575 41.5494 54.4663 42.2325 54.9314C42.631 54.4559 43.0533 54.0008 43.4976 53.5678C42.9785 52.9496 42.3701 52.4123 41.6925 51.9736Z" fill="#A8805A"/>
<path d="M54.6253 52.5176C55.3485 53.0851 57.0373 54.5453 59.8847 54.3679C60.0148 53.9324 60.1586 52.5176 60.0956 52.2122C59.1103 52.1314 57.4728 51.818 56.3298 50.4584C55.1869 49.0987 53.4351 51.5855 54.6253 52.5176Z" fill="#E6E7E0"/>
<path d="M58.8029 51.9863C58.7679 52.7801 58.5883 53.5607 58.2728 54.2899C58.8055 54.3765 59.3462 54.403 59.8847 54.3687C60.0148 53.9332 60.1586 52.5184 60.0956 52.2129C59.6585 52.1783 59.2257 52.1024 58.8029 51.9863Z" fill="#A8805A"/>
<path d="M55.583 47.2563C55.92 46.8622 56.8796 46.1587 57.995 46.742C59.4867 47.5302 58.5743 49.5422 61.2602 49.3313C61.1892 49.6119 61.0615 49.8751 60.8849 50.1044C60.7084 50.3338 60.4866 50.5245 60.2335 50.6648C59.9803 50.8052 59.7011 50.8921 59.413 50.9204C59.1249 50.9486 58.8341 50.9175 58.5585 50.8289C57.9536 50.5866 57.1792 50.0644 56.8048 48.7973C56.4678 47.682 55.9929 47.6268 55.583 47.2563Z" fill="#C48A51"/>
<path d="M41.8679 40.3441C42.8748 39.8279 43.9902 38.8761 45.4701 39.5737C46.877 40.2358 47.1431 41.9758 47.1864 43.9089C47.2298 45.842 48.0456 47.0618 49.5885 47.1248C52.1305 47.2273 53.5474 46.4391 55.1553 46.8884C56.7633 47.3376 57.5042 49.4954 56.8618 51.4206C56.2194 53.3459 53.5789 54.1223 50.7531 54.1558C47.9273 54.1893 45.1232 52.9005 44.1577 51.0659C43.265 49.3713 43.0955 46.175 42.934 44.9198C41.0678 45.0183 39.0086 45.0498 38.6224 43.7374C38.2362 42.4251 39.1485 41.7393 41.8679 40.3441Z" fill="#E6E7E0"/>
<path d="M41.2866 44.0092C41.2966 44.3254 41.2794 44.6419 41.2354 44.9551C41.3668 44.9551 41.4981 44.9551 41.6295 44.9551C41.6702 44.6356 41.686 44.3135 41.6768 43.9915C41.6433 42.7382 41.2511 41.6466 40.6639 40.9766C40.5437 41.0436 40.4294 41.1086 40.321 41.1736C40.8689 41.7746 41.2551 42.8269 41.2866 44.0092Z" fill="#A8805A"/>
<path d="M46.948 41.6445C45.48 42.6022 42.9577 43.2584 41.4305 43.221L41.4207 43.6151H41.5645C42.9872 43.6151 45.4366 43.0535 47.0229 42.0623C47.0072 41.9106 46.9796 41.7766 46.948 41.6445Z" fill="#A8805A"/>
<path d="M43.7971 41.4984C43.7971 41.6153 43.7624 41.7296 43.6974 41.8268C43.6325 41.924 43.5402 41.9998 43.4321 42.0446C43.3241 42.0893 43.2053 42.101 43.0906 42.0782C42.9759 42.0554 42.8706 41.9991 42.7879 41.9164C42.7052 41.8337 42.6489 41.7284 42.6261 41.6137C42.6033 41.499 42.615 41.3802 42.6597 41.2722C42.7045 41.1641 42.7803 41.0718 42.8775 41.0069C42.9747 40.9419 43.089 40.9072 43.2059 40.9072C43.3627 40.9072 43.5131 40.9695 43.6239 41.0804C43.7348 41.1912 43.7971 41.3416 43.7971 41.4984Z" fill="#564537"/>
<path d="M54.4203 50.2639C54.7711 49.6727 54.5366 48.0076 54.2587 46.7504C52.9739 46.7031 51.6517 47.2056 49.5885 47.1228C49.2778 47.1214 48.9709 47.0539 48.6882 46.9248C48.4056 46.7957 48.1536 46.608 47.949 46.374C47.616 47.448 47.2081 49.6156 47.7658 50.2678C48.3234 50.9201 49.9334 51.0659 51.0054 51.0817C52.0773 51.0974 53.973 51.0147 54.4203 50.2639Z" fill="#D66572"/>
<path d="M51.2477 51.3669C53.1454 51.3669 54.3001 51.0457 54.6765 50.4112C55.1002 49.7018 54.8105 47.9145 54.5622 46.7715C54.3659 46.7508 54.1684 46.7429 53.971 46.7479C54.2706 48.0662 54.4637 49.6426 54.1819 50.1175C53.9297 50.5392 52.8321 50.7915 51.2458 50.7915H51.0172C49.4624 50.7678 48.3589 50.5077 47.9924 50.0762C47.5864 49.6032 47.8367 47.81 48.1894 46.6001C48.0224 46.4555 47.877 46.2876 47.7579 46.1016C47.7294 46.1566 47.7056 46.2139 47.6869 46.273C47.6869 46.3045 46.7115 49.4614 47.5569 50.4506C48.1737 51.1738 49.7757 51.3472 51.0113 51.3649L51.2477 51.3669Z" fill="#DB9B45"/>
<path d="M26.5646 39.9462C26.1173 40.0053 25.5143 40.1157 25.3113 39.8437C25.1083 39.5718 25.3113 38.8703 25.9379 38.6929C25.6581 38.5333 25.4611 38.1333 26.0306 37.8377C26.4897 37.5993 27.1833 37.7884 27.6661 38.2515C28.0602 38.6338 28.6514 39.2939 29.6721 39.3866C30.6929 39.4792 31.5915 39.6447 31.9462 40.1255C32.425 40.7699 31.8181 41.1601 32.1334 41.6468C32.3147 41.9305 32.5511 42.1788 32.5511 42.5355C32.5511 42.8922 32.2398 43.1779 32.2457 43.4754C32.2516 43.773 32.5767 44.0331 32.6181 44.5356C32.6733 45.1839 31.2801 45.8559 32.2122 47.5663C30.3599 48.2087 27.877 40.2497 26.5646 39.9462Z" fill="#CE9851"/>
<path d="M28.3893 39.8101C28.2973 39.5236 28.2735 39.2197 28.3197 38.9224C28.3658 38.6251 28.4808 38.3427 28.6553 38.0977C28.9529 37.7331 29.8239 37.3528 30.2475 37.4612C30.6712 37.5695 29.68 39.5559 28.7834 39.9874C28.4701 40.1391 28.4307 39.9362 28.3893 39.8101Z" fill="#F7F7F2"/>
<path d="M28.3677 50.1964C27.0021 51.1285 24.598 53.0399 23.7842 54.1238C24.4339 54.7023 25.1204 55.2381 25.8395 55.7278C26.9233 54.4193 28.9923 52.4764 29.9934 52.0251C30.9944 51.5739 29.2406 49.5994 28.3677 50.1964Z" fill="#F7F7F2"/>
<path d="M25.2719 52.6162C24.7315 53.0728 24.2336 53.5773 23.7842 54.1237C24.4339 54.7022 25.1204 55.238 25.8395 55.7277C26.2001 55.2942 26.6691 54.7897 27.1716 54.2931C26.6243 53.6438 25.9842 53.0787 25.2719 52.6162Z" fill="#B58A61"/>
<path d="M38.8846 53.1878C39.6452 53.7789 41.4246 55.3219 44.4218 55.1347C44.5578 54.6775 44.7095 53.1878 44.6425 52.8666C43.6099 52.7818 41.8837 52.4429 40.6797 51.0201C39.4757 49.5974 37.6313 52.2044 38.8846 53.1878Z" fill="#F7F7F2"/>
<path d="M43.2828 52.6279C43.2458 53.4639 43.0561 54.286 42.7231 55.0537C43.2844 55.145 43.8543 55.1721 44.4218 55.1345C44.5577 54.6773 44.7095 53.1876 44.6425 52.8664C44.1827 52.8301 43.7274 52.7502 43.2828 52.6279Z" fill="#B58A61"/>
<path d="M39.8835 47.6508C40.2402 47.2272 41.2491 46.4941 42.4236 47.1089C44 47.9326 43.0345 50.0648 45.8622 49.8342C45.7872 50.1296 45.6525 50.4065 45.4664 50.6478C45.2803 50.8892 45.0468 51.0899 44.7802 51.2375C44.5137 51.3852 44.2197 51.4768 43.9164 51.5065C43.6131 51.5363 43.3069 51.5037 43.0167 51.4107C42.3783 51.1545 41.5625 50.6047 41.1703 49.2726C40.8255 48.0962 40.323 48.039 39.8835 47.6508Z" fill="#CE9851"/>
<path d="M25.4552 40.3735C26.5174 39.8296 27.6898 38.8286 29.2486 39.5616C30.7304 40.2592 31.0102 42.0898 31.0556 44.1215C31.1009 46.1531 31.9581 47.4438 33.5838 47.5089C36.2598 47.6172 37.7495 46.7857 39.4442 47.2606C41.1389 47.7355 41.9153 50.0036 41.2394 52.0372C40.5635 54.0708 37.783 54.8807 34.8035 54.9142C31.8241 54.9477 28.8761 53.5939 27.8593 51.6647C26.9213 49.8913 26.742 46.5157 26.5725 45.1954C24.602 45.2959 22.4344 45.3314 22.0403 43.9422C21.6462 42.5529 22.594 41.8415 25.4552 40.3735Z" fill="#F7F7F2"/>
<path d="M24.8424 44.2353C24.8522 44.5647 24.8344 44.8943 24.7892 45.2206C24.9252 45.2206 25.0611 45.2206 25.1991 45.2206C25.2411 44.8847 25.2583 44.5462 25.2503 44.2078C25.2129 42.8875 24.799 41.7367 24.1823 41.0332L23.8217 41.2303C24.4049 41.8786 24.8109 42.9801 24.8424 44.2353Z" fill="#B58A61"/>
<path d="M30.8033 41.7412C29.2604 42.7501 26.6021 43.4418 25.006 43.3945L24.9941 43.8004H25.1459C26.6435 43.8004 29.2229 43.2093 30.892 42.1688C30.8664 42.023 30.8368 41.8811 30.8033 41.7412Z" fill="#B58A61"/>
<path d="M27.4869 41.5876C27.4869 41.7115 27.4502 41.8327 27.3813 41.9357C27.3125 42.0388 27.2146 42.1191 27.1001 42.1665C26.9856 42.2139 26.8596 42.2263 26.738 42.2022C26.6165 42.178 26.5048 42.1183 26.4172 42.0307C26.3295 41.943 26.2699 41.8314 26.2457 41.7098C26.2215 41.5883 26.2339 41.4623 26.2813 41.3478C26.3288 41.2333 26.4091 41.1354 26.5121 41.0665C26.6152 40.9977 26.7363 40.9609 26.8603 40.9609C27.0265 40.9609 27.1859 41.027 27.3034 41.1445C27.4209 41.262 27.4869 41.4214 27.4869 41.5876Z" fill="#564537"/>
<path d="M38.6698 50.8155C39.0382 50.1967 38.7919 48.439 38.4983 47.1168C37.1465 47.0655 35.7553 47.5956 33.5838 47.5109C33.2566 47.5094 32.9335 47.4383 32.6359 47.3024C32.3383 47.1665 32.073 46.9689 31.8576 46.7227C31.5088 47.8538 31.0792 50.1357 31.6605 50.8214C32.2418 51.5072 33.9444 51.6609 35.0715 51.6786C36.1987 51.6963 38.1988 51.6057 38.6698 50.8155Z" fill="#EA6877"/>
<path d="M35.3198 51.9757C37.3159 51.9757 38.5318 51.6368 38.9298 50.9707C39.3732 50.2239 39.0697 48.342 38.8076 47.14C38.6022 47.1177 38.3955 47.1091 38.1889 47.1144C38.5022 48.4938 38.7071 50.1608 38.4096 50.6614C38.1455 51.1067 36.9888 51.3727 35.3198 51.3727H35.0892C33.4517 51.3491 32.291 51.0752 31.9048 50.622C31.4772 50.1234 31.7412 48.2356 32.1019 46.9626C31.9266 46.8104 31.7739 46.6339 31.6486 46.4385C31.6185 46.4959 31.5934 46.5559 31.5737 46.6178C31.5639 46.6513 30.5471 49.9677 31.4358 51.0161C32.0861 51.7767 33.7709 51.96 35.0715 51.9777L35.3198 51.9757Z" fill="#E2A347"/>
</g>
<defs>
<filter id="filter0_d_1161_631" x="0.29187" y="0.594727" width="63.7213" height="74.5117" filterUnits="userSpaceOnUse" color-interpolation-filters="sRGB">
<feFlood flood-opacity="0" result="BackgroundImageFix"/>
<feColorMatrix in="SourceAlpha" type="matrix" values="0 0 0 0 0 0 0 0 0 0 0 0 0 0 0 0 0 0 127 0" result="hardAlpha"/>
<feOffset dy="4"/>
<feGaussianBlur stdDeviation="2"/>
<feComposite in2="hardAlpha" operator="out"/>
<feColorMatrix type="matrix" values="0 0 0 0 0 0 0 0 0 0 0 0 0 0 0 0 0 0 0.25 0"/>
<feBlend mode="normal" in2="BackgroundImageFix" result="effect1_dropShadow_1161_631"/>
<feBlend mode="normal" in="SourceGraphic" in2="effect1_dropShadow_1161_631" result="shape"/>
</filter>
<filter id="filter1_d_1161_631" x="1.53101" y="27.8506" width="63.7213" height="44.2402" filterUnits="userSpaceOnUse" color-interpolation-filters="sRGB">
<feFlood flood-opacity="0" result="BackgroundImageFix"/>
<feColorMatrix in="SourceAlpha" type="matrix" values="0 0 0 0 0 0 0 0 0 0 0 0 0 0 0 0 0 0 127 0" result="hardAlpha"/>
<feOffset dy="4"/>
<feGaussianBlur stdDeviation="2"/>
<feComposite in2="hardAlpha" operator="out"/>
<feColorMatrix type="matrix" values="0 0 0 0 0 0 0 0 0 0 0 0 0 0 0 0 0 0 0.25 0"/>
<feBlend mode="normal" in2="BackgroundImageFix" result="effect1_dropShadow_1161_631"/>
<feBlend mode="normal" in="SourceGraphic" in2="effect1_dropShadow_1161_631" result="shape"/>
</filter>
<clipPath id="clip0_1161_631">
<rect width="55.7213" height="66.512" fill="white" transform="translate(4.29187 0.594727)"/>
</clipPath>
<clipPath id="clip1_1161_631">
<rect width="55.7213" height="36.2404" fill="white" transform="translate(5.53101 27.8506)"/>
</clipPath>
</defs>
</svg>
