<svg width="55" height="43" viewBox="0 0 55 43" fill="none" xmlns="http://www.w3.org/2000/svg">
<g clip-path="url(#clip0_1160_633)">
<path d="M27.31 16.2699C27.31 16.1599 27.31 16.1499 27.21 16.2699C22.94 24.4699 20.31 32.6599 22.21 41.9199C22.2229 41.9747 22.2533 42.0239 22.2966 42.0599C22.3399 42.096 22.3937 42.1171 22.45 42.1199H32.18C32.2047 42.1213 32.2293 42.1166 32.2518 42.1062C32.2743 42.0958 32.2938 42.0799 32.3086 42.0601C32.3235 42.0403 32.3332 42.0172 32.3369 41.9927C32.3406 41.9682 32.3383 41.9432 32.33 41.9199L27.31 16.2699Z" fill="#7D5B25"/>
<path d="M5.82 17.43C6.06 18.27 6.32 19.08 6.62 19.87C4.4 20.1 2.19 20.45 0 20.87C0.517793 19.1204 1.36272 17.4848 2.49 16.05C3.65366 14.5075 5.16708 13.2634 6.90564 12.4202C8.64421 11.577 10.5582 11.1588 12.49 11.2C16.7833 11.4499 20.8467 13.2228 23.95 16.2C25.4494 17.5648 26.7369 19.1455 27.77 20.89C25.95 20.52 24.12 20.21 22.29 19.99C21.48 19.04 20.63 18.11 19.74 17.19C19.81 18.06 19.9 18.91 20.04 19.73C18.57 19.6 17.09 19.52 15.6 19.48C14.7 18.62 13.77 17.77 12.8 16.95C12.96 17.81 13.14 18.64 13.36 19.45C11.88 19.45 10.4 19.51 8.92 19.63C7.92 18.86 6.92 18.11 5.92 17.39C5.83 17.39 5.81 17.39 5.82 17.43Z" fill="#41AC51"/>
<path d="M13.4701 3.82989C13.1001 4.61989 12.7701 5.39989 12.4701 6.17989C10.6501 4.90989 8.76006 3.70989 6.81006 2.61989C8.33424 1.64106 10.0313 0.962244 11.8101 0.619893C13.7148 0.207879 15.6908 0.260866 17.5708 0.774369C19.4507 1.28787 21.1792 2.24677 22.6101 3.56989C25.6967 6.56517 27.6088 10.5667 28.0001 14.8499C28.2346 16.8486 28.1672 18.8712 27.8001 20.8499C26.6801 19.3699 25.5034 17.9432 24.2701 16.5699C24.2701 15.3199 24.2701 14.0599 24.1901 12.7899C24.1901 12.7399 24.1901 12.7399 24.1901 12.7899C23.6701 13.4899 23.1901 14.1899 22.7501 14.9099C21.7301 13.8366 20.6701 12.7999 19.5701 11.7999C19.4601 10.5599 19.3201 9.29989 19.1301 8.04989C19.1301 7.99989 19.1301 7.99989 19.1301 8.04989C18.6801 8.79989 18.2701 9.54989 17.9101 10.2999C16.7834 9.33989 15.6267 8.41323 14.4401 7.51989C14.2101 6.28989 13.9301 5.05989 13.6201 3.82989C13.5101 3.78989 13.4901 3.78989 13.4701 3.82989Z" fill="#46854E"/>
<path d="M7.16008 9.42063C7.16008 10.2906 7.16008 11.1406 7.22008 11.9806C5.00008 11.5706 2.81008 11.2606 0.580078 11.0606C1.586 9.54249 2.86419 8.22361 4.35008 7.17063C5.91219 6.02503 7.72464 5.26787 9.63747 4.96182C11.5503 4.65577 13.5085 4.80961 15.3501 5.41063C19.388 6.8772 22.7682 9.73958 24.8801 13.4806C25.9237 15.2235 26.7054 17.1103 27.2001 19.0806C25.5601 18.1906 23.9001 17.3806 22.2001 16.6306C21.6901 15.4906 21.2001 14.3506 20.5701 13.2206C20.5701 13.2206 20.5701 13.2206 20.5201 13.2206C20.3401 14.0706 20.1901 14.9106 20.0901 15.7406C18.7101 15.1906 17.3201 14.6806 15.9101 14.2206C15.3401 13.1306 14.6801 12.0606 14.0001 11.0006C13.9001 11.8706 13.8301 12.7206 13.8101 13.5506C12.3901 13.1406 10.9501 12.7706 9.50008 12.4506C8.78008 11.4506 8.03008 10.4506 7.24008 9.45063C7.18008 9.37063 7.16008 9.38063 7.16008 9.42063Z" fill="#AECD38"/>
<path d="M48.0598 16.5704C47.8698 17.4204 47.6598 18.2504 47.3998 19.0404C49.6298 19.1504 51.8498 19.3804 54.0698 19.7004C53.4523 17.9746 52.5161 16.3803 51.3098 15.0004C50.0534 13.5234 48.4622 12.368 46.6688 11.6305C44.8754 10.8929 42.9318 10.5946 40.9998 10.7604C36.7281 11.241 32.7694 13.2345 29.8398 16.3804C28.415 17.8267 27.215 19.4784 26.2798 21.2804C28.0798 20.8004 29.8798 20.3904 31.6998 20.0604C32.4598 19.0604 33.2598 18.0604 34.0898 17.1304C34.0898 18.0004 34.0198 18.8504 33.9198 19.6804C35.3898 19.4604 36.8598 19.3004 38.3398 19.1804C39.1898 18.2604 40.0798 17.3704 40.9998 16.4904C40.8998 17.3604 40.7598 18.2004 40.5898 19.0204C42.0698 18.9504 43.5898 18.9204 45.0398 18.9504C45.9698 18.1204 46.9398 17.3204 47.9398 16.5304C48.0498 16.5204 48.0698 16.5304 48.0598 16.5704Z" fill="#41AC51"/>
<path d="M39.6502 3.42015C40.0702 4.18015 40.4502 4.95015 40.7802 5.72015C42.533 4.33155 44.3553 3.0332 46.2402 1.83015C44.6453 0.943769 42.8986 0.363781 41.0902 0.120152C39.1715 -0.171551 37.2109 -0.00167143 35.3709 0.615706C33.531 1.23308 31.8647 2.28017 30.5102 3.67015C27.6094 6.84091 25.9387 10.9449 25.8002 15.2402C25.6776 17.2559 25.8597 19.2787 26.3402 21.2402C27.3402 19.7002 28.4702 18.2402 29.6302 16.7602C29.5502 15.5202 29.5002 14.2602 29.4902 12.9902C30.0502 13.6602 30.5702 14.3302 31.0502 14.9902C32.0502 13.8602 33.0502 12.7702 34.0502 11.7002C34.0502 10.4602 34.1702 9.20015 34.2902 7.93015C34.7702 8.65015 35.2302 9.37015 35.6302 10.1002C36.7036 9.08015 37.8069 8.08015 38.9402 7.10015C39.1002 5.86015 39.3002 4.62015 39.5402 3.37015C39.6102 3.39015 39.6302 3.38015 39.6502 3.42015Z" fill="#46854E"/>
<path d="M46.2698 8.64012C46.3398 9.51012 46.3698 10.3701 46.3598 11.2001C48.5198 10.6701 50.7198 10.2001 52.9298 9.91012C51.8381 8.447 50.4813 7.20207 48.9298 6.24012C47.3056 5.18037 45.4514 4.5248 43.522 4.32821C41.5927 4.13163 39.6443 4.39973 37.8398 5.11012C33.89 6.80336 30.6764 9.85385 28.7798 13.7101C27.8333 15.5036 27.1592 17.428 26.7798 19.4201C28.3598 18.4201 29.9798 17.5401 31.6298 16.6901C32.0698 15.5301 32.5498 14.3601 33.0598 13.2001C33.2898 14.0401 33.4898 14.8701 33.6398 15.6901C34.9798 15.0601 36.3498 14.4701 37.7298 13.9301C38.2765 12.8101 38.8665 11.7001 39.4998 10.6001C39.6398 11.4601 39.7598 12.3001 39.8298 13.1301C41.2298 12.6401 42.6398 12.1901 44.0598 11.7901C44.7198 10.7301 45.4198 9.68012 46.1498 8.64012C46.2498 8.60012 46.2698 8.60012 46.2698 8.64012Z" fill="#AECD38"/>
<path d="M19.3498 19.9097C18.8642 20.9316 18.802 22.1038 19.1765 23.1714C19.5511 24.2389 20.3322 25.1153 21.3498 25.6097C21.8823 25.8001 22.4471 25.8836 23.0119 25.8555C23.5767 25.8273 24.1303 25.688 24.6412 25.4456C25.1521 25.2031 25.6102 24.8623 25.9891 24.4426C26.3681 24.0229 26.6606 23.5326 26.8498 22.9997C27.3354 21.9779 27.3977 20.8056 27.0231 19.738C26.6485 18.6705 25.8674 17.7941 24.8498 17.2997C24.3176 17.1065 23.7522 17.0209 23.1866 17.0478C22.621 17.0747 22.0664 17.2135 21.5548 17.4563C21.0433 17.699 20.585 18.0409 20.2065 18.462C19.828 18.8832 19.5368 19.3752 19.3498 19.9097Z" fill="#F49E16"/>
<path d="M25.4902 23.2806C25.9463 24.3179 26.795 25.132 27.8504 25.5444C28.9058 25.9568 30.0817 25.9339 31.1202 25.4806C32.1066 24.9236 32.8326 23.999 33.1398 22.9087C33.4471 21.8183 33.3106 20.6507 32.7602 19.6606C32.302 18.6251 31.4531 17.8128 30.3984 17.4007C29.3438 16.9886 28.169 17.0101 27.1302 17.4606C26.1438 18.0177 25.4178 18.9422 25.1105 20.0326C24.8033 21.1229 24.9398 22.2905 25.4902 23.2806Z" fill="#F49E16"/>
<path d="M22.5699 23.44C22.671 23.9951 22.8807 24.5249 23.1868 24.9989C23.493 25.473 23.8897 25.8819 24.3541 26.2024C24.8186 26.5229 25.3417 26.7486 25.8935 26.8666C26.4453 26.9845 27.015 26.9925 27.5699 26.89C28.659 26.5781 29.5799 25.8472 30.131 24.8575C30.6821 23.8678 30.8184 22.7 30.5099 21.61C30.4101 21.0542 30.2012 20.5237 29.8954 20.049C29.5896 19.5743 29.1929 19.1648 28.7281 18.8441C28.2633 18.5234 27.7397 18.2979 27.1874 18.1805C26.6351 18.0631 26.065 18.0561 25.5099 18.16C24.4209 18.4718 23.4999 19.2027 22.9488 20.1924C22.3977 21.1822 22.2615 22.35 22.5699 23.44Z" fill="#F7C85E"/>
</g>
<defs>
<clipPath id="clip0_1160_633">
<rect width="54.07" height="42.1" fill="white"/>
</clipPath>
</defs>
</svg>
