<svg width="50" height="67" viewBox="0 0 50 67" fill="none" xmlns="http://www.w3.org/2000/svg">
<path d="M18.6101 61.0801L16.7939 52.0455L17.4505 51.9111L19.2666 60.9495L18.6101 61.0801Z" fill="#FFEBB0"/>
<path d="M24.4577 61.0225L24.4424 51.9726L25.1143 51.9688L25.1297 61.0225H24.4577Z" fill="#FFEBB0"/>
<path d="M30.9735 61.0801L30.3169 60.9495L32.133 51.9111L32.7896 52.0455L30.9735 61.0801Z" fill="#FFEBB0"/>
<path d="M19.3203 66.6666H30.2632C30.5015 66.6666 30.73 66.572 30.8985 66.4035C31.067 66.235 31.1616 66.0065 31.1616 65.7682V60.6846H18.4296V65.7682C18.4306 66.0048 18.5245 66.2316 18.6911 66.3997C18.8577 66.5678 19.0837 66.6636 19.3203 66.6666Z" fill="#C48A51"/>
<path d="M49.2306 20.753C48.8137 18.1839 47.9893 15.6978 46.7887 13.3886C45.6205 11.1193 44.1048 9.04646 42.2964 7.2453C41.4004 6.34678 40.4363 5.51881 39.4128 4.76877C37.3411 3.25341 35.0456 2.07067 32.6091 1.26322C31.3653 0.848447 30.0903 0.533877 28.7964 0.322526C27.6799 0.138944 26.5524 0.0311895 25.4214 1.0327e-06C25.2064 1.0327e-06 24.9913 1.0327e-06 24.7763 1.0327e-06C19.9976 -0.00137862 15.3205 1.37965 11.3089 3.97656C7.29736 6.57347 4.12267 10.2754 2.16765 14.6359C0.212633 18.9965 -0.439251 23.8295 0.290605 28.5521C1.02046 33.2748 3.10089 37.6856 6.28105 41.2525C10.9269 46.2939 15.3962 50.2141 16.7401 52.3067H32.8126C34.1603 50.2141 38.6257 46.2939 43.2716 41.2525C43.6632 40.8148 44.0395 40.363 44.4004 39.8971C44.7575 39.4325 45.1031 38.9526 45.4295 38.465C45.7558 37.9773 46.063 37.4705 46.3548 36.956C46.6466 36.4415 46.9192 35.9155 47.1765 35.3818C47.4337 34.8481 47.6641 34.299 47.8829 33.7423C48.1018 33.1855 48.2938 32.6211 48.4704 32.0452C48.647 31.4692 48.8045 30.8933 48.9388 30.2943C49.0732 29.6954 49.1884 29.1041 49.2767 28.4974C49.365 27.8907 49.438 27.2726 49.4879 26.6544C49.5378 26.0362 49.557 25.4065 49.557 24.773C49.5575 23.4263 49.4484 22.0819 49.2306 20.753Z" fill="#FC9BAB"/>
<path d="M24.7764 0C13.9066 0 5.09473 11.0926 5.09473 24.773C5.09473 31.1006 6.97996 36.8715 10.0862 41.2525C13.776 46.2939 17.3238 50.2141 18.395 52.3067H22.4036C22.0196 50.2141 20.6834 46.2939 19.3127 41.2525C18.157 36.86 17.4543 31.1006 17.4543 24.773C17.4543 11.0926 20.7334 0 24.7764 0Z" fill="#FFF78C"/>
<path d="M24.7764 0C29.2303 0 32.8395 11.0926 32.8395 24.773C32.8395 31.1006 32.0716 36.8715 30.793 41.2525C29.2802 46.2939 27.8288 50.2141 27.3911 52.3067H31.3766C32.4786 50.2141 36.1454 46.2939 39.9619 41.2525C43.1718 36.86 45.1185 31.1006 45.1185 24.773C45.1185 11.0926 36.011 0 24.7764 0Z" fill="#FFF78C"/>
<path d="M5.09461 24.773C5.09461 11.0926 13.9065 1.0327e-06 24.7763 1.0327e-06C19.9976 -0.00137862 15.3205 1.37965 11.3089 3.97656C7.29736 6.57347 4.12267 10.2754 2.16765 14.6359C0.212633 18.9965 -0.43925 23.8295 0.290605 28.5521C1.02046 33.2748 3.10089 37.6856 6.28105 41.2525C10.9269 46.2939 15.3962 50.2141 16.7401 52.3067H18.3949C17.3237 50.2141 13.7874 46.2939 10.0861 41.2525C6.97985 36.86 5.09461 31.1006 5.09461 24.773Z" fill="#FC9BAB"/>
<path d="M24.7764 0C20.7334 0 17.4543 11.0926 17.4543 24.773C17.4543 31.1006 18.157 36.86 19.3127 41.2525C20.6834 46.2939 22.0004 50.2141 22.4036 52.3067H27.395C27.8327 50.2141 29.2841 46.2939 30.7969 41.2525C32.0716 36.86 32.8434 31.1006 32.8434 24.773C32.8434 11.0926 29.2304 0 24.7764 0Z" fill="#FC9BAB"/>
<path d="M49.2307 20.753C48.8138 18.1839 47.9894 15.6978 46.7888 13.3886C45.6206 11.1193 44.1049 9.04646 42.2965 7.2453C41.4005 6.34678 40.4364 5.5188 39.4129 4.76876C37.3412 3.25341 35.0457 2.07066 32.6092 1.26322C31.3654 0.848446 30.0904 0.533876 28.7965 0.322525C27.6723 0.13877 26.5371 0.0310173 25.3984 0C36.3451 0.403156 45.1185 11.3345 45.1185 24.7615C45.1185 31.0891 43.1719 36.86 39.962 41.241C36.1454 46.2824 32.4786 50.2026 31.3767 52.2951H32.8127C34.1604 50.2026 38.6258 46.2824 43.2717 41.241C43.6633 40.8033 44.0396 40.3515 44.4005 39.8856C44.7576 39.421 45.1032 38.9411 45.4296 38.4534C45.7559 37.9658 46.0631 37.459 46.3549 36.9445C46.6467 36.43 46.9193 35.904 47.1766 35.3703C47.4338 34.8366 47.6642 34.2875 47.883 33.7308C48.1019 33.174 48.2939 32.6096 48.4705 32.0337C48.6471 31.4577 48.8045 30.8818 48.9389 30.2828C49.0733 29.6838 49.1885 29.0925 49.2768 28.4859C49.3651 27.8792 49.4381 27.2611 49.488 26.6429C49.5379 26.0247 49.5571 25.395 49.5571 24.7615C49.557 23.4187 49.4479 22.0781 49.2307 20.753Z" fill="#FC9BAB"/>
</svg>
