<svg width="63" height="84" viewBox="0 0 63 84" fill="none" xmlns="http://www.w3.org/2000/svg">
<g clip-path="url(#clip0_192_6419)">
<path d="M23.7145 76.926L21.4443 65.6328L22.265 65.4648L24.54 76.7628L23.7145 76.926Z" fill="#FFEBB0"/>
<path d="M31.0241 76.8543L31.0049 65.5419L31.8448 65.5371L31.864 76.8543H31.0241Z" fill="#FFEBB0"/>
<path d="M39.1737 76.926L38.3481 76.7628L40.6183 65.4648L41.4438 65.6328L39.1737 76.926Z" fill="#FFEBB0"/>
<path d="M24.6024 83.9092H38.2809C38.5788 83.9092 38.8644 83.7909 39.075 83.5803C39.2856 83.3697 39.404 83.084 39.404 82.7861V76.4316H23.4889V82.7861C23.4889 83.0824 23.6059 83.3666 23.8144 83.5769C24.023 83.7873 24.3062 83.9067 24.6024 83.9092Z" fill="#C48A51"/>
<path d="M61.9902 26.5174C61.4676 23.307 60.439 20.1999 58.9425 17.312C58.2078 15.896 57.3654 14.5386 56.4228 13.2516C55.4826 11.9743 54.4478 10.7695 53.3271 9.64719C49.9274 6.24097 45.7793 3.67555 41.2133 2.1552C39.6585 1.63673 38.0648 1.24352 36.4474 0.97933C35.0518 0.749852 33.6424 0.615159 32.2286 0.576173C31.9599 0.576173 31.6911 0.576173 31.4223 0.576173C25.4489 0.574449 19.6025 2.30073 14.588 5.54687C9.5736 8.793 5.60525 13.4204 3.16147 18.8711C0.717696 24.3218 -0.0971588 30.363 0.815161 36.2663C1.72748 42.1697 4.32802 47.6831 8.30321 52.1418C14.1106 58.4435 19.6972 63.3438 21.377 65.9595H41.4676C43.1522 63.3438 48.734 58.4435 54.5462 52.1418C55.0326 51.5947 55.5013 51.0299 55.9525 50.4476C56.4036 49.8668 56.8308 49.2669 57.2387 48.6574C57.6467 48.0478 58.0306 47.4143 58.3954 46.7712C58.7602 46.128 59.1009 45.4705 59.4225 44.8034C59.7441 44.1363 60.032 43.4499 60.3056 42.754C60.5792 42.0581 60.8191 41.3526 61.0399 40.6326C61.2607 39.9127 61.4575 39.1928 61.6255 38.4441C61.7934 37.6954 61.9374 36.9562 62.0526 36.1979C62.1678 35.4396 62.2494 34.6669 62.3118 33.8942C62.3742 33.1214 62.3982 32.3343 62.3982 31.5424C62.3988 29.8591 62.2624 28.1785 61.9902 26.5174Z" fill="#FC869A"/>
<path d="M31.4225 0.576172C17.8351 0.576172 6.82031 14.4419 6.82031 31.5424C6.82031 39.452 9.17686 46.6656 13.0596 52.1418C17.6719 58.4435 22.1067 63.3438 23.4457 65.9595H28.4564C27.9764 63.3438 26.3062 58.4435 24.5928 52.1418C23.1481 46.6512 22.2698 39.452 22.2698 31.5424C22.2698 14.4419 26.3686 0.576172 31.4225 0.576172Z" fill="white"/>
<path d="M31.4225 0.576172C36.9947 0.576172 41.5014 14.4419 41.5014 31.5424C41.5014 39.452 40.5415 46.6656 38.9433 52.1418C37.0523 58.4435 35.2381 63.3438 34.6909 65.9595H39.6728C41.0502 63.3438 45.6337 58.4435 50.4044 52.1418C54.4168 46.6512 56.8501 39.452 56.8501 31.5424C56.8501 14.4419 45.4658 0.576172 31.4225 0.576172Z" fill="white"/>
<path d="M6.82017 31.5424C6.82017 14.4419 17.835 0.576173 31.4223 0.576173C25.4489 0.574449 19.6025 2.30073 14.588 5.54687C9.5736 8.793 5.60525 13.4204 3.16147 18.8711C0.717696 24.3218 -0.0971588 30.363 0.815161 36.2663C1.72748 42.1697 4.32802 47.6831 8.30321 52.1418C14.1106 58.4435 19.6972 63.3438 21.377 65.9595H23.4456C22.1065 63.3438 17.6862 58.4435 13.0595 52.1418C9.17672 46.6512 6.82017 39.452 6.82017 31.5424Z" fill="#FFD929"/>
<path d="M31.4224 0.576172C26.3685 0.576172 22.2698 14.4419 22.2698 31.5424C22.2698 39.452 23.1481 46.6512 24.5927 52.1418C26.3061 58.4435 27.9524 63.3438 28.4563 65.9595H34.6956C35.2428 63.3438 37.057 58.4435 38.948 52.1418C40.5414 46.6512 41.5061 39.452 41.5061 31.5424C41.5061 14.4419 36.9946 0.576172 31.4224 0.576172Z" fill="#FFD929"/>
<path d="M61.9903 26.5174C61.4678 23.307 60.4391 20.1999 58.9427 17.312C58.2079 15.896 57.3655 14.5386 56.4229 13.2516C55.4827 11.9743 54.4479 10.7695 53.3273 9.64719C49.9275 6.24097 45.7795 3.67555 41.2134 2.1552C39.6587 1.63673 38.0649 1.24352 36.4475 0.979328C35.0423 0.749634 33.6232 0.614944 32.2 0.576172C45.8833 1.08012 56.8501 14.7442 56.8501 31.528C56.8501 39.4376 54.4167 46.6512 50.4044 52.1274C45.6337 58.4291 41.0502 63.3294 39.6727 65.9451H41.4677C43.1524 63.3294 48.7342 58.4291 54.5463 52.1274C55.0327 51.5803 55.5014 51.0155 55.9526 50.4332C56.4037 49.8524 56.8309 49.2525 57.2388 48.643C57.6468 48.0334 58.0308 47.3999 58.3955 46.7568C58.7603 46.1136 59.101 45.4561 59.4226 44.789C59.7442 44.1219 60.0321 43.4355 60.3057 42.7396C60.5793 42.0437 60.8193 41.3382 61.04 40.6182C61.2608 39.8983 61.4576 39.1784 61.6256 38.4297C61.7935 37.681 61.9375 36.9418 62.0527 36.1835C62.1679 35.4252 62.2495 34.6525 62.3119 33.8798C62.3743 33.1071 62.3983 32.3199 62.3983 31.528C62.3982 29.8495 62.2617 28.1738 61.9903 26.5174Z" fill="#FFD929"/>
</g>
<defs>
<clipPath id="clip0_192_6419">
<rect width="61.9469" height="83.3334" fill="white" transform="translate(0.451416 0.576172)"/>
</clipPath>
</defs>
</svg>
