<svg width="50" height="67" viewBox="0 0 50 67" fill="none" xmlns="http://www.w3.org/2000/svg">
<path d="M18.6106 61.0801L16.7944 52.0455L17.4548 51.9111L19.2671 60.9495L18.6106 61.0801Z" fill="#FFEBB0"/>
<path d="M24.4582 61.0225L24.4429 51.9726L25.1148 51.9688L25.1302 61.0225H24.4582Z" fill="#FFEBB0"/>
<path d="M30.9778 61.0801L30.3174 60.9495L32.1335 51.9111L32.7939 52.0455L30.9778 61.0801Z" fill="#FFEBB0"/>
<path d="M19.321 66.6666H30.2638C30.5021 66.6666 30.7306 66.572 30.8991 66.4035C31.0676 66.235 31.1622 66.0065 31.1622 65.7682V60.6846H18.4302V65.7682C18.4302 66.0051 18.5238 66.2325 18.6906 66.4008C18.8574 66.5691 19.084 66.6646 19.321 66.6666V66.6666Z" fill="#C48A51"/>
<path d="M49.2311 20.753C49.0225 19.4601 48.7092 18.1863 48.2943 16.9441C47.4833 14.5069 46.2966 12.2113 44.7772 10.1403C44.0251 9.11853 43.1972 8.15464 42.3007 7.25682C39.5809 4.53184 36.2624 2.47951 32.6096 1.26322C31.3657 0.848934 30.0907 0.534373 28.7969 0.322526C27.6804 0.138944 26.5529 0.0311895 25.4219 1.0327e-06C25.2069 1.0327e-06 24.9918 1.0327e-06 24.7768 1.0327e-06C19.9981 -0.00137862 15.3209 1.37965 11.3094 3.97656C7.29784 6.57347 4.12316 10.2754 2.16814 14.6359C0.213121 18.9965 -0.438762 23.8295 0.291094 28.5521C1.02095 33.2748 3.10138 37.6856 6.28154 41.2525C10.9274 46.2939 15.3967 50.2141 16.7406 52.3067H32.8169C34.1608 50.2141 38.6262 46.2939 43.2759 41.2525C43.665 40.8148 44.04 40.363 44.4009 39.8971C44.7619 39.4325 45.1036 38.9526 45.4299 38.465C45.7563 37.9773 46.0635 37.4705 46.3553 36.956C46.6471 36.4415 46.9197 35.9155 47.177 35.3818C47.4342 34.8481 47.6646 34.299 47.8834 33.7423C48.1023 33.1855 48.2943 32.6211 48.4709 32.0452C48.6475 31.4692 48.8049 30.8933 48.9393 30.2943C49.0737 29.6954 49.1889 29.1041 49.2772 28.4974C49.3655 27.8907 49.4385 27.2726 49.4884 26.6544C49.5383 26.0362 49.5575 25.4065 49.5575 24.773C49.558 23.4263 49.4489 22.0819 49.2311 20.753V20.753Z" fill="#FC869A"/>
<path d="M24.7769 0C13.9071 0 5.09521 11.0926 5.09521 24.773C5.09521 31.1006 6.98045 36.8715 10.0867 41.2525C13.7765 46.2939 17.3243 50.2141 18.3955 52.3067H22.4041C22.0201 50.2141 20.6878 46.2939 19.3132 41.2525C18.1575 36.86 17.4548 31.1006 17.4548 24.773C17.4548 11.0926 20.7338 0 24.7769 0Z" fill="#AAC2E5"/>
<path d="M24.7769 0C29.2346 0 32.84 11.0926 32.84 24.773C32.84 31.1006 32.0721 36.8715 30.7935 41.2525C29.2807 46.2939 27.8293 50.2141 27.3916 52.3067H31.3771C32.4791 50.2141 36.1459 46.2939 39.9624 41.2525C43.1723 36.86 45.119 31.1006 45.119 24.773C45.119 11.0926 36.0115 0 24.7769 0Z" fill="#AAC2E5"/>
<path d="M5.0951 24.773C5.0951 11.0926 13.907 1.0327e-06 24.7768 1.0327e-06C19.9981 -0.00137862 15.3209 1.37965 11.3094 3.97656C7.29784 6.57347 4.12316 10.2754 2.16814 14.6359C0.213121 18.9965 -0.438762 23.8295 0.291094 28.5521C1.02095 33.2748 3.10138 37.6856 6.28154 41.2525C10.9274 46.2939 15.3967 50.2141 16.7406 52.3067H18.3954C17.3242 50.2141 13.7879 46.2939 10.0866 41.2525C6.98034 36.86 5.0951 31.1006 5.0951 24.773Z" fill="#7199D3"/>
<path d="M24.7769 0C20.7338 0 17.4548 11.0926 17.4548 24.773C17.4548 31.1006 18.1575 36.86 19.3132 41.2525C20.6878 46.2939 22.0009 50.2141 22.4041 52.3067H27.3955C27.8332 50.2141 29.2846 46.2939 30.7974 41.2525C32.0721 36.86 32.8439 31.1006 32.8439 24.773C32.8439 11.0926 29.2347 0 24.7769 0Z" fill="#7199D3"/>
<path d="M49.2312 20.753C49.0226 19.4601 48.7092 18.1863 48.2944 16.9441C47.4834 14.5069 46.2967 12.2113 44.7773 10.1403C44.0252 9.11852 43.1973 8.15464 42.3008 7.25682C39.581 4.53184 36.2625 2.4795 32.6097 1.26322C31.3658 0.848933 30.0908 0.534372 28.797 0.322525C27.6728 0.13877 26.5376 0.0310173 25.3989 0C36.3456 0.403156 45.119 11.3345 45.119 24.7615C45.119 31.0891 43.1724 36.86 39.9625 41.241C36.1459 46.2824 32.4791 50.2026 31.3772 52.2951H32.817C34.1609 50.2026 38.6263 46.2824 43.276 41.241C43.6651 40.8033 44.0401 40.3515 44.401 39.8856C44.762 39.421 45.1037 38.9411 45.43 38.4534C45.7564 37.9658 46.0636 37.459 46.3554 36.9445C46.6472 36.43 46.9198 35.904 47.1771 35.3703C47.4343 34.8366 47.6647 34.2875 47.8835 33.7308C48.1024 33.174 48.2944 32.6096 48.471 32.0337C48.6476 31.4577 48.805 30.8818 48.9394 30.2828C49.0738 29.6838 49.189 29.0925 49.2773 28.4859C49.3656 27.8792 49.4386 27.2611 49.4885 26.6429C49.5384 26.0247 49.5576 25.395 49.5576 24.7615C49.5575 23.4187 49.4483 22.0781 49.2312 20.753V20.753Z" fill="#7199D3"/>
</svg>
