<svg width="50" height="67" viewBox="0 0 50 67" fill="none" xmlns="http://www.w3.org/2000/svg">
<g clip-path="url(#clip0_192_6406)">
<path d="M18.6106 58.0801L16.7944 49.0455L17.4548 48.9111L19.2671 57.9495L18.6106 58.0801Z" fill="#FFEBB0"/>
<path d="M24.4582 58.0225L24.4429 48.9726L25.1148 48.9688L25.1302 58.0225H24.4582Z" fill="#FFEBB0"/>
<path d="M30.9778 58.0801L30.3174 57.9495L32.1335 48.9111L32.7939 49.0455L30.9778 58.0801Z" fill="#FFEBB0"/>
<path d="M19.3208 63.6666H30.2637C30.5019 63.6666 30.7305 63.572 30.899 63.4035C31.0675 63.235 31.1621 63.0065 31.1621 62.7682V57.6846H18.4301V62.7682C18.43 63.0051 18.5236 63.2325 18.6905 63.4008C18.8573 63.5691 19.0839 63.6646 19.3208 63.6666Z" fill="#C48A51"/>
<path d="M49.2311 17.753C49.0225 16.4601 48.7092 15.1863 48.2943 13.9441C47.4833 11.5069 46.2966 9.21133 44.7772 7.14034C44.0251 6.11853 43.1972 5.15464 42.3007 4.25682C39.5809 1.53184 36.2624 -0.520494 32.6096 -1.73678C31.3657 -2.15107 30.0907 -2.46563 28.7969 -2.67747C27.6804 -2.86106 26.5529 -2.96881 25.4219 -3C25.2069 -3 24.9918 -3 24.7768 -3C19.9981 -3.00138 15.3209 -1.62035 11.3094 0.976557C7.29784 3.57347 4.12316 7.27538 2.16814 11.6359C0.213121 15.9965 -0.438762 20.8295 0.291094 25.5521C1.02095 30.2748 3.10138 34.6856 6.28154 38.2525C10.9274 43.2939 15.3967 47.2141 16.7406 49.3067H32.8169C34.1608 47.2141 38.6262 43.2939 43.2759 38.2525C43.665 37.8148 44.04 37.363 44.4009 36.8971C44.7619 36.4325 45.1036 35.9526 45.4299 35.465C45.7563 34.9773 46.0635 34.4705 46.3553 33.956C46.6471 33.4415 46.9197 32.9155 47.177 32.3818C47.4342 31.8481 47.6646 31.299 47.8834 30.7423C48.1023 30.1855 48.2943 29.6211 48.4709 29.0452C48.6475 28.4692 48.8049 27.8933 48.9393 27.2943C49.0737 26.6954 49.1889 26.1041 49.2772 25.4974C49.3655 24.8907 49.4385 24.2726 49.4884 23.6544C49.5383 23.0362 49.5575 22.4065 49.5575 21.773C49.558 20.4263 49.4489 19.0819 49.2311 17.753Z" fill="#FC869A"/>
<path d="M24.7769 -3C13.9071 -3 5.09521 8.09256 5.09521 21.773C5.09521 28.1006 6.98045 33.8715 10.0867 38.2525C13.7765 43.2939 17.3243 47.2141 18.3955 49.3067H22.4041C22.0201 47.2141 20.6878 43.2939 19.3132 38.2525C18.1575 33.86 17.4548 28.1006 17.4548 21.773C17.4548 8.09256 20.7338 -3 24.7769 -3Z" fill="#AAC2E5"/>
<path d="M24.7769 -3C29.2346 -3 32.84 8.09256 32.84 21.773C32.84 28.1006 32.0721 33.8715 30.7935 38.2525C29.2807 43.2939 27.8293 47.2141 27.3916 49.3067H31.3771C32.4791 47.2141 36.1459 43.2939 39.9624 38.2525C43.1723 33.86 45.119 28.1006 45.119 21.773C45.119 8.09256 36.0115 -3 24.7769 -3Z" fill="#AAC2E5"/>
<path d="M5.0951 21.773C5.0951 8.09256 13.907 -3 24.7768 -3C19.9981 -3.00138 15.3209 -1.62035 11.3094 0.976557C7.29784 3.57347 4.12316 7.27538 2.16814 11.6359C0.213121 15.9965 -0.438762 20.8295 0.291094 25.5521C1.02095 30.2748 3.10138 34.6856 6.28154 38.2525C10.9274 43.2939 15.3967 47.2141 16.7406 49.3067H18.3954C17.3242 47.2141 13.7879 43.2939 10.0866 38.2525C6.98034 33.86 5.0951 28.1006 5.0951 21.773Z" fill="#7199D3"/>
<path d="M24.7769 -3C20.7338 -3 17.4548 8.09256 17.4548 21.773C17.4548 28.1006 18.1575 33.86 19.3132 38.2525C20.6878 43.2939 22.0009 47.2141 22.4041 49.3067H27.3955C27.8332 47.2141 29.2846 43.2939 30.7974 38.2525C32.0721 33.86 32.8439 28.1006 32.8439 21.773C32.8439 8.09256 29.2347 -3 24.7769 -3Z" fill="#7199D3"/>
<path d="M49.2312 17.753C49.0226 16.4601 48.7092 15.1863 48.2944 13.9441C47.4834 11.5069 46.2967 9.21133 44.7773 7.14034C44.0252 6.11852 43.1973 5.15464 42.3008 4.25682C39.581 1.53184 36.2625 -0.520495 32.6097 -1.73678C31.3658 -2.15107 30.0908 -2.46563 28.797 -2.67747C27.6728 -2.86123 26.5376 -2.96898 25.3989 -3C36.3456 -2.59684 45.119 8.33445 45.119 21.7615C45.119 28.0891 43.1724 33.86 39.9625 38.241C36.1459 43.2824 32.4791 47.2026 31.3772 49.2951H32.817C34.1609 47.2026 38.6263 43.2824 43.276 38.241C43.6651 37.8033 44.0401 37.3515 44.401 36.8856C44.762 36.421 45.1037 35.9411 45.43 35.4534C45.7564 34.9658 46.0636 34.459 46.3554 33.9445C46.6472 33.43 46.9198 32.904 47.1771 32.3703C47.4343 31.8366 47.6647 31.2875 47.8835 30.7308C48.1024 30.174 48.2944 29.6096 48.471 29.0337C48.6476 28.4577 48.805 27.8818 48.9394 27.2828C49.0738 26.6838 49.189 26.0925 49.2773 25.4859C49.3656 24.8792 49.4386 24.2611 49.4885 23.6429C49.5384 23.0247 49.5576 22.395 49.5576 21.7615C49.5575 20.4187 49.4483 19.0781 49.2312 17.753Z" fill="#7199D3"/>
</g>
<defs>
<clipPath id="clip0_192_6406">
<rect width="49.5575" height="66.6667" fill="white"/>
</clipPath>
</defs>
</svg>
