<svg width="63" height="155" viewBox="0 0 63 155" fill="none" xmlns="http://www.w3.org/2000/svg">
<path d="M18.9395 0H44.7495V23.64L18.2695 25.52L18.9395 0Z" fill="white"/>
<path d="M53.4696 6.87957C53.2145 6.89131 52.9675 6.97312 52.7558 7.11601C52.5442 7.2589 52.3759 7.45735 52.2696 7.68957C38.5849 4.32287 24.2999 4.22352 10.5696 7.39957C10.4532 7.24287 10.3026 7.11465 10.1294 7.02458C9.9562 6.9345 9.76479 6.88492 9.56963 6.87957C9.1323 6.93232 8.73318 7.15472 8.45823 7.49887C8.18329 7.84302 8.05451 8.28139 8.09963 8.71957V9.48957V21.1196C8.04293 21.5611 8.16378 22.0071 8.43565 22.3596C8.70752 22.7121 9.10818 22.9423 9.54963 22.9996C9.99108 22.9423 10.3917 22.7121 10.6636 22.3596C10.9355 22.0071 11.0563 21.5611 10.9996 21.1196V10.9996C12.953 10.5529 14.9096 10.1696 16.8696 9.84957V21.1196C16.8417 21.3397 16.8576 21.5632 16.9165 21.7771C16.9754 21.991 17.0761 22.1912 17.2128 22.3659C17.3495 22.5407 17.5194 22.6867 17.7128 22.7955C17.9062 22.9042 18.1193 22.9736 18.3396 22.9996C18.7733 22.942 19.1675 22.7176 19.4382 22.374C19.709 22.0304 19.8351 21.5947 19.7896 21.1596V9.46957C21.7496 9.22291 23.7096 9.04291 25.6696 8.92957V21.1196C25.6129 21.5611 25.7338 22.0071 26.0057 22.3596C26.2775 22.7121 26.6782 22.9423 27.1196 22.9996C27.5551 22.9444 27.9518 22.721 28.2246 22.3771C28.4975 22.0332 28.6249 21.5962 28.5796 21.1596V8.79957C30.5796 8.74957 32.4896 8.79957 34.4496 8.85957V21.1196C34.4216 21.3389 34.4372 21.5617 34.4955 21.775C34.5538 21.9884 34.6536 22.1881 34.7892 22.3628C34.9249 22.5374 35.0937 22.6836 35.2859 22.7929C35.4782 22.9021 35.6902 22.9724 35.9096 22.9996C36.3433 22.942 36.7375 22.7176 37.0082 22.374C37.279 22.0304 37.4051 21.5947 37.3596 21.1596V8.99957C39.3196 9.14624 41.2763 9.35957 43.2296 9.63957V21.1196C43.1758 21.5622 43.299 22.0081 43.5725 22.3602C43.846 22.7124 44.2475 22.9422 44.6896 22.9996C45.1241 22.942 45.5191 22.718 45.7915 22.3747C46.0639 22.0314 46.1923 21.5957 46.1496 21.1596V10.1596C47.9996 10.4896 49.8596 10.8796 51.7096 11.3196C51.8124 11.3342 51.9168 11.3342 52.0196 11.3196V21.0996C51.9642 21.3208 51.9599 21.5517 52.0071 21.7748C52.0543 21.9978 52.1518 22.2072 52.292 22.387C52.4323 22.5668 52.6117 22.7122 52.8167 22.8122C53.0216 22.9122 53.2466 22.9642 53.4746 22.9642C53.7027 22.9642 53.9277 22.9122 54.1326 22.8122C54.3375 22.7122 54.5169 22.5668 54.6572 22.387C54.7975 22.2072 54.8949 21.9978 54.9421 21.7748C54.9893 21.5517 54.9851 21.3208 54.9296 21.0996V8.71957C54.9749 8.28293 54.8475 7.8459 54.5746 7.50202C54.3018 7.15814 53.9051 6.93472 53.4696 6.87957Z" fill="#402F14"/>
<path d="M2 40.2204L0 22.8204C0 22.8204 8.42 16.4404 33.42 16.4404C58.42 16.4404 63 23.2304 63 23.2304L60.66 40.2304L2 40.2204Z" fill="white"/>
<path d="M60.69 40.2196C60.69 45.3796 47.56 49.5796 31.35 49.5796C15.14 49.5796 2 45.3796 2 40.2196C2 35.0596 15.14 30.8496 31.34 30.8496C47.54 30.8496 60.69 34.9996 60.69 40.2196Z" fill="#C4C4C4"/>
<path d="M14.8104 44.15C14.8104 44.15 5.57038 154.15 6.38038 154.15H56.3804L47.3804 44.15C47.3804 44.15 43.3004 38.46 31.3204 38.46C18.5804 38.46 14.8104 44.15 14.8104 44.15Z" fill="white"/>
<path d="M19.1497 45.9096L10.9297 33.4996L15.6197 30.8496L20.6497 43.5996L19.1497 45.9096Z" fill="white"/>
<path d="M15.6398 48.1499L2.00977 37.6299L4.98977 34.1299L15.2498 45.3099L15.6398 48.1499Z" fill="white"/>
<path d="M46.0498 47.82L60.2798 38.12L57.5098 34.46L46.6198 45.01L46.0498 47.82Z" fill="white"/>
<path d="M25.6002 44.0999L22.9902 29.4399L28.3402 28.8799L27.8902 42.5799L25.6002 44.0999Z" fill="white"/>
<path d="M32.8398 43.0402L35.6298 28.4102L40.8298 29.8002L35.5198 42.4302L32.8398 43.0402Z" fill="white"/>
<path d="M40.2305 41.8101L49.0805 29.8301L53.1705 33.3201L42.9105 42.4201L40.2305 41.8101Z" fill="white"/>
<path d="M8.66992 16.44V25.67L54.3599 24.86L53.8199 16.44C53.8199 16.44 46.0999 12.18 32.9999 12.22C20.8199 12.26 8.66992 16.44 8.66992 16.44Z" fill="white"/>
<path d="M44.8004 82.1797H37.6104V92.2297H44.8004V82.1797Z" fill="#402F14"/>
<path d="M29.2896 109.48H22.0996V119.53H29.2896V109.48Z" fill="#402F14"/>
<path d="M25.4205 62.21H18.2305V72.26H25.4205V62.21Z" fill="#402F14"/>
</svg>
