<svg width="34" height="34" viewBox="0 0 34 34" fill="none" xmlns="http://www.w3.org/2000/svg">
<g clip-path="url(#clip0_2284_642)">
<path d="M13.6916 32.2999C13.6916 33.2391 13.2475 33.9999 12.7003 33.9999C12.1526 33.9999 11.709 33.2386 11.709 32.2999V28.3724C11.709 27.4331 12.1526 26.6724 12.7003 26.6724C13.2475 26.6724 13.6916 27.4336 13.6916 28.3724V32.2999ZM21.0303 32.2999C21.0303 33.2391 20.5862 33.9999 20.039 33.9999C19.4918 33.9999 19.0477 33.2386 19.0477 32.2999V28.3724C19.0477 27.4331 19.4918 26.6724 20.039 26.6724C20.5862 26.6724 21.0303 27.4336 21.0303 28.3724V32.2999Z" fill="#F79420"/>
<path d="M0.142578 21.7495C0.142578 19.5193 3.3832 20.1897 5.96933 20.1897C8.55758 20.1897 10.8563 20.1483 10.8563 22.3774C10.8563 24.6108 8.75786 26.4186 6.17173 26.4186C3.58348 26.4186 0.142578 23.9823 0.142578 21.7495V21.7495ZM33.8594 21.7495C33.8594 19.5193 30.6188 20.1897 28.03 20.1897C25.4423 20.1897 23.1436 20.1483 23.1436 22.3774C23.1436 24.6108 25.242 26.4186 27.8297 26.4186C30.4164 26.4186 33.8594 23.9823 33.8594 21.7495Z" fill="#58767D"/>
<path d="M4.26562 20.2567C4.26562 25.387 9.99144 29.5424 17.0634 29.5424C24.1338 29.5424 29.8613 25.3875 29.8613 20.2567C29.8613 15.1312 24.1338 2.48535 17.0634 2.48535C9.99144 2.48535 4.26562 15.1312 4.26562 20.2567" fill="#7094A6"/>
<path d="M11.8232 14.5432C13.2703 14.5432 14.4434 13.1209 14.4434 11.3663C14.4434 9.61179 13.2703 8.18945 11.8232 8.18945C10.3762 8.18945 9.20312 9.61179 9.20312 11.3663C9.20312 13.1209 10.3762 14.5432 11.8232 14.5432Z" fill="#F4F5F5"/>
<path d="M13.5605 11.4884C13.5605 12.6529 12.7817 13.5964 11.8233 13.5964C10.8628 13.5964 10.084 12.6534 10.084 11.4884C10.084 10.3255 10.8628 9.38037 11.8233 9.38037C12.7817 9.38037 13.5605 10.3255 13.5605 11.4884Z" fill="#25333A"/>
<path d="M22.3232 14.5432C23.7703 14.5432 24.9434 13.1209 24.9434 11.3663C24.9434 9.61179 23.7703 8.18945 22.3232 8.18945C20.8762 8.18945 19.7031 9.61179 19.7031 11.3663C19.7031 13.1209 20.8762 14.5432 22.3232 14.5432Z" fill="#F4F5F5"/>
<path d="M22.3237 13.5964C23.2834 13.5964 24.0614 12.6526 24.0614 11.4884C24.0614 10.3242 23.2834 9.38037 22.3237 9.38037C21.3639 9.38037 20.5859 10.3242 20.5859 11.4884C20.5859 12.6526 21.3639 13.5964 22.3237 13.5964Z" fill="#25333A"/>
<path d="M13.8281 14.7114C13.8281 13.1734 15.2758 14.3352 17.0608 14.3352C18.8468 14.3352 20.2929 13.1734 20.2929 14.7114C20.2929 16.252 18.8463 19.1622 17.0608 19.1622C15.2758 19.1622 13.8281 16.252 13.8281 14.7114" fill="#F05A2A"/>
<path d="M14 14.797C14 13.259 15.4482 14.4203 17.2321 14.4203C19.0161 14.4203 20.4643 13.2596 20.4643 14.797C20.4643 16.3371 19.0161 19.2473 17.2321 19.2473C15.4482 19.2473 14 16.3371 14 14.797" fill="#F79420"/>
</g>
<defs>
<clipPath id="clip0_2284_642">
<rect width="34" height="34" fill="white"/>
</clipPath>
</defs>
</svg>
