<svg width="128" height="114" viewBox="0 0 128 114" fill="none" xmlns="http://www.w3.org/2000/svg">
<g clip-path="url(#clip0_1219_725)" filter="url(#filter0_d_1219_725)">
<path d="M75.1818 22.9355H86.1554L88.5071 41.1473H76.5933L75.1818 22.9355Z" fill="#FF6915"/>
<path d="M64.2081 22.9355H75.1817L76.5933 41.1473H64.6768L64.2081 22.9355Z" fill="#F73926"/>
<path d="M53.2344 22.9355H64.208L64.6767 41.1473H52.7629L53.2344 22.9355Z" fill="#FF6915"/>
<path d="M42.2582 22.9355H53.2345L52.7631 41.1473H40.8494L42.2582 22.9355Z" fill="#F73926"/>
<path d="M31.2844 22.9355H42.258L40.8492 41.1473H28.9327L31.2844 22.9355Z" fill="#FF6915"/>
<path d="M20.3108 22.9355H31.2844L28.9328 41.1473H17.019L20.3108 22.9355Z" fill="#F73926"/>
<path d="M86.1553 22.9355H97.1289L100.421 41.1473H88.507L86.1553 22.9355Z" fill="#F73926"/>
<path d="M76.5851 41.1475H88.5099V43.8458C88.5099 45.4249 87.8826 46.9394 86.766 48.056C85.6494 49.1726 84.135 49.7999 82.5558 49.7999V49.7999C81.7726 49.8017 80.9968 49.6491 80.2726 49.3507C79.5485 49.0523 78.8903 48.6141 78.3357 48.0611C77.7811 47.508 77.341 46.8511 77.0406 46.1277C76.7403 45.4044 76.5854 44.629 76.5851 43.8458V41.1475Z" fill="#FF6915"/>
<path d="M64.6741 41.1475H76.585V43.8458C76.585 45.4249 75.9577 46.9394 74.8411 48.056C73.7245 49.1726 72.2101 49.7999 70.6309 49.7999V49.7999C69.0516 49.7999 67.5368 49.1727 66.4198 48.0562C65.3027 46.9396 64.6748 45.4252 64.6741 43.8458V41.1475Z" fill="#F73926"/>
<path d="M52.7659 41.1475H64.6741V43.8458C64.6741 45.4249 64.0468 46.9394 62.9302 48.056C61.8136 49.1726 60.2991 49.7999 58.72 49.7999V49.7999C57.1408 49.7999 55.6264 49.1726 54.5098 48.056C53.3932 46.9394 52.7659 45.4249 52.7659 43.8458V41.1475Z" fill="#FF6915"/>
<path d="M40.8688 41.1475H52.7936V43.8458C52.7929 45.4252 52.165 46.9396 51.0479 48.0561C49.9309 49.1727 48.4161 49.7999 46.8367 49.7999V49.7999C46.0537 49.8017 45.2779 49.6491 44.5539 49.3506C43.83 49.0522 43.1719 48.614 42.6176 48.0609C42.0632 47.5078 41.6234 46.8508 41.3233 46.1275C41.0232 45.4042 40.8688 44.6289 40.8688 43.8458V41.1475Z" fill="#F73926"/>
<path d="M28.9438 41.1475H40.8687V43.8458C40.8687 44.6289 40.7142 45.4042 40.4141 46.1275C40.114 46.8508 39.6742 47.5078 39.1199 48.0609C38.5655 48.614 37.9075 49.0522 37.1835 49.3506C36.4595 49.6491 35.6838 49.8017 34.9007 49.7999V49.7999C33.3213 49.7999 31.8066 49.1727 30.6896 48.0561C29.5725 46.9396 28.9446 45.4252 28.9438 43.8458V41.1475Z" fill="#FF6915"/>
<path d="M17.0356 41.1475H28.9439V43.8458C28.9439 45.4249 28.3165 46.9394 27.1999 48.056C26.0833 49.1726 24.5689 49.7999 22.9897 49.7999C22.2078 49.7999 21.4336 49.6459 20.7112 49.3467C19.9888 49.0474 19.3325 48.6089 18.7796 48.056C17.663 46.9394 17.0356 45.4249 17.0356 43.8458V41.1475Z" fill="#F73926"/>
<path d="M88.4961 41.1475H100.407V43.8458C100.406 45.4252 99.7784 46.9396 98.6613 48.0562C97.5443 49.1727 96.0296 49.7999 94.4502 49.7999V49.7999C92.8711 49.7999 91.3566 49.1726 90.24 48.056C89.1234 46.9394 88.4961 45.4249 88.4961 43.8458V41.1475Z" fill="#F73926"/>
</g>
<g clip-path="url(#clip1_1219_725)" filter="url(#filter1_d_1219_725)">
<path d="M85.8256 18.7656H33.6995V30.695H85.8256V18.7656Z" fill="#FBB03B"/>
<path d="M44.6148 22.6143C44.6133 22.4895 44.6273 22.3649 44.6563 22.2435C44.8378 21.52 45.328 21.1543 46.1241 21.1543H49.358V22.7518H46.5494C46.4804 22.7473 46.4116 22.7643 46.3526 22.8006C46.2936 22.8368 46.2473 22.8904 46.2201 22.9541C46.2088 23.007 46.2019 23.0608 46.1993 23.1149V23.605C46.1941 23.6402 46.1941 23.6761 46.1993 23.7113C46.2279 23.8955 46.3575 24.0018 46.5909 24.0303C46.6262 24.0357 46.662 24.0357 46.6973 24.0303H47.8539C48.682 24.0303 49.1696 24.4141 49.3165 25.1818C49.3408 25.2891 49.3547 25.3985 49.358 25.5085V26.9997C49.3709 27.2106 49.3398 27.4219 49.2666 27.6202C49.1933 27.8184 49.0796 27.9992 48.9327 28.1511C48.7765 28.2933 48.5936 28.403 48.3945 28.4738C48.1955 28.5446 47.9844 28.5751 47.7735 28.5635H44.6148V26.9582H47.3923L47.4882 26.9245C47.573 26.8997 47.6466 26.8464 47.6967 26.7737C47.7468 26.7009 47.7702 26.6131 47.7631 26.5251V26.0064C47.7667 25.9601 47.7606 25.9136 47.7453 25.8698C47.7299 25.826 47.7056 25.7859 47.6739 25.752C47.6422 25.7181 47.6038 25.6911 47.5611 25.6729C47.5184 25.6546 47.4724 25.6455 47.426 25.646H46.1034C45.8553 25.6568 45.6087 25.6017 45.3888 25.4865C45.1688 25.3713 44.9832 25.1999 44.8508 24.9898C44.6936 24.7551 44.6096 24.4789 44.6096 24.1963L44.6148 22.6143Z" fill="white"/>
<path d="M50.5225 22.7518V21.1543H55.276V22.7518H53.6811V28.5531H52.0966V22.7518H50.5225Z" fill="white"/>
<path d="M56.5209 22.7515C56.5229 22.62 56.5368 22.4889 56.5624 22.3599C56.6172 21.9869 56.8142 21.6496 57.1122 21.4185C57.4364 21.2251 57.8117 21.1347 58.1884 21.1592H60.066C61.169 21.1592 61.7205 21.6917 61.7205 22.7567V26.9579C61.7205 28.0212 61.1638 28.5528 60.0504 28.5528H58.1832C57.8041 28.5797 57.4255 28.495 57.094 28.309C56.8022 28.065 56.6162 27.7174 56.5753 27.3391C56.5473 27.2137 56.5291 27.0862 56.5209 26.9579V22.7515ZM58.1054 26.4496C58.1054 26.7893 58.2818 26.9683 58.6241 26.9683H59.5966C59.7383 26.9798 59.8803 26.9481 60.0037 26.8775C60.0506 26.8299 60.0859 26.7722 60.107 26.7088C60.1282 26.6454 60.1345 26.5781 60.1256 26.5119V23.2572C60.1337 23.1868 60.1273 23.1156 60.1068 23.0478C60.0863 22.98 60.0521 22.9171 60.0063 22.863C59.8868 22.7754 59.7388 22.7356 59.5914 22.7515H58.6215C58.4772 22.7346 58.3319 22.7725 58.2143 22.8578C58.13 22.9729 58.092 23.1155 58.108 23.2572L58.1054 26.4496Z" fill="white"/>
<path d="M63.3179 21.1543H67.0394C67.9185 21.1543 68.4242 21.5615 68.5513 22.3706C68.5562 22.4656 68.5562 22.5608 68.5513 22.6558V24.1366C68.5513 24.2689 68.5513 24.3726 68.5513 24.4426C68.5127 24.7444 68.3734 25.0243 68.156 25.237C67.9385 25.4497 67.6557 25.5828 67.3532 25.6148C67.2621 25.6279 67.1703 25.6348 67.0783 25.6356H66.8189L68.6343 28.5609H66.7567L65.0788 25.7964C64.9726 25.6253 64.9278 25.4232 64.9517 25.2232C65.0088 24.6043 65.3278 24.2948 65.9087 24.2948H66.5492C66.6065 24.3026 66.6647 24.297 66.7194 24.2785C66.7741 24.26 66.8238 24.229 66.8645 24.1881C66.9052 24.1471 66.9359 24.0972 66.9541 24.0424C66.9723 23.9876 66.9775 23.9293 66.9693 23.8721V23.1953C66.9732 23.1411 66.9661 23.0866 66.9485 23.0353C66.9309 22.9839 66.9031 22.9365 66.8668 22.8961C66.8305 22.8557 66.7864 22.823 66.7372 22.8C66.688 22.777 66.6346 22.7641 66.5803 22.7622C66.546 22.7567 66.511 22.7567 66.4766 22.7622H64.8999V28.5531H63.3127L63.3179 21.1543Z" fill="white"/>
<path d="M70.0814 27.0075V22.7518C70.0836 22.6421 70.0949 22.5328 70.1151 22.425C70.2474 21.5796 70.7505 21.1543 71.6245 21.1543H74.9128V22.7518H72.0368C72.0039 22.7556 71.9721 22.7662 71.9434 22.7829C71.8541 22.8113 71.7775 22.8703 71.7273 22.9495C71.677 23.0287 71.6562 23.123 71.6685 23.216V24.0407H74.9128V25.6356H71.6685V26.4603C71.6594 26.5206 71.663 26.5822 71.6794 26.6411C71.6957 26.6999 71.7242 26.7546 71.7631 26.8016C71.8021 26.8486 71.8505 26.8869 71.9053 26.9139C71.96 26.9409 72.0199 26.956 72.0809 26.9582H74.9128V28.5531H71.8475C70.6701 28.5531 70.0814 28.0379 70.0814 27.0075Z" fill="white"/>
</g>
<g clip-path="url(#clip2_1219_725)" filter="url(#filter2_d_1219_725)">
<path d="M98.3357 30.2334H20.1466V95.1558H98.3357V30.2334Z" fill="#8C6239"/>
<path d="M46.2398 58.7598H26.0066V95.1559H46.2398V58.7598Z" fill="#754C24"/>
<path d="M43.2336 61.6221H29.0156V81.9061H43.2336V61.6221Z" fill="#29ABE2"/>
<path d="M33.4924 61.3252V83.2379" stroke="#754C24" stroke-width="3.15" stroke-miterlimit="10"/>
<path d="M38.4265 61.3252V83.2379" stroke="#754C24" stroke-width="3.15" stroke-miterlimit="10"/>
<path d="M44.7437 68.7295H28.0615" stroke="#754C24" stroke-width="2.75" stroke-miterlimit="10"/>
<path d="M44.7437 75.4424H28.0615" stroke="#754C24" stroke-width="2.75" stroke-miterlimit="10"/>
<path d="M27.9655 72.6846H27.0594V80.3539H27.9655V72.6846Z" fill="#C69C6D"/>
<path d="M69.5328 59.1748H49.2262V79.7665H69.5328V59.1748Z" fill="#29ABE2"/>
<path d="M69.0783 59.6324V79.3124H49.6807V59.6324H69.0783ZM69.9873 58.7207H48.7689V80.2242H69.9873V58.7207Z" fill="#754C24"/>
<g opacity="0.2">
<path opacity="0.2" d="M69.0783 63.1121L49.6807 74.0078V59.6543H69.0783V63.1121Z" fill="white"/>
</g>
<path d="M92.7779 59.1748H72.4713V79.7665H92.7779V59.1748Z" fill="#29ABE2"/>
<path d="M92.3233 59.6324V79.3124H72.9313V59.6324H92.3233ZM93.2351 58.7207H72.0167V80.2242H93.2351V58.7207Z" fill="#754C24"/>
<g opacity="0.2">
<path opacity="0.2" d="M92.3234 63.1121L72.9286 74.0078V59.6543H92.3234V63.1121Z" fill="white"/>
</g>
<path d="M92.3234 83.238V91.2686H49.6807V83.238H92.3234ZM93.2351 82.3291H48.7689V92.1775H93.2351V82.3291Z" fill="#754C24"/>
</g>
<path opacity="0.1" d="M17.019 41.1473H100.421L97.129 22.9355H20.3109L17.019 41.1473Z" fill="white"/>
<g clip-path="url(#clip3_1219_725)" filter="url(#filter3_d_1219_725)">
<path d="M73.6363 90.2312C73.9645 88.6723 72.9668 87.1425 71.408 86.8143C69.8491 86.4861 68.3193 87.4837 67.991 89.0426C67.6628 90.6015 68.6605 92.1313 70.2193 92.4595C71.7782 92.7878 73.308 91.7901 73.6363 90.2312Z" fill="#009245"/>
<path d="M68.6148 90.5387C69.7413 89.4122 69.7413 87.5858 68.6148 86.4594C67.4883 85.3329 65.662 85.3329 64.5355 86.4594C63.409 87.5858 63.409 89.4122 64.5355 90.5387C65.662 91.6651 67.4883 91.6651 68.6148 90.5387Z" fill="#009245"/>
<path d="M65.4541 90.1456C65.8219 88.5956 64.8636 87.0409 63.3135 86.673C61.7635 86.3052 60.2088 87.2635 59.841 88.8136C59.4731 90.3636 60.4315 91.9183 61.9815 92.2861C63.5315 92.654 65.0862 91.6956 65.4541 90.1456Z" fill="#009245"/>
<path d="M76.4522 92.1246C77.5787 90.9981 77.5787 89.1718 76.4522 88.0453C75.3257 86.9188 73.4994 86.9188 72.3729 88.0453C71.2464 89.1718 71.2464 90.9981 72.3729 92.1246C73.4994 93.2511 75.3257 93.2511 76.4522 92.1246Z" fill="#009245"/>
<path d="M80.1757 91.3883C81.3022 90.2618 81.3022 88.4354 80.1757 87.309C79.0493 86.1825 77.2229 86.1825 76.0964 87.309C74.9699 88.4354 74.9699 90.2618 76.0964 91.3883C77.2229 92.5148 79.0493 92.5148 80.1757 91.3883Z" fill="#009245"/>
<path d="M82.941 92.685C84.5341 92.685 85.8255 91.3936 85.8255 89.8005C85.8255 88.2075 84.5341 86.916 82.941 86.916C81.348 86.916 80.0565 88.2075 80.0565 89.8005C80.0565 91.3936 81.348 92.685 82.941 92.685Z" fill="#009245"/>
<path d="M85.7845 90.4951H59.7855V94.5452H85.7845V90.4951Z" fill="#B29476"/>
</g>
<g clip-path="url(#clip4_1219_725)" filter="url(#filter4_d_1219_725)">
<path d="M99.912 64.3857H90.2736V93.2983H99.912V64.3857Z" fill="white"/>
<path d="M90.7378 101.986H89.509V64.1661C89.509 64.0032 89.5738 63.8469 89.689 63.7317C89.8042 63.6165 89.9605 63.5518 90.1234 63.5518V63.5518C90.2864 63.5518 90.4426 63.6165 90.5579 63.7317C90.6731 63.8469 90.7378 64.0032 90.7378 64.1661V101.986Z" fill="#CCCCCC"/>
<path d="M87.007 98.8584L85.8254 105.253H94.9996L94.0961 98.8584H87.007Z" fill="#808080"/>
</g>
<defs>
<filter id="filter0_d_1219_725" x="13.019" y="22.9355" width="91.4017" height="34.8643" filterUnits="userSpaceOnUse" color-interpolation-filters="sRGB">
<feFlood flood-opacity="0" result="BackgroundImageFix"/>
<feColorMatrix in="SourceAlpha" type="matrix" values="0 0 0 0 0 0 0 0 0 0 0 0 0 0 0 0 0 0 127 0" result="hardAlpha"/>
<feOffset dy="4"/>
<feGaussianBlur stdDeviation="2"/>
<feComposite in2="hardAlpha" operator="out"/>
<feColorMatrix type="matrix" values="0 0 0 0 0 0 0 0 0 0 0 0 0 0 0 0 0 0 0.25 0"/>
<feBlend mode="normal" in2="BackgroundImageFix" result="effect1_dropShadow_1219_725"/>
<feBlend mode="normal" in="SourceGraphic" in2="effect1_dropShadow_1219_725" result="shape"/>
</filter>
<filter id="filter1_d_1219_725" x="29.6995" y="18.7656" width="60.1261" height="19.9297" filterUnits="userSpaceOnUse" color-interpolation-filters="sRGB">
<feFlood flood-opacity="0" result="BackgroundImageFix"/>
<feColorMatrix in="SourceAlpha" type="matrix" values="0 0 0 0 0 0 0 0 0 0 0 0 0 0 0 0 0 0 127 0" result="hardAlpha"/>
<feOffset dy="4"/>
<feGaussianBlur stdDeviation="2"/>
<feComposite in2="hardAlpha" operator="out"/>
<feColorMatrix type="matrix" values="0 0 0 0 0 0 0 0 0 0 0 0 0 0 0 0 0 0 0.25 0"/>
<feBlend mode="normal" in2="BackgroundImageFix" result="effect1_dropShadow_1219_725"/>
<feBlend mode="normal" in="SourceGraphic" in2="effect1_dropShadow_1219_725" result="shape"/>
</filter>
<filter id="filter2_d_1219_725" x="16.1466" y="30.2334" width="86.1891" height="72.9229" filterUnits="userSpaceOnUse" color-interpolation-filters="sRGB">
<feFlood flood-opacity="0" result="BackgroundImageFix"/>
<feColorMatrix in="SourceAlpha" type="matrix" values="0 0 0 0 0 0 0 0 0 0 0 0 0 0 0 0 0 0 127 0" result="hardAlpha"/>
<feOffset dy="4"/>
<feGaussianBlur stdDeviation="2"/>
<feComposite in2="hardAlpha" operator="out"/>
<feColorMatrix type="matrix" values="0 0 0 0 0 0 0 0 0 0 0 0 0 0 0 0 0 0 0.25 0"/>
<feBlend mode="normal" in2="BackgroundImageFix" result="effect1_dropShadow_1219_725"/>
<feBlend mode="normal" in="SourceGraphic" in2="effect1_dropShadow_1219_725" result="shape"/>
</filter>
<filter id="filter3_d_1219_725" x="55.7625" y="85.6143" width="34.063" height="16.9326" filterUnits="userSpaceOnUse" color-interpolation-filters="sRGB">
<feFlood flood-opacity="0" result="BackgroundImageFix"/>
<feColorMatrix in="SourceAlpha" type="matrix" values="0 0 0 0 0 0 0 0 0 0 0 0 0 0 0 0 0 0 127 0" result="hardAlpha"/>
<feOffset dy="4"/>
<feGaussianBlur stdDeviation="2"/>
<feComposite in2="hardAlpha" operator="out"/>
<feColorMatrix type="matrix" values="0 0 0 0 0 0 0 0 0 0 0 0 0 0 0 0 0 0 0.25 0"/>
<feBlend mode="normal" in2="BackgroundImageFix" result="effect1_dropShadow_1219_725"/>
<feBlend mode="normal" in="SourceGraphic" in2="effect1_dropShadow_1219_725" result="shape"/>
</filter>
<filter id="filter4_d_1219_725" x="81.8254" y="63.5518" width="22.0865" height="49.7012" filterUnits="userSpaceOnUse" color-interpolation-filters="sRGB">
<feFlood flood-opacity="0" result="BackgroundImageFix"/>
<feColorMatrix in="SourceAlpha" type="matrix" values="0 0 0 0 0 0 0 0 0 0 0 0 0 0 0 0 0 0 127 0" result="hardAlpha"/>
<feOffset dy="4"/>
<feGaussianBlur stdDeviation="2"/>
<feComposite in2="hardAlpha" operator="out"/>
<feColorMatrix type="matrix" values="0 0 0 0 0 0 0 0 0 0 0 0 0 0 0 0 0 0 0.25 0"/>
<feBlend mode="normal" in2="BackgroundImageFix" result="effect1_dropShadow_1219_725"/>
<feBlend mode="normal" in="SourceGraphic" in2="effect1_dropShadow_1219_725" result="shape"/>
</filter>
<clipPath id="clip0_1219_725">
<rect width="83.4017" height="26.8642" fill="white" transform="translate(17.019 22.9355)"/>
</clipPath>
<clipPath id="clip1_1219_725">
<rect width="52.1261" height="11.9294" fill="white" transform="translate(33.6995 18.7656)"/>
</clipPath>
<clipPath id="clip2_1219_725">
<rect width="78.1891" height="64.9224" fill="white" transform="translate(20.1466 30.2334)"/>
</clipPath>
<clipPath id="clip3_1219_725">
<rect width="26.063" height="8.93275" fill="white" transform="translate(59.7625 85.6143)"/>
</clipPath>
<clipPath id="clip4_1219_725">
<rect width="14.0866" height="41.7009" fill="white" transform="translate(85.8254 63.5518)"/>
</clipPath>
</defs>
</svg>
