<svg width="232" height="136" viewBox="0 0 232 136" fill="none" xmlns="http://www.w3.org/2000/svg">
<g filter="url(#filter0_d_2_17062)">
<path d="M30.1308 112.556C28.3712 111.521 27.3844 110.142 26.0409 108.917C24.8045 107.791 24.7212 106.113 22.2959 105.546C21.1664 104.726 22.7239 104.113 22.6763 103.301C22.2008 102.911 21.5706 103.753 21.0713 103.317C20.1321 100.03 19.2047 96.7361 18.2655 93.4497C17.3857 90.3854 16.8982 87.2904 16.9339 84.1878C16.9577 82.3416 16.28 80.5643 16.1968 78.7334C16.1849 78.4959 15.959 78.2431 16.0066 78.0209C16.6486 75.378 16.4346 72.6124 17.9683 70.115C19.2642 68.016 20.2034 65.8327 21.6063 63.7643C21.7252 63.5957 21.856 63.4272 21.9154 63.251C24.6142 56.3793 28.1096 51.3309 34.6248 45.593C38.251 42.3985 42.5548 39.5946 46.9062 36.7831C51.6975 33.6882 57.0476 31.1295 62.4333 28.5478C64.395 27.6056 66.5826 26.8395 68.6869 26.0198C69.5786 25.6751 70.5416 25.4069 71.4333 25.0775C77.0093 23.0244 82.7873 21.2854 89.0885 20.3585C91.2999 20.0291 93.5232 19.6154 95.6037 19.1175C98.8613 18.3361 102.166 18.6655 105.424 18.405C109.074 18.1139 112.748 18.0296 116.386 17.6313C116.849 17.5776 117.325 17.4704 117.777 17.4857C123.103 17.6542 128.346 16.7579 133.684 17.0644C135.004 17.141 136.324 17.1793 137.632 17.3708C139.641 17.6696 141.638 17.93 143.778 17.9224C146.132 17.9147 148.367 18.6501 150.567 19.1711C153.753 19.9295 156.904 20.6879 160.221 21.2395C164.037 21.883 167.782 22.8253 170.933 24.4953C172.609 25.3839 174.535 26.0581 176.33 26.8318C180.218 28.5095 183.297 30.7005 186.472 32.8455C186.733 33.0217 186.9 33.3052 187.209 33.3894C190.966 34.4006 193.07 36.5993 195.84 38.3229C199.383 40.5216 202.593 42.9117 205.411 45.4857C208.621 48.4198 211.807 51.4075 213.983 54.7476C214.934 56.2108 216.61 57.3829 217.609 58.8308C218.215 59.7117 219.131 60.5468 219.428 61.4967C221.033 66.6141 222.876 71.7085 222.995 76.9714C223.042 78.9096 222.745 80.8477 222.745 82.7859C222.745 83.8584 221.901 84.9922 221.735 86.1566C221.533 87.5432 221.247 88.9452 220.7 90.2858C219.416 93.4497 218.774 96.7744 216.48 99.6932C215.35 101.118 214.399 102.673 212.758 103.968C211.688 104.803 211.034 105.852 210.155 106.795C207.836 109.269 204.484 111.2 201.642 113.398C199.93 114.724 197.885 115.773 195.721 116.769C194.639 117.267 193.189 117.696 193.332 118.83C188.576 118.86 184.046 119.45 179.505 120.446C172.133 122.07 164.358 122.675 156.642 123.212C150.781 123.625 145.038 124.33 139.308 125.158C137.477 125.418 136.478 126.314 135.123 126.942C129.975 127.096 124.815 127.103 119.703 127.463C117.194 127.64 114.686 128.214 112.177 127.915C107.838 127.394 103.403 127.333 99.0753 126.751C97.2325 126.506 95.3541 126.376 93.5588 125.954C91.4901 125.464 89.2788 125.793 87.1268 125.663C84.1903 125.487 81.3488 125.035 78.5667 124.591C73.074 123.71 67.6407 122.683 62.0647 121.955C57.0713 121.304 52.2682 120.324 47.8335 118.531C44.3263 117.114 40.1294 116.501 36.4795 115.176C35.5046 114.823 34.387 114.616 33.5667 114.08C33.6261 113.414 33.1625 113.084 32.1162 113.046C31.4029 113.015 30.6063 113.031 30.1308 112.556Z" fill="#5B8100"/>
</g>
<g clip-path="url(#clip0_2_17062)" filter="url(#filter1_d_2_17062)">
<path d="M188.237 27.5956C188.201 27.5956 187.923 27.5492 187.51 27.5331C188.117 26.8571 188.599 26.0781 188.932 25.2329C188.985 25.1065 189.008 24.9699 189 24.8333C188.992 24.6967 188.953 24.5637 188.886 24.4444C188.819 24.325 188.726 24.2225 188.613 24.1445C188.501 24.0664 188.372 24.015 188.237 23.9941C187.891 23.9459 187.541 23.923 187.192 23.9256C186.347 23.9037 185.508 24.0652 184.732 24.399C184.758 24.2781 184.785 24.1532 184.809 24.0283C185.868 23.9518 187.907 23.3092 188.708 19.6373C188.737 19.5036 188.736 19.3651 188.703 19.2322C188.671 19.0994 188.609 18.9756 188.521 18.8704C188.434 18.7652 188.324 18.6812 188.199 18.6249C188.075 18.5686 187.939 18.5415 187.802 18.5456C187.538 18.5456 185.415 18.6523 184.088 19.8528C184.105 19.7305 184.097 19.606 184.064 19.4869C184.031 19.3678 183.974 19.2568 183.897 19.1608C183.819 19.0647 183.722 18.9858 183.613 18.9288C183.503 18.8718 183.383 18.838 183.26 18.8296C183.246 18.8296 183.109 18.8296 182.891 18.8296C182.567 18.8303 182.244 18.8491 181.922 18.886C183.161 18.463 184.837 17.1416 185.191 13.1413C185.203 13.0076 185.185 12.8729 185.138 12.7472C185.091 12.6214 185.017 12.5077 184.92 12.4145C184.824 12.3212 184.707 12.2507 184.58 12.2081C184.453 12.1656 184.318 12.152 184.184 12.1685C184.166 12.1685 184.09 12.1805 183.973 12.2027C184.692 10.545 183.973 8.46426 183.872 8.21248C183.826 8.08809 183.753 7.97542 183.658 7.88248C183.564 7.78954 183.45 7.71861 183.324 7.67476C183.199 7.63091 183.066 7.6152 182.934 7.62876C182.802 7.64233 182.675 7.68482 182.561 7.75323C182.087 8.03657 181.641 8.36292 181.227 8.72812C181.249 8.04833 181.215 7.36792 181.125 6.69374C181.107 6.56042 181.061 6.43266 180.988 6.31977C180.915 6.20689 180.817 6.11173 180.703 6.04127C180.588 5.97081 180.46 5.92681 180.326 5.9125C180.192 5.89818 180.057 5.91391 179.93 5.95854C178.914 6.34404 177.989 6.93747 177.215 7.70086C177.521 6.63129 177.555 5.31196 177.318 3.75294C177.297 3.6199 177.247 3.49318 177.171 3.38202C177.095 3.27085 176.995 3.17805 176.879 3.11039C176.763 3.04256 176.633 3.00172 176.499 2.99091C176.365 2.9801 176.231 2.9996 176.105 3.04795C175.996 3.08824 173.688 3.99263 172.711 5.87797C172.997 5.00983 173.066 3.95839 172.913 2.73574C172.895 2.60109 172.848 2.47207 172.774 2.35833C172.7 2.2446 172.601 2.14909 172.485 2.07896C172.368 2.00884 172.238 1.9659 172.103 1.95337C171.968 1.94083 171.831 1.95903 171.704 2.00659C171.007 2.28722 170.356 2.67083 169.772 3.14463C169.664 2.22644 169.391 1.33529 168.967 0.51403C168.906 0.391597 168.818 0.28453 168.71 0.200877C168.602 0.117223 168.476 0.0591599 168.343 0.0310503C168.209 0.00294058 168.07 0.00551591 167.938 0.0385827C167.805 0.0716494 167.682 0.134347 167.577 0.221964C167.402 0.371019 166.167 1.45065 165.657 2.89285C165.24 1.96257 164.629 1.13225 163.865 0.457631C163.761 0.3686 163.639 0.304246 163.507 0.269419C163.374 0.234592 163.236 0.230202 163.102 0.256579C162.968 0.282955 162.842 0.339411 162.733 0.42169C162.624 0.503969 162.535 0.609924 162.473 0.731569C162 1.59337 161.701 2.54 161.595 3.51727C160.642 2.33088 159.137 1.71855 158.922 1.63596C158.795 1.588 158.658 1.5695 158.523 1.58185C158.388 1.5942 158.257 1.63709 158.14 1.70729C158.024 1.77748 157.925 1.87315 157.851 1.98709C157.777 2.10104 157.73 2.23029 157.713 2.36512C157.559 3.58978 157.626 4.63719 157.915 5.50734C156.922 3.62604 154.619 2.71761 154.504 2.67733C154.379 2.62987 154.245 2.61102 154.111 2.62216C153.977 2.63329 153.848 2.67413 153.732 2.7417C153.616 2.80926 153.517 2.90184 153.442 3.01267C153.366 3.1235 153.316 3.24979 153.296 3.38232C153.056 4.94134 153.094 6.26067 153.397 7.33024C152.622 6.5681 151.699 5.97483 150.683 5.58791C150.557 5.5429 150.421 5.52687 150.288 5.54102C150.154 5.55516 150.025 5.59911 149.91 5.66963C149.796 5.74016 149.698 5.83547 149.625 5.94856C149.553 6.06165 149.506 6.18963 149.489 6.32311C149.363 7.2174 149.344 8.12345 149.433 9.0222C148.991 8.77834 148.525 8.58122 148.043 8.43404C147.915 8.39658 147.781 8.38784 147.65 8.40847C147.519 8.42909 147.394 8.47855 147.284 8.5533C147.174 8.62804 147.082 8.72621 147.015 8.84073C146.948 8.95525 146.907 9.08327 146.895 9.21557C146.76 10.6618 146.933 11.8482 147.408 12.7546C146.751 12.4624 146.058 12.2592 145.348 12.1503C145.214 12.1339 145.079 12.1474 144.952 12.19C144.825 12.2326 144.708 12.3031 144.612 12.3963C144.515 12.4896 144.441 12.6033 144.394 12.7291C144.347 12.8548 144.329 12.9895 144.341 13.1232C144.633 16.4246 145.825 17.901 146.929 18.5617L146.917 18.6181C146.776 18.7121 146.664 18.8441 146.595 18.9988C146.526 19.1534 146.502 19.3245 146.526 19.4923C145.199 18.2837 143.076 18.1931 142.812 18.185C142.675 18.1806 142.539 18.2077 142.415 18.2643C142.291 18.3209 142.181 18.4054 142.095 18.5113C142.007 18.6163 141.945 18.7398 141.913 18.8724C141.88 19.005 141.878 19.1433 141.907 19.2767C142.679 22.8117 144.596 23.5389 145.684 23.6577L145.213 23.7927C144.63 23.6358 144.029 23.5599 143.426 23.5671C143.076 23.5658 142.727 23.5887 142.381 23.6356C142.245 23.6564 142.117 23.7078 142.004 23.7858C141.892 23.8638 141.799 23.9665 141.732 24.0859C141.665 24.2053 141.627 24.3384 141.619 24.475C141.611 24.6116 141.635 24.7482 141.688 24.8743C142.02 25.7188 142.499 26.4976 143.104 27.1746C142.86 27.1812 142.618 27.2021 142.377 27.237C142.242 27.2576 142.113 27.3087 142 27.3865C141.888 27.4643 141.795 27.5668 141.728 27.6861C141.661 27.8053 141.622 27.9383 141.615 28.0748C141.607 28.2113 141.631 28.3478 141.684 28.4738C143.009 31.6361 144.907 32.0994 145.926 32.0994C146.291 32.1006 146.653 32.0421 146.999 31.9262C147.236 32.362 147.518 32.7713 147.841 33.1468C147.706 33.1468 147.622 33.1468 147.61 33.1468C147.473 33.157 147.34 33.1986 147.221 33.2684C147.103 33.3383 147.002 33.4345 146.927 33.5497C146.851 33.6635 146.801 33.7931 146.782 33.9287C146.762 34.0644 146.774 34.2027 146.816 34.3332C147.942 37.7997 149.938 38.3194 151.03 38.3194C151.39 38.3264 151.748 38.2691 152.087 38.1502C152.287 38.0714 152.452 37.9234 152.553 37.7333C153.689 39.8059 155.205 40.1504 156.106 40.1504C156.469 40.1537 156.83 40.0938 157.173 39.9731C157.317 39.9155 157.444 39.8219 157.542 39.7013C157.64 39.5807 157.705 39.4371 157.731 39.2842C157.823 38.783 157.818 38.2687 157.715 37.7695C158.288 38.1453 158.958 38.3462 159.643 38.3476C160.006 38.3513 160.366 38.2913 160.708 38.1703C160.781 38.1383 160.848 38.097 160.91 38.0475C161.544 38.6215 163.198 39.0304 165.14 39.0304C167.081 39.0304 168.765 38.6135 169.384 38.0233C169.429 38.1362 169.497 38.2387 169.583 38.3246C169.669 38.4104 169.772 38.4779 169.885 38.5228C170.227 38.6436 170.588 38.7036 170.951 38.7001C171.637 38.6997 172.308 38.498 172.88 38.12C172.778 38.6199 172.772 39.1348 172.864 39.6367C172.89 39.7899 172.955 39.9339 173.053 40.0546C173.15 40.1753 173.278 40.2687 173.422 40.3256C173.764 40.4463 174.125 40.5063 174.488 40.5028C175.388 40.5028 176.905 40.1483 178.041 38.0858C178.142 38.2755 178.307 38.4232 178.506 38.5027C178.848 38.6257 179.209 38.6864 179.572 38.682C180.661 38.682 182.66 38.1623 183.784 34.6938C183.825 34.5637 183.837 34.4258 183.818 34.2905C183.799 34.1552 183.749 34.026 183.673 33.9128C183.596 33.7995 183.495 33.705 183.377 33.6366C183.258 33.5681 183.126 33.5273 182.99 33.5174C182.978 33.5174 182.895 33.5174 182.76 33.5174C183.083 33.1418 183.365 32.7326 183.6 32.2968C183.946 32.4126 184.309 32.4711 184.674 32.47C185.691 32.47 187.592 31.9967 188.918 28.8444C188.97 28.718 188.993 28.5815 188.985 28.445C188.977 28.3086 188.938 28.1757 188.871 28.0565C188.804 27.9373 188.711 27.8348 188.599 27.7567C188.486 27.6786 188.358 27.6269 188.223 27.6056L188.237 27.5956Z" fill="#3F8838"/>
<g style="mix-blend-mode:multiply">
<g style="mix-blend-mode:multiply">
<path d="M172.1 8.56055C172.1 8.56055 167.002 10.5124 169.586 14.416C169.586 14.416 172.984 14.3233 172.1 8.56055Z" fill="#A5BA3D"/>
</g>
<g style="mix-blend-mode:multiply">
<path d="M167.419 8.20312C167.419 8.20312 162.321 10.1529 164.905 14.0565C164.905 14.0565 168.303 13.9639 167.419 8.20312Z" fill="#A5BA3D"/>
</g>
<g style="mix-blend-mode:multiply">
<path d="M176.426 3.87891C176.426 3.87891 171.326 5.83071 173.91 9.73432C173.91 9.73432 177.308 9.63965 176.426 3.87891Z" fill="#5EA649"/>
</g>
<g style="mix-blend-mode:multiply">
<path d="M176.406 23.0401C176.836 22.799 177.236 22.5061 177.595 22.168L176.406 23.0401Z" fill="#A5BA3D"/>
</g>
<g style="mix-blend-mode:multiply">
<path d="M174.297 21.6152C174.297 21.6152 168.88 22.296 170.47 26.7012C170.46 26.7012 173.783 27.4203 174.297 21.6152Z" fill="#A5BA3D"/>
</g>
<g style="mix-blend-mode:multiply">
<path d="M180.15 15.3984C180.15 15.3984 174.735 16.0793 176.323 20.4864C176.315 20.4864 179.636 21.2055 180.15 15.3984Z" fill="#D6CC2F"/>
</g>
<g style="mix-blend-mode:multiply">
<path d="M175.762 10.2031C175.762 10.2031 171.307 11.7319 173.488 15.138C173.488 15.138 176.441 15.1521 175.762 10.2031Z" fill="#A5BA3D"/>
</g>
<g style="mix-blend-mode:multiply">
<path d="M180.228 6.79688C180.228 6.79688 175.083 8.6097 177.569 12.5858C177.569 12.5858 180.969 12.5778 180.228 6.79688Z" fill="#A5BA3D"/>
</g>
<g style="mix-blend-mode:multiply">
<path d="M184.009 23.3867C184.009 23.3867 178.559 23.6868 179.826 28.1988C179.826 28.1988 183.089 29.1434 184.009 23.3867Z" fill="#A5BA3D"/>
</g>
<g style="mix-blend-mode:multiply">
<path d="M183.196 19.7268C183.196 19.7268 177.757 19.3381 178.44 23.9567C178.44 23.9688 181.56 25.3204 183.196 19.7268Z" fill="#5EA649"/>
</g>
<g style="mix-blend-mode:multiply">
<path d="M175.051 16.1875C175.051 16.1875 169.634 16.8683 171.224 21.2735C171.224 21.2735 174.545 21.9926 175.051 16.1875Z" fill="#5EA649"/>
</g>
<g style="mix-blend-mode:multiply">
<path d="M184.294 13.0527C184.294 13.0527 178.876 13.7335 180.457 18.1407C180.457 18.1407 183.781 18.8578 184.294 13.0527Z" fill="#A5BA3D"/>
</g>
<g style="mix-blend-mode:multiply">
<path d="M173.36 29.1289C173.36 29.1289 168.727 29.8097 170.26 33.1574C170.26 33.1634 173.153 33.6227 173.36 29.1289Z" fill="#00864C"/>
</g>
<g style="mix-blend-mode:multiply">
<path d="M169.337 15.0781C169.337 15.0781 165.407 17.6402 168.213 20.0392C168.213 20.0392 171.031 19.2436 169.337 15.0781Z" fill="#A5BA3D"/>
</g>
<g style="mix-blend-mode:multiply">
<path d="M165.846 15.4492C165.846 15.4492 162.299 18.5189 165.401 20.5171C165.401 20.5171 168.088 19.3468 165.846 15.4492Z" fill="#00864C"/>
</g>
<g style="mix-blend-mode:multiply">
<path d="M169.279 20.043C169.279 20.043 165.317 22.5547 168.091 24.99C168.091 24.99 170.919 24.2306 169.279 20.043Z" fill="#D6CC2F"/>
</g>
<g style="mix-blend-mode:multiply">
<path d="M169.452 28.1289C169.452 28.1289 164.819 28.8097 166.352 32.1574C166.352 32.1634 169.246 32.6307 169.452 28.1289Z" fill="#A5BA3D"/>
</g>
<g style="mix-blend-mode:multiply">
<path d="M177.798 26.2637C177.798 26.2637 173.165 26.9445 174.698 30.2922C174.698 30.2982 177.592 30.7554 177.798 26.2637Z" fill="#A5BA3D"/>
</g>
<g style="mix-blend-mode:multiply">
<path d="M177.979 21.582C177.979 21.582 173.346 22.2628 174.877 25.6105C174.877 25.6166 177.771 26.0738 177.979 21.582Z" fill="#A5BA3D"/>
</g>
<g style="mix-blend-mode:multiply">
<path d="M177.858 36.2559C177.858 36.2559 173.157 35.9276 173.765 39.5049C173.765 39.5049 176.46 40.5644 177.858 36.2559Z" fill="#A5BA3D"/>
</g>
<g style="mix-blend-mode:multiply">
<path d="M174.321 34.4533C174.321 34.4533 169.622 34.123 170.228 37.7023C170.228 37.7023 172.923 38.7618 174.321 34.4533Z" fill="#A5BA3D"/>
</g>
<g style="mix-blend-mode:multiply">
<path d="M182.942 34.4239C182.942 34.4239 178.241 34.0956 178.849 37.6729C178.849 37.6668 181.544 38.7344 182.942 34.4239Z" fill="#D6CC2F"/>
</g>
<g style="mix-blend-mode:multiply">
<path d="M188.1 28.4856C188.1 28.4856 183.445 27.7685 183.751 31.3841C183.751 31.3841 186.349 32.6631 188.1 28.4856Z" fill="#A5BA3D"/>
</g>
<g style="mix-blend-mode:multiply">
<path d="M188.1 24.8853C188.1 24.8853 183.445 24.1723 183.751 27.7818C183.751 27.7818 186.349 29.0629 188.1 24.8853Z" fill="#00864C"/>
</g>
<g style="mix-blend-mode:multiply">
<path d="M187.828 19.4453C187.828 19.4453 183.119 19.5823 184.076 23.071C184.076 23.081 186.861 23.8706 187.828 19.4453Z" fill="#D6CC2F"/>
</g>
<g style="mix-blend-mode:multiply">
<path d="M172.017 2.83594C172.017 2.83594 167.622 4.53395 169.69 7.51503C169.69 7.51503 172.581 7.33173 172.017 2.83594Z" fill="#00864C"/>
</g>
<g style="mix-blend-mode:multiply">
<path d="M163.414 6.57422C163.414 6.57422 160.346 10.1535 163.585 11.7951C163.585 11.7951 166.042 10.2724 163.414 6.57422Z" fill="#00864C"/>
</g>
<g style="mix-blend-mode:multiply">
<path d="M168.14 0.900391C168.14 0.900391 164.54 3.93787 167.467 6.08304C167.467 6.08304 170.14 4.96514 168.14 0.900391Z" fill="#D6CC2F"/>
</g>
<g style="mix-blend-mode:multiply">
<path d="M183.238 31.0071C183.238 31.0071 178.581 30.29 178.89 33.9056C178.89 33.9056 181.496 35.1866 183.238 31.0071Z" fill="#5EA649"/>
</g>
<g style="mix-blend-mode:multiply">
<path d="M179.095 30.2887C179.095 30.2887 174.446 29.5696 174.746 33.1852C174.746 33.1852 177.345 34.4662 179.095 30.2887Z" fill="#D6CC2F"/>
</g>
<g style="mix-blend-mode:multiply">
<path d="M158.512 8.20312C158.512 8.20312 163.61 10.1529 161.026 14.0565C161.026 14.0565 157.628 13.9639 158.512 8.20312Z" fill="#D6CC2F"/>
</g>
<g style="mix-blend-mode:multiply">
<path d="M154.19 3.51953C154.19 3.51953 159.288 5.46932 156.704 9.37293C156.704 9.37293 153.306 9.28027 154.19 3.51953Z" fill="#5EA649"/>
</g>
<g style="mix-blend-mode:multiply">
<path d="M154.208 22.6808C153.778 22.4397 153.38 22.1468 153.021 21.8086L154.208 22.6808Z" fill="#A5BA3D"/>
</g>
<g style="mix-blend-mode:multiply">
<path d="M156.316 21.2539C156.316 21.2539 161.733 21.9347 160.143 26.3419C160.154 26.3419 156.83 27.059 156.316 21.2539Z" fill="#00864C"/>
</g>
<g style="mix-blend-mode:multiply">
<path d="M150.465 15.0391C150.465 15.0391 155.881 15.7199 154.304 20.125C154.304 20.125 150.978 20.8441 150.465 15.0391Z" fill="#A5BA3D"/>
</g>
<g style="mix-blend-mode:multiply">
<path d="M154.853 9.8418C154.853 9.8418 159.309 11.3706 157.123 14.7787C157.123 14.7787 154.175 14.7908 154.853 9.8418Z" fill="#00864C"/>
</g>
<g style="mix-blend-mode:multiply">
<path d="M150.385 6.44531C150.385 6.44531 155.531 8.25813 153.044 12.2363C153.044 12.2282 149.644 12.2181 150.385 6.44531Z" fill="#A5BA3D"/>
</g>
<g style="mix-blend-mode:multiply">
<path d="M146.607 23.0273C146.607 23.0273 152.058 23.3275 150.791 27.8353C150.791 27.8353 147.526 28.7841 146.607 23.0273Z" fill="#A5BA3D"/>
</g>
<g style="mix-blend-mode:multiply">
<path d="M147.418 19.3674C147.418 19.3674 152.856 18.9787 152.174 23.5974C152.174 23.6074 149.066 24.961 147.418 19.3674Z" fill="#5EA649"/>
</g>
<g style="mix-blend-mode:multiply">
<path d="M155.559 15.8262C155.559 15.8262 160.973 16.507 159.386 20.9142C159.394 20.9142 156.072 21.6312 155.559 15.8262Z" fill="#A5BA3D"/>
</g>
<g style="mix-blend-mode:multiply">
<path d="M145.238 13.0527C145.238 13.0527 150.655 13.7335 149.065 18.1387C149.075 18.1387 145.752 18.8578 145.238 13.0527Z" fill="#A5BA3D"/>
</g>
<g style="mix-blend-mode:multiply">
<path d="M157.256 28.7695C157.256 28.7695 161.889 29.4503 160.356 32.798C160.356 32.8041 157.461 33.2633 157.256 28.7695Z" fill="#00864C"/>
</g>
<g style="mix-blend-mode:multiply">
<path d="M161.276 14.7188C161.276 14.7188 165.206 17.2809 162.402 19.6798C162.402 19.6798 159.582 18.8842 161.276 14.7188Z" fill="#A5BA3D"/>
</g>
<g style="mix-blend-mode:multiply">
<path d="M161.335 19.6816C161.335 19.6816 165.297 22.1934 162.526 24.6286C162.526 24.6286 159.696 23.8693 161.335 19.6816Z" fill="#A5BA3D"/>
</g>
<g style="mix-blend-mode:multiply">
<path d="M161.162 27.7695C161.162 27.7695 165.795 28.4503 164.262 31.798C164.262 31.8041 161.37 32.2613 161.162 27.7695Z" fill="#5EA649"/>
</g>
<g style="mix-blend-mode:multiply">
<path d="M152.817 25.9023C152.817 25.9023 157.459 26.5832 155.918 29.9308C155.914 29.9369 153.024 30.3941 152.817 25.9023Z" fill="#D6CC2F"/>
</g>
<g style="mix-blend-mode:multiply">
<path d="M152.637 21.2188C152.637 21.2188 157.269 21.8996 155.737 25.2472C155.737 25.2533 152.842 25.7105 152.637 21.2188Z" fill="#A5BA3D"/>
</g>
<g style="mix-blend-mode:multiply">
<path d="M152.758 35.8946C152.758 35.8946 157.457 35.5663 156.851 39.1436C156.851 39.1436 154.156 40.2031 152.758 35.8946Z" fill="#00864C"/>
</g>
<g style="mix-blend-mode:multiply">
<path d="M156.295 34.0938C156.295 34.0938 160.994 33.7655 160.388 37.3428C160.388 37.3428 157.693 38.4023 156.295 34.0938Z" fill="#A5BA3D"/>
</g>
<g style="mix-blend-mode:multiply">
<path d="M147.674 34.0647C147.674 34.0647 152.373 33.7343 151.767 37.3116C151.767 37.3116 149.066 38.3731 147.674 34.0647Z" fill="#D6CC2F"/>
</g>
<g style="mix-blend-mode:multiply">
<path d="M142.514 28.1267C142.514 28.1267 147.171 27.4076 146.862 31.0191C146.862 31.0191 144.264 32.3042 142.514 28.1267Z" fill="#5EA649"/>
</g>
<g style="mix-blend-mode:multiply">
<path d="M142.514 24.5231C142.514 24.5231 147.171 23.804 146.862 27.4196C146.862 27.4196 144.264 28.7006 142.514 24.5231Z" fill="#00864C"/>
</g>
<g style="mix-blend-mode:multiply">
<path d="M142.787 19.0859C142.787 19.0859 147.496 19.2229 146.54 22.7237C146.54 22.7237 143.752 23.5112 142.787 19.0859Z" fill="#A5BA3D"/>
</g>
<g style="mix-blend-mode:multiply">
<path d="M158.598 2.47656C158.598 2.47656 162.993 4.17457 160.924 7.15565C160.924 7.15565 158.036 6.97236 158.598 2.47656Z" fill="#A5BA3D"/>
</g>
<g style="mix-blend-mode:multiply">
<path d="M147.379 30.6477C147.379 30.6477 152.034 29.9306 151.728 33.5462C151.728 33.5462 149.129 34.8272 147.379 30.6477Z" fill="#A5BA3D"/>
</g>
<g style="mix-blend-mode:multiply">
<path d="M151.521 29.9275C151.521 29.9275 156.176 29.2064 155.868 32.8321C155.868 32.8321 153.272 34.1051 151.521 29.9275Z" fill="#A5BA3D"/>
</g>
<g style="mix-blend-mode:multiply">
<path d="M147.794 9.29688C147.794 9.29688 152.298 10.6102 150.31 13.7282C150.31 13.7202 147.379 13.7745 147.794 9.29688Z" fill="#5EA649"/>
</g>
<g style="mix-blend-mode:multiply">
<path d="M165.472 23.0859C165.472 23.0859 168.94 26.2443 165.79 28.1639C165.784 28.1639 163.133 26.9291 165.472 23.0859Z" fill="#A5BA3D"/>
</g>
<g style="mix-blend-mode:multiply">
<path d="M183.026 8.51562C183.026 8.51562 184.649 12.9167 180.967 13.1685C180.967 13.1685 179.181 10.8481 183.026 8.51562Z" fill="#5EA649"/>
</g>
<g style="mix-blend-mode:multiply">
<path d="M163.258 1.12891C163.258 1.12891 166.821 4.2107 163.862 6.31962C163.868 6.31962 161.209 5.16948 163.258 1.12891Z" fill="#5EA649"/>
</g>
</g>
<path d="M172.042 33.1662C172.669 32.6647 175.299 30.6605 175.299 30.6605L182.814 28.0944L185.695 26.4024L183.064 27.2081L176.677 29.4641L175.243 29.6655C175.261 28.8034 175.34 26.8737 175.676 25.9653C175.96 25.0935 176.128 24.188 176.175 23.2723L175.05 25.782C175.05 25.782 174.159 29.2868 174.008 30.2234L172.983 31.4823C172.983 31.4823 168.787 34.7374 167.343 35.8029C166.857 36.1672 166.329 36.4715 165.77 36.7093C165.77 36.3951 165.752 36.0406 165.742 35.6599L168.159 31.1057L171.853 24.4587L175.549 20.5772L179.809 18.3293L182.126 17.0765L178.242 18.5166L175.748 19.8199L176.365 16.5709L176.927 13.3763C176.927 13.3763 176.365 15.5094 176.24 16.2587C176.115 17.008 174.925 20.4544 174.925 20.4544L174.902 20.5248L174.423 20.9478L172.493 22.5894C172.433 21.7999 172.334 20.551 172.292 20.1341C172.23 19.5077 172.105 16.0009 172.105 16.0009C172.105 16.0009 171.915 18.4441 171.853 18.8208C171.805 19.1109 171.869 21.8543 171.899 23.097C171.77 23.234 170.83 24.2371 170.538 24.646C170.246 25.0549 167.218 30.157 166.912 30.7834C166.749 31.1097 166.193 31.9919 165.703 32.7433C165.677 30.9304 165.665 29.2767 165.665 28.9665C165.665 28.6564 165.689 27.4377 165.718 26.1667L166.292 24.7084L167.794 20.6376L168.85 15.8236L169.224 15.5094L172.431 11.6823C171.353 12.762 169.774 14.0511 169.11 14.5808L169.22 14.0732L169.535 8.63477C169.535 8.63477 167.843 19.28 167.343 20.5953C167.021 21.4413 166.259 22.2853 165.756 22.7808L164.716 16.3836L163.464 12.9392L163.971 16.3836C163.971 16.3836 164.66 21.3305 164.723 22.3316C164.773 23.1514 164.573 27.7701 164.499 29.4339C162.642 27.4161 161.301 24.9795 160.589 22.3316C159.461 17.9486 159.024 20.0777 159.212 15.318C159.212 15.2556 159.212 15.1972 159.212 15.1367C159.894 14.611 161.461 13.3541 161.899 12.625C162.463 11.6863 162.525 10.371 162.525 10.371C162.311 10.8695 162.06 11.3509 161.774 11.8112C161.411 12.3994 160.003 13.5435 159.25 14.1337C159.383 10.4214 159.33 9.74461 159.33 9.74461L158.525 13.6281V17.6767C158.178 17.2295 157.614 16.4903 157.209 15.882C156.575 14.9434 154.071 13.6966 153.507 13.2514C153.507 13.2514 156.073 15.9445 157.451 18.0111L159.117 20.5087C159.802 22.5391 160.93 25.637 161.772 27.5425C161.19 27.3129 158.785 26.3118 158.015 25.212C158.015 25.212 153.006 23.4596 152.818 23.3347C152.631 23.2098 148.308 19.2639 147.809 18.7624C147.809 18.7624 150.313 22.521 151.126 23.0829C151.126 23.0829 146.929 24.2109 144.842 24.8434C146.312 24.6661 150.683 24.1384 151.001 24.086C151.378 24.0236 152.504 24.1485 152.504 24.1485C152.504 24.1485 156.762 25.2765 157.324 25.5806C157.794 25.8425 161.602 29.0048 163.155 29.9898C163.325 30.2617 163.478 30.5195 163.615 30.7572L163.524 31.0291C163.524 31.0291 163.361 34.965 163.365 36.8986L161.709 35.9137C161.709 35.9137 158.436 32.9507 157.727 32.5579C156.859 31.0694 155.034 27.9111 154.563 26.7791C154.563 26.7791 154.877 29.4097 155.252 30.0986C155.511 30.5719 155.977 31.43 156.243 31.9114C154.071 31.0191 150.248 29.4862 149.871 29.3472C149.37 29.1579 146.49 29.1579 146.49 29.1579C146.49 29.1579 148.556 29.7843 149.745 30.165C150.933 30.5457 154.13 31.9174 155.006 32.2941C155.882 32.6707 158.575 34.3607 158.833 34.6729C159.05 34.9428 162.487 37.6419 163.421 38.3731C163.407 40.0731 163.055 48.3758 162.94 49.9711H166.616C166.497 48.5611 166.177 41.4931 165.983 39.3741C167.123 38.1918 168.942 36.532 169.754 35.7969C170.231 35.956 170.84 36.1695 171.295 36.3649C172.173 36.7395 175.491 36.6146 175.491 36.6146C175.491 36.6146 174.05 36.4273 173.362 36.3004C172.85 36.2078 171.198 35.4947 170.383 35.1321C170.763 34.6064 171.577 33.5389 172.042 33.1662Z" fill="#6F5526"/>
</g>
<g clip-path="url(#clip1_2_17062)" filter="url(#filter2_d_2_17062)">
<path d="M159.336 30.2344H81.1465V95.1568H159.336V30.2344Z" fill="#8C6239"/>
<path d="M107.239 58.7617H87.0059V95.1578H107.239V58.7617Z" fill="#754C24"/>
<path d="M104.233 61.623H90.0154V81.9071H104.233V61.623Z" fill="#29ABE2"/>
<path d="M94.4922 61.3262V83.2389" stroke="#754C24" stroke-width="3.15" stroke-miterlimit="10"/>
<path d="M99.4258 61.3262V83.2389" stroke="#754C24" stroke-width="3.15" stroke-miterlimit="10"/>
<path d="M105.743 68.7305H89.0605" stroke="#754C24" stroke-width="2.75" stroke-miterlimit="10"/>
<path d="M105.743 75.4434H89.0605" stroke="#754C24" stroke-width="2.75" stroke-miterlimit="10"/>
<path d="M88.9647 72.6855H88.0586V80.3549H88.9647V72.6855Z" fill="#C69C6D"/>
<path d="M130.533 59.1758H110.227V79.7675H130.533V59.1758Z" fill="#29ABE2"/>
<path d="M130.079 59.6344V79.3144H110.681V59.6344H130.079ZM130.988 58.7227H109.77V80.2261H130.988V58.7227Z" fill="#754C24"/>
<g opacity="0.2">
<path opacity="0.2" d="M130.077 63.1141L110.68 74.0098V59.6562H130.077V63.1141Z" fill="white"/>
</g>
<path d="M153.777 59.1758H133.471V79.7675H153.777V59.1758Z" fill="#29ABE2"/>
<path d="M153.324 59.6344V79.3144H133.932V59.6344H153.324ZM154.236 58.7227H133.018V80.2261H154.236V58.7227Z" fill="#754C24"/>
<g opacity="0.2">
<path opacity="0.2" d="M153.323 63.1141L133.928 74.0098V59.6562H153.323V63.1141Z" fill="white"/>
</g>
<path d="M153.324 83.239V91.2696H110.681V83.239H153.324ZM154.236 82.3301H109.77V92.1785H154.236V82.3301Z" fill="#754C24"/>
</g>
<g clip-path="url(#clip2_2_17062)" filter="url(#filter3_d_2_17062)">
<path d="M136.182 22.9355H147.155L149.507 41.1473H137.593L136.182 22.9355Z" fill="#FF6915"/>
<path d="M125.209 22.9355H136.183L137.594 41.1473H125.678L125.209 22.9355Z" fill="#F73926"/>
<path d="M114.235 22.9355H125.209L125.677 41.1473H113.763L114.235 22.9355Z" fill="#FF6915"/>
<path d="M103.259 22.9355H114.235L113.764 41.1473H101.85L103.259 22.9355Z" fill="#F73926"/>
<path d="M92.2853 22.9355H103.259L101.85 41.1473H89.9336L92.2853 22.9355Z" fill="#FF6915"/>
<path d="M81.3113 22.9355H92.2849L89.9333 41.1473H78.0195L81.3113 22.9355Z" fill="#F73926"/>
<path d="M147.156 22.9355H158.13L161.422 41.1473H149.508L147.156 22.9355Z" fill="#F73926"/>
<path opacity="0.1" d="M78.0195 41.1473H161.421L158.129 22.9355H81.3113L78.0195 41.1473Z" fill="white"/>
<path d="M137.586 41.1484H149.511V43.8468C149.511 45.4259 148.883 46.9403 147.767 48.057C146.65 49.1736 145.136 49.8009 143.557 49.8009C142.773 49.8027 141.998 49.65 141.273 49.3517C140.549 49.0533 139.891 48.6151 139.337 48.062C138.782 47.509 138.342 46.852 138.041 46.1287C137.741 45.4054 137.586 44.63 137.586 43.8468V41.1484Z" fill="#FF6915"/>
<path d="M125.674 41.1484H137.585V43.8468C137.585 45.4259 136.957 46.9403 135.841 48.057C134.724 49.1736 133.21 49.8009 131.631 49.8009C130.051 49.8009 128.537 49.1737 127.42 48.0571C126.302 46.9406 125.675 45.4262 125.674 43.8468V41.1484Z" fill="#F73926"/>
<path d="M113.766 41.1484H125.674V43.8468C125.674 45.4259 125.047 46.9403 123.93 48.057C122.813 49.1736 121.299 49.8009 119.72 49.8009C118.141 49.8009 116.626 49.1736 115.51 48.057C114.393 46.9403 113.766 45.4259 113.766 43.8468V41.1484Z" fill="#FF6915"/>
<path d="M101.869 41.1465H113.794V43.8448C113.793 45.4242 113.165 46.9386 112.048 48.0552C110.931 49.1717 109.417 49.7989 107.837 49.7989C107.054 49.8007 106.278 49.6481 105.554 49.3497C104.83 49.0513 104.172 48.613 103.618 48.0599C103.064 47.5068 102.624 46.8499 102.324 46.1266C102.024 45.4033 101.869 44.6279 101.869 43.8448V41.1465Z" fill="#F73926"/>
<path d="M89.9453 41.1484H101.87V43.8468C101.87 44.6298 101.716 45.4052 101.416 46.1285C101.116 46.8518 100.676 47.5088 100.121 48.0619C99.567 48.6149 98.909 49.0532 98.185 49.3516C97.461 49.65 96.6853 49.8027 95.9022 49.8009C94.3228 49.8009 92.8081 49.1737 91.691 48.0571C90.574 46.9406 89.946 45.4262 89.9453 43.8468V41.1484Z" fill="#FF6915"/>
<path d="M78.0371 41.1484H89.9453V43.8468C89.9453 45.4259 89.318 46.9403 88.2014 48.057C87.0848 49.1736 85.5703 49.8009 83.9912 49.8009C83.2093 49.8009 82.4351 49.6469 81.7127 49.3476C80.9903 49.0484 80.3339 48.6098 79.781 48.057C78.6644 46.9403 78.0371 45.4259 78.0371 43.8468V41.1484Z" fill="#F73926"/>
<path d="M149.496 41.1484H161.407V43.8468C161.406 45.4262 160.778 46.9406 159.661 48.0571C158.544 49.1737 157.03 49.8009 155.45 49.8009C153.871 49.8009 152.357 49.1736 151.24 48.057C150.123 46.9403 149.496 45.4259 149.496 43.8468V41.1484Z" fill="#F73926"/>
</g>
<g clip-path="url(#clip3_2_17062)" filter="url(#filter4_d_2_17062)">
<path d="M146.825 18.7656H94.6994V30.695H146.825V18.7656Z" fill="#FBB03B"/>
<path d="M105.615 22.6143C105.613 22.4895 105.627 22.3649 105.656 22.2435C105.838 21.52 106.328 21.1543 107.124 21.1543H110.358V22.7518H107.549C107.48 22.7473 107.412 22.7643 107.353 22.8006C107.294 22.8368 107.247 22.8904 107.22 22.9541C107.209 23.007 107.202 23.0608 107.199 23.1149V23.605C107.194 23.6402 107.194 23.6761 107.199 23.7113C107.228 23.8955 107.357 24.0018 107.591 24.0303C107.626 24.0357 107.662 24.0357 107.697 24.0303H108.854C109.682 24.0303 110.17 24.4141 110.316 25.1818C110.341 25.2891 110.355 25.3985 110.358 25.5085V26.9997C110.371 27.2106 110.34 27.4219 110.267 27.6202C110.193 27.8184 110.08 27.9992 109.933 28.1511C109.776 28.2933 109.594 28.403 109.394 28.4738C109.195 28.5446 108.984 28.5751 108.773 28.5635H105.615V26.9582H108.392L108.488 26.9245C108.573 26.8997 108.647 26.8464 108.697 26.7737C108.747 26.7009 108.77 26.6131 108.763 26.5251V26.0064C108.767 25.9601 108.761 25.9136 108.745 25.8698C108.73 25.826 108.706 25.7859 108.674 25.752C108.642 25.7181 108.604 25.6911 108.561 25.6729C108.518 25.6546 108.472 25.6455 108.426 25.646H107.103C106.855 25.6568 106.609 25.6017 106.389 25.4865C106.169 25.3713 105.983 25.1999 105.851 24.9898C105.694 24.7551 105.61 24.4789 105.61 24.1963L105.615 22.6143Z" fill="white"/>
<path d="M111.522 22.7518V21.1543H116.275V22.7518H114.68V28.5531H113.096V22.7518H111.522Z" fill="white"/>
<path d="M117.522 22.7525C117.524 22.621 117.538 22.4899 117.563 22.3609C117.618 21.9879 117.815 21.6506 118.113 21.4195C118.437 21.2261 118.812 21.1357 119.189 21.1602H121.067C122.17 21.1602 122.721 21.6927 122.721 22.7577V26.9589C122.721 28.0222 122.165 28.5538 121.051 28.5538H119.184C118.805 28.5807 118.426 28.4959 118.095 28.31C117.803 28.066 117.617 27.7183 117.576 27.3401C117.548 27.2146 117.53 27.0872 117.522 26.9589V22.7525ZM119.106 26.4506C119.106 26.7903 119.283 26.9693 119.625 26.9693H120.597C120.739 26.9807 120.881 26.9491 121.005 26.8785C121.051 26.8309 121.087 26.7732 121.108 26.7098C121.129 26.6464 121.135 26.579 121.126 26.5128V23.2582C121.134 23.1878 121.128 23.1165 121.108 23.0488C121.087 22.981 121.053 22.9181 121.007 22.864C120.888 22.7763 120.74 22.7366 120.592 22.7525H119.622C119.478 22.7355 119.333 22.7735 119.215 22.8588C119.131 22.9739 119.093 23.1164 119.109 23.2582L119.106 26.4506Z" fill="white"/>
<path d="M124.318 21.1543H128.039C128.918 21.1543 129.424 21.5615 129.551 22.3706C129.556 22.4656 129.556 22.5608 129.551 22.6558V24.1366C129.551 24.2689 129.551 24.3726 129.551 24.4426C129.513 24.7444 129.373 25.0243 129.156 25.237C128.939 25.4497 128.656 25.5828 128.353 25.6148C128.262 25.6279 128.17 25.6348 128.078 25.6356H127.819L129.634 28.5609H127.757L126.079 25.7964C125.973 25.6253 125.928 25.4232 125.952 25.2232C126.009 24.6043 126.328 24.2948 126.909 24.2948H127.549C127.606 24.3026 127.665 24.297 127.719 24.2785C127.774 24.26 127.824 24.229 127.865 24.1881C127.905 24.1471 127.936 24.0972 127.954 24.0424C127.972 23.9876 127.977 23.9293 127.969 23.8721V23.1953C127.973 23.1411 127.966 23.0866 127.948 23.0353C127.931 22.9839 127.903 22.9365 127.867 22.8961C127.83 22.8557 127.786 22.823 127.737 22.8C127.688 22.777 127.635 22.7641 127.58 22.7622C127.546 22.7567 127.511 22.7567 127.477 22.7622H125.9V28.5531H124.313L124.318 21.1543Z" fill="white"/>
<path d="M131.082 27.0075V22.7518C131.084 22.6421 131.096 22.5328 131.116 22.425C131.248 21.5796 131.751 21.1543 132.625 21.1543H135.914V22.7518H133.038C133.005 22.7556 132.973 22.7662 132.944 22.7829C132.855 22.8113 132.778 22.8703 132.728 22.9495C132.678 23.0287 132.657 23.123 132.669 23.216V24.0407H135.914V25.6356H132.669V26.4603C132.66 26.5206 132.664 26.5822 132.68 26.6411C132.696 26.6999 132.725 26.7546 132.764 26.8016C132.803 26.8486 132.851 26.8869 132.906 26.9139C132.961 26.9409 133.021 26.956 133.082 26.9582H135.914V28.5531H132.848C131.671 28.5531 131.082 28.0379 131.082 27.0075Z" fill="white"/>
</g>
<g clip-path="url(#clip4_2_17062)" filter="url(#filter5_d_2_17062)">
<path d="M134.636 93.2293C134.964 91.6704 133.967 90.1406 132.408 89.8123C130.849 89.4841 129.319 90.4818 128.991 92.0407C128.663 93.5996 129.66 95.1294 131.219 95.4576C132.778 95.7858 134.308 94.7882 134.636 93.2293Z" fill="#009245"/>
<path d="M129.613 93.5357C130.74 92.4093 130.74 90.5829 129.613 89.4564C128.487 88.33 126.66 88.33 125.534 89.4564C124.407 90.5829 124.407 92.4093 125.534 93.5357C126.66 94.6622 128.487 94.6622 129.613 93.5357Z" fill="#009245"/>
<path d="M126.453 93.1427C126.821 91.5927 125.862 90.0379 124.312 89.6701C122.762 89.3023 121.208 90.2606 120.84 91.8106C120.472 93.3606 121.43 94.9154 122.98 95.2832C124.53 95.6511 126.085 94.6927 126.453 93.1427Z" fill="#009245"/>
<path d="M137.451 95.1217C138.578 93.9952 138.578 92.1688 137.451 91.0424C136.325 89.9159 134.498 89.9159 133.372 91.0424C132.245 92.1688 132.245 93.9952 133.372 95.1217C134.498 96.2482 136.325 96.2482 137.451 95.1217Z" fill="#009245"/>
<path d="M141.174 94.3873C142.3 93.2608 142.3 91.4345 141.174 90.308C140.047 89.1815 138.221 89.1815 137.094 90.308C135.968 91.4345 135.968 93.2608 137.094 94.3873C138.221 95.5138 140.047 95.5138 141.174 94.3873Z" fill="#009245"/>
<path d="M143.939 95.6831C145.532 95.6831 146.824 94.3916 146.824 92.7986C146.824 91.2055 145.532 89.9141 143.939 89.9141C142.346 89.9141 141.055 91.2055 141.055 92.7986C141.055 94.3916 142.346 95.6831 143.939 95.6831Z" fill="#009245"/>
<path d="M146.784 93.4922H120.785V97.5423H146.784V93.4922Z" fill="#B29476"/>
</g>
<g clip-path="url(#clip5_2_17062)" filter="url(#filter6_d_2_17062)">
<path d="M160.912 63.3848H151.273V92.2973H160.912V63.3848Z" fill="white"/>
<path d="M151.739 100.985H150.51V63.1652C150.51 63.0022 150.574 62.846 150.69 62.7307C150.805 62.6155 150.961 62.5508 151.124 62.5508V62.5508C151.287 62.5508 151.443 62.6155 151.559 62.7307C151.674 62.846 151.739 63.0022 151.739 63.1652V100.985Z" fill="#CCCCCC"/>
<path d="M148.008 97.8574L146.826 104.252H156L155.097 97.8574H148.008Z" fill="#808080"/>
</g>
<g clip-path="url(#clip6_2_17062)">
<path d="M65.509 27.4616C67.8126 27.4616 69.6801 25.7484 69.6801 23.6351C69.6801 21.5218 67.8126 19.8086 65.509 19.8086C63.2054 19.8086 61.3379 21.5218 61.3379 23.6351C61.3379 25.7484 63.2054 27.4616 65.509 27.4616Z" fill="#FCEE21"/>
<path d="M66.0861 28.5762H64.9297V71.9349H66.0861V28.5762Z" fill="#4D4D4D"/>
<g opacity="0.1">
<g opacity="0.1">
<path opacity="0.1" d="M69.5694 29.7408C70.0986 27.684 68.7101 25.6231 66.468 25.1377C64.226 24.6523 61.9795 25.9261 61.4503 27.9829C60.9212 30.0397 62.3097 32.1006 64.5517 32.586C66.7938 33.0715 69.0403 31.7976 69.5694 29.7408Z" fill="black"/>
</g>
</g>
<path d="M67.4312 26.9883H63.5859V28.9864H67.4312V26.9883Z" fill="#666666"/>
<path d="M66.7783 55.8711H64.2383V71.9353H66.7783V55.8711Z" fill="#808080"/>
</g>
<g clip-path="url(#clip7_2_17062)" filter="url(#filter7_d_2_17062)">
<path d="M37.0067 83.1289H34.9902V89.1266H37.0067V83.1289Z" fill="#A67C52"/>
<path d="M75.3446 83.1289H73.3281V89.1266H75.3446V83.1289Z" fill="#A67C52"/>
<path d="M72.6396 82.0645H70.623V89.1253H72.6396V82.0645Z" fill="#8C6239"/>
<path d="M39.6825 82.0645H37.666V89.1253H39.6825V82.0645Z" fill="#8C6239"/>
<path d="M72.5708 71.9336H37.5957V75.4731H72.5708V71.9336Z" fill="#A67C52"/>
<path d="M72.5708 76.0039H37.5957V79.5435H72.5708V76.0039Z" fill="#A67C52"/>
<path d="M75.9333 82.0653H34.2324L37.5953 80.0488H72.5704L75.9333 82.0653Z" fill="#A67C52"/>
<path d="M75.9333 82.0645H34.2324V83.1306H75.9333V82.0645Z" fill="#8C6239"/>
</g>
<g clip-path="url(#clip8_2_17062)" filter="url(#filter8_d_2_17062)">
<path d="M54.6298 45.6064C54.5904 45.6064 54.2885 45.556 53.8401 45.5385C54.4995 44.8045 55.0224 43.9586 55.3844 43.0406C55.4415 42.9035 55.4667 42.7551 55.4581 42.6067C55.4494 42.4584 55.4071 42.314 55.3344 42.1844C55.2617 42.0548 55.1605 41.9434 55.0384 41.8587C54.9164 41.774 54.7766 41.7182 54.6298 41.6954C54.2537 41.6431 53.8742 41.6182 53.4945 41.6211C52.5776 41.5973 51.6664 41.7727 50.8238 42.1351C50.8523 42.0038 50.8807 41.8682 50.9069 41.7326C52.0575 41.6495 54.271 40.9517 55.1416 36.9642C55.1732 36.8191 55.1714 36.6687 55.1362 36.5244C55.101 36.3801 55.0334 36.2457 54.9385 36.1315C54.8437 36.0172 54.724 35.926 54.5886 35.8649C54.4533 35.8038 54.3058 35.7743 54.1573 35.7787C53.8708 35.7787 51.5653 35.8946 50.1239 37.1983C50.1428 37.0655 50.1342 36.9302 50.0985 36.8009C50.0629 36.6716 50.0009 36.5511 49.9165 36.4468C49.8322 36.3425 49.7272 36.2568 49.6082 36.1949C49.4892 36.133 49.3587 36.0963 49.2249 36.0871C49.2096 36.0871 49.0608 36.0871 48.8246 36.0871C48.473 36.0879 48.1218 36.1084 47.7725 36.1484C49.1177 35.689 50.9376 34.2542 51.3225 29.9101C51.3354 29.7649 51.3156 29.6187 51.2646 29.4821C51.2136 29.3455 51.1327 29.2221 51.0279 29.1208C50.9231 29.0195 50.7969 28.943 50.6586 28.8968C50.5204 28.8505 50.3736 28.8358 50.2289 28.8537C50.2092 28.8537 50.1283 28.8668 49.9992 28.8908C50.7801 27.0907 49.9992 24.8312 49.8898 24.5578C49.8397 24.4227 49.7604 24.3003 49.6576 24.1994C49.5548 24.0985 49.431 24.0215 49.295 23.9738C49.1591 23.9262 49.0143 23.9092 48.871 23.9239C48.7276 23.9386 48.5893 23.9848 48.4659 24.0591C47.9518 24.3667 47.467 24.7211 47.0179 25.1177C47.0412 24.3795 47.0039 23.6406 46.9063 22.9085C46.8876 22.7638 46.8367 22.625 46.7574 22.5024C46.6782 22.3798 46.5725 22.2765 46.4482 22.2C46.3239 22.1235 46.184 22.0757 46.0389 22.0602C45.8937 22.0446 45.747 22.0617 45.6093 22.1101C44.5055 22.5288 43.5012 23.1732 42.6607 24.0022C42.9932 22.8407 43.0304 21.408 42.7723 19.715C42.7498 19.5706 42.6953 19.433 42.6128 19.3122C42.5303 19.1915 42.4219 19.0907 42.2955 19.0173C42.1695 18.9436 42.0286 18.8993 41.8832 18.8875C41.7378 18.8758 41.5916 18.897 41.4555 18.9495C41.3374 18.9932 38.8308 19.9753 37.7699 22.0227C38.0805 21.0799 38.1549 19.9381 37.9886 18.6104C37.9699 18.4642 37.9184 18.3241 37.838 18.2006C37.7575 18.0771 37.6501 17.9734 37.5239 17.8972C37.3977 17.8211 37.2559 17.7744 37.1091 17.7608C36.9623 17.7472 36.8143 17.767 36.6762 17.8186C35.9192 18.1234 35.2121 18.5399 34.5786 19.0545C34.4612 18.0574 34.1648 17.0896 33.7037 16.1978C33.6377 16.0649 33.5424 15.9486 33.425 15.8578C33.3076 15.7669 33.1712 15.7039 33.0259 15.6733C32.8807 15.6428 32.7304 15.6456 32.5864 15.6815C32.4424 15.7174 32.3083 15.7855 32.1944 15.8807C32.0041 16.0425 30.6633 17.2149 30.1099 18.781C29.657 17.7708 28.9933 16.8692 28.1632 16.1366C28.0507 16.0399 27.9177 15.97 27.7743 15.9322C27.6309 15.8944 27.4808 15.8896 27.3352 15.9182C27.1897 15.9469 27.0526 16.0082 26.9342 16.0975C26.8158 16.1869 26.7192 16.302 26.6518 16.434C26.1381 17.3699 25.814 18.3979 25.6981 19.4591C24.6635 18.1708 23.0296 17.5058 22.7955 17.4162C22.6575 17.3641 22.5094 17.344 22.3625 17.3574C22.2155 17.3708 22.0735 17.4174 21.9472 17.4936C21.8209 17.5698 21.7134 17.6737 21.6331 17.7975C21.5527 17.9212 21.5014 18.0616 21.4831 18.208C21.3154 19.5379 21.3883 20.6753 21.7019 21.6202C20.6235 19.5772 18.1234 18.5907 17.9987 18.547C17.8625 18.4955 17.7166 18.475 17.5715 18.4871C17.4264 18.4992 17.2858 18.5435 17.16 18.6169C17.0342 18.6903 16.9264 18.7908 16.8445 18.9112C16.7625 19.0315 16.7085 19.1687 16.6863 19.3126C16.426 21.0055 16.4676 22.4382 16.7957 23.5997C15.955 22.7721 14.9518 22.1278 13.8494 21.7077C13.7117 21.6588 13.5648 21.6414 13.4195 21.6568C13.2742 21.6721 13.1342 21.7198 13.0098 21.7964C12.8853 21.873 12.7797 21.9765 12.7005 22.0993C12.6213 22.2221 12.5707 22.3611 12.5523 22.5061C12.4158 23.4772 12.3953 24.4611 12.4911 25.4371C12.0116 25.1722 11.5057 24.9582 10.9818 24.7984C10.8434 24.7577 10.6977 24.7482 10.5552 24.7706C10.4127 24.793 10.277 24.8467 10.1577 24.9279C10.0385 25.009 9.93872 25.1156 9.86563 25.24C9.79254 25.3644 9.74794 25.5034 9.73504 25.647C9.58849 27.2175 9.7766 28.5059 10.2928 29.4902C9.57955 29.1726 8.82699 28.9519 8.05518 28.834C7.9105 28.8161 7.76366 28.8308 7.62541 28.8771C7.48716 28.9233 7.36099 28.9999 7.25615 29.1011C7.1513 29.2024 7.07043 29.3259 7.01945 29.4624C6.96848 29.599 6.94868 29.7452 6.96152 29.8905C7.27868 33.4755 8.57357 35.0788 9.77222 35.7962L9.7591 35.8575C9.60605 35.9596 9.48499 36.1029 9.40991 36.2709C9.33482 36.4388 9.30877 36.6246 9.33476 36.8068C7.89332 35.4944 5.58788 35.3959 5.30134 35.3872C5.15304 35.3824 5.00562 35.4119 4.87057 35.4733C4.73551 35.5348 4.61645 35.6266 4.52266 35.7415C4.42781 35.8555 4.3602 35.9896 4.32495 36.1336C4.2897 36.2777 4.28775 36.4278 4.31924 36.5727C5.15698 40.4115 7.23931 41.2011 8.42046 41.3301L7.90863 41.4767C7.27623 41.3063 6.62337 41.2239 5.96847 41.2317C5.58881 41.2303 5.2095 41.2552 4.83326 41.3061C4.6864 41.3287 4.54664 41.3845 4.42458 41.4692C4.30252 41.554 4.20138 41.6654 4.12885 41.7951C4.05631 41.9248 4.01428 42.0693 4.00596 42.2177C3.99764 42.366 4.02324 42.5143 4.08082 42.6513C4.44158 43.5683 4.96221 44.4141 5.6185 45.1492C5.3542 45.1564 5.09054 45.179 4.82888 45.217C4.6821 45.2393 4.54235 45.2949 4.42028 45.3794C4.29821 45.4639 4.19704 45.5751 4.12447 45.7046C4.0519 45.8342 4.00986 45.9785 4.00153 46.1268C3.99321 46.275 4.01883 46.4232 4.07644 46.56C5.5157 49.9941 7.57615 50.4972 8.68294 50.4972C9.07921 50.4985 9.47303 50.435 9.84878 50.3091C10.1052 50.7824 10.4117 51.2268 10.7631 51.6346C10.6165 51.6346 10.5247 51.6346 10.5115 51.6346C10.3626 51.6456 10.2183 51.6908 10.0897 51.7667C9.96106 51.8426 9.85168 51.9471 9.77004 52.0721C9.6871 52.1956 9.6332 52.3364 9.61237 52.4837C9.59153 52.6311 9.60431 52.7812 9.64973 52.9229C10.8724 56.6873 13.0401 57.2517 14.2256 57.2517C14.6163 57.2593 15.0052 57.1971 15.3739 57.0679C15.5911 56.9823 15.7704 56.8217 15.8792 56.6151C17.1129 58.8659 18.7599 59.2399 19.7376 59.2399C20.1323 59.2436 20.5246 59.1785 20.8969 59.0474C21.0534 58.9849 21.1912 58.8833 21.2973 58.7523C21.4034 58.6214 21.4741 58.4654 21.5028 58.2994C21.6026 57.7551 21.5967 57.1966 21.4853 56.6545C22.1073 57.0626 22.8347 57.2808 23.5786 57.2823C23.9726 57.2863 24.3642 57.2212 24.7357 57.0898C24.8141 57.055 24.8876 57.0102 24.9544 56.9564C25.6434 57.5798 27.4392 58.0238 29.5478 58.0238C31.6563 58.0238 33.4849 57.571 34.1565 56.9301C34.2058 57.0527 34.2795 57.164 34.3731 57.2573C34.4667 57.3505 34.5783 57.4238 34.7011 57.4726C35.0726 57.6037 35.4642 57.6688 35.8582 57.6651C36.6033 57.6646 37.3318 57.4456 37.9536 57.0351C37.8423 57.5779 37.8363 58.1371 37.9361 58.6822C37.964 58.8485 38.0345 59.0048 38.1406 59.1359C38.2468 59.267 38.3851 59.3684 38.542 59.4302C38.9136 59.5613 39.3052 59.6265 39.6991 59.6227C40.6769 59.6227 42.3239 59.2377 43.5576 56.9979C43.667 57.204 43.8461 57.3644 44.0628 57.4507C44.4338 57.5842 44.8257 57.6502 45.2199 57.6454C46.4033 57.6454 48.5731 57.081 49.7936 53.3145C49.839 53.1732 49.8518 53.0235 49.8309 52.8766C49.81 52.7296 49.7561 52.5894 49.6731 52.4664C49.5901 52.3434 49.4802 52.2408 49.3518 52.1664C49.2234 52.0921 49.0798 52.0478 48.9318 52.0371C48.9187 52.0371 48.829 52.0371 48.6824 52.0371C49.033 51.6292 49.3388 51.1848 49.5946 50.7116C49.9703 50.8373 50.3641 50.9008 50.7604 50.8997C51.865 50.8997 53.9298 50.3857 55.3691 46.9625C55.4258 46.8253 55.4506 46.677 55.4418 46.5288C55.4329 46.3806 55.3906 46.2364 55.318 46.1069C55.2453 45.9774 55.1443 45.8661 55.0224 45.7813C54.9006 45.6965 54.7611 45.6404 54.6144 45.6173L54.6298 45.6064Z" fill="#FBC500"/>
<path d="M37.0434 51.655C37.7237 51.1103 40.5803 48.934 40.5803 48.934L48.7412 46.1473L51.8691 44.31L49.0124 45.1849L42.0764 47.6347L40.5191 47.8534C40.5388 46.9172 40.6241 44.8218 40.9893 43.8353C41.2979 42.8886 41.4803 41.9053 41.5318 40.9109L40.3091 43.6363C40.3091 43.6363 39.3423 47.4422 39.1782 48.4593L38.0649 49.8264C38.0649 49.8264 33.5087 53.3611 31.9404 54.5182C31.4126 54.9138 30.8391 55.2443 30.2321 55.5025C30.2321 55.1612 30.2124 54.7763 30.2015 54.3629L32.8263 49.4173L36.8378 42.1992L40.8515 37.9842L45.4777 35.5432L47.9931 34.1827L43.776 35.7466L41.0681 37.1618L41.7374 33.6337L42.3477 30.1646C42.3477 30.1646 41.7374 32.4809 41.6018 33.2946C41.4662 34.1083 40.1735 37.8508 40.1735 37.8508L40.1494 37.9274L39.6288 38.3867L37.5334 40.1694C37.4678 39.3119 37.3606 37.9558 37.3146 37.503C37.2468 36.8228 37.1112 33.0146 37.1112 33.0146C37.1112 33.0146 36.9056 35.6679 36.8378 36.0769C36.7853 36.3919 36.8553 39.371 36.8881 40.7206C36.7481 40.8693 35.7267 41.9586 35.4095 42.4026C35.0923 42.8466 31.8048 48.3871 31.4723 49.0674C31.2951 49.4217 30.6914 50.3798 30.1599 51.1956C30.1315 49.2271 30.1184 47.4313 30.1184 47.0944C30.1184 46.7576 30.1446 45.4342 30.1752 44.054L30.7986 42.4704L32.4304 38.0499L33.5765 32.8222L33.9834 32.4809L37.4656 28.325C36.2954 29.4974 34.5805 30.8973 33.8587 31.4726L33.979 30.9214L34.3202 25.0156C34.3202 25.0156 32.4829 36.5756 31.9404 38.0039C31.5904 38.9226 30.7636 39.8391 30.2168 40.3772L29.0881 33.4302L27.7276 29.6899L28.2788 33.4302C28.2788 33.4302 29.0269 38.8023 29.0947 39.8894C29.1494 40.7796 28.9328 45.7952 28.8519 47.6019C26.8359 45.4107 25.3793 42.7648 24.6063 39.8894C23.3814 35.1298 22.9068 37.4418 23.1102 32.2731C23.1102 32.2053 23.1102 32.1419 23.1102 32.0763C23.8517 31.5054 25.5534 30.1405 26.0281 29.3487C26.6405 28.3294 26.7083 26.9011 26.7083 26.9011C26.4765 27.4424 26.2037 27.9652 25.8925 28.465C25.4987 29.1037 23.9698 30.3461 23.1518 30.987C23.2961 26.9558 23.2392 26.2208 23.2392 26.2208L22.3643 30.438V34.8345C21.9881 34.3489 21.3756 33.5462 20.936 32.8856C20.247 31.8663 17.5282 30.5124 16.9157 30.029C16.9157 30.029 19.7023 32.9534 21.1985 35.1976L23.0074 37.9099C23.7511 40.1147 24.976 43.4788 25.8903 45.548C25.2581 45.2986 22.6465 44.2115 21.8109 43.0173C21.8109 43.0173 16.3711 41.1143 16.1676 40.9787C15.9642 40.8431 11.2702 36.5581 10.7278 36.0135C10.7278 36.0135 13.4466 40.095 14.3303 40.7053C14.3303 40.7053 9.77192 41.9302 7.50586 42.617C9.1026 42.4245 13.8491 41.8514 14.1947 41.7945C14.6037 41.7267 15.8264 41.8624 15.8264 41.8624C15.8264 41.8624 20.4504 43.0872 21.0607 43.4175C21.5703 43.7019 25.7065 47.136 27.393 48.2056C27.5767 48.5009 27.7429 48.7808 27.8917 49.0389L27.7932 49.3342C27.7932 49.3342 27.6161 53.6082 27.6204 55.7081L25.8225 54.6385C25.8225 54.6385 22.2681 51.4209 21.4981 50.9944C20.5554 49.378 18.5737 45.9483 18.0619 44.719C18.0619 44.719 18.4031 47.5756 18.8099 48.3237C19.0921 48.8377 19.5974 49.7695 19.8861 50.2923C17.5282 49.3233 13.3766 47.6587 12.9676 47.5078C12.423 47.3022 9.29509 47.3022 9.29509 47.3022C9.29509 47.3022 11.5393 47.9825 12.8298 48.3959C14.1203 48.8093 17.5916 50.2988 18.5431 50.7079C19.4946 51.1169 22.419 52.9521 22.699 53.2911C22.9352 53.5842 26.6668 56.5152 27.6817 57.3092C27.6664 59.1553 27.2836 68.1714 27.1589 69.9038H31.1508C31.0217 68.3726 30.6739 60.6973 30.464 58.3963C31.702 57.1123 33.6771 55.31 34.5586 54.5116C35.077 54.6844 35.7376 54.9163 36.2319 55.1284C37.1856 55.5353 40.7881 55.3997 40.7881 55.3997C40.7881 55.3997 39.2242 55.1962 38.4761 55.0584C37.9205 54.9578 36.1269 54.1835 35.2411 53.7898C35.6545 53.2189 36.5381 52.0596 37.0434 51.655Z" fill="#8A7043"/>
<path d="M37.1076 24.9336C37.1076 24.9336 31.5715 27.0531 34.3778 31.2921C34.3778 31.2921 38.0678 31.1915 37.1076 24.9336Z" fill="#CE731A"/>
<path d="M32.0216 24.5449C32.0216 24.5449 26.4855 26.6622 29.2918 30.9013C29.2918 30.9013 32.9819 30.8007 32.0216 24.5449Z" fill="#D4A809"/>
<path d="M41.8029 19.8477C41.8029 19.8477 36.2646 21.9672 39.0709 26.2062C39.0709 26.2062 42.7609 26.1034 41.8029 19.8477Z" fill="#CE731A"/>
<path d="M41.7815 40.658C42.2487 40.3962 42.6821 40.0781 43.072 39.7109L41.7815 40.658Z" fill="#D4A809"/>
<path d="M39.4906 39.1094C39.4906 39.1094 33.6089 39.8487 35.3346 44.6324C35.3237 44.6324 38.9328 45.4132 39.4906 39.1094Z" fill="#D4A809"/>
<path d="M45.8473 32.3594C45.8473 32.3594 39.9678 33.0987 41.6914 37.8846C41.6827 37.8846 45.2896 38.6654 45.8473 32.3594Z" fill="#D4A809"/>
<path d="M41.0834 26.7168C41.0834 26.7168 36.2451 28.377 38.6139 32.0757C38.6139 32.0757 41.8205 32.091 41.0834 26.7168Z" fill="#D4A809"/>
<path d="M45.9325 23.0195C45.9325 23.0195 40.3461 24.9881 43.0453 29.3059C43.0453 29.3059 46.7375 29.2971 45.9325 23.0195Z" fill="#EE7803"/>
<path d="M50.0395 41.0352C50.0395 41.0352 44.1207 41.3611 45.4965 46.2607C45.4965 46.2607 49.0399 47.2865 50.0395 41.0352Z" fill="#D4A809"/>
<path d="M49.1544 37.0595C49.1544 37.0595 43.2487 36.6374 43.9902 41.6529C43.9902 41.666 47.3783 43.1337 49.1544 37.0595Z" fill="#EE7803"/>
<path d="M40.3089 33.2148C40.3089 33.2148 34.4272 33.9542 36.153 38.7378C36.153 38.7378 39.7599 39.5187 40.3089 33.2148Z" fill="#D4A809"/>
<path d="M50.35 29.8125C50.35 29.8125 44.4661 30.5518 46.1832 35.3377C46.1832 35.3377 49.7922 36.1164 50.35 29.8125Z" fill="#D4A809"/>
<path d="M38.4735 47.2715C38.4735 47.2715 33.4426 48.0108 35.1072 51.6461C35.1072 51.6527 38.2482 52.1514 38.4735 47.2715Z" fill="#D4A809"/>
<path d="M34.1065 32.0117C34.1065 32.0117 29.8391 34.794 32.886 37.3991C32.886 37.3991 35.9461 36.5351 34.1065 32.0117Z" fill="#D4A809"/>
<path d="M30.3159 32.4141C30.3159 32.4141 26.464 35.7475 29.8325 37.9174C29.8325 37.9174 32.7503 36.6465 30.3159 32.4141Z" fill="#EE7803"/>
<path d="M34.0423 37.4023C34.0423 37.4023 29.7398 40.1299 32.7518 42.7744C32.7518 42.7744 35.8228 41.9498 34.0423 37.4023Z" fill="#CE731A"/>
<path d="M34.2313 46.1836C34.2313 46.1836 29.2005 46.9229 30.865 50.5582C30.865 50.5648 34.0082 51.0723 34.2313 46.1836Z" fill="#EE7803"/>
<path d="M43.2938 44.1602C43.2938 44.1602 38.263 44.8995 39.9275 48.5348C39.9275 48.5414 43.0707 49.0379 43.2938 44.1602Z" fill="#D4A809"/>
<path d="M43.4905 39.0742C43.4905 39.0742 38.4596 39.8135 40.122 43.4489C40.122 43.4554 43.2652 43.9519 43.4905 39.0742Z" fill="#CE731A"/>
<path d="M43.3591 55.0086C43.3591 55.0086 38.2539 54.652 38.9145 58.5367C38.9145 58.5367 41.8411 59.6873 43.3591 55.0086Z" fill="#D4A809"/>
<path d="M39.5169 53.0517C39.5169 53.0517 34.4139 52.693 35.0723 56.5798C35.0723 56.5798 37.9989 57.7304 39.5169 53.0517Z" fill="#D4A809"/>
<path d="M48.8786 53.0203C48.8786 53.0203 43.7734 52.6638 44.434 56.5484C44.434 56.5419 47.3606 57.7012 48.8786 53.0203Z" fill="#D4A809"/>
<path d="M54.4803 46.5706C54.4803 46.5706 49.4254 45.7919 49.7579 49.7182C49.7579 49.7182 52.5795 51.1071 54.4803 46.5706Z" fill="#D4A809"/>
<path d="M54.4803 42.6598C54.4803 42.6598 49.4254 41.8854 49.7579 45.8051C49.7579 45.8051 52.5795 47.1963 54.4803 42.6598Z" fill="#D4A809"/>
<path d="M54.185 36.7539C54.185 36.7539 49.071 36.9026 50.11 40.6911C50.11 40.702 53.1351 41.5594 54.185 36.7539Z" fill="#D4A809"/>
<path d="M37.0162 18.7188C37.0162 18.7188 32.2434 20.5627 34.4898 23.7999C34.4898 23.7999 37.6286 23.6008 37.0162 18.7188Z" fill="#D4A809"/>
<path d="M27.6731 22.7773C27.6731 22.7773 24.3418 26.6642 27.859 28.4469C27.859 28.4469 30.5275 26.7933 27.6731 22.7773Z" fill="#EE7803"/>
<path d="M32.8039 16.6172C32.8039 16.6172 28.8951 19.9157 32.0733 22.2452C32.0733 22.2452 34.9759 21.0312 32.8039 16.6172Z" fill="#EE7803"/>
<path d="M49.2012 49.3089C49.2012 49.3089 44.1441 48.5302 44.4788 52.4565C44.4788 52.4565 47.3092 53.8476 49.2012 49.3089Z" fill="#EE7803"/>
<path d="M44.7024 48.5281C44.7024 48.5281 39.6541 47.7472 39.98 51.6734C39.98 51.6734 42.8016 53.0646 44.7024 48.5281Z" fill="#CE731A"/>
<path d="M22.3509 24.5449C22.3509 24.5449 27.887 26.6622 25.0806 30.9013C25.0806 30.9013 21.3906 30.8007 22.3509 24.5449Z" fill="#D4A809"/>
<path d="M17.6575 19.4609C17.6575 19.4609 23.1936 21.5783 20.3873 25.8173C20.3873 25.8173 16.6973 25.7167 17.6575 19.4609Z" fill="#D4A809"/>
<path d="M17.6772 40.2674C17.2106 40.0057 16.7779 39.6876 16.3889 39.3203L17.6772 40.2674Z" fill="#D4A809"/>
<path d="M19.9668 38.7188C19.9668 38.7188 25.8485 39.4581 24.1227 44.2439C24.1336 44.2439 20.5246 45.0226 19.9668 38.7188Z" fill="#EE7803"/>
<path d="M13.6113 31.9707C13.6113 31.9707 19.493 32.71 17.7804 37.4937C17.7804 37.4937 14.1691 38.2746 13.6113 31.9707Z" fill="#D4A809"/>
<path d="M18.3778 26.3242C18.3778 26.3242 23.2161 27.9844 20.8429 31.6853C20.8429 31.6853 17.6406 31.6985 18.3778 26.3242Z" fill="#CE731A"/>
<path d="M13.5264 22.6367C13.5264 22.6367 19.115 24.6053 16.4136 28.9253C16.4136 28.9165 12.7236 28.9056 13.5264 22.6367Z" fill="#EE7803"/>
<path d="M9.42188 40.6445C9.42188 40.6445 15.3408 40.9704 13.9649 45.8657C13.9649 45.8657 10.4193 46.8959 9.42188 40.6445Z" fill="#CE731A"/>
<path d="M10.3047 36.6689C10.3047 36.6689 16.2105 36.2468 15.4689 41.2623C15.4689 41.2732 12.0939 42.7431 10.3047 36.6689Z" fill="#D4A809"/>
<path d="M19.1427 32.8242C19.1427 32.8242 25.0222 33.5635 23.2986 38.3494C23.3073 38.3494 19.7005 39.1281 19.1427 32.8242Z" fill="#D4A809"/>
<path d="M7.9375 29.8125C7.9375 29.8125 13.8192 30.5518 12.0934 35.3355C12.1043 35.3355 8.49527 36.1164 7.9375 29.8125Z" fill="#EE7803"/>
<path d="M20.9863 46.8789C20.9863 46.8789 26.0172 47.6182 24.3526 51.2535C24.3526 51.2601 21.2094 51.7588 20.9863 46.8789Z" fill="#D4A809"/>
<path d="M25.3519 31.6211C25.3519 31.6211 29.6194 34.4034 26.5747 37.0085C26.5747 37.0085 23.5124 36.1445 25.3519 31.6211Z" fill="#D4A809"/>
<path d="M25.4163 37.0117C25.4163 37.0117 29.7187 39.7393 26.709 42.3838C26.709 42.3838 23.6358 41.5592 25.4163 37.0117Z" fill="#D4A809"/>
<path d="M25.2285 45.793C25.2285 45.793 30.2593 46.5323 28.5948 50.1676C28.5948 50.1742 25.4538 50.6707 25.2285 45.793Z" fill="#D4A809"/>
<path d="M16.166 43.7676C16.166 43.7676 21.2078 44.5069 19.5345 48.1422C19.5301 48.1488 16.3913 48.6453 16.166 43.7676Z" fill="#D4A809"/>
<path d="M15.9707 38.6816C15.9707 38.6816 21.0015 39.421 19.337 43.0563C19.337 43.0628 16.1938 43.5594 15.9707 38.6816Z" fill="#D4A809"/>
<path d="M16.1016 54.618C16.1016 54.618 21.2046 54.2614 20.5462 58.1461C20.5462 58.1461 17.6196 59.2966 16.1016 54.618Z" fill="#D4A809"/>
<path d="M19.9432 52.6609C19.9432 52.6609 25.0463 52.3044 24.3879 56.1891C24.3879 56.1891 21.4612 57.3396 19.9432 52.6609Z" fill="#EE7803"/>
<path d="M10.582 52.6298C10.582 52.6298 15.685 52.2711 15.0267 56.1558C15.0267 56.1558 12.0935 57.3085 10.582 52.6298Z" fill="#D4A809"/>
<path d="M4.97852 46.1825C4.97852 46.1825 10.0356 45.4016 9.70094 49.3235C9.70094 49.3235 6.8793 50.719 4.97852 46.1825Z" fill="#D4A809"/>
<path d="M4.97852 42.2703C4.97852 42.2703 10.0356 41.4894 9.70094 45.4156C9.70094 45.4156 6.8793 46.8068 4.97852 42.2703Z" fill="#D4A809"/>
<path d="M5.27539 36.3633C5.27539 36.3633 10.3893 36.512 9.35037 40.3136C9.35037 40.3136 6.32312 41.1688 5.27539 36.3633Z" fill="#D4A809"/>
<path d="M22.4439 18.3262C22.4439 18.3262 27.2167 20.1701 24.9725 23.4073C24.9725 23.4073 21.8337 23.2083 22.4439 18.3262Z" fill="#CE731A"/>
<path d="M10.26 48.9183C10.26 48.9183 15.3149 48.1396 14.9824 52.0658C14.9824 52.0658 12.1608 53.457 10.26 48.9183Z" fill="#EE7803"/>
<path d="M14.7598 48.1376C14.7598 48.1376 19.8147 47.3546 19.48 51.2917C19.48 51.2917 16.6605 52.6741 14.7598 48.1376Z" fill="#CE731A"/>
<path d="M10.7136 25.7344C10.7136 25.7344 15.6045 27.1605 13.4456 30.5465C13.4456 30.5377 10.263 30.5968 10.7136 25.7344Z" fill="#D4A809"/>
<path d="M29.9081 40.707C29.9081 40.707 33.6747 44.1367 30.2537 46.2213C30.2472 46.2213 27.3687 44.8804 29.9081 40.707Z" fill="#D4A809"/>
<path d="M48.9707 24.8828C48.9707 24.8828 50.7337 29.6621 46.7353 29.9355C46.7353 29.9355 44.7951 27.4157 48.9707 24.8828Z" fill="#D4A809"/>
<path d="M27.5042 16.8633C27.5042 16.8633 31.3735 20.2099 28.1604 22.5C28.1669 22.5 25.2797 21.251 27.5042 16.8633Z" fill="#D4A809"/>
</g>
<g clip-path="url(#clip9_2_17062)">
<path d="M231.195 59.1165C231.156 59.1165 230.863 59.0676 230.427 59.0506C231.068 58.3373 231.576 57.5154 231.928 56.6235C231.983 56.4902 232.008 56.3461 231.999 56.2019C231.991 56.0578 231.95 55.9175 231.879 55.7915C231.809 55.6656 231.71 55.5574 231.592 55.4751C231.473 55.3928 231.337 55.3385 231.195 55.3164C230.829 55.2656 230.46 55.2415 230.091 55.2442C229.201 55.2211 228.315 55.3915 227.496 55.7436C227.524 55.6161 227.552 55.4843 227.577 55.3526C228.695 55.2718 230.846 54.5938 231.692 50.7194C231.723 50.5784 231.721 50.4322 231.687 50.292C231.652 50.1518 231.587 50.0213 231.495 49.9102C231.402 49.7992 231.286 49.7106 231.155 49.6512C231.023 49.5918 230.88 49.5632 230.735 49.5675C230.457 49.5675 228.217 49.6801 226.816 50.9468C226.835 50.8178 226.826 50.6864 226.792 50.5607C226.757 50.4351 226.697 50.3179 226.615 50.2166C226.533 50.1153 226.431 50.032 226.315 49.9718C226.2 49.9117 226.073 49.8761 225.943 49.8672C225.928 49.8672 225.783 49.8672 225.554 49.8672C225.212 49.8679 224.871 49.8878 224.532 49.9267C225.839 49.4803 227.607 48.0861 227.981 43.8653C227.994 43.7242 227.974 43.5821 227.925 43.4494C227.875 43.3167 227.797 43.1968 227.695 43.0983C227.593 42.9999 227.47 42.9256 227.336 42.8806C227.202 42.8357 227.059 42.8214 226.918 42.8388C226.899 42.8388 226.821 42.8515 226.695 42.8749C227.454 41.1258 226.695 38.9303 226.589 38.6647C226.54 38.5334 226.463 38.4145 226.363 38.3165C226.263 38.2184 226.143 38.1436 226.011 38.0973C225.879 38.051 225.738 38.0344 225.599 38.0488C225.46 38.0631 225.325 38.1079 225.205 38.1801C224.706 38.4791 224.235 38.8234 223.798 39.2087C223.821 38.4915 223.785 37.7735 223.69 37.0622C223.672 36.9215 223.622 36.7867 223.545 36.6676C223.468 36.5485 223.366 36.4481 223.245 36.3737C223.124 36.2994 222.988 36.253 222.847 36.2379C222.706 36.2228 222.564 36.2393 222.43 36.2864C221.357 36.6932 220.381 37.3193 219.565 38.1248C219.888 36.9963 219.924 35.6042 219.673 33.9592C219.651 33.8189 219.598 33.6851 219.518 33.5679C219.438 33.4506 219.333 33.3526 219.21 33.2812C219.088 33.2097 218.951 33.1666 218.809 33.1552C218.668 33.1438 218.526 33.1643 218.394 33.2154C218.279 33.2579 215.843 34.2121 214.813 36.2014C215.114 35.2854 215.187 34.176 215.025 32.8859C215.007 32.7439 214.957 32.6077 214.879 32.4877C214.801 32.3677 214.696 32.2669 214.574 32.1929C214.451 32.119 214.313 32.0736 214.171 32.0604C214.028 32.0472 213.884 32.0664 213.75 32.1166C213.014 32.4127 212.327 32.8175 211.712 33.3174C211.598 32.3486 211.31 31.4083 210.862 30.5417C210.798 30.4125 210.705 30.2996 210.591 30.2113C210.477 30.123 210.344 30.0618 210.203 30.0321C210.062 30.0025 209.916 30.0052 209.776 30.0401C209.636 30.075 209.506 30.1411 209.395 30.2336C209.21 30.3908 207.908 31.53 207.37 33.0517C206.93 32.0701 206.285 31.194 205.478 30.4822C205.369 30.3883 205.24 30.3204 205.1 30.2836C204.961 30.2469 204.815 30.2422 204.674 30.2701C204.532 30.2979 204.399 30.3575 204.284 30.4443C204.169 30.5311 204.075 30.6429 204.01 30.7713C203.511 31.6806 203.196 32.6794 203.083 33.7106C202.078 32.4588 200.49 31.8127 200.263 31.7255C200.129 31.6749 199.985 31.6554 199.842 31.6684C199.699 31.6815 199.561 31.7267 199.438 31.8008C199.316 31.8748 199.211 31.9758 199.133 32.096C199.055 32.2162 199.005 32.3526 198.988 32.4949C198.825 33.7871 198.895 34.8922 199.2 35.8104C198.152 33.8253 195.723 32.8668 195.602 32.8243C195.47 32.7742 195.328 32.7543 195.187 32.7661C195.046 32.7778 194.909 32.8209 194.787 32.8922C194.665 32.9635 194.56 33.0612 194.48 33.1781C194.401 33.2951 194.348 33.4283 194.327 33.5682C194.074 35.2132 194.114 36.6052 194.433 37.7338C193.616 36.9296 192.641 36.3036 191.57 35.8954C191.436 35.8479 191.294 35.831 191.153 35.8459C191.011 35.8608 190.875 35.9072 190.754 35.9816C190.634 36.056 190.531 36.1566 190.454 36.2759C190.377 36.3952 190.328 36.5303 190.31 36.6711C190.177 37.6147 190.157 38.5707 190.25 39.519C189.785 39.2617 189.293 39.0537 188.784 38.8984C188.65 38.8589 188.508 38.8497 188.369 38.8714C188.231 38.8932 188.099 38.9454 187.983 39.0243C187.867 39.1031 187.77 39.2067 187.699 39.3275C187.628 39.4484 187.585 39.5835 187.573 39.7231C187.43 41.249 187.613 42.5008 188.115 43.4572C187.421 43.1486 186.69 42.9342 185.94 42.8196C185.8 42.8023 185.657 42.8166 185.523 42.8615C185.388 42.9064 185.266 42.9808 185.164 43.0792C185.062 43.1776 184.983 43.2976 184.934 43.4303C184.884 43.563 184.865 43.7051 184.878 43.8462C185.186 47.3295 186.444 48.8874 187.609 49.5845L187.596 49.644C187.447 49.7432 187.33 49.8825 187.257 50.0457C187.184 50.2089 187.158 50.3894 187.184 50.5664C185.783 49.2912 183.543 49.1956 183.265 49.1871C183.12 49.1824 182.977 49.211 182.846 49.2707C182.715 49.3305 182.599 49.4196 182.508 49.5314C182.416 49.6421 182.35 49.7724 182.316 49.9123C182.282 50.0523 182.28 50.1982 182.31 50.339C183.124 54.0689 185.148 54.8361 186.295 54.9615L185.798 55.1039C185.183 54.9384 184.549 54.8583 183.913 54.8659C183.544 54.8645 183.175 54.8887 182.81 54.9381C182.667 54.9601 182.531 55.0143 182.413 55.0967C182.294 55.179 182.196 55.2873 182.125 55.4133C182.055 55.5393 182.014 55.6797 182.006 55.8239C181.998 55.968 182.023 56.1121 182.079 56.2452C182.429 57.1363 182.935 57.958 183.573 58.6723C183.316 58.6793 183.06 58.7013 182.805 58.7382C182.663 58.7599 182.527 58.8138 182.408 58.8959C182.29 58.9781 182.192 59.0861 182.121 59.212C182.051 59.3379 182.01 59.4781 182.002 59.6222C181.994 59.7662 182.018 59.9102 182.074 60.0431C183.473 63.3799 185.475 63.8687 186.55 63.8687C186.935 63.87 187.318 63.8082 187.683 63.6859C187.932 64.1458 188.23 64.5776 188.571 64.9738C188.429 64.9738 188.34 64.9738 188.327 64.9738C188.182 64.9845 188.042 65.0285 187.917 65.1022C187.792 65.1759 187.686 65.2774 187.607 65.3989C187.526 65.519 187.474 65.6557 187.453 65.7989C187.433 65.9421 187.446 66.088 187.49 66.2257C188.678 69.8833 190.784 70.4316 191.936 70.4316C192.315 70.439 192.693 70.3786 193.052 70.2531C193.263 70.1699 193.437 70.0138 193.543 69.8132C194.741 72.0001 196.342 72.3635 197.292 72.3635C197.675 72.3671 198.056 72.3038 198.418 72.1765C198.57 72.1157 198.704 72.017 198.807 71.8898C198.91 71.7625 198.979 71.611 199.007 71.4497C199.104 70.9208 199.098 70.3781 198.99 69.8514C199.594 70.248 200.301 70.4599 201.024 70.4614C201.406 70.4653 201.787 70.402 202.148 70.2744C202.224 70.2406 202.296 70.197 202.36 70.1447C203.03 70.7504 204.775 71.1819 206.824 71.1819C208.872 71.1819 210.649 70.7419 211.302 70.1192C211.35 70.2383 211.421 70.3465 211.512 70.4371C211.603 70.5277 211.712 70.5989 211.831 70.6463C212.192 70.7737 212.572 70.837 212.955 70.8333C213.679 70.8329 214.387 70.62 214.991 70.2212C214.883 70.7487 214.877 71.292 214.974 71.8216C215.001 71.9832 215.07 72.1351 215.173 72.2625C215.276 72.3899 215.41 72.4884 215.563 72.5484C215.924 72.6758 216.304 72.7391 216.687 72.7355C217.637 72.7355 219.238 72.3614 220.436 70.1851C220.543 70.3853 220.717 70.5412 220.927 70.625C221.288 70.7548 221.668 70.8188 222.051 70.8142C223.201 70.8142 225.31 70.2659 226.495 66.6061C226.54 66.4688 226.552 66.3233 226.532 66.1806C226.511 66.0378 226.459 65.9015 226.378 65.782C226.298 65.6625 226.191 65.5628 226.066 65.4906C225.941 65.4183 225.802 65.3754 225.658 65.3649C225.645 65.3649 225.558 65.3649 225.416 65.3649C225.756 64.9685 226.054 64.5368 226.302 64.077C226.667 64.1991 227.05 64.2608 227.435 64.2597C228.508 64.2597 230.514 63.7603 231.913 60.4342C231.968 60.3009 231.992 60.1568 231.983 60.0128C231.975 59.8688 231.934 59.7287 231.863 59.6029C231.793 59.4771 231.694 59.3689 231.576 59.2865C231.458 59.2041 231.322 59.1496 231.18 59.1271L231.195 59.1165Z" fill="#FBC500"/>
<path d="M214.107 64.9955C214.767 64.4663 217.543 62.3516 217.543 62.3516L225.473 59.6439L228.512 57.8587L225.736 58.7088L218.997 61.0891L217.484 61.3017C217.503 60.392 217.586 58.356 217.941 57.3975C218.24 56.4776 218.418 55.5222 218.468 54.5559L217.28 57.2041C217.28 57.2041 216.34 60.9021 216.181 61.8904L215.099 63.2187C215.099 63.2187 210.672 66.6532 209.148 67.7775C208.635 68.1619 208.078 68.483 207.488 68.7339C207.488 68.4023 207.469 68.0283 207.459 67.6266L210.009 62.8213L213.907 55.8077L217.807 51.7123L222.302 49.3404L224.746 48.0185L220.648 49.5381L218.017 50.9132L218.667 47.485L219.26 44.1143C219.26 44.1143 218.667 46.365 218.536 47.1556C218.404 47.9462 217.148 51.5826 217.148 51.5826L217.124 51.657L216.619 52.1033L214.583 53.8355C214.519 53.0023 214.415 51.6847 214.37 51.2447C214.304 50.5837 214.172 46.8836 214.172 46.8836C214.172 46.8836 213.973 49.4616 213.907 49.859C213.856 50.1651 213.924 53.0597 213.956 54.371C213.82 54.5156 212.827 55.574 212.519 56.0054C212.211 56.4368 209.016 61.8202 208.693 62.4812C208.521 62.8255 207.935 63.7564 207.418 64.5491C207.391 62.6364 207.378 60.8915 207.378 60.5642C207.378 60.2369 207.403 58.9511 207.433 57.61L208.039 56.0713L209.624 51.776L210.738 46.6966L211.133 46.365L214.517 42.3269C213.38 43.4661 211.713 44.8263 211.012 45.3852L211.129 44.8497L211.461 39.1113C211.461 39.1113 209.675 50.3436 209.148 51.7314C208.808 52.624 208.005 53.5145 207.473 54.0374L206.377 47.2874L205.055 43.6531L205.59 47.2874C205.59 47.2874 206.317 52.5071 206.383 53.5634C206.436 54.4284 206.226 59.3018 206.147 61.0573C204.188 58.9282 202.773 56.3573 202.022 53.5634C200.832 48.9388 200.371 51.1852 200.568 46.1631C200.568 46.0972 200.568 46.0356 200.568 45.9718C201.289 45.4171 202.942 44.0909 203.403 43.3216C203.999 42.3312 204.064 40.9433 204.064 40.9433C203.839 41.4693 203.574 41.9773 203.272 42.4629C202.889 43.0835 201.404 44.2907 200.609 44.9134C200.749 40.9965 200.694 40.2824 200.694 40.2824L199.844 44.38V48.6518C199.478 48.18 198.883 47.4 198.456 46.7582C197.786 45.7678 195.145 44.4522 194.549 43.9825C194.549 43.9825 197.257 46.8241 198.711 49.0046L200.468 51.64C201.191 53.7823 202.381 57.0511 203.27 59.0616C202.655 58.8193 200.118 57.763 199.306 56.6026C199.306 56.6026 194.02 54.7536 193.823 54.6218C193.625 54.4901 189.064 50.3266 188.537 49.7974C188.537 49.7974 191.179 53.7632 192.037 54.3562C192.037 54.3562 187.608 55.5463 185.406 56.2137C186.958 56.0267 191.57 55.4698 191.906 55.4146C192.303 55.3487 193.491 55.4805 193.491 55.4805C193.491 55.4805 197.984 56.6706 198.577 56.9915C199.072 57.2678 203.091 60.6046 204.73 61.6438C204.908 61.9308 205.07 62.2028 205.214 62.4536L205.119 62.7405C205.119 62.7405 204.946 66.8934 204.951 68.9337L203.204 67.8944C203.204 67.8944 199.75 64.768 199.002 64.3536C198.086 62.783 196.16 59.4505 195.663 58.2561C195.663 58.2561 195.995 61.0318 196.39 61.7586C196.664 62.2581 197.155 63.1634 197.436 63.6714C195.145 62.7299 191.111 61.1125 190.713 60.9659C190.184 60.7661 187.145 60.7661 187.145 60.7661C187.145 60.7661 189.325 61.4271 190.579 61.8287C191.833 62.2304 195.206 63.6778 196.131 64.0752C197.055 64.4726 199.897 66.2558 200.169 66.5852C200.398 66.87 204.024 69.7179 205.01 70.4894C204.995 72.2831 204.623 81.0437 204.502 82.7269H208.381C208.256 81.2392 207.918 73.7815 207.714 71.5457C208.917 70.2981 210.836 68.5468 211.692 67.7711C212.196 67.939 212.838 68.1643 213.318 68.3704C214.245 68.7658 217.745 68.634 217.745 68.634C217.745 68.634 216.225 68.4363 215.499 68.3024C214.959 68.2047 213.216 67.4523 212.355 67.0698C212.757 66.5151 213.616 65.3886 214.107 64.9955Z" fill="#8A7043"/>
<path d="M214.168 39.0312C214.168 39.0312 208.789 41.0907 211.516 45.2095C211.516 45.2095 215.101 45.1118 214.168 39.0312Z" fill="#CE731A"/>
<path d="M209.227 38.6543C209.227 38.6543 203.847 40.7116 206.574 44.8304C206.574 44.8304 210.16 44.7327 209.227 38.6543Z" fill="#D4A809"/>
<path d="M218.732 34.0898C218.732 34.0898 213.351 36.1493 216.078 40.2681C216.078 40.2681 219.663 40.1682 218.732 34.0898Z" fill="#CE731A"/>
<path d="M218.711 54.3109C219.165 54.0565 219.586 53.7474 219.965 53.3906L218.711 54.3109Z" fill="#D4A809"/>
<path d="M216.485 52.8066C216.485 52.8066 210.77 53.525 212.447 58.173C212.436 58.173 215.943 58.9318 216.485 52.8066Z" fill="#D4A809"/>
<path d="M222.662 46.248C222.662 46.248 216.949 46.9664 218.624 51.6166C218.615 51.6166 222.12 52.3753 222.662 46.248Z" fill="#D4A809"/>
<path d="M218.032 40.7656C218.032 40.7656 213.331 42.3787 215.633 45.9726C215.633 45.9726 218.748 45.9875 218.032 40.7656Z" fill="#D4A809"/>
<path d="M222.744 37.1719C222.744 37.1719 217.316 39.0847 219.939 43.28C219.939 43.28 223.526 43.2715 222.744 37.1719Z" fill="#EE7803"/>
<path d="M226.733 54.6758C226.733 54.6758 220.982 54.9925 222.319 59.7531C222.319 59.7531 225.762 60.7499 226.733 54.6758Z" fill="#D4A809"/>
<path d="M225.875 50.8152C225.875 50.8152 220.137 50.405 220.858 55.2783C220.858 55.2911 224.15 56.7171 225.875 50.8152Z" fill="#EE7803"/>
<path d="M217.28 47.0781C217.28 47.0781 211.565 47.7965 213.242 52.4445C213.242 52.4445 216.746 53.2033 217.28 47.0781Z" fill="#D4A809"/>
<path d="M227.036 43.7715C227.036 43.7715 221.319 44.4898 222.987 49.14C222.987 49.14 226.494 49.8966 227.036 43.7715Z" fill="#D4A809"/>
<path d="M215.497 60.7363C215.497 60.7363 210.609 61.4547 212.227 64.9869C212.227 64.9933 215.279 65.4779 215.497 60.7363Z" fill="#D4A809"/>
<path d="M211.252 45.9102C211.252 45.9102 207.105 48.6135 210.066 51.1448C210.066 51.1448 213.039 50.3053 211.252 45.9102Z" fill="#D4A809"/>
<path d="M207.57 46.3008C207.57 46.3008 203.827 49.5398 207.1 51.6481C207.1 51.6481 209.935 50.4133 207.57 46.3008Z" fill="#EE7803"/>
<path d="M211.19 51.1465C211.19 51.1465 207.01 53.7967 209.936 56.3662C209.936 56.3662 212.92 55.565 211.19 51.1465Z" fill="#CE731A"/>
<path d="M211.374 59.6797C211.374 59.6797 206.486 60.398 208.104 63.9303C208.104 63.9367 211.158 64.4298 211.374 59.6797Z" fill="#EE7803"/>
<path d="M220.179 57.7109C220.179 57.7109 215.291 58.4293 216.908 61.9616C216.908 61.9679 219.962 62.4504 220.179 57.7109Z" fill="#D4A809"/>
<path d="M220.37 52.7695C220.37 52.7695 215.482 53.4879 217.097 57.0201C217.097 57.0265 220.151 57.509 220.37 52.7695Z" fill="#CE731A"/>
<path d="M220.243 68.2544C220.243 68.2544 215.283 67.908 215.925 71.6825C215.925 71.6825 218.768 72.8005 220.243 68.2544Z" fill="#D4A809"/>
<path d="M216.51 66.3522C216.51 66.3522 211.552 66.0037 212.192 69.7803C212.192 69.7803 215.036 70.8982 216.51 66.3522Z" fill="#D4A809"/>
<path d="M225.607 66.3208C225.607 66.3208 220.646 65.9744 221.288 69.749C221.288 69.7426 224.132 70.869 225.607 66.3208Z" fill="#D4A809"/>
<path d="M231.049 60.0571C231.049 60.0571 226.138 59.3005 226.461 63.1154C226.461 63.1154 229.202 64.465 231.049 60.0571Z" fill="#D4A809"/>
<path d="M231.049 56.2557C231.049 56.2557 226.138 55.5033 226.461 59.3118C226.461 59.3118 229.202 60.6635 231.049 56.2557Z" fill="#D4A809"/>
<path d="M230.763 50.5176C230.763 50.5176 225.794 50.6621 226.804 54.3431C226.804 54.3538 229.743 55.1869 230.763 50.5176Z" fill="#D4A809"/>
<path d="M214.08 32.9922C214.08 32.9922 209.443 34.7838 211.625 37.9293C211.625 37.9293 214.675 37.7359 214.08 32.9922Z" fill="#D4A809"/>
<path d="M205.002 36.9375C205.002 36.9375 201.765 40.7142 205.183 42.4463C205.183 42.4463 207.775 40.8396 205.002 36.9375Z" fill="#EE7803"/>
<path d="M209.988 30.9492C209.988 30.9492 206.19 34.1542 209.278 36.4176C209.278 36.4176 212.099 35.2381 209.988 30.9492Z" fill="#EE7803"/>
<path d="M225.919 62.7173C225.919 62.7173 221.005 61.9607 221.33 65.7756C221.33 65.7756 224.08 67.1273 225.919 62.7173Z" fill="#EE7803"/>
<path d="M221.549 61.9579C221.549 61.9579 216.643 61.1992 216.96 65.0141C216.96 65.0141 219.702 66.3658 221.549 61.9579Z" fill="#CE731A"/>
<path d="M199.831 38.6543C199.831 38.6543 205.21 40.7116 202.483 44.8304C202.483 44.8304 198.898 44.7327 199.831 38.6543Z" fill="#D4A809"/>
<path d="M195.27 33.7129C195.27 33.7129 200.65 35.7702 197.923 39.889C197.923 39.889 194.337 39.7913 195.27 33.7129Z" fill="#D4A809"/>
<path d="M195.289 53.932C194.836 53.6777 194.415 53.3686 194.037 53.0117L195.289 53.932Z" fill="#D4A809"/>
<path d="M197.514 52.4258C197.514 52.4258 203.229 53.1441 201.552 57.7943C201.562 57.7943 198.056 58.5509 197.514 52.4258Z" fill="#EE7803"/>
<path d="M191.338 45.8691C191.338 45.8691 197.053 46.5875 195.389 51.2355C195.389 51.2355 191.88 51.9943 191.338 45.8691Z" fill="#D4A809"/>
<path d="M195.97 40.3828C195.97 40.3828 200.672 41.9959 198.366 45.5919C198.366 45.5919 195.254 45.6047 195.97 40.3828Z" fill="#CE731A"/>
<path d="M191.256 36.8008C191.256 36.8008 196.686 38.7136 194.061 42.911C194.061 42.9025 190.476 42.8919 191.256 36.8008Z" fill="#EE7803"/>
<path d="M187.268 54.2969C187.268 54.2969 193.019 54.6135 191.682 59.37C191.682 59.37 188.237 60.371 187.268 54.2969Z" fill="#CE731A"/>
<path d="M188.125 50.4343C188.125 50.4343 193.863 50.0241 193.143 54.8974C193.143 54.9081 189.864 56.3363 188.125 50.4343Z" fill="#D4A809"/>
<path d="M196.713 46.6992C196.713 46.6992 202.426 47.4176 200.751 52.0677C200.76 52.0677 197.255 52.8244 196.713 46.6992Z" fill="#D4A809"/>
<path d="M185.826 43.7715C185.826 43.7715 191.541 44.4898 189.864 49.1379C189.875 49.1379 186.368 49.8966 185.826 43.7715Z" fill="#EE7803"/>
<path d="M198.506 60.3555C198.506 60.3555 203.394 61.0738 201.777 64.6061C201.777 64.6125 198.723 65.097 198.506 60.3555Z" fill="#D4A809"/>
<path d="M202.747 45.5293C202.747 45.5293 206.894 48.2327 203.935 50.7639C203.935 50.7639 200.96 49.9244 202.747 45.5293Z" fill="#D4A809"/>
<path d="M202.809 50.7656C202.809 50.7656 206.989 53.4159 204.065 55.9854C204.065 55.9854 201.079 55.1841 202.809 50.7656Z" fill="#D4A809"/>
<path d="M202.627 59.2988C202.627 59.2988 207.515 60.0172 205.898 63.5494C205.898 63.5558 202.846 64.0383 202.627 59.2988Z" fill="#D4A809"/>
<path d="M193.82 57.332C193.82 57.332 198.719 58.0504 197.093 61.5826C197.089 61.589 194.039 62.0715 193.82 57.332Z" fill="#D4A809"/>
<path d="M193.631 52.3906C193.631 52.3906 198.519 53.109 196.902 56.6412C196.902 56.6476 193.848 57.1301 193.631 52.3906Z" fill="#D4A809"/>
<path d="M193.76 67.8755C193.76 67.8755 198.718 67.5291 198.079 71.3036C198.079 71.3036 195.235 72.4216 193.76 67.8755Z" fill="#D4A809"/>
<path d="M197.492 65.9732C197.492 65.9732 202.451 65.6268 201.811 69.4013C201.811 69.4013 198.967 70.5192 197.492 65.9732Z" fill="#EE7803"/>
<path d="M188.395 65.9421C188.395 65.9421 193.353 65.5935 192.713 69.3681C192.713 69.3681 189.863 70.4881 188.395 65.9421Z" fill="#D4A809"/>
<path d="M182.949 59.6787C182.949 59.6787 187.863 58.92 187.538 62.7307C187.538 62.7307 184.796 64.0866 182.949 59.6787Z" fill="#D4A809"/>
<path d="M182.949 55.8739C182.949 55.8739 187.863 55.1152 187.538 58.9301C187.538 58.9301 184.796 60.2818 182.949 55.8739Z" fill="#D4A809"/>
<path d="M183.238 50.1367C183.238 50.1367 188.207 50.2812 187.198 53.975C187.198 53.975 184.256 54.806 183.238 50.1367Z" fill="#D4A809"/>
<path d="M199.92 32.6113C199.92 32.6113 204.558 34.403 202.377 37.5484C202.377 37.5484 199.327 37.355 199.92 32.6113Z" fill="#CE731A"/>
<path d="M188.082 62.3364C188.082 62.3364 192.994 61.5798 192.671 65.3947C192.671 65.3947 189.929 66.7464 188.082 62.3364Z" fill="#EE7803"/>
<path d="M192.455 61.5772C192.455 61.5772 197.367 60.8164 197.042 64.6419C197.042 64.6419 194.302 65.9851 192.455 61.5772Z" fill="#CE731A"/>
<path d="M188.523 39.8105C188.523 39.8105 193.275 41.1962 191.178 44.4862C191.178 44.4777 188.085 44.5351 188.523 39.8105Z" fill="#D4A809"/>
<path d="M207.173 54.3594C207.173 54.3594 210.833 57.6919 207.509 59.7173C207.503 59.7173 204.706 58.4145 207.173 54.3594Z" fill="#D4A809"/>
<path d="M225.695 38.9844C225.695 38.9844 227.408 43.6282 223.523 43.8938C223.523 43.8938 221.638 41.4455 225.695 38.9844Z" fill="#D4A809"/>
<path d="M204.838 31.1914C204.838 31.1914 208.598 34.4431 205.475 36.6683C205.482 36.6683 202.676 35.4548 204.838 31.1914Z" fill="#D4A809"/>
</g>
<defs>
<filter id="filter0_d_2_17062" x="12" y="17" width="215" height="119" filterUnits="userSpaceOnUse" color-interpolation-filters="sRGB">
<feFlood flood-opacity="0" result="BackgroundImageFix"/>
<feColorMatrix in="SourceAlpha" type="matrix" values="0 0 0 0 0 0 0 0 0 0 0 0 0 0 0 0 0 0 127 0" result="hardAlpha"/>
<feOffset dy="4"/>
<feGaussianBlur stdDeviation="2"/>
<feComposite in2="hardAlpha" operator="out"/>
<feColorMatrix type="matrix" values="0 0 0 0 0 0 0 0 0 0 0 0 0 0 0 0 0 0 0.25 0"/>
<feBlend mode="normal" in2="BackgroundImageFix" result="effect1_dropShadow_2_17062"/>
<feBlend mode="normal" in="SourceGraphic" in2="effect1_dropShadow_2_17062" result="shape"/>
</filter>
<filter id="filter1_d_2_17062" x="137.613" y="0" width="55.3871" height="57.9668" filterUnits="userSpaceOnUse" color-interpolation-filters="sRGB">
<feFlood flood-opacity="0" result="BackgroundImageFix"/>
<feColorMatrix in="SourceAlpha" type="matrix" values="0 0 0 0 0 0 0 0 0 0 0 0 0 0 0 0 0 0 127 0" result="hardAlpha"/>
<feOffset dy="4"/>
<feGaussianBlur stdDeviation="2"/>
<feComposite in2="hardAlpha" operator="out"/>
<feColorMatrix type="matrix" values="0 0 0 0 0 0 0 0 0 0 0 0 0 0 0 0 0 0 0.25 0"/>
<feBlend mode="normal" in2="BackgroundImageFix" result="effect1_dropShadow_2_17062"/>
<feBlend mode="normal" in="SourceGraphic" in2="effect1_dropShadow_2_17062" result="shape"/>
</filter>
<filter id="filter2_d_2_17062" x="77.1465" y="30.2344" width="86.1891" height="72.9219" filterUnits="userSpaceOnUse" color-interpolation-filters="sRGB">
<feFlood flood-opacity="0" result="BackgroundImageFix"/>
<feColorMatrix in="SourceAlpha" type="matrix" values="0 0 0 0 0 0 0 0 0 0 0 0 0 0 0 0 0 0 127 0" result="hardAlpha"/>
<feOffset dy="4"/>
<feGaussianBlur stdDeviation="2"/>
<feComposite in2="hardAlpha" operator="out"/>
<feColorMatrix type="matrix" values="0 0 0 0 0 0 0 0 0 0 0 0 0 0 0 0 0 0 0.25 0"/>
<feBlend mode="normal" in2="BackgroundImageFix" result="effect1_dropShadow_2_17062"/>
<feBlend mode="normal" in="SourceGraphic" in2="effect1_dropShadow_2_17062" result="shape"/>
</filter>
<filter id="filter3_d_2_17062" x="74.0195" y="22.9355" width="91.4017" height="34.8633" filterUnits="userSpaceOnUse" color-interpolation-filters="sRGB">
<feFlood flood-opacity="0" result="BackgroundImageFix"/>
<feColorMatrix in="SourceAlpha" type="matrix" values="0 0 0 0 0 0 0 0 0 0 0 0 0 0 0 0 0 0 127 0" result="hardAlpha"/>
<feOffset dy="4"/>
<feGaussianBlur stdDeviation="2"/>
<feComposite in2="hardAlpha" operator="out"/>
<feColorMatrix type="matrix" values="0 0 0 0 0 0 0 0 0 0 0 0 0 0 0 0 0 0 0.25 0"/>
<feBlend mode="normal" in2="BackgroundImageFix" result="effect1_dropShadow_2_17062"/>
<feBlend mode="normal" in="SourceGraphic" in2="effect1_dropShadow_2_17062" result="shape"/>
</filter>
<filter id="filter4_d_2_17062" x="90.6994" y="18.7656" width="60.1261" height="19.9297" filterUnits="userSpaceOnUse" color-interpolation-filters="sRGB">
<feFlood flood-opacity="0" result="BackgroundImageFix"/>
<feColorMatrix in="SourceAlpha" type="matrix" values="0 0 0 0 0 0 0 0 0 0 0 0 0 0 0 0 0 0 127 0" result="hardAlpha"/>
<feOffset dy="4"/>
<feGaussianBlur stdDeviation="2"/>
<feComposite in2="hardAlpha" operator="out"/>
<feColorMatrix type="matrix" values="0 0 0 0 0 0 0 0 0 0 0 0 0 0 0 0 0 0 0.25 0"/>
<feBlend mode="normal" in2="BackgroundImageFix" result="effect1_dropShadow_2_17062"/>
<feBlend mode="normal" in="SourceGraphic" in2="effect1_dropShadow_2_17062" result="shape"/>
</filter>
<filter id="filter5_d_2_17062" x="116.762" y="88.6133" width="34.063" height="16.9336" filterUnits="userSpaceOnUse" color-interpolation-filters="sRGB">
<feFlood flood-opacity="0" result="BackgroundImageFix"/>
<feColorMatrix in="SourceAlpha" type="matrix" values="0 0 0 0 0 0 0 0 0 0 0 0 0 0 0 0 0 0 127 0" result="hardAlpha"/>
<feOffset dy="4"/>
<feGaussianBlur stdDeviation="2"/>
<feComposite in2="hardAlpha" operator="out"/>
<feColorMatrix type="matrix" values="0 0 0 0 0 0 0 0 0 0 0 0 0 0 0 0 0 0 0.25 0"/>
<feBlend mode="normal" in2="BackgroundImageFix" result="effect1_dropShadow_2_17062"/>
<feBlend mode="normal" in="SourceGraphic" in2="effect1_dropShadow_2_17062" result="shape"/>
</filter>
<filter id="filter6_d_2_17062" x="142.826" y="62.5508" width="22.0866" height="49.7012" filterUnits="userSpaceOnUse" color-interpolation-filters="sRGB">
<feFlood flood-opacity="0" result="BackgroundImageFix"/>
<feColorMatrix in="SourceAlpha" type="matrix" values="0 0 0 0 0 0 0 0 0 0 0 0 0 0 0 0 0 0 127 0" result="hardAlpha"/>
<feOffset dy="4"/>
<feGaussianBlur stdDeviation="2"/>
<feComposite in2="hardAlpha" operator="out"/>
<feColorMatrix type="matrix" values="0 0 0 0 0 0 0 0 0 0 0 0 0 0 0 0 0 0 0.25 0"/>
<feBlend mode="normal" in2="BackgroundImageFix" result="effect1_dropShadow_2_17062"/>
<feBlend mode="normal" in="SourceGraphic" in2="effect1_dropShadow_2_17062" result="shape"/>
</filter>
<filter id="filter7_d_2_17062" x="30.2324" y="71.9336" width="49.7009" height="25.1914" filterUnits="userSpaceOnUse" color-interpolation-filters="sRGB">
<feFlood flood-opacity="0" result="BackgroundImageFix"/>
<feColorMatrix in="SourceAlpha" type="matrix" values="0 0 0 0 0 0 0 0 0 0 0 0 0 0 0 0 0 0 127 0" result="hardAlpha"/>
<feOffset dy="4"/>
<feGaussianBlur stdDeviation="2"/>
<feComposite in2="hardAlpha" operator="out"/>
<feColorMatrix type="matrix" values="0 0 0 0 0 0 0 0 0 0 0 0 0 0 0 0 0 0 0.25 0"/>
<feBlend mode="normal" in2="BackgroundImageFix" result="effect1_dropShadow_2_17062"/>
<feBlend mode="normal" in="SourceGraphic" in2="effect1_dropShadow_2_17062" result="shape"/>
</filter>
<filter id="filter8_d_2_17062" x="0" y="15.6387" width="59.4589" height="62.2617" filterUnits="userSpaceOnUse" color-interpolation-filters="sRGB">
<feFlood flood-opacity="0" result="BackgroundImageFix"/>
<feColorMatrix in="SourceAlpha" type="matrix" values="0 0 0 0 0 0 0 0 0 0 0 0 0 0 0 0 0 0 127 0" result="hardAlpha"/>
<feOffset dy="4"/>
<feGaussianBlur stdDeviation="2"/>
<feComposite in2="hardAlpha" operator="out"/>
<feColorMatrix type="matrix" values="0 0 0 0 0 0 0 0 0 0 0 0 0 0 0 0 0 0 0.25 0"/>
<feBlend mode="normal" in2="BackgroundImageFix" result="effect1_dropShadow_2_17062"/>
<feBlend mode="normal" in="SourceGraphic" in2="effect1_dropShadow_2_17062" result="shape"/>
</filter>
<clipPath id="clip0_2_17062">
<rect width="47.3871" height="49.9674" fill="white" transform="translate(141.613)"/>
</clipPath>
<clipPath id="clip1_2_17062">
<rect width="78.1891" height="64.9224" fill="white" transform="translate(81.1465 30.2344)"/>
</clipPath>
<clipPath id="clip2_2_17062">
<rect width="83.4017" height="26.8642" fill="white" transform="translate(78.0195 22.9355)"/>
</clipPath>
<clipPath id="clip3_2_17062">
<rect width="52.1261" height="11.9294" fill="white" transform="translate(94.6994 18.7656)"/>
</clipPath>
<clipPath id="clip4_2_17062">
<rect width="26.063" height="8.93275" fill="white" transform="translate(120.762 88.6133)"/>
</clipPath>
<clipPath id="clip5_2_17062">
<rect width="14.0866" height="41.7009" fill="white" transform="translate(146.826 62.5508)"/>
</clipPath>
<clipPath id="clip6_2_17062">
<rect width="8.34017" height="52.1261" fill="white" transform="translate(61.3379 19.8086)"/>
</clipPath>
<clipPath id="clip7_2_17062">
<rect width="41.7009" height="17.1921" fill="white" transform="translate(34.2324 71.9336)"/>
</clipPath>
<clipPath id="clip8_2_17062">
<rect width="51.4589" height="54.2608" fill="white" transform="translate(4 15.6387)"/>
</clipPath>
<clipPath id="clip9_2_17062">
<rect width="50" height="52.7225" fill="white" transform="translate(182 30)"/>
</clipPath>
</defs>
</svg>
