<svg width="10" height="57" viewBox="0 0 10 57" fill="none" xmlns="http://www.w3.org/2000/svg">
<path d="M4.9044 8.56505C7.39028 8.56505 9.40549 6.71635 9.40549 4.43585C9.40549 2.15535 7.39028 0.306641 4.9044 0.306641C2.41852 0.306641 0.40332 2.15535 0.40332 4.43585C0.40332 6.71635 2.41852 8.56505 4.9044 8.56505Z" fill="#FCEE21"/>
<path d="M5.52731 9.76758H4.27942V56.5566H5.52731V9.76758Z" fill="#4D4D4D"/>
<g opacity="0.1">
<g opacity="0.1">
<path opacity="0.1" d="M9.28562 11.0238C9.85665 8.80424 8.35825 6.5803 5.93884 6.05645C3.51944 5.5326 1.09521 6.9072 0.524178 9.12672C-0.0468531 11.3462 1.45155 13.5702 3.87096 14.094C6.29036 14.6179 8.71459 13.2433 9.28562 11.0238Z" fill="black"/>
</g>
</g>
<path d="M6.97922 8.05566H2.82971V10.2119H6.97922V8.05566Z" fill="#666666"/>
<path d="M6.27385 39.2236H3.53284V56.5587H6.27385V39.2236Z" fill="#808080"/>
</svg>
