<svg width="35" height="37" viewBox="0 0 35 37" fill="none" xmlns="http://www.w3.org/2000/svg">
<g clip-path="url(#clip0_192_4718)">
<path d="M34.4364 20.3802C34.4097 20.3802 34.2044 20.346 33.8994 20.3341C34.3478 19.8348 34.7035 19.2594 34.9497 18.6351C34.9886 18.5418 35.0057 18.4409 34.9998 18.34C34.9939 18.2391 34.9652 18.1409 34.9157 18.0527C34.8663 17.9646 34.7974 17.8888 34.7144 17.8312C34.6314 17.7736 34.5363 17.7356 34.4364 17.7201C34.1806 17.6846 33.9226 17.6677 33.6643 17.6696C33.0407 17.6534 32.4209 17.7727 31.8478 18.0192C31.8672 17.9299 31.8865 17.8377 31.9043 17.7454C32.6869 17.6889 34.1925 17.2143 34.7846 14.5022C34.8061 14.4035 34.8048 14.3012 34.7809 14.2031C34.757 14.1049 34.711 14.0135 34.6465 13.9358C34.5819 13.8581 34.5005 13.7961 34.4085 13.7545C34.3164 13.7129 34.2161 13.6929 34.1151 13.6959C33.9202 13.6959 32.3521 13.7747 31.3717 14.6614C31.3846 14.5711 31.3788 14.4791 31.3545 14.3911C31.3302 14.3032 31.2881 14.2212 31.2307 14.1503C31.1733 14.0793 31.1019 14.021 31.021 13.9789C30.9401 13.9368 30.8513 13.9119 30.7603 13.9056C30.7499 13.9056 30.6487 13.9056 30.488 13.9056C30.2489 13.9062 30.01 13.9201 29.7725 13.9473C30.6874 13.6349 31.9252 12.6589 32.187 9.70433C32.1957 9.60557 32.1823 9.5061 32.1476 9.41321C32.1129 9.32032 32.0579 9.23636 31.9866 9.16748C31.9153 9.09859 31.8295 9.04652 31.7355 9.01508C31.6414 8.98364 31.5416 8.97363 31.4432 8.98577C31.4298 8.98577 31.3747 8.99469 31.2869 9.01106C31.8181 7.78667 31.2869 6.24986 31.2126 6.06389C31.1785 5.97202 31.1245 5.8888 31.0546 5.82016C30.9847 5.75151 30.9005 5.69913 30.808 5.66674C30.7155 5.63435 30.617 5.62275 30.5196 5.63276C30.4221 5.64278 30.328 5.67417 30.2441 5.72469C29.8944 5.93397 29.5647 6.17501 29.2592 6.44475C29.275 5.94265 29.2496 5.4401 29.1833 4.94215C29.1706 4.84369 29.136 4.74932 29.082 4.66595C29.0281 4.58257 28.9563 4.51229 28.8717 4.46025C28.7872 4.4082 28.692 4.37571 28.5933 4.36513C28.4946 4.35456 28.3948 4.36618 28.3011 4.39914C27.5504 4.68387 26.8673 5.12218 26.2957 5.68601C26.5218 4.89604 26.5471 3.92158 26.3715 2.77009C26.3562 2.67183 26.3191 2.57823 26.263 2.49613C26.2069 2.41402 26.1332 2.34548 26.0472 2.29551C25.9616 2.24541 25.8657 2.21524 25.7668 2.20726C25.6679 2.19928 25.5685 2.21367 25.4759 2.24939C25.3956 2.27914 23.6907 2.94713 22.9691 4.33963C23.1804 3.69842 23.231 2.92184 23.1179 2.01879C23.1052 1.91934 23.0702 1.82404 23.0154 1.74004C22.9607 1.65603 22.8876 1.58549 22.8018 1.5337C22.7159 1.4819 22.6195 1.45019 22.5197 1.44093C22.4198 1.43167 22.3192 1.44511 22.2253 1.48024C21.7103 1.68751 21.2294 1.97085 20.7986 2.3208C20.7187 1.64262 20.5171 0.984421 20.2035 0.377842C20.1586 0.287413 20.0938 0.208333 20.0139 0.146547C19.9341 0.0847613 19.8413 0.0418759 19.7425 0.0211141C19.6437 0.00035241 19.5415 0.00225453 19.4435 0.0266776C19.3456 0.0511006 19.2544 0.0974091 19.1769 0.162123C19.0475 0.272214 18.1355 1.06963 17.7592 2.13483C17.4511 1.44773 16.9996 0.834459 16.4351 0.336186C16.3586 0.270428 16.2681 0.222896 16.1706 0.197173C16.073 0.17145 15.9709 0.168207 15.8719 0.187689C15.773 0.20717 15.6797 0.248869 15.5992 0.30964C15.5186 0.370411 15.453 0.448669 15.4071 0.538515C15.0577 1.17504 14.8373 1.87422 14.7584 2.59603C14.0547 1.71976 12.9434 1.2675 12.7842 1.2065C12.6903 1.17107 12.5896 1.15741 12.4897 1.16653C12.3897 1.17566 12.2932 1.20733 12.2072 1.25918C12.1213 1.31102 12.0483 1.38168 11.9936 1.46584C11.9389 1.55 11.904 1.64547 11.8916 1.74505C11.7775 2.64958 11.8271 3.4232 12.0404 4.06589C11.3069 2.67636 9.60647 2.0054 9.52167 1.97565C9.42904 1.9406 9.32976 1.92667 9.23107 1.9349C9.13237 1.94312 9.03676 1.97329 8.95122 2.02319C8.86567 2.07309 8.79235 2.14147 8.73661 2.22333C8.68087 2.30519 8.64412 2.39847 8.62904 2.49635C8.452 3.64784 8.48027 4.6223 8.70343 5.41227C8.13161 4.84936 7.44925 4.41117 6.69947 4.1254C6.60582 4.09215 6.50591 4.08031 6.40709 4.09076C6.30826 4.1012 6.21303 4.13367 6.1284 4.18576C6.04377 4.23785 5.97189 4.30824 5.91805 4.39177C5.8642 4.4753 5.82976 4.56983 5.81726 4.66841C5.72442 5.32893 5.71044 5.99814 5.7756 6.66195C5.44947 6.48184 5.10543 6.33625 4.74908 6.22754C4.65495 6.19987 4.55586 6.19342 4.45894 6.20865C4.36202 6.22388 4.26968 6.26041 4.18857 6.31562C4.10747 6.37083 4.03962 6.44334 3.98991 6.52792C3.94019 6.6125 3.90986 6.70706 3.90108 6.80477C3.8014 7.87295 3.92935 8.74922 4.28045 9.41869C3.79532 9.20268 3.28347 9.05258 2.75851 8.97238C2.66011 8.96024 2.56024 8.97025 2.46621 9.00169C2.37217 9.03313 2.28636 9.0852 2.21505 9.15409C2.14374 9.22297 2.08874 9.30694 2.05406 9.39982C2.01939 9.49271 2.00593 9.59218 2.01466 9.69094C2.23038 12.1293 3.1111 13.2198 3.92637 13.7078L3.91745 13.7494C3.81335 13.8189 3.73101 13.9164 3.67994 14.0306C3.62887 14.1449 3.61115 14.2712 3.62883 14.3951C2.64842 13.5025 1.08037 13.4355 0.885481 13.4296C0.784611 13.4263 0.684346 13.4464 0.592487 13.4882C0.500628 13.53 0.41965 13.5924 0.355854 13.6706C0.291345 13.7481 0.245356 13.8393 0.221382 13.9373C0.197408 14.0352 0.196079 14.1374 0.217497 14.2359C0.787292 16.8469 2.2036 17.3839 3.00696 17.4717L2.65884 17.5714C2.22871 17.4555 1.78467 17.3994 1.33923 17.4048C1.081 17.4038 0.823011 17.4207 0.56711 17.4553C0.467226 17.4707 0.372164 17.5087 0.289145 17.5663C0.206127 17.6239 0.137337 17.6997 0.088001 17.7879C0.038665 17.8762 0.0100811 17.9744 0.00442099 18.0753C-0.00123916 18.1762 0.0161733 18.2771 0.0553355 18.3703C0.300708 18.994 0.654819 19.5693 1.1012 20.0693C0.921432 20.0741 0.742104 20.0895 0.564134 20.1154C0.464301 20.1306 0.369251 20.1683 0.286223 20.2258C0.203196 20.2833 0.134382 20.3589 0.0850256 20.447C0.0356687 20.5351 0.00707044 20.6333 0.00140967 20.7342C-0.00425111 20.835 0.0131749 20.9358 0.0523601 21.0288C1.03128 23.3645 2.43271 23.7067 3.18549 23.7067C3.45502 23.7076 3.72288 23.6644 3.97844 23.5788C4.15285 23.9007 4.36134 24.2029 4.60031 24.4803C4.50063 24.4803 4.43815 24.4803 4.42922 24.4803C4.32794 24.4878 4.22975 24.5186 4.14228 24.5702C4.05481 24.6218 3.98042 24.6928 3.92488 24.7779C3.86848 24.8619 3.83182 24.9576 3.81764 25.0579C3.80347 25.1581 3.81216 25.2602 3.84306 25.3566C4.67469 27.917 6.14902 28.3008 6.95536 28.3008C7.22108 28.306 7.48558 28.2636 7.73641 28.1758C7.88412 28.1176 8.00605 28.0083 8.08007 27.8679C8.91914 29.3987 10.0394 29.6531 10.7044 29.6531C10.9728 29.6556 11.2397 29.6113 11.4929 29.5222C11.5993 29.4796 11.6931 29.4105 11.7652 29.3215C11.8374 29.2324 11.8855 29.1263 11.905 29.0134C11.9729 28.6432 11.9688 28.2633 11.8931 27.8946C12.3161 28.1722 12.8109 28.3206 13.3168 28.3216C13.5848 28.3244 13.8512 28.2801 14.1038 28.1907C14.1572 28.167 14.2072 28.1365 14.2526 28.0999C14.7212 28.5239 15.9426 28.8259 17.3768 28.8259C18.811 28.8259 20.0547 28.518 20.5114 28.0821C20.545 28.1655 20.5951 28.2412 20.6588 28.3046C20.7225 28.368 20.7983 28.4178 20.8819 28.451C21.1346 28.5402 21.4009 28.5845 21.6689 28.582C22.1756 28.5816 22.6712 28.4327 23.0941 28.1535C23.0184 28.5227 23.0143 28.903 23.0822 29.2737C23.1012 29.3869 23.1491 29.4932 23.2213 29.5824C23.2935 29.6715 23.3875 29.7405 23.4943 29.7825C23.747 29.8717 24.0133 29.916 24.2813 29.9135C24.9463 29.9135 26.0666 29.6516 26.9056 28.1282C26.9801 28.2683 27.1019 28.3775 27.2493 28.4362C27.5016 28.527 27.7681 28.5718 28.0363 28.5686C28.8411 28.5686 30.317 28.1847 31.1471 25.6229C31.178 25.5268 31.1867 25.425 31.1725 25.325C31.1583 25.2251 31.1216 25.1297 31.0651 25.0461C31.0087 24.9624 30.934 24.8926 30.8466 24.8421C30.7593 24.7915 30.6616 24.7614 30.5609 24.7541C30.552 24.7541 30.491 24.7541 30.3913 24.7541C30.6298 24.4766 30.8378 24.1744 31.0117 23.8525C31.2673 23.938 31.5352 23.9812 31.8047 23.9805C32.556 23.9805 33.9604 23.6308 34.9393 21.3026C34.9779 21.2092 34.9948 21.1084 34.9887 21.0076C34.9827 20.9068 34.9539 20.8087 34.9045 20.7206C34.8551 20.6326 34.7864 20.5569 34.7035 20.4992C34.6206 20.4415 34.5258 20.4034 34.426 20.3876L34.4364 20.3802Z" fill="#FBC500"/>
<path d="M22.4752 24.4968C22.9379 24.1264 24.8809 22.6461 24.8809 22.6461L30.4316 20.7508L32.559 19.5011L30.616 20.0962L25.8985 21.7624L24.8392 21.9112C24.8526 21.2744 24.9106 19.8492 25.1591 19.1782C25.369 18.5343 25.493 17.8655 25.528 17.1892L24.6964 19.0429C24.6964 19.0429 24.0388 21.6315 23.9273 22.3233L23.17 23.2531C23.17 23.2531 20.0711 25.6572 19.0044 26.4442C18.6454 26.7133 18.2553 26.9381 17.8425 27.1137C17.8425 26.8816 17.8291 26.6198 17.8217 26.3386L19.6069 22.9749L22.3354 18.0654L25.0654 15.1986L28.2119 13.5383L29.9228 12.6129L27.0544 13.6767L25.2126 14.6392L25.6679 12.2395L26.083 9.88001C26.083 9.88001 25.6679 11.4555 25.5756 12.0089C25.4834 12.5624 24.6042 15.1078 24.6042 15.1078L24.5878 15.1599L24.2337 15.4723L22.8085 16.6848C22.7639 16.1016 22.691 15.1793 22.6597 14.8713C22.6136 14.4086 22.5214 11.8185 22.5214 11.8185C22.5214 11.8185 22.3815 13.6231 22.3354 13.9013C22.2997 14.1155 22.3473 16.1418 22.3696 17.0597C22.2744 17.1609 21.5796 17.9018 21.3639 18.2038C21.1482 18.5058 18.9122 22.2742 18.686 22.7369C18.5655 22.9779 18.1549 23.6295 17.7934 24.1844C17.7741 22.8455 17.7651 21.624 17.7651 21.3949C17.7651 21.1658 17.783 20.2658 17.8038 19.327L18.2278 18.2499L19.3377 15.2432L20.1172 11.6876L20.3939 11.4555L22.7624 8.62884C21.9664 9.42626 20.8001 10.3784 20.3091 10.7697L20.391 10.3948L20.623 6.37793C20.623 6.37793 19.3734 14.2405 19.0044 15.212C18.7664 15.8368 18.204 16.4602 17.8321 16.8262L17.0644 12.1012L16.1391 9.55718L16.514 12.1012C16.514 12.1012 17.0228 15.755 17.0689 16.4944C17.1061 17.0999 16.9588 20.5112 16.9038 21.7401C15.5325 20.2498 14.5419 18.4501 14.0161 16.4944C13.183 13.2571 12.8601 14.8296 12.9985 11.3142C12.9985 11.2681 12.9985 11.2249 12.9985 11.1803C13.5028 10.792 14.6603 9.86365 14.9831 9.3251C15.3997 8.63182 15.4458 7.66034 15.4458 7.66034C15.2881 8.02849 15.1026 8.38409 14.8909 8.72406C14.6231 9.15847 13.5832 10.0035 13.0268 10.4394C13.125 7.69753 13.0863 7.19766 13.0863 7.19766L12.4912 10.066V13.0563C12.2353 12.726 11.8187 12.18 11.5197 11.7307C11.0511 11.0375 9.20185 10.1166 8.78528 9.78778C8.78528 9.78778 10.6806 11.7769 11.6982 13.3032L12.9286 15.148C13.4344 16.6476 14.2675 18.9357 14.8894 20.3431C14.4594 20.1735 12.6831 19.4341 12.1148 18.6218C12.1148 18.6218 8.41484 17.3275 8.27649 17.2353C8.13813 17.143 4.94549 14.2286 4.57654 13.8582C4.57654 13.8582 6.42577 16.6342 7.0268 17.0493C7.0268 17.0493 3.92641 17.8824 2.38513 18.3496C3.47116 18.2187 6.69951 17.8289 6.93457 17.7902C7.21277 17.7441 8.0444 17.8363 8.0444 17.8363C8.0444 17.8363 11.1894 18.6694 11.6045 18.8941C11.9511 19.0875 14.7644 21.4232 15.9114 22.1507C16.0364 22.3515 16.1495 22.542 16.2506 22.7175L16.1837 22.9184C16.1837 22.9184 16.0632 25.8254 16.0662 27.2536L14.8433 26.5261C14.8433 26.5261 12.4257 24.3376 11.9021 24.0475C11.2608 22.9481 9.91297 20.6154 9.56485 19.7793C9.56485 19.7793 9.79693 21.7222 10.0736 22.231C10.2656 22.5806 10.6092 23.2144 10.8056 23.57C9.20185 22.9109 6.37816 21.7788 6.09996 21.6761C5.72952 21.5363 3.60208 21.5363 3.60208 21.5363C3.60208 21.5363 5.12848 21.9989 6.00623 22.2801C6.88398 22.5613 9.24499 23.5744 9.89215 23.8526C10.5393 24.1308 12.5284 25.379 12.7188 25.6096C12.8795 25.809 15.4175 27.8025 16.1078 28.3426C16.0974 29.5982 15.8371 35.7306 15.7523 36.9088H18.4673C18.3796 35.8674 18.143 30.647 18.0002 29.082C18.8422 28.2087 20.1857 26.9828 20.7852 26.4398C21.1378 26.5573 21.5871 26.715 21.9233 26.8593C22.5719 27.136 25.0222 27.0438 25.0222 27.0438C25.0222 27.0438 23.9585 26.9054 23.4497 26.8117C23.0718 26.7433 21.8519 26.2166 21.2494 25.9488C21.5305 25.5605 22.1316 24.7721 22.4752 24.4968Z" fill="#8A7043"/>
<path d="M22.5184 6.32227C22.5184 6.32227 18.753 7.76386 20.6617 10.6471C20.6617 10.6471 23.1715 10.5786 22.5184 6.32227Z" fill="#CE731A"/>
<path d="M19.0594 6.05762C19.0594 6.05762 15.294 7.49773 17.2028 10.3809C17.2028 10.3809 19.7125 10.3125 19.0594 6.05762Z" fill="#D4A809"/>
<path d="M25.7125 2.86328C25.7125 2.86328 21.9456 4.30488 23.8543 7.18807C23.8543 7.18807 26.3641 7.11815 25.7125 2.86328Z" fill="#CE731A"/>
<path d="M25.6976 17.0172C26.0154 16.8391 26.3102 16.6228 26.5754 16.373L25.6976 17.0172Z" fill="#D4A809"/>
<path d="M24.14 15.9639C24.14 15.9639 20.1395 16.4667 21.3133 19.7203C21.3059 19.7203 23.7606 20.2515 24.14 15.9639Z" fill="#D4A809"/>
<path d="M28.4633 11.373C28.4633 11.373 24.4643 11.8759 25.6366 15.131C25.6307 15.131 28.0839 15.6621 28.4633 11.373Z" fill="#D4A809"/>
<path d="M25.223 7.53516C25.223 7.53516 21.9322 8.66433 23.5434 11.1801C23.5434 11.1801 25.7244 11.1905 25.223 7.53516Z" fill="#D4A809"/>
<path d="M28.5212 5.02051C28.5212 5.02051 24.7216 6.35945 26.5575 9.2962C26.5575 9.2962 29.0687 9.29025 28.5212 5.02051Z" fill="#EE7803"/>
<path d="M31.3137 17.2734C31.3137 17.2734 27.2879 17.4951 28.2237 20.8276C28.2237 20.8276 30.6338 21.5253 31.3137 17.2734Z" fill="#D4A809"/>
<path d="M30.7127 14.5704C30.7127 14.5704 26.6958 14.2833 27.2002 17.6946C27.2002 17.7035 29.5047 18.7018 30.7127 14.5704Z" fill="#EE7803"/>
<path d="M24.6964 11.9551C24.6964 11.9551 20.6959 12.4579 21.8697 15.7116C21.8697 15.7116 24.323 16.2427 24.6964 11.9551Z" fill="#D4A809"/>
<path d="M31.525 9.63965C31.525 9.63965 27.523 10.1425 28.6909 13.3976C28.6909 13.3976 31.1456 13.9272 31.525 9.63965Z" fill="#D4A809"/>
<path d="M23.4482 21.5146C23.4482 21.5146 20.0265 22.0175 21.1586 24.4901C21.1586 24.4945 23.295 24.8337 23.4482 21.5146Z" fill="#D4A809"/>
<path d="M20.4772 11.1367C20.4772 11.1367 17.5747 13.0291 19.6471 14.801C19.6471 14.801 21.7284 14.2133 20.4772 11.1367Z" fill="#D4A809"/>
<path d="M17.899 11.4102C17.899 11.4102 15.2791 13.6774 17.5702 15.1532C17.5702 15.1532 19.5548 14.2889 17.899 11.4102Z" fill="#EE7803"/>
<path d="M20.4341 14.8027C20.4341 14.8027 17.5078 16.6579 19.5563 18.4566C19.5563 18.4566 21.6451 17.8957 20.4341 14.8027Z" fill="#CE731A"/>
<path d="M20.562 20.7754C20.562 20.7754 17.1402 21.2782 18.2724 23.7508C18.2724 23.7553 20.4102 24.1004 20.562 20.7754Z" fill="#EE7803"/>
<path d="M26.7257 19.3984C26.7257 19.3984 23.3039 19.9013 24.4361 22.3739C24.4361 22.3783 26.5739 22.716 26.7257 19.3984Z" fill="#D4A809"/>
<path d="M26.8595 15.9395C26.8595 15.9395 23.4378 16.4423 24.5685 18.9149C24.5685 18.9193 26.7063 19.2571 26.8595 15.9395Z" fill="#CE731A"/>
<path d="M26.7703 26.7783C26.7703 26.7783 23.298 26.5358 23.7473 29.178C23.7473 29.178 25.7378 29.9605 26.7703 26.7783Z" fill="#D4A809"/>
<path d="M24.1578 25.4473C24.1578 25.4473 20.6869 25.2033 21.1347 27.847C21.1347 27.847 23.1253 28.6296 24.1578 25.4473Z" fill="#D4A809"/>
<path d="M30.5252 25.4248C30.5252 25.4248 27.0529 25.1823 27.5022 27.8245C27.5022 27.82 29.4927 28.6085 30.5252 25.4248Z" fill="#D4A809"/>
<path d="M34.3353 21.0388C34.3353 21.0388 30.8972 20.5092 31.1234 23.1796C31.1234 23.1796 33.0425 24.1243 34.3353 21.0388Z" fill="#D4A809"/>
<path d="M34.3353 18.3792C34.3353 18.3792 30.8972 17.8525 31.1234 20.5185C31.1234 20.5185 33.0425 21.4647 34.3353 18.3792Z" fill="#D4A809"/>
<path d="M34.1344 14.3623C34.1344 14.3623 30.6561 14.4635 31.3628 17.0402C31.3628 17.0476 33.4203 17.6308 34.1344 14.3623Z" fill="#D4A809"/>
<path d="M22.4559 2.09473C22.4559 2.09473 19.2097 3.34887 20.7376 5.55069C20.7376 5.55069 22.8725 5.41531 22.4559 2.09473Z" fill="#D4A809"/>
<path d="M16.1018 4.85547C16.1018 4.85547 13.836 7.49914 16.2283 8.71163C16.2283 8.71163 18.0433 7.58692 16.1018 4.85547Z" fill="#EE7803"/>
<path d="M19.5921 0.665039C19.5921 0.665039 16.9335 2.90851 19.0952 4.49293C19.0952 4.49293 21.0694 3.66725 19.5921 0.665039Z" fill="#EE7803"/>
<path d="M30.7439 22.9011C30.7439 22.9011 27.3043 22.3715 27.5319 25.0419C27.5319 25.0419 29.457 25.9881 30.7439 22.9011Z" fill="#EE7803"/>
<path d="M27.6837 22.3702C27.6837 22.3702 24.25 21.839 24.4717 24.5095C24.4717 24.5095 26.3909 25.4557 27.6837 22.3702Z" fill="#CE731A"/>
<path d="M12.4822 6.05762C12.4822 6.05762 16.2476 7.49773 14.3389 10.3809C14.3389 10.3809 11.8291 10.3125 12.4822 6.05762Z" fill="#D4A809"/>
<path d="M9.28961 2.59863C9.28961 2.59863 13.055 4.03874 11.1463 6.92193C11.1463 6.92193 8.63651 6.8535 9.28961 2.59863Z" fill="#D4A809"/>
<path d="M9.30302 16.7516C8.98564 16.5736 8.69135 16.3572 8.42676 16.1074L9.30302 16.7516Z" fill="#D4A809"/>
<path d="M10.8606 15.6982C10.8606 15.6982 14.8611 16.2011 13.6873 19.4562C13.6947 19.4562 11.24 19.9858 10.8606 15.6982Z" fill="#EE7803"/>
<path d="M6.53735 11.1084C6.53735 11.1084 10.5378 11.6112 9.37294 14.8649C9.37294 14.8649 6.91672 15.396 6.53735 11.1084Z" fill="#D4A809"/>
<path d="M9.77905 7.26855C9.77905 7.26855 13.0699 8.39773 11.4557 10.9149C11.4557 10.9149 9.27769 10.9239 9.77905 7.26855Z" fill="#CE731A"/>
<path d="M6.47933 4.76074C6.47933 4.76074 10.2804 6.09969 8.44311 9.03793C8.44311 9.03197 5.93334 9.02454 6.47933 4.76074Z" fill="#EE7803"/>
<path d="M3.68835 17.0068C3.68835 17.0068 7.71411 17.2285 6.77834 20.558C6.77834 20.558 4.36675 21.2587 3.68835 17.0068Z" fill="#CE731A"/>
<path d="M4.28784 14.3038C4.28784 14.3038 8.30468 14.0167 7.80034 17.428C7.80034 17.4355 5.50479 18.4352 4.28784 14.3038Z" fill="#D4A809"/>
<path d="M10.2998 11.6885C10.2998 11.6885 14.2988 12.1913 13.1265 15.4464C13.1324 15.4464 10.6792 15.9761 10.2998 11.6885Z" fill="#D4A809"/>
<path d="M2.67822 9.63965C2.67822 9.63965 6.67869 10.1425 5.50488 13.3961C5.51232 13.3961 3.05759 13.9272 2.67822 9.63965Z" fill="#EE7803"/>
<path d="M11.554 21.249C11.554 21.249 14.9757 21.7519 13.8435 24.2245C13.8435 24.2289 11.7057 24.5681 11.554 21.249Z" fill="#D4A809"/>
<path d="M14.5234 10.8701C14.5234 10.8701 17.4259 12.7625 15.355 14.5344C15.355 14.5344 13.2722 13.9467 14.5234 10.8701Z" fill="#D4A809"/>
<path d="M14.5665 14.5361C14.5665 14.5361 17.4929 16.3913 15.4458 18.19C15.4458 18.19 13.3555 17.6291 14.5665 14.5361Z" fill="#D4A809"/>
<path d="M14.4386 20.5098C14.4386 20.5098 17.8603 21.0126 16.7282 23.4852C16.7282 23.4897 14.5918 23.8274 14.4386 20.5098Z" fill="#D4A809"/>
<path d="M8.27502 19.1318C8.27502 19.1318 11.7042 19.6347 10.5661 22.1073C10.5631 22.1117 8.42826 22.4494 8.27502 19.1318Z" fill="#D4A809"/>
<path d="M8.14258 15.6729C8.14258 15.6729 11.5643 16.1757 10.4322 18.6483C10.4322 18.6527 8.29433 18.9905 8.14258 15.6729Z" fill="#D4A809"/>
<path d="M8.23181 26.5127C8.23181 26.5127 11.7027 26.2702 11.2548 28.9124C11.2548 28.9124 9.26429 29.6949 8.23181 26.5127Z" fill="#D4A809"/>
<path d="M10.8442 25.1806C10.8442 25.1806 14.3151 24.9381 13.8673 27.5803C13.8673 27.5803 11.8767 28.3629 10.8442 25.1806Z" fill="#EE7803"/>
<path d="M4.47681 25.1602C4.47681 25.1602 7.94765 24.9162 7.49984 27.5584C7.49984 27.5584 5.50482 28.3425 4.47681 25.1602Z" fill="#D4A809"/>
<path d="M0.665283 20.7745C0.665283 20.7745 4.10488 20.2434 3.87726 22.9109C3.87726 22.9109 1.95811 23.86 0.665283 20.7745Z" fill="#D4A809"/>
<path d="M0.665283 18.1123C0.665283 18.1123 4.10488 17.5812 3.87726 20.2517C3.87726 20.2517 1.95811 21.1979 0.665283 18.1123Z" fill="#D4A809"/>
<path d="M0.867676 14.0957C0.867676 14.0957 4.34595 14.1969 3.63929 16.7825C3.63929 16.7825 1.58029 17.3642 0.867676 14.0957Z" fill="#D4A809"/>
<path d="M12.5447 1.82812C12.5447 1.82812 15.7909 3.08227 14.2645 5.28409C14.2645 5.28409 12.1297 5.14871 12.5447 1.82812Z" fill="#CE731A"/>
<path d="M4.25818 22.6355C4.25818 22.6355 7.69629 22.1059 7.47016 24.7763C7.47016 24.7763 5.551 25.7225 4.25818 22.6355Z" fill="#EE7803"/>
<path d="M7.31836 22.1037C7.31836 22.1037 10.7565 21.5711 10.5288 24.249C10.5288 24.249 8.61118 25.1892 7.31836 22.1037Z" fill="#CE731A"/>
<path d="M4.5661 6.86719C4.5661 6.86719 7.89263 7.83718 6.42426 10.1402C6.42426 10.1342 4.25963 10.1744 4.5661 6.86719Z" fill="#D4A809"/>
<path d="M17.6223 17.0508C17.6223 17.0508 20.1841 19.3835 17.8573 20.8013C17.8529 20.8013 15.895 19.8893 17.6223 17.0508Z" fill="#D4A809"/>
<path d="M30.5877 6.28809C30.5877 6.28809 31.7868 9.53875 29.0673 9.72471C29.0673 9.72471 27.7477 8.01086 30.5877 6.28809Z" fill="#D4A809"/>
<path d="M15.9873 0.833008C15.9873 0.833008 18.6191 3.10921 16.4336 4.66685C16.4381 4.66685 14.4743 3.81737 15.9873 0.833008Z" fill="#D4A809"/>
</g>
<defs>
<clipPath id="clip0_192_4718">
<rect width="35" height="36.9058" fill="white" transform="translate(0.000244141)"/>
</clipPath>
</defs>
</svg>
