<svg width="54" height="56" viewBox="0 0 54 56" fill="none" xmlns="http://www.w3.org/2000/svg">
<g clip-path="url(#clip0_192_4651)" filter="url(#filter0_d_192_4651)">
<path d="M48.7221 26.4705C48.6873 26.4705 48.4207 26.426 48.0246 26.4106C48.607 25.7622 49.069 25.015 49.3887 24.2041C49.4391 24.083 49.4614 23.9519 49.4538 23.8209C49.4461 23.6899 49.4088 23.5623 49.3446 23.4478C49.2803 23.3333 49.1909 23.235 49.0831 23.1601C48.9753 23.0853 48.8518 23.036 48.7221 23.0159C48.3899 22.9697 48.0547 22.9477 47.7193 22.9502C46.9094 22.9292 46.1045 23.0841 45.3603 23.4043C45.3854 23.2883 45.4105 23.1685 45.4337 23.0488C46.45 22.9753 48.4052 22.359 49.1742 18.8368C49.2021 18.7086 49.2005 18.5758 49.1694 18.4483C49.1384 18.3208 49.0787 18.2021 48.9948 18.1012C48.911 18.0002 48.8053 17.9197 48.6858 17.8657C48.5662 17.8118 48.4359 17.7857 48.3048 17.7896C48.0517 17.7896 46.0152 17.892 44.742 19.0435C44.7587 18.9262 44.7511 18.8068 44.7196 18.6925C44.6881 18.5783 44.6334 18.4718 44.5588 18.3797C44.4843 18.2876 44.3916 18.2119 44.2865 18.1572C44.1814 18.1025 44.0661 18.0701 43.9479 18.062C43.9344 18.062 43.803 18.062 43.5943 18.062C43.2838 18.0627 42.9735 18.0808 42.665 18.1161C43.8532 17.7104 45.4607 16.4429 45.8008 12.6058C45.8121 12.4775 45.7946 12.3484 45.7496 12.2277C45.7046 12.1071 45.6331 11.9981 45.5405 11.9086C45.4479 11.8191 45.3365 11.7515 45.2144 11.7107C45.0922 11.6699 44.9625 11.6568 44.8347 11.6726C44.8173 11.6726 44.7439 11.6842 44.6319 11.7055C45.3216 10.1153 44.6319 8.1195 44.5353 7.87799C44.491 7.75868 44.4209 7.6506 44.3301 7.56145C44.2393 7.4723 44.13 7.40427 44.0099 7.3622C43.8898 7.32014 43.7619 7.30507 43.6353 7.31808C43.5087 7.33109 43.3865 7.37186 43.2775 7.43747C42.8233 7.70926 42.3952 8.02229 41.9984 8.3726C42.019 7.72053 41.986 7.06787 41.8999 6.42119C41.8833 6.29332 41.8384 6.17076 41.7684 6.06248C41.6983 5.9542 41.605 5.86293 41.4952 5.79534C41.3854 5.72775 41.2619 5.68555 41.1337 5.67182C41.0055 5.65809 40.8758 5.67318 40.7542 5.71598C39.7792 6.08576 38.8921 6.65499 38.1497 7.38724C38.4434 6.3613 38.4762 5.09578 38.2482 3.60034C38.2283 3.47273 38.1802 3.35118 38.1073 3.24455C38.0345 3.13792 37.9387 3.04891 37.827 2.98401C37.7158 2.91894 37.5914 2.87977 37.4629 2.8694C37.3345 2.85903 37.2053 2.87773 37.0851 2.92411C36.9808 2.96275 34.7666 3.83026 33.8296 5.6387C34.1039 4.80597 34.1696 3.79742 34.0228 2.62464C34.0063 2.49547 33.9608 2.37171 33.8897 2.26262C33.8186 2.15352 33.7237 2.06191 33.6122 1.99465C33.5007 1.92738 33.3755 1.88619 33.2458 1.87417C33.1162 1.86215 32.9855 1.8796 32.8635 1.92522C32.1948 2.1944 31.5702 2.56238 31.0106 3.01685C30.9069 2.1361 30.6451 1.2813 30.2378 0.493542C30.1795 0.376102 30.0954 0.273402 29.9917 0.193161C29.888 0.11292 29.7675 0.0572249 29.6391 0.0302618C29.5108 0.00329862 29.3781 0.0057689 29.2509 0.037487C29.1237 0.069205 29.0053 0.129346 28.9047 0.213389C28.7366 0.356364 27.5522 1.39196 27.0634 2.77534C26.6633 1.883 26.077 1.08655 25.3438 0.439443C25.2445 0.354044 25.127 0.292315 25.0003 0.258908C24.8736 0.225502 24.741 0.22129 24.6125 0.246591C24.4839 0.271892 24.3628 0.326045 24.2582 0.404968C24.1536 0.483891 24.0683 0.585525 24.0087 0.702208C23.555 1.52886 23.2687 2.43688 23.1663 3.37429C22.2525 2.23629 20.8092 1.64893 20.6025 1.56972C20.4805 1.52371 20.3497 1.50596 20.2199 1.51781C20.0901 1.52966 19.9647 1.5708 19.8531 1.63813C19.7415 1.70546 19.6467 1.79723 19.5757 1.90652C19.5047 2.01582 19.4594 2.1398 19.4432 2.26913C19.2951 3.44384 19.3595 4.44853 19.6364 5.28319C18.6839 3.47862 16.4755 2.60725 16.3654 2.56861C16.2451 2.52308 16.1162 2.505 15.988 2.51568C15.8598 2.52637 15.7356 2.56554 15.6246 2.63035C15.5135 2.69515 15.4182 2.78396 15.3458 2.89027C15.2735 2.99658 15.2257 3.11772 15.2061 3.24484C14.9762 4.74027 15.0129 6.00579 15.3027 7.03173C14.5601 6.30068 13.674 5.73161 12.7002 5.36048C12.5786 5.3173 12.4488 5.30192 12.3205 5.31549C12.1922 5.32905 12.0685 5.37121 11.9586 5.43886C11.8487 5.50651 11.7553 5.59794 11.6854 5.70641C11.6155 5.81489 11.5707 5.93765 11.5545 6.06569C11.4339 6.9235 11.4158 7.79259 11.5004 8.65469C11.0768 8.42077 10.63 8.23169 10.1673 8.09052C10.045 8.05458 9.91632 8.0462 9.79045 8.06598C9.66458 8.08576 9.54466 8.13321 9.43933 8.20491C9.334 8.27661 9.24588 8.37077 9.18132 8.48062C9.11676 8.59047 9.07736 8.71326 9.06596 8.84017C8.93651 10.2274 9.10267 11.3654 9.55864 12.2348C8.92851 11.9546 8.26381 11.7597 7.58212 11.6552C7.45432 11.6395 7.32462 11.6525 7.2025 11.6933C7.08038 11.7341 6.96893 11.8017 6.87632 11.8912C6.78371 11.9807 6.71228 12.0897 6.66725 12.2103C6.62222 12.331 6.60473 12.4602 6.61607 12.5884C6.89623 15.7551 8.04002 17.1713 9.09881 17.8051L9.08721 17.8592C8.95202 17.9494 8.84509 18.076 8.77877 18.2243C8.71245 18.3727 8.68943 18.5368 8.71239 18.6977C7.43914 17.5384 5.40272 17.4515 5.14962 17.4438C5.01862 17.4395 4.8884 17.4656 4.76911 17.5198C4.64981 17.5741 4.54464 17.6552 4.46179 17.7568C4.37802 17.8574 4.31829 17.9759 4.28715 18.1031C4.25602 18.2303 4.25429 18.363 4.28211 18.491C5.0221 21.8818 6.86145 22.5793 7.90478 22.6932L7.45267 22.8227C6.89406 22.6722 6.31739 22.5994 5.7389 22.6063C5.40354 22.6051 5.06849 22.627 4.73615 22.672C4.60643 22.692 4.48297 22.7413 4.37516 22.8161C4.26734 22.891 4.17801 22.9894 4.11393 23.104C4.04986 23.2185 4.01274 23.3462 4.00539 23.4772C3.99804 23.6082 4.02065 23.7392 4.07151 23.8602C4.39017 24.6703 4.85006 25.4173 5.42977 26.0667C5.19631 26.073 4.96341 26.093 4.73229 26.1266C4.60263 26.1463 4.47919 26.1953 4.37136 26.27C4.26354 26.3446 4.17417 26.4429 4.11007 26.5573C4.04597 26.6717 4.00883 26.7992 4.00148 26.9302C3.99413 27.0611 4.01676 27.192 4.06765 27.3129C5.33896 30.3463 7.15899 30.7906 8.13663 30.7906C8.48666 30.7918 8.83453 30.7357 9.16643 30.6245C9.39294 31.0425 9.6637 31.4351 9.97404 31.7953C9.84459 31.7953 9.76345 31.7953 9.75185 31.7953C9.62032 31.805 9.4928 31.845 9.37921 31.912C9.26561 31.979 9.169 32.0713 9.09688 32.1817C9.02362 32.2909 8.97601 32.4152 8.9576 32.5454C8.9392 32.6755 8.95049 32.8081 8.99061 32.9333C10.0706 36.2584 11.9853 36.7569 13.0325 36.7569C13.3776 36.7637 13.7211 36.7087 14.0469 36.5946C14.2387 36.519 14.3971 36.3771 14.4932 36.1947C15.5829 38.1828 17.0378 38.5132 17.9014 38.5132C18.25 38.5164 18.5965 38.4589 18.9254 38.3432C19.0636 38.2879 19.1854 38.1982 19.2791 38.0825C19.3728 37.9668 19.4353 37.8291 19.4606 37.6824C19.5487 37.2016 19.5435 36.7083 19.4451 36.2295C19.9946 36.59 20.637 36.7826 21.2942 36.784C21.6422 36.7876 21.9881 36.73 22.3162 36.614C22.3855 36.5832 22.4504 36.5436 22.5094 36.4961C23.118 37.0467 24.7043 37.439 26.5668 37.439C28.4294 37.439 30.0446 37.039 30.6377 36.4729C30.6813 36.5812 30.7464 36.6795 30.8291 36.7619C30.9118 36.8442 31.0104 36.9089 31.1188 36.9521C31.447 37.0679 31.7929 37.1254 32.1409 37.1221C32.799 37.1217 33.4426 36.9282 33.9918 36.5657C33.8935 37.0451 33.8882 37.5391 33.9764 38.0205C34.001 38.1675 34.0632 38.3055 34.157 38.4213C34.2508 38.5371 34.3729 38.6267 34.5116 38.6813C34.8398 38.7971 35.1857 38.8547 35.5337 38.8513C36.3973 38.8513 37.8522 38.5113 38.9419 36.5328C39.0385 36.7148 39.1967 36.8565 39.3882 36.9327C39.7159 37.0507 40.062 37.1089 40.4102 37.1047C41.4555 37.1047 43.3721 36.6062 44.4502 33.2792C44.4904 33.1544 44.5017 33.0221 44.4832 32.8923C44.4648 32.7626 44.4171 32.6387 44.3438 32.53C44.2705 32.4214 44.1735 32.3308 44.06 32.2651C43.9466 32.1994 43.8197 32.1603 43.689 32.1508C43.6774 32.1508 43.5982 32.1508 43.4687 32.1508C43.7784 31.7905 44.0485 31.398 44.2744 30.98C44.6064 31.091 44.9542 31.1471 45.3042 31.1461C46.2799 31.1461 48.1038 30.6921 49.3751 27.6684C49.4252 27.5472 49.4472 27.4162 49.4394 27.2853C49.4315 27.1544 49.3941 27.027 49.33 26.9126C49.2658 26.7983 49.1766 26.6999 49.069 26.625C48.9613 26.5501 48.8381 26.5006 48.7086 26.4801L48.7221 26.4705Z" fill="#3F8838"/>
<g style="mix-blend-mode:multiply">
<g style="mix-blend-mode:multiply">
<path d="M33.2441 8.21094C33.2441 8.21094 28.354 10.0831 30.8329 13.8275C30.8329 13.8275 34.0923 13.7386 33.2441 8.21094Z" fill="#A5BA3D"/>
</g>
<g style="mix-blend-mode:multiply">
<path d="M28.752 7.86719C28.752 7.86719 23.8618 9.73745 26.3407 13.4818C26.3407 13.4818 29.6001 13.393 28.752 7.86719Z" fill="#A5BA3D"/>
</g>
<g style="mix-blend-mode:multiply">
<path d="M37.3922 3.71875C37.3922 3.71875 32.5002 5.59094 34.9791 9.33533C34.9791 9.33533 38.2385 9.24453 37.3922 3.71875Z" fill="#5EA649"/>
</g>
<g style="mix-blend-mode:multiply">
<path d="M37.3729 22.1012C37.7856 21.8699 38.1684 21.589 38.5129 21.2646L37.3729 22.1012Z" fill="#A5BA3D"/>
</g>
<g style="mix-blend-mode:multiply">
<path d="M35.3501 20.7324C35.3501 20.7324 30.1547 21.3855 31.6791 25.6109C31.6695 25.6109 34.8574 26.3007 35.3501 20.7324Z" fill="#A5BA3D"/>
</g>
<g style="mix-blend-mode:multiply">
<path d="M40.9648 14.7705C40.9648 14.7705 35.7713 15.4236 37.2938 19.651C37.2861 19.651 40.4721 20.3407 40.9648 14.7705Z" fill="#D6CC2F"/>
</g>
<g style="mix-blend-mode:multiply">
<path d="M36.7566 9.78613C36.7566 9.78613 32.4829 11.2526 34.5753 14.5198C34.5753 14.5198 37.4078 14.5333 36.7566 9.78613Z" fill="#A5BA3D"/>
</g>
<g style="mix-blend-mode:multiply">
<path d="M41.0401 6.52051C41.0401 6.52051 36.1055 8.25939 38.4897 12.0733C38.4897 12.0733 41.7511 12.0656 41.0401 6.52051Z" fill="#A5BA3D"/>
</g>
<g style="mix-blend-mode:multiply">
<path d="M44.6666 22.4336C44.6666 22.4336 39.4384 22.7215 40.6537 27.0494C40.6537 27.0494 43.7837 27.9555 44.6666 22.4336Z" fill="#A5BA3D"/>
</g>
<g style="mix-blend-mode:multiply">
<path d="M43.886 18.9228C43.886 18.9228 38.6694 18.5499 39.3243 22.9802C39.3243 22.9918 42.3172 24.2882 43.886 18.9228Z" fill="#5EA649"/>
</g>
<g style="mix-blend-mode:multiply">
<path d="M36.0726 15.5264C36.0726 15.5264 30.8772 16.1794 32.4017 20.4049C32.4017 20.4049 35.5877 21.0946 36.0726 15.5264Z" fill="#5EA649"/>
</g>
<g style="mix-blend-mode:multiply">
<path d="M44.9409 12.5195C44.9409 12.5195 39.7436 13.1726 41.2603 17.4C41.2603 17.4 44.4482 18.0878 44.9409 12.5195Z" fill="#A5BA3D"/>
</g>
<g style="mix-blend-mode:multiply">
<path d="M34.4517 27.9414C34.4517 27.9414 30.0079 28.5945 31.4782 31.8056C31.4782 31.8114 34.2527 32.2519 34.4517 27.9414Z" fill="#00864C"/>
</g>
<g style="mix-blend-mode:multiply">
<path d="M30.5933 14.4629C30.5933 14.4629 26.8238 16.9205 29.5152 19.2216C29.5152 19.2216 32.2182 18.4585 30.5933 14.4629Z" fill="#A5BA3D"/>
</g>
<g style="mix-blend-mode:multiply">
<path d="M27.245 14.8184C27.245 14.8184 23.8426 17.7629 26.818 19.6795C26.818 19.6795 29.3954 18.557 27.245 14.8184Z" fill="#00864C"/>
</g>
<g style="mix-blend-mode:multiply">
<path d="M30.5372 19.2236C30.5372 19.2236 26.7368 21.6329 29.3973 23.9688C29.3973 23.9688 32.1099 23.2404 30.5372 19.2236Z" fill="#D6CC2F"/>
</g>
<g style="mix-blend-mode:multiply">
<path d="M30.7034 26.9814C30.7034 26.9814 26.2596 27.6345 27.7299 30.8456C27.7299 30.8514 30.5063 31.2997 30.7034 26.9814Z" fill="#A5BA3D"/>
</g>
<g style="mix-blend-mode:multiply">
<path d="M38.708 25.1924C38.708 25.1924 34.2642 25.8454 35.7345 29.0566C35.7345 29.0624 38.5109 29.5009 38.708 25.1924Z" fill="#A5BA3D"/>
</g>
<g style="mix-blend-mode:multiply">
<path d="M38.882 20.7002C38.882 20.7002 34.4382 21.3532 35.9066 24.5644C35.9066 24.5702 38.683 25.0088 38.882 20.7002Z" fill="#A5BA3D"/>
</g>
<g style="mix-blend-mode:multiply">
<path d="M38.766 34.7771C38.766 34.7771 34.2565 34.4622 34.8399 37.8936C34.8399 37.8936 37.4251 38.9098 38.766 34.7771Z" fill="#A5BA3D"/>
</g>
<g style="mix-blend-mode:multiply">
<path d="M35.3733 33.0477C35.3733 33.0477 30.8657 32.7309 31.4473 36.1642C31.4473 36.1642 34.0324 37.1805 35.3733 33.0477Z" fill="#A5BA3D"/>
</g>
<g style="mix-blend-mode:multiply">
<path d="M43.6427 33.0193C43.6427 33.0193 39.1332 32.7044 39.7167 36.1358C39.7167 36.13 42.3018 37.154 43.6427 33.0193Z" fill="#D6CC2F"/>
</g>
<g style="mix-blend-mode:multiply">
<path d="M48.5907 27.3231C48.5907 27.3231 44.1256 26.6352 44.4193 30.1033C44.4193 30.1033 46.9117 31.3302 48.5907 27.3231Z" fill="#A5BA3D"/>
</g>
<g style="mix-blend-mode:multiply">
<path d="M48.5907 23.8683C48.5907 23.8683 44.1256 23.1844 44.4193 26.6467C44.4193 26.6467 46.9117 27.8755 48.5907 23.8683Z" fill="#00864C"/>
</g>
<g style="mix-blend-mode:multiply">
<path d="M48.3298 18.6523C48.3298 18.6523 43.8126 18.7837 44.7303 22.1301C44.7303 22.1398 47.4024 22.8971 48.3298 18.6523Z" fill="#D6CC2F"/>
</g>
<g style="mix-blend-mode:multiply">
<path d="M33.163 2.71973C33.163 2.71973 28.9471 4.34848 30.9314 7.20797C30.9314 7.20797 33.7039 7.03215 33.163 2.71973Z" fill="#00864C"/>
</g>
<g style="mix-blend-mode:multiply">
<path d="M24.911 6.30566C24.911 6.30566 21.9684 9.73899 25.0752 11.3136C25.0752 11.3136 27.4324 9.85298 24.911 6.30566Z" fill="#00864C"/>
</g>
<g style="mix-blend-mode:multiply">
<path d="M29.4437 0.863281C29.4437 0.863281 25.991 3.77687 28.7984 5.83455C28.7984 5.83455 31.3622 4.76224 29.4437 0.863281Z" fill="#D6CC2F"/>
</g>
<g style="mix-blend-mode:multiply">
<path d="M43.9266 29.742C43.9266 29.742 39.4597 29.0542 39.7553 32.5223C39.7553 32.5223 42.2554 33.7511 43.9266 29.742Z" fill="#5EA649"/>
</g>
<g style="mix-blend-mode:multiply">
<path d="M39.9523 29.0529C39.9523 29.0529 35.4931 28.3632 35.7809 31.8313C35.7809 31.8313 38.2733 33.0601 39.9523 29.0529Z" fill="#D6CC2F"/>
</g>
<g style="mix-blend-mode:multiply">
<path d="M20.2102 7.86719C20.2102 7.86719 25.1003 9.73745 22.6214 13.4818C22.6214 13.4818 19.362 13.393 20.2102 7.86719Z" fill="#D6CC2F"/>
</g>
<g style="mix-blend-mode:multiply">
<path d="M16.064 3.375C16.064 3.375 20.9541 5.24526 18.4752 8.98965C18.4752 8.98965 15.2158 8.90077 16.064 3.375Z" fill="#5EA649"/>
</g>
<g style="mix-blend-mode:multiply">
<path d="M16.0814 21.7546C15.6692 21.5234 15.287 21.2424 14.9434 20.918L16.0814 21.7546Z" fill="#A5BA3D"/>
</g>
<g style="mix-blend-mode:multiply">
<path d="M18.1042 20.3867C18.1042 20.3867 23.2996 21.0398 21.7752 25.2672C21.7849 25.2672 18.5969 25.955 18.1042 20.3867Z" fill="#00864C"/>
</g>
<g style="mix-blend-mode:multiply">
<path d="M12.4896 14.4268C12.4896 14.4268 17.685 15.0798 16.1722 19.3053C16.1722 19.3053 12.9823 19.995 12.4896 14.4268Z" fill="#A5BA3D"/>
</g>
<g style="mix-blend-mode:multiply">
<path d="M16.6996 9.43945C16.6996 9.43945 20.9734 10.9059 18.8771 14.175C18.8771 14.175 16.0485 14.1866 16.6996 9.43945Z" fill="#00864C"/>
</g>
<g style="mix-blend-mode:multiply">
<path d="M12.4143 6.18262C12.4143 6.18262 17.3507 7.9215 14.9646 11.7374C14.9646 11.7296 11.7033 11.72 12.4143 6.18262Z" fill="#A5BA3D"/>
</g>
<g style="mix-blend-mode:multiply">
<path d="M8.78967 22.0869C8.78967 22.0869 14.0179 22.3748 12.8026 26.6988C12.8026 26.6988 9.67071 27.6088 8.78967 22.0869Z" fill="#A5BA3D"/>
</g>
<g style="mix-blend-mode:multiply">
<path d="M9.56824 18.5771C9.56824 18.5771 14.7849 18.2042 14.1299 22.6345C14.1299 22.6441 11.1487 23.9425 9.56824 18.5771Z" fill="#5EA649"/>
</g>
<g style="mix-blend-mode:multiply">
<path d="M17.3759 15.1797C17.3759 15.1797 22.5693 15.8327 21.0468 20.0601C21.0546 20.0601 17.8685 20.748 17.3759 15.1797Z" fill="#A5BA3D"/>
</g>
<g style="mix-blend-mode:multiply">
<path d="M7.47778 12.5195C7.47778 12.5195 12.6732 13.1726 11.1488 17.3981C11.1584 17.3981 7.97047 18.0878 7.47778 12.5195Z" fill="#A5BA3D"/>
</g>
<g style="mix-blend-mode:multiply">
<path d="M19.0046 27.5957C19.0046 27.5957 23.4484 28.2487 21.9781 31.4599C21.9781 31.4657 19.2017 31.9062 19.0046 27.5957Z" fill="#00864C"/>
</g>
<g style="mix-blend-mode:multiply">
<path d="M22.8611 14.1172C22.8611 14.1172 26.6306 16.5748 23.9411 18.8759C23.9411 18.8759 21.2362 18.1127 22.8611 14.1172Z" fill="#A5BA3D"/>
</g>
<g style="mix-blend-mode:multiply">
<path d="M22.9171 18.8779C22.9171 18.8779 26.7175 21.2872 24.059 23.6231C24.059 23.6231 21.3444 22.8947 22.9171 18.8779Z" fill="#A5BA3D"/>
</g>
<g style="mix-blend-mode:multiply">
<path d="M22.751 26.6357C22.751 26.6357 27.1948 27.2888 25.7245 30.4999C25.7245 30.5057 22.95 30.9443 22.751 26.6357Z" fill="#5EA649"/>
</g>
<g style="mix-blend-mode:multiply">
<path d="M14.7463 24.8467C14.7463 24.8467 19.1998 25.4997 17.7218 28.7109C17.7179 28.7167 14.9453 29.1552 14.7463 24.8467Z" fill="#D6CC2F"/>
</g>
<g style="mix-blend-mode:multiply">
<path d="M14.5743 20.3545C14.5743 20.3545 19.0181 21.0075 17.5478 24.2187C17.5478 24.2245 14.7714 24.6631 14.5743 20.3545Z" fill="#A5BA3D"/>
</g>
<g style="mix-blend-mode:multiply">
<path d="M14.6903 34.4314C14.6903 34.4314 19.1979 34.1165 18.6163 37.5479C18.6163 37.5479 16.0312 38.5641 14.6903 34.4314Z" fill="#00864C"/>
</g>
<g style="mix-blend-mode:multiply">
<path d="M18.083 32.7019C18.083 32.7019 22.5906 32.387 22.009 35.8184C22.009 35.8184 19.4239 36.8346 18.083 32.7019Z" fill="#A5BA3D"/>
</g>
<g style="mix-blend-mode:multiply">
<path d="M9.81372 32.6747C9.81372 32.6747 14.3213 32.3578 13.7397 35.7892C13.7397 35.7892 11.1488 36.8074 9.81372 32.6747Z" fill="#D6CC2F"/>
</g>
<g style="mix-blend-mode:multiply">
<path d="M4.86365 26.9798C4.86365 26.9798 9.33064 26.29 9.03503 29.7543C9.03503 29.7543 6.54263 30.9869 4.86365 26.9798Z" fill="#5EA649"/>
</g>
<g style="mix-blend-mode:multiply">
<path d="M4.86365 23.5227C4.86365 23.5227 9.33064 22.8329 9.03503 26.301C9.03503 26.301 6.54263 27.5298 4.86365 23.5227Z" fill="#00864C"/>
</g>
<g style="mix-blend-mode:multiply">
<path d="M5.12646 18.3066C5.12646 18.3066 9.64369 18.438 8.72595 21.796C8.72595 21.796 6.05194 22.5514 5.12646 18.3066Z" fill="#A5BA3D"/>
</g>
<g style="mix-blend-mode:multiply">
<path d="M20.2914 2.37402C20.2914 2.37402 24.5072 4.00277 22.5229 6.86227C22.5229 6.86227 19.7523 6.68645 20.2914 2.37402Z" fill="#A5BA3D"/>
</g>
<g style="mix-blend-mode:multiply">
<path d="M9.52966 29.3963C9.52966 29.3963 13.9947 28.7085 13.701 32.1766C13.701 32.1766 11.2086 33.4054 9.52966 29.3963Z" fill="#A5BA3D"/>
</g>
<g style="mix-blend-mode:multiply">
<path d="M13.5039 28.7064C13.5039 28.7064 17.969 28.0147 17.6734 31.4925C17.6734 31.4925 15.1829 32.7136 13.5039 28.7064Z" fill="#A5BA3D"/>
</g>
<g style="mix-blend-mode:multiply">
<path d="M9.92959 8.91797C9.92959 8.91797 14.2497 10.1777 12.3428 13.1686C12.3428 13.1608 9.53158 13.213 9.92959 8.91797Z" fill="#5EA649"/>
</g>
<g style="mix-blend-mode:multiply">
<path d="M26.8856 22.1436C26.8856 22.1436 30.2127 25.1731 27.1909 27.0144C27.1851 27.0144 24.6424 25.83 26.8856 22.1436Z" fill="#A5BA3D"/>
</g>
<g style="mix-blend-mode:multiply">
<path d="M43.7238 8.16699C43.7238 8.16699 45.281 12.3886 41.7492 12.6301C41.7492 12.6301 40.0354 10.4044 43.7238 8.16699Z" fill="#5EA649"/>
</g>
<g style="mix-blend-mode:multiply">
<path d="M24.7622 1.08203C24.7622 1.08203 28.1801 4.03813 25.3419 6.06103C25.3477 6.06103 22.7973 4.9578 24.7622 1.08203Z" fill="#5EA649"/>
</g>
</g>
<path d="M33.1881 31.8131C33.789 31.332 36.3123 29.4096 36.3123 29.4096L43.5209 26.9481L46.2838 25.3252L43.7605 26.098L37.6338 28.262L36.2582 28.4552C36.2756 27.6282 36.3509 25.7773 36.6736 24.9059C36.9461 24.0696 37.1072 23.2011 37.1527 22.3227L36.0727 24.7301C36.0727 24.7301 35.2187 28.0919 35.0738 28.9903L34.0904 30.1979C34.0904 30.1979 30.0658 33.3202 28.6805 34.3422C28.2143 34.6917 27.7077 34.9836 27.1716 35.2117C27.1716 34.9103 27.1542 34.5702 27.1445 34.2051L29.463 29.8366L33.0065 23.4607L36.5519 19.7376L40.6382 17.5814L42.8601 16.3796L39.1351 17.7611L36.7431 19.0111L37.3344 15.8947L37.8734 12.8304C37.8734 12.8304 37.3344 14.8764 37.2146 15.5952C37.0948 16.3139 35.9529 19.6197 35.9529 19.6197L35.9317 19.6873L35.4718 20.0931L33.6209 21.6677C33.5629 20.9104 33.4682 19.7125 33.4277 19.3125C33.3678 18.7116 33.248 15.3479 33.248 15.3479C33.248 15.3479 33.0664 17.6915 33.0065 18.0528C32.9601 18.331 33.0219 20.9625 33.0509 22.1546C32.9273 22.286 32.025 23.2482 31.7448 23.6404C31.4647 24.0326 28.5607 28.9266 28.2671 29.5275C28.1106 29.8405 27.5773 30.6867 27.1078 31.4074C27.0827 29.6685 27.0711 28.0823 27.0711 27.7847C27.0711 27.4872 27.0943 26.3183 27.1213 25.0991L27.672 23.7003L29.1133 19.7955L30.1257 15.1778L30.4851 14.8764L33.561 11.2055C32.5273 12.2411 31.0126 13.4776 30.375 13.9858L30.4812 13.4989L30.7826 8.28223C30.7826 8.28223 29.1597 18.4933 28.6805 19.755C28.3714 20.5664 27.6411 21.376 27.158 21.8513L26.1611 15.715L24.9593 12.4111L25.4462 15.715C25.4462 15.715 26.107 20.4602 26.1669 21.4204C26.2152 22.2068 26.0239 26.6371 25.9524 28.233C24.1716 26.2975 22.885 23.9603 22.2022 21.4204C21.1203 17.2162 20.701 19.2584 20.8807 14.6929C20.8807 14.633 20.8807 14.577 20.8807 14.519C21.5357 14.0147 23.0388 12.8091 23.4581 12.1097C23.9991 11.2093 24.059 9.94769 24.059 9.94769C23.8542 10.4258 23.6133 10.8876 23.3383 11.3291C22.9905 11.8933 21.64 12.9907 20.9174 13.5568C21.0449 9.99599 20.9947 9.34681 20.9947 9.34681L20.2218 13.0719V16.9554C19.8895 16.5264 19.3485 15.8174 18.9602 15.2339C18.3516 14.3335 15.95 13.1376 15.409 12.7106C15.409 12.7106 17.8705 15.2938 19.192 17.2761L20.7899 19.6719C21.4468 21.6194 22.5288 24.591 23.3364 26.4187C22.778 26.1985 20.4711 25.2382 19.733 24.1833C19.733 24.1833 14.9279 22.5024 14.7482 22.3826C14.5686 22.2628 10.4223 18.4779 9.94313 17.9968C9.94313 17.9968 12.3447 21.602 13.1253 22.1411C13.1253 22.1411 9.09881 23.2231 7.09717 23.8297C8.50759 23.6597 12.7002 23.1535 13.0055 23.1033C13.3668 23.0434 14.4468 23.1632 14.4468 23.1632C14.4468 23.1632 18.5313 24.2451 19.0703 24.5369C19.5205 24.7881 23.1741 27.8214 24.6637 28.7662C24.826 29.0271 24.9729 29.2744 25.1042 29.5024L25.0173 29.7632C25.0173 29.7632 24.8608 33.5385 24.8647 35.3933L23.2765 34.4485C23.2765 34.4485 20.1368 31.6064 19.4567 31.2296C18.624 29.8018 16.8735 26.7723 16.4214 25.6865C16.4214 25.6865 16.7228 28.2098 17.0822 28.8706C17.3314 29.3246 17.7778 30.1477 18.0328 30.6094C15.95 29.7535 12.2829 28.2832 11.9216 28.1499C11.4405 27.9683 8.67762 27.9683 8.67762 27.9683C8.67762 27.9683 10.6599 28.5692 11.7999 28.9343C12.9398 29.2995 16.006 30.6152 16.8465 30.9765C17.6869 31.3378 20.2701 32.9589 20.5175 33.2583C20.7261 33.5172 24.0223 36.1062 24.9188 36.8076C24.9052 38.4383 24.5671 46.4023 24.457 47.9325H27.983C27.8691 46.5801 27.5618 39.8004 27.3764 37.7678C28.4699 36.6337 30.2146 35.0416 30.9932 34.3364C31.4511 34.4891 32.0346 34.6939 32.4713 34.8813C33.3137 35.2407 36.4958 35.1209 36.4958 35.1209C36.4958 35.1209 35.1144 34.9412 34.4536 34.8195C33.9629 34.7306 32.3785 34.0466 31.5961 33.6988C31.9612 33.1946 32.7418 32.1706 33.1881 31.8131Z" fill="#6F5526"/>
</g>
<defs>
<filter id="filter0_d_192_4651" x="0" y="0" width="53.4543" height="55.9297" filterUnits="userSpaceOnUse" color-interpolation-filters="sRGB">
<feFlood flood-opacity="0" result="BackgroundImageFix"/>
<feColorMatrix in="SourceAlpha" type="matrix" values="0 0 0 0 0 0 0 0 0 0 0 0 0 0 0 0 0 0 127 0" result="hardAlpha"/>
<feOffset dy="4"/>
<feGaussianBlur stdDeviation="2"/>
<feComposite in2="hardAlpha" operator="out"/>
<feColorMatrix type="matrix" values="0 0 0 0 0 0 0 0 0 0 0 0 0 0 0 0 0 0 0.25 0"/>
<feBlend mode="normal" in2="BackgroundImageFix" result="effect1_dropShadow_192_4651"/>
<feBlend mode="normal" in="SourceGraphic" in2="effect1_dropShadow_192_4651" result="shape"/>
</filter>
<clipPath id="clip0_192_4651">
<rect width="45.4543" height="47.9293" fill="white" transform="translate(4)"/>
</clipPath>
</defs>
</svg>
