<svg width="33" height="50" viewBox="0 0 33 50" fill="none" xmlns="http://www.w3.org/2000/svg">
<path d="M17.8825 36.2734H15.0105V50.0019H17.8825V36.2734Z" fill="#8A7043"/>
<g style="mix-blend-mode:multiply" opacity="0.1">
<g style="mix-blend-mode:multiply" opacity="0.1">
<path d="M17.861 37.5283H16.8751V50.002H17.861V37.5283Z" fill="#231815"/>
</g>
</g>
<path d="M5.69425 32.1039C5.5598 31.9344 5.0805 32.3104 5.12726 32.6339C4.96545 32.6596 4.81195 32.723 4.67912 32.819C4.03615 32.5793 3.34446 32.2344 3.28406 32.1039C3.16521 31.8389 3.04831 32.7235 3.22561 32.8112C3.40292 32.8988 0.46082 32.0162 0.990787 32.326C1.24993 32.478 1.57531 32.6943 1.85198 32.8755C0.877779 32.8151 -0.380893 32.7586 0.108158 32.8988C0.597208 33.0391 1.41359 33.2067 1.98058 33.3178C1.72534 33.4093 1.48763 33.5457 1.87147 33.6509L1.92797 33.6646C1.66494 33.8594 1.55583 34.0543 1.99032 34.0932C2.45665 34.1354 2.9254 34.0449 3.34252 33.8321C3.61872 33.8428 3.89398 33.8708 4.16669 33.9159C4.41939 33.9929 4.65722 34.1121 4.87007 34.2686C4.35962 34.3405 3.85355 34.4406 3.35421 34.5686C3.3249 34.5481 3.30032 34.5215 3.28212 34.4907C3.22951 34.3738 3.17885 34.479 3.15157 34.6407C2.99765 34.707 2.95673 34.7752 3.13404 34.8356C3.13404 35.0012 3.15157 35.1648 3.22366 35.1999C3.39902 35.2876 0.458871 34.405 0.988839 34.7128C1.24798 34.8667 1.57336 35.083 1.85004 35.2623C0.875831 35.2038 -0.382841 35.1473 0.106209 35.2876C0.59526 35.4279 1.41164 35.5954 1.97863 35.7065C1.72339 35.7981 1.48568 35.9345 1.86952 36.0397L1.92602 36.0533C1.66299 36.2482 1.55388 36.443 1.98837 36.48C2.45456 36.5236 2.92353 36.4337 3.34057 36.2209C3.61677 36.2316 3.89204 36.2596 4.16474 36.3047C4.41799 36.3808 4.65649 36.4994 4.87007 36.6554C4.87007 36.6554 2.39949 37.01 3.16326 37.2399C3.92704 37.4698 5.33963 37.5049 5.33963 37.5049C5.33963 37.5049 7.04644 37.8595 6.75223 37.992C6.45802 38.1245 4.63431 38.3817 5.7527 38.6544C6.87108 38.9272 8.57594 38.9642 8.7513 38.9642C8.84482 38.9642 9.39817 39.4065 9.89891 39.1162C9.61639 39.6618 9.22866 40.5873 9.98659 40.334C11.0465 39.9794 10.9861 39.0967 11.1556 39.0967C11.4005 38.9859 11.6277 38.8395 11.8298 38.6622L11.8025 39.1844C11.8025 39.1844 10.9783 39.9365 11.8025 39.9365C12.6267 39.9365 12.6851 38.9623 13.0963 39.4046C13.5074 39.8469 12.9209 40.4216 13.3905 40.2892C13.5727 40.2334 13.7474 40.1555 13.9107 40.0573C13.7854 40.1911 13.6921 40.3517 13.6379 40.5269C13.5814 41.1718 14.6511 40.8152 15.2298 39.7319C15.2284 40.0503 15.2578 40.368 15.3174 40.6808C15.5123 41.6881 15.9994 41.1776 16.4475 40.6145C16.8976 41.1776 17.3866 41.6881 17.5795 40.6808C17.6392 40.368 17.6686 40.0503 17.6672 39.7319C18.2517 40.8152 19.3156 41.1718 19.2591 40.5269C19.2023 40.3485 19.1049 40.1858 18.9746 40.0514C19.1379 40.1496 19.3126 40.2275 19.4948 40.2833C19.9644 40.4158 19.376 39.841 19.789 39.3987C20.2021 38.9564 20.2586 39.9306 21.0828 39.9306C21.907 39.9306 21.0828 39.1786 21.0828 39.1786L21.0555 38.6564C21.2576 38.8336 21.4848 38.9801 21.7296 39.0909C21.905 39.0909 21.8466 39.9735 22.8987 40.3281C23.6566 40.5814 23.2689 39.6559 22.9864 39.1104C23.4871 39.4007 24.0405 39.7085 24.134 39.7085C24.3093 39.7085 26.0161 38.9136 27.1326 38.6486C28.249 38.3836 26.4273 38.1186 26.1331 37.9861C25.8388 37.8536 27.5457 37.499 27.5457 37.499C27.5457 37.499 28.9563 37.4542 29.7201 37.2341C30.4838 37.0139 28.0152 36.6495 28.0152 36.6495C28.2287 36.4929 28.4672 36.3736 28.7205 36.2969C28.9926 36.2519 29.2672 36.2239 29.5428 36.2131C29.9635 36.4275 30.4366 36.5174 30.9067 36.4722C31.3412 36.4352 31.232 36.2462 30.969 36.0455L31.0255 36.0319C31.4152 35.9267 31.1716 35.7903 30.9164 35.6987C31.4834 35.5877 32.3173 35.4162 32.7888 35.2798C33.2603 35.1434 32.0095 35.196 31.0352 35.2545C31.3041 35.0752 31.6373 34.8648 31.8964 34.705C32.4264 34.3972 29.4863 35.2798 29.6616 35.1921C29.7337 35.1571 29.7571 34.9973 29.7512 34.8278C29.9266 34.7693 29.8876 34.7011 29.7337 34.6329C29.7064 34.4712 29.6558 34.366 29.6032 34.4829C29.585 34.5137 29.5604 34.5403 29.5311 34.5608C29.0317 34.4328 28.5257 34.3327 28.0152 34.2608C28.2287 34.1041 28.4672 33.9849 28.7205 33.9081C28.9926 33.8631 29.2672 33.8351 29.5428 33.8243C29.9635 34.0386 30.4365 34.1292 30.9067 34.0854C31.3412 34.0465 31.232 33.8575 30.969 33.6568L31.0255 33.6431C31.4152 33.5379 31.1716 33.4015 30.9164 33.31C31.4834 33.1989 32.3173 33.0294 32.7888 32.8911C33.2603 32.7527 32.0095 32.8073 31.0352 32.8677C31.3041 32.6865 31.6373 32.478 31.8964 32.3182C32.4264 32.0084 29.4863 32.8911 29.6616 32.8034C29.837 32.7157 29.7201 31.8292 29.6032 32.0961C29.5428 32.2325 28.8511 32.5715 28.2081 32.8112C28.0751 32.7156 27.9217 32.6522 27.76 32.6261C27.8067 32.3026 27.3274 31.9266 27.193 32.0961C27.023 32.2306 26.8303 32.3335 26.6241 32.4001L26.3688 32.3611C26.5823 32.2044 26.8208 32.0852 27.0741 32.0084C27.4268 31.9188 28.7205 31.9188 29.3674 31.7434C30.0143 31.5681 28.8978 31.3012 28.8978 31.3012C28.8978 31.3012 29.7201 30.7264 30.25 30.4166C30.78 30.1068 27.8379 30.9914 28.0152 30.9037C28.0854 30.8686 28.1087 30.7088 28.1048 30.5393C28.2782 30.4809 28.2393 30.4127 28.0873 30.3445C28.06 30.1828 28.0094 30.0776 27.9568 30.1945C27.9383 30.2257 27.913 30.2524 27.8827 30.2724C27.384 30.1445 26.8786 30.0443 26.3688 29.9723C26.5823 29.8157 26.8208 29.6965 27.0741 29.6197C27.4268 29.532 28.7205 29.532 29.3674 29.3547C30.0143 29.1774 28.8978 28.9124 28.8978 28.9124C28.8978 28.9124 29.7201 28.3376 30.25 28.0278C30.78 27.718 27.8379 28.6026 28.0152 28.5149C28.1925 28.4273 28.0737 27.5407 27.9568 27.8077C27.8671 28.0025 26.437 28.6357 25.7668 28.7604C25.6987 28.6734 25.6244 28.5914 25.5446 28.5149L24.8802 28.4136C24.6854 28.3065 24.4399 28.1954 24.2139 28.098C24.821 28.0727 25.4244 27.9905 26.0161 27.8525C26.6279 27.6752 25.1705 27.4141 24.5626 27.3167L25.3985 26.9893L25.4686 26.8666C26.0123 26.8237 26.8325 26.7886 27.3099 26.6581C27.9568 26.4827 26.8384 26.2158 26.8384 26.2158C26.8384 26.2158 27.6626 25.643 28.1925 25.3332C28.7225 25.0234 25.7804 25.9177 25.9577 25.8183C26.0278 25.7833 26.0512 25.6235 26.0454 25.4559C26.2207 25.3975 26.1818 25.3293 26.0278 25.2611C26.0006 25.1013 25.9499 24.9961 25.8973 25.1111C25.8793 25.1426 25.8547 25.1698 25.8252 25.1909C25.4113 25.084 24.9917 25.0001 24.5685 24.9396L25.4043 24.6142L25.4745 24.4895C26.0181 24.4467 26.8384 24.4116 27.3157 24.283C27.9626 24.1057 26.8442 23.8407 26.8442 23.8407C26.8442 23.8407 27.6684 23.2562 28.1984 22.9561C28.7283 22.6561 25.7862 23.5406 25.9635 23.4432C26.0765 23.3848 26.0688 22.9951 26.0161 22.7983C26.1253 22.7808 26.2266 22.7593 26.3162 22.736C26.9631 22.5587 25.8447 22.2937 25.8447 22.2937C25.8447 22.2937 26.6689 21.7091 27.1988 21.4091C27.7288 21.109 24.7867 21.9936 24.9621 21.8962C25.0322 21.8611 25.0575 21.7014 25.0517 21.5318C25.227 21.4734 25.1881 21.4052 25.0342 21.337C25.0069 21.1753 24.9562 21.0701 24.9036 21.187C24.8851 21.2182 24.8598 21.2449 24.8296 21.2649C24.3309 21.137 23.8255 21.0368 23.3157 20.9649C23.5291 20.8082 23.7676 20.689 24.021 20.6122C24.3736 20.5245 25.6693 20.5245 26.3162 20.3472C26.9631 20.1699 25.8447 19.9049 25.8447 19.9049C25.8447 19.9049 26.6689 19.3204 27.1988 19.0223C27.4151 18.8937 27.0469 18.9677 26.5481 19.0944C26.5344 19.0476 26.4428 19.0028 26.3143 18.9599C26.6143 18.9413 26.9112 18.8876 27.1988 18.8002C27.7834 18.6053 25.9421 18.5352 25.9421 18.5352C25.9421 18.5352 25.7278 18.4319 25.8447 18.2702C25.9616 18.1085 25.531 18.3131 25.455 18.3131C25.1227 18.3639 24.7963 18.4481 24.4808 18.5644C24.1476 18.6969 24.0288 18.4767 24.0677 18.241C24.1067 18.0052 23.754 18.1962 23.4832 18.3442C23.2795 18.44 23.0605 18.4993 22.8363 18.5196C22.8363 18.5196 23.263 18.1299 23.6157 17.7656C23.795 17.8338 23.9898 17.902 24.1574 17.9468C24.6074 18.0637 24.3912 17.902 24.4516 17.711C24.512 17.5201 23.6605 17.3213 23.5436 17.0992C23.7385 17.068 24.0405 17.0232 24.2977 16.9804C24.586 17.0817 25.2348 17.2824 25.4316 17.1362C25.5797 17.0232 25.3206 16.8868 25.079 16.7914L25.1608 16.768C25.5797 16.8459 26.2032 16.9278 26.4896 16.7972C26.6552 16.7212 26.5422 16.6433 26.3318 16.5751C26.6318 16.5547 26.9286 16.5005 27.2164 16.4134C27.8009 16.2185 25.9596 16.1484 25.9596 16.1484C25.9596 16.1484 25.7453 16.0451 25.8622 15.8834C25.9791 15.7217 25.5485 15.9282 25.4725 15.9282C25.1402 15.9782 24.8138 16.0617 24.4983 16.1776C24.1652 16.3101 24.0463 16.0899 24.0853 15.8542C24.1242 15.6184 23.7716 15.8094 23.5008 15.9575C23.4427 15.9886 23.3821 16.0146 23.3196 16.0354C23.2553 16.0003 23.1734 15.9613 23.0818 15.9224C23.2494 15.7626 23.4832 15.5327 23.6781 15.3242C23.8729 15.1157 23.6293 15.1898 23.3196 15.3242C23.113 15.2385 21.9868 15.1839 21.3029 15.1469C21.2877 15.0759 21.2688 15.0056 21.2464 14.9365C21.1666 14.6851 20.9113 14.8605 20.6892 15.067C20.597 15.0316 20.5103 14.9831 20.432 14.9228L20.3268 14.6131L20.4456 14.5565L20.6405 14.5078C20.6405 14.5078 20.736 14.463 20.9172 14.387C21.0349 14.4632 21.1423 14.5542 21.2367 14.6579C21.4315 14.8819 21.9713 15.1235 22.2109 15.0086C22.4506 14.8936 21.1763 14.2838 21.1763 14.2838C21.3127 14.2312 21.4725 14.1747 21.6576 14.1143C21.7325 14.1731 21.8023 14.2383 21.866 14.3091C22.0609 14.5332 22.6006 14.7748 22.8402 14.6598C23.0351 14.5702 22.2966 14.1825 21.9635 14.0149L22.1057 13.972C22.2762 14.0103 22.4417 14.0685 22.5986 14.1454C22.8928 14.2935 23.5202 14.352 23.6761 14.1747C23.7501 14.0909 23.4598 14.009 23.1306 13.9447C23.2423 13.9189 23.3482 13.872 23.4423 13.8064C23.4852 13.7772 23.4423 13.7265 23.3312 13.6681L23.4423 13.6447C25.2056 13.2901 23.0292 13.2764 22.813 13.3797L22.737 13.407C22.6766 13.3817 22.6142 13.3602 22.5538 13.3368C22.6064 13.2628 22.659 13.1829 22.7058 13.1069C22.895 13.0944 23.0824 13.0624 23.265 13.0115C23.4598 12.9511 23.2202 12.9043 22.8286 12.8653C22.8558 12.7738 22.8286 12.7328 22.6961 12.7913C22.659 12.8061 22.6232 12.8236 22.5889 12.8439L22.0044 12.8049C21.9868 12.7699 21.9537 12.7562 21.8992 12.7757L21.8543 12.7952L21.3556 12.7679C21.1845 12.5915 20.9742 12.4579 20.7418 12.3782C20.8373 12.3471 20.9366 12.3139 21.0613 12.273C21.1082 12.257 21.1538 12.2374 21.1977 12.2146L21.2367 12.275C21.4315 12.499 21.9713 12.7406 22.2109 12.6257C22.3785 12.5458 21.7978 12.2185 21.4315 12.0412C21.5282 11.9663 21.6141 11.8784 21.6868 11.7801C21.745 11.8281 21.7991 11.8809 21.8485 11.9379C22.0433 12.16 22.5831 12.4016 22.8227 12.2867C23.0175 12.199 22.2791 11.8093 21.9459 11.6417L22.0882 11.5989C22.2584 11.6381 22.4238 11.6962 22.5811 11.7723C22.8753 11.9204 23.5027 11.9788 23.6586 11.8015C23.7794 11.6671 22.9396 11.5326 22.5343 11.4761C22.8052 11.406 23.1013 11.3358 23.4248 11.2715C25.1881 10.9189 23.0117 10.9033 22.7954 11.0065C22.681 11.0472 22.5629 11.0766 22.4428 11.0942C22.659 10.8 23.0273 10.2662 22.6785 10.4181C22.4003 10.5395 22.1769 10.7595 22.0511 11.0358L21.9186 11.1741L21.8193 11.1878C21.9303 10.8974 22.1271 10.3129 21.8738 10.4084C21.5407 10.5272 21.5017 10.9676 21.4432 11.028C21.414 11.0553 21.3127 11.1663 21.2153 11.2754L21.0886 11.293C21.1685 11.0514 21.2562 10.6968 21.0321 10.7766C20.8019 10.8912 20.6207 11.0849 20.5216 11.3222L20.169 11.5482C19.9995 11.6047 19.83 11.6632 19.678 11.708C19.4422 11.6242 19.0447 11.4683 19.2883 11.4683C19.6215 11.4683 19.9936 11.3962 19.7403 11.2637C19.6618 11.2239 19.5804 11.19 19.4968 11.1624C19.7384 11.0767 19.9313 11.0104 19.9839 10.9988C20.2601 10.8726 20.5259 10.7247 20.7788 10.5565L20.8665 10.4727C21.1899 10.5428 21.451 10.5682 21.3283 10.3947C21.2749 10.323 21.2088 10.2616 21.1334 10.2135C21.3432 10.0184 21.5237 9.79397 21.6692 9.54719C21.6848 9.50822 21.6692 9.49069 21.6166 9.48679C21.7589 9.33287 21.8232 9.18674 21.7082 9.14387C21.5387 9.07958 20.8899 9.41665 20.5392 9.61344C20.7165 9.39717 20.9405 9.06399 20.6346 9.05425C20.4851 9.0516 20.3373 9.08576 20.2041 9.15371C20.0709 9.22167 19.9565 9.32133 19.8709 9.44393C19.8671 9.48124 19.8612 9.51832 19.8533 9.55499L19.6351 9.45757L19.5494 9.43224L19.6156 9.20038C19.6156 9.20038 19.7929 9.1127 20.1456 8.98021C20.4983 8.84771 20.056 8.71327 20.056 8.71327C20.056 8.71327 19.7189 8.77173 19.4403 8.79316C19.715 8.69574 19.9391 8.6178 19.9975 8.59832C20.2738 8.47212 20.5396 8.32423 20.7925 8.15603C20.7925 8.15603 21.5562 7.44876 21.6751 7.16234C21.7277 7.02985 21.3789 7.13117 20.9854 7.27925C21.1277 7.15196 21.2339 6.98929 21.2932 6.80773C21.3205 6.54275 20.5859 7.0961 20.5859 7.0961L20.1456 7.13896L19.678 7.41369V7.15845L19.6254 7.14286C19.6055 7.10584 19.5806 7.07174 19.5513 7.04154L19.6195 6.80384C19.6195 6.80384 19.7968 6.71616 20.1495 6.58367C20.5022 6.45117 20.0599 6.31868 20.0599 6.31868C20.0599 6.31868 19.2961 6.45117 19.1207 6.38493C18.9454 6.31868 19.072 6.36544 19.074 6.15502C19.2123 6.02837 19.2688 5.92705 19.1597 5.90367C19.1254 5.89973 19.0907 5.89973 19.0564 5.90367C19.0779 5.65622 19.3643 5.74195 19.4461 5.72247C19.5279 5.70299 19.9761 5.65622 19.9761 5.65622C19.9761 5.65622 20.5353 5.2568 20.623 5.21394C20.7106 5.17107 21.2698 4.68397 21.301 4.41704C21.3322 4.15011 20.5937 4.7054 20.5937 4.7054L20.1534 4.74827L19.5942 5.08144C19.5942 5.08144 19.5357 4.81451 19.6234 4.79308C19.7111 4.77165 19.3156 4.44042 19.1987 4.28649C19.0818 4.13257 18.6141 4.75022 18.6141 4.75022L17.9673 4.92752C18.3862 4.60409 18.6278 4.19882 18.5148 4.12478C19.0116 3.88512 19.339 3.56169 19.1539 3.52077C19.0233 3.4896 18.6258 3.59676 18.242 3.71561C18.3927 3.52928 18.5089 3.31746 18.5849 3.09017C18.7018 2.64788 17.9673 3.35516 17.6731 3.62014L17.5893 3.69613C17.5608 3.54592 17.549 3.39301 17.5542 3.2402C18.3472 3.10576 19.0857 2.57579 18.8421 2.50565C18.6921 2.46084 18.168 2.58359 17.7198 2.70049C18.3375 2.34393 18.7155 1.72629 18.4661 1.72629C18.2537 1.72629 17.5678 2.17442 17.2015 2.42382C17.2001 2.10479 17.1812 1.78608 17.145 1.4691L17.1704 1.34635C17.1704 1.34635 17.3477 0.761827 16.8469 0.931338C16.8084 0.948031 16.7763 0.976735 16.7554 1.01317C16.6696 0.389681 16.5605 0 16.4456 0C16.3306 0 16.2234 0.389681 16.1416 1.01317C16.1202 0.976417 16.0874 0.947677 16.0481 0.931338C15.5473 0.754033 15.7247 1.34635 15.7247 1.34635L15.75 1.4691C15.7146 1.78482 15.6964 2.10223 15.6954 2.41992C15.3291 2.17053 14.6413 1.72239 14.4309 1.72239C14.1835 1.72239 14.5595 2.34783 15.1772 2.69659C14.729 2.57774 14.2029 2.45499 14.0549 2.50175C13.8113 2.5719 14.5478 3.10186 15.3428 3.2363C15.3487 3.39235 15.3369 3.54857 15.3077 3.70197L15.2239 3.62598C14.9297 3.361 14.1952 2.65178 14.3121 3.09602C14.3873 3.32365 14.5035 3.53561 14.655 3.72146C14.2653 3.59871 13.8756 3.49154 13.7431 3.52662C13.5483 3.56753 13.8854 3.89097 14.3822 4.13062C14.2692 4.20466 14.5108 4.61188 14.9297 4.93337L14.2828 4.75606C14.2828 4.75606 13.8113 4.13842 13.6983 4.29234C13.5853 4.44626 13.1976 4.77944 13.2872 4.80087C13.3768 4.82231 13.3164 5.08924 13.3164 5.08924L12.7572 4.75606L12.3169 4.7132C12.3169 4.7132 11.5804 4.15985 11.6096 4.42483C11.6388 4.68981 12.1941 5.17692 12.2877 5.22173C12.3812 5.26654 12.9306 5.65038 12.9306 5.65038C12.9306 5.65038 13.371 5.69324 13.4587 5.71663C13.5463 5.74001 13.8269 5.65038 13.8483 5.89783C13.814 5.89385 13.7794 5.89385 13.7451 5.89783C13.6457 5.92121 13.6925 6.02252 13.8308 6.14917C13.8308 6.3596 13.9341 6.32258 13.784 6.37908C13.634 6.43559 12.8449 6.31284 12.8449 6.31284C12.8449 6.31284 12.4026 6.44533 12.7553 6.57782C13.1079 6.71031 13.2852 6.79799 13.2852 6.79799L13.3534 7.0357C13.3242 7.0659 13.2993 7.09999 13.2794 7.13701L13.2268 7.1526V7.40784L12.7553 7.12922L12.313 7.0922C12.313 7.0922 11.5765 6.53885 11.6057 6.80384C11.665 6.9854 11.7712 7.14806 11.9136 7.27535C11.5239 7.12727 11.1693 7.02595 11.2238 7.15845C11.3427 7.44486 12.1065 8.15213 12.1065 8.15213C12.3593 8.32033 12.6252 8.46823 12.9014 8.59442C12.9579 8.60806 13.1839 8.686 13.4587 8.78926C13.18 8.76783 12.843 8.70938 12.843 8.70938C12.843 8.70938 12.4007 8.84187 12.7533 8.97631C13.106 9.11075 13.2833 9.19648 13.2833 9.19648L13.3495 9.42834L13.2638 9.45367L13.0534 9.54719C13.0455 9.51052 13.0397 9.47345 13.0359 9.43613C12.9502 9.31354 12.8358 9.21387 12.7026 9.14592C12.5694 9.07796 12.4216 9.04381 12.2721 9.04645C11.9662 9.04645 12.1902 9.38937 12.3675 9.60565C12.011 9.4108 11.3622 9.07178 11.1985 9.13608C11.0835 9.17894 11.1478 9.33092 11.2901 9.479C11.2433 9.479 11.2219 9.50043 11.2375 9.5394C11.3833 9.7808 11.5624 10.0005 11.7694 10.1921C11.6942 10.2405 11.6283 10.3019 11.5745 10.3733C11.4537 10.5467 11.7129 10.5214 12.0363 10.4513L12.124 10.535C12.3769 10.7032 12.6427 10.8511 12.9189 10.9773C12.9716 10.989 13.1644 11.0553 13.406 11.141C13.3224 11.1686 13.241 11.2024 13.1625 11.2423C12.9092 11.3748 13.2813 11.4469 13.6145 11.4469C13.8561 11.4469 13.4587 11.6028 13.2248 11.6865C13.0729 11.6417 12.9034 11.5833 12.7319 11.5268L12.3617 11.3008C12.2626 11.0635 12.0814 10.8698 11.8512 10.7552C11.6271 10.6753 11.7148 11.0299 11.7947 11.2715L11.6681 11.254C11.5706 11.1449 11.4732 11.0338 11.4401 11.0065C11.3816 10.9461 11.3427 10.5058 11.0095 10.387C10.7562 10.2973 10.953 10.8819 11.0641 11.1663L10.9627 11.1527L10.8322 11.0143C10.7073 10.7375 10.4835 10.5173 10.2048 10.3967C9.858 10.2447 10.2243 10.7864 10.4406 11.0728C10.3204 11.0551 10.2023 11.0258 10.0879 10.9851C9.87163 10.8819 7.69526 10.8974 9.45857 11.2501C9.78201 11.3144 10.0782 11.3845 10.349 11.4547C9.94372 11.5112 9.10396 11.6495 9.22476 11.7801C9.38063 11.9574 10.0041 11.8989 10.3022 11.7508C10.4597 11.6751 10.625 11.6169 10.7952 11.5774L10.9355 11.6203C10.6042 11.7879 9.87553 12.1775 10.0606 12.2652C10.2983 12.3802 10.84 12.1386 11.0348 11.9165C11.0848 11.86 11.1389 11.8072 11.1966 11.7586C11.2692 11.857 11.3551 11.9449 11.4518 12.0197C11.0933 12.2048 10.5127 12.5322 10.6724 12.6042C10.9101 12.7192 11.4518 12.4776 11.6466 12.2535L11.7109 12.1853C11.7547 12.2085 11.8003 12.2281 11.8473 12.2438C11.9642 12.2847 12.0714 12.3178 12.1669 12.349C11.9344 12.4287 11.7241 12.5622 11.5531 12.7387L11.0543 12.766L11.0095 12.7465C10.953 12.727 10.9218 12.7465 10.9043 12.7757L10.3198 12.8147C10.2854 12.7944 10.2496 12.7768 10.2126 12.7621C10.0801 12.7036 10.0528 12.7445 10.0801 12.8361C9.69043 12.8751 9.45273 12.9218 9.64367 12.9822C9.82626 13.0333 10.0137 13.0653 10.2029 13.0777C10.2496 13.1537 10.3022 13.2336 10.3548 13.3076L10.16 13.3778L10.086 13.3505C9.86969 13.2472 7.69331 13.2609 9.45662 13.6155L9.56768 13.6388C9.46442 13.6973 9.41376 13.748 9.45662 13.7772C9.55077 13.8427 9.65659 13.8897 9.76837 13.9155C9.44104 13.9798 9.14877 14.0617 9.22281 14.1454C9.37869 14.3227 10.0022 14.2643 10.3003 14.1162C10.4574 14.0396 10.6228 13.9814 10.7932 13.9428L10.9335 13.9857C10.6023 14.1532 9.87358 14.541 10.0587 14.6306C10.2964 14.7455 10.838 14.5039 11.0329 14.2799C11.0971 14.2095 11.1668 14.1443 11.2414 14.085C11.4265 14.1454 11.5862 14.2019 11.7226 14.2545H11.7129C11.7129 14.2545 10.4406 14.8936 10.6783 15.0027C10.916 15.1118 11.4576 14.8761 11.6525 14.652C11.7458 14.5458 11.8526 14.4521 11.9701 14.3734C12.1493 14.4494 12.2448 14.4942 12.2448 14.4942L12.4396 14.5429L12.5585 14.5994L12.4825 14.9228C12.4044 14.9835 12.3177 15.0321 12.2253 15.067C12.0032 14.8605 11.748 14.6773 11.6681 14.9365C11.6457 15.0056 11.6268 15.0759 11.6116 15.1469C10.9277 15.1839 9.80149 15.2385 9.59496 15.3242C9.28516 15.1859 9.0611 15.1294 9.23645 15.3242C9.41181 15.5191 9.6651 15.7626 9.83267 15.9224C9.74109 15.9613 9.66121 16.0003 9.59496 16.0354C9.53195 16.0143 9.47071 15.9882 9.41181 15.9575C9.13903 15.8094 8.78442 15.6184 8.82729 15.8542C8.87015 16.0899 8.7474 16.3101 8.41422 16.1776C8.0987 16.0619 7.77231 15.9784 7.44002 15.9282C7.36208 15.9282 6.92954 15.7217 7.05034 15.8834C7.17114 16.0451 6.95292 16.1484 6.95292 16.1484C6.95292 16.1484 5.10972 16.2224 5.69619 16.4134C5.98401 16.5005 6.28075 16.5547 6.58077 16.5751C6.37034 16.6433 6.25539 16.7212 6.42295 16.7972C6.70742 16.9278 7.33286 16.8459 7.75176 16.768L7.83555 16.7914C7.592 16.8868 7.33286 17.0232 7.48094 17.1362C7.67578 17.2824 8.32655 17.0817 8.61491 16.9804C8.8721 17.0232 9.16631 17.068 9.36894 17.0992C9.25204 17.3291 8.40643 17.5318 8.46099 17.711C8.51554 17.8903 8.30511 18.0637 8.75519 17.9468C8.93875 17.8958 9.11955 17.8353 9.29685 17.7656C9.64367 18.1338 10.0762 18.5196 10.0762 18.5196C9.85138 18.4994 9.6318 18.4401 9.4274 18.3442C9.15462 18.1962 8.80001 18.0052 8.84287 18.241C8.88574 18.4767 8.76299 18.6969 8.42981 18.5644C8.11427 18.4484 7.78791 18.3642 7.45561 18.3131C7.37767 18.3131 6.94512 18.1182 7.06593 18.2702C7.18673 18.4222 6.9685 18.5352 6.9685 18.5352C6.9685 18.5352 5.12531 18.6092 5.71178 18.8002C5.99942 18.8876 6.29629 18.9413 6.59636 18.9599C6.46776 19.0028 6.37619 19.0476 6.3606 19.0944C5.86376 18.9677 5.49551 18.8995 5.71178 19.0223C6.24175 19.3301 7.07567 19.9049 7.07567 19.9049C7.07567 19.9049 5.95728 20.1699 6.60415 20.3472C7.25102 20.5245 8.55256 20.5245 8.89938 20.6122C9.15276 20.689 9.39126 20.8082 9.6047 20.9649C9.0949 21.0368 8.58949 21.137 8.09079 21.2649C8.06052 21.2449 8.03521 21.2182 8.01675 21.187C7.96414 21.0701 7.91348 21.1753 7.8862 21.337C7.73228 21.4032 7.69136 21.4714 7.86867 21.5318C7.86867 21.6975 7.88815 21.8611 7.9583 21.8962C8.13365 21.9839 5.1935 21.1012 5.72152 21.4091C6.24954 21.7169 7.08541 22.2937 7.08541 22.2937C7.08541 22.2937 5.96702 22.5587 6.61389 22.736C6.70352 22.7593 6.80874 22.7808 6.91395 22.7983C6.86134 22.9931 6.85355 23.3828 6.96656 23.4432C7.14386 23.5309 4.20371 22.6463 4.73173 22.9561C5.25975 23.2659 6.09562 23.8407 6.09562 23.8407C6.09562 23.8407 4.97723 24.1057 5.6241 24.283C6.09951 24.4116 6.92174 24.4467 7.46535 24.4895L7.53549 24.6142L8.3246 24.9396C7.89925 25.0033 7.47776 25.0905 7.06203 25.2007C7.03255 25.1795 7.00797 25.1523 6.98994 25.1208C6.93733 25.0058 6.88667 25.1111 6.85939 25.2708C6.70547 25.339 6.66455 25.4072 6.84186 25.4657C6.84186 25.6313 6.85939 25.793 6.92954 25.8281C7.10684 25.9177 4.16669 25.0331 4.69471 25.3429C5.22273 25.6527 6.0586 26.2256 6.0586 26.2256C6.0586 26.2256 4.94021 26.4925 5.58708 26.6678C6.06249 26.7984 6.88472 26.8335 7.42833 26.8763L7.49847 26.9991L8.33434 27.3264C7.72644 27.4238 6.26903 27.6849 6.88083 27.8622C7.47257 28.0003 8.07598 28.0825 8.6831 28.1077C8.45709 28.2051 8.20964 28.3162 8.0148 28.4234L7.35234 28.5247C7.27253 28.6011 7.1983 28.6831 7.13022 28.7702C6.45997 28.6455 5.02984 28.0181 4.94021 27.8174C4.82331 27.5524 4.70445 28.437 4.88176 28.5247C5.05906 28.6124 2.11697 27.7297 2.64693 28.0376C3.1769 28.3454 3.99913 28.9221 3.99913 28.9221C3.99913 28.9221 2.88074 29.1871 3.52762 29.3644C4.17449 29.5417 5.47602 29.5417 5.82284 29.6294C6.07622 29.7062 6.31472 29.8254 6.52816 29.9821C6.01837 30.054 5.51295 30.1542 5.01425 30.2821C4.98399 30.2621 4.95867 30.2355 4.94021 30.2042C4.88955 30.0873 4.83695 30.1925 4.80967 30.3542C4.65769 30.4205 4.61483 30.4887 4.79213 30.5491C4.79213 30.7147 4.81162 30.8783 4.88176 30.9134C5.05712 31.0011 2.11697 30.1165 2.64693 30.4263C3.1769 30.7361 3.99913 31.3109 3.99913 31.3109C3.99913 31.3109 2.88074 31.5759 3.52762 31.7532C4.17449 31.9305 5.47602 31.9285 5.82284 32.0182C6.07622 32.0949 6.31472 32.2142 6.52816 32.3708L5.69425 32.1039ZM25.153 19.1587C25.4206 19.2097 25.6914 19.2416 25.9635 19.2542L25.4433 19.3964C25.3362 19.299 25.2092 19.2259 25.0712 19.1821L25.153 19.1587ZM23.6352 19.4743L23.5495 19.5074L23.5358 19.4899L23.6352 19.4743ZM21.979 13.1342H22.246C22.2226 13.1615 22.2031 13.1868 22.1856 13.2102L21.9771 13.142C21.9765 13.1399 21.9756 13.138 21.9742 13.1363C21.9729 13.1346 21.9712 13.1333 21.9693 13.1323L21.979 13.1342ZM21.1101 13.6564H21.1315H21.1081H21.1101ZM10.7153 13.2082L10.6568 13.1323H10.9218L10.7153 13.2082ZM11.7694 13.6583H11.7908H11.7694ZM7.4595 19.3944L6.93928 19.2522C7.21138 19.2397 7.48224 19.2078 7.74982 19.1567L7.8336 19.1801C7.69459 19.223 7.56682 19.2962 7.4595 19.3944ZM9.35336 19.5055L9.26763 19.4724L9.367 19.488L9.35336 19.5055ZM9.72745 17.7734C9.65341 17.7383 9.58132 17.7071 9.51702 17.6798C9.71186 17.6 9.85215 17.5357 9.85215 17.5357C9.79992 17.6088 9.75796 17.6888 9.72745 17.7734ZM8.40058 25.8417C8.24861 25.7852 8.09468 25.7248 7.94661 25.6625C8.21743 25.6897 8.47462 25.7092 8.67336 25.7209L8.40058 25.8417ZM8.59543 23.5251C8.06568 23.3523 7.55768 23.1189 7.08151 22.8295C7.74787 22.9152 8.59543 22.9308 8.8721 23.0009C9.12548 23.0777 9.36398 23.197 9.57742 23.3536C9.57742 23.3536 9.07668 23.4257 8.59543 23.5251ZM10.5205 22.0716C10.5555 22.3112 9.68069 22.0404 8.95004 21.7286C9.53456 21.791 10.0489 21.8066 10.0489 21.8066C10.0489 21.8066 10.3042 21.8592 10.5984 21.9313C10.5839 21.9351 10.5703 21.9418 10.5585 21.951C10.5466 21.9602 10.5367 21.9717 10.5295 21.9848C10.5222 21.9979 10.5176 22.0123 10.5161 22.0272C10.5145 22.0422 10.516 22.0572 10.5205 22.0716ZM10.3431 15.7275C10.187 15.6276 10.0257 15.5359 9.85994 15.4528C10.0894 15.4899 10.3212 15.5114 10.5536 15.5171V15.5327C10.5692 15.56 10.5867 15.595 10.6042 15.6321L10.3431 15.7275ZM12.7767 13.937L12.7144 13.9175L12.5332 13.8006C12.6695 13.7129 12.8215 13.6057 12.956 13.5258L12.7767 13.937ZM15.0252 4.37612L14.9239 4.31767C14.9589 4.31767 14.9921 4.33521 15.0271 4.34105C15.0271 4.35274 15.0252 4.36443 15.0252 4.37612ZM17.866 4.34105C17.901 4.34105 17.9341 4.32546 17.9692 4.31767L17.8679 4.37612C17.8679 4.36443 17.866 4.35274 17.866 4.34105ZM20.1183 13.937L19.9391 13.5258C20.0735 13.6155 20.2255 13.7207 20.3619 13.8006L20.1787 13.9175L20.1183 13.937ZM24.9387 25.6625C24.7906 25.7248 24.6367 25.7852 24.4847 25.8417L24.2119 25.7209C24.4185 25.719 24.6756 25.6897 24.9387 25.6625ZM23.3683 17.674C23.304 17.7013 23.2319 17.7325 23.1578 17.7675C23.1264 17.6834 23.0845 17.6035 23.0331 17.5298C23.0331 17.5298 23.1851 17.6 23.38 17.6798L23.3683 17.674ZM22.3278 15.5307V15.5152C22.5602 15.5095 22.792 15.488 23.0214 15.4509C22.8557 15.534 22.6944 15.6257 22.5382 15.7256L22.2713 15.6301C22.3025 15.5873 22.32 15.56 22.3356 15.5327L22.3278 15.5307ZM22.3668 22.0696C22.3712 22.0553 22.3727 22.0402 22.3712 22.0253C22.3696 22.0104 22.3651 21.9959 22.3578 21.9828C22.3505 21.9697 22.3406 21.9582 22.3288 21.949C22.3169 21.9398 22.3033 21.9331 22.2888 21.9293C22.585 21.8572 22.8383 21.8046 22.8383 21.8046C22.8383 21.8046 23.3585 21.789 23.9372 21.7267C23.2143 22.0404 22.3395 22.3112 22.3746 22.0716L22.3668 22.0696ZM23.3079 23.3517C23.5213 23.195 23.7598 23.0758 24.0132 22.999C24.2899 22.9289 25.1374 22.9133 25.8038 22.8275C25.3276 23.1169 24.8196 23.3503 24.2899 23.5231C23.8164 23.4257 23.3157 23.3536 23.3157 23.3536L23.3079 23.3517ZM25.5427 30.9095H25.5174L25.8953 30.8238C25.8953 30.8238 26.4175 30.8082 26.9962 30.7459L25.5427 30.9095Z" fill="#005938"/>
<path d="M9.29395 35.4611C9.29395 35.4611 10.2935 36.9594 11.897 35.7202C11.897 35.7222 10.3967 34.2375 9.29395 35.4611Z" fill="#237B3A"/>
<path d="M9.03088 27.2773C9.03088 27.2773 10.0304 28.7776 11.634 27.5384C11.634 27.5306 10.1317 26.0439 9.03088 27.2773Z" fill="#237B3A"/>
<path d="M9.40308 31.9267C9.40308 31.9267 10.4026 33.427 12.0061 32.1878C12.0061 32.1878 10.5039 30.7012 9.40308 31.9267Z" fill="#237B3A"/>
<path d="M13.7714 20.7988C13.7714 20.7988 14.7709 22.2991 16.3744 21.0599C16.3666 21.0599 14.8742 19.5733 13.7714 20.7988Z" fill="#237B3A"/>
<path d="M17.6779 24.6082C17.6779 24.6082 19.3964 25.1576 19.8737 23.1858C19.8737 23.1858 17.7753 22.9637 17.6779 24.6082Z" fill="#237B3A"/>
<path d="M16.7387 13.7696C16.7387 13.7696 18.5429 13.789 18.4221 11.7666C18.4221 11.7666 16.349 12.168 16.7387 13.7696Z" fill="#237B3A"/>
<path d="M21.6819 36.0615C21.6819 36.0615 23.2621 36.5389 23.1335 34.8204C23.1335 34.8204 21.3195 34.6256 21.6819 36.0615Z" fill="#237B3A"/>
<path d="M17.713 16.6942C17.713 16.6942 17.5064 18.4847 19.5308 18.5763C19.5308 18.5763 19.3457 16.472 17.713 16.6942Z" fill="#237B3A"/>
<path d="M11.593 18.4334C11.593 18.4334 13.3641 18.7647 13.5979 16.752C13.5979 16.7558 11.4956 16.789 11.593 18.4334Z" fill="#237B3A"/>
<path d="M14.6267 26.4747C14.6267 26.4747 14.6267 28.125 16.2361 27.5035C16.2361 27.5035 15.8971 25.7187 14.6267 26.4747Z" fill="#237B3A"/>
<path d="M18.3677 27.9171C18.3677 27.9171 18.6229 29.7018 20.6044 29.281C20.6044 29.2751 19.8913 27.2878 18.3677 27.9171Z" fill="#237B3A"/>
<path d="M16.3335 32.8711C16.3335 32.8711 16.5887 34.6558 18.5703 34.235C18.5703 34.2311 17.8572 32.2418 16.3335 32.8711Z" fill="#237B3A"/>
<path d="M5.98352 34.4092C5.98352 34.4092 6.98305 35.9094 8.58659 34.6703C8.58659 34.6703 7.08632 33.1836 5.98352 34.4092Z" fill="#237B3A"/>
<path d="M11.0573 23.3496C11.0573 23.3496 12.0568 24.8499 13.6603 23.6107C13.6603 23.6107 12.16 22.124 11.0573 23.3496Z" fill="#237B3A"/>
<path d="M13.9214 15.081C13.9214 15.081 14.9209 16.5813 16.5245 15.3421C16.5245 15.3421 15.0242 13.8555 13.9214 15.081Z" fill="#237B3A"/>
<path d="M21.2903 26.5647C21.2903 26.5647 23.0068 27.1122 23.4881 25.1443C23.4881 25.1443 21.3877 24.9183 21.2903 26.5647Z" fill="#237B3A"/>
<path d="M21.4325 32.344C21.4325 32.344 22.8782 33.4215 23.9654 31.7147C23.9654 31.7108 22.0579 30.8145 21.4325 32.344Z" fill="#237B3A"/>
<path d="M25.7443 36.5133C25.7443 36.5133 27.5271 36.7861 27.6927 34.7598C27.6927 34.7656 25.5826 34.8767 25.7443 36.5133Z" fill="#237B3A"/>
<path d="M13.3486 30.0858C13.3486 30.0858 13.1421 31.8763 15.1664 31.9679C15.1664 31.9679 14.9833 29.8636 13.3486 30.0858Z" fill="#237B3A"/>
<path d="M16.0899 38.1717C16.0899 38.1717 17.861 38.5029 18.0929 36.4902C18.0929 36.4902 15.9769 36.5273 16.0899 38.1717Z" fill="#237B3A"/>
<path d="M19.1139 19.5253C19.1139 19.5253 19.3711 21.3081 21.3507 20.8892C21.3507 20.8833 20.6375 18.8998 19.1139 19.5253Z" fill="#237B3A"/>
<path d="M14.1532 10.0108C14.1532 10.0108 14.4084 11.7956 16.39 11.3747C16.39 11.3689 15.6769 9.3815 14.1532 10.0108Z" fill="#237B3A"/>
<path d="M15.2814 5.78878C15.2814 5.78878 15.5366 7.57352 17.5162 7.15266C17.5162 7.14682 16.805 5.15749 15.2814 5.78878Z" fill="#237B3A"/>
</svg>
