<svg width="37" height="55" viewBox="0 0 37 55" fill="none" xmlns="http://www.w3.org/2000/svg">
<path d="M19.6707 39.9004H16.5116V55.0017H19.6707V39.9004Z" fill="#B48845"/>
<g style="mix-blend-mode:multiply" opacity="0.1">
<g style="mix-blend-mode:multiply" opacity="0.1">
<path d="M19.6471 41.2812H18.5626V55.0023H19.6471V41.2812Z" fill="#231815"/>
</g>
</g>
<path d="M6.26395 35.3143C6.11607 35.1278 5.58883 35.5415 5.64026 35.8973C5.46227 35.9256 5.29342 35.9953 5.14732 36.1009C4.44004 35.8372 3.67919 35.4579 3.61275 35.3143C3.48201 35.0228 3.35342 35.9958 3.54845 36.0923C3.74349 36.1887 0.507183 35.2178 1.09015 35.5586C1.3752 35.7258 1.73312 35.9637 2.03746 36.163C0.965838 36.0966 -0.418701 36.0344 0.119254 36.1887C0.65721 36.343 1.55523 36.5274 2.17892 36.6495C1.89815 36.7503 1.63667 36.9003 2.05889 37.016L2.12105 37.031C1.83171 37.2453 1.71169 37.4597 2.18963 37.5025C2.7026 37.5489 3.21822 37.4493 3.67705 37.2153C3.98087 37.2271 4.28366 37.2579 4.58364 37.3075C4.86161 37.3922 5.12322 37.5233 5.35736 37.6954C4.79586 37.7745 4.23918 37.8847 3.68991 38.0255C3.65767 38.0029 3.63064 37.9737 3.61061 37.9398C3.55274 37.8112 3.49701 37.9269 3.46701 38.1048C3.29769 38.1777 3.25268 38.2527 3.44772 38.3191C3.44772 38.5013 3.46701 38.6813 3.54631 38.7199C3.7392 38.8164 0.505039 37.8455 1.088 38.1841C1.37306 38.3534 1.73098 38.5913 2.03532 38.7885C0.963695 38.7242 -0.420844 38.662 0.117111 38.8164C0.655067 38.9707 1.55309 39.155 2.17677 39.2771C1.89601 39.3779 1.63453 39.5279 2.05675 39.6436L2.11891 39.6586C1.82957 39.873 1.70955 40.0873 2.18749 40.128C2.70029 40.176 3.21617 40.0771 3.6749 39.843C3.97873 39.8547 4.28152 39.8855 4.5815 39.9351C4.86007 40.0189 5.12242 40.1494 5.35736 40.3209C5.35736 40.3209 2.63972 40.711 3.47987 40.9639C4.32002 41.2168 5.87388 41.2554 5.87388 41.2554C5.87388 41.2554 7.75136 41.6454 7.42773 41.7912C7.1041 41.9369 5.09802 42.2198 6.32825 42.5199C7.55847 42.8199 9.43382 42.8607 9.62671 42.8607C9.72958 42.8607 10.3383 43.3472 10.8891 43.0278C10.5783 43.6279 10.1518 44.646 10.9855 44.3674C12.1515 43.9773 12.085 43.0064 12.2715 43.0064C12.5409 42.8845 12.7908 42.7234 13.013 42.5285L12.983 43.1028C12.983 43.1028 12.0764 43.9301 12.983 43.9301C13.8896 43.9301 13.9539 42.8585 14.4062 43.345C14.8584 43.8316 14.2133 44.4638 14.7298 44.3181C14.9302 44.2567 15.1224 44.171 15.302 44.063C15.1642 44.2102 15.0616 44.3869 15.002 44.5795C14.9398 45.289 16.1165 44.8967 16.753 43.7051C16.7515 44.0553 16.7838 44.4048 16.8495 44.7489C17.0638 45.8569 17.5996 45.2954 18.0925 44.676C18.5876 45.2954 19.1256 45.8569 19.3378 44.7489C19.4034 44.4048 19.4357 44.0553 19.4342 43.7051C20.0772 44.8967 21.2474 45.289 21.1853 44.5795C21.1228 44.3834 21.0157 44.2044 20.8723 44.0566C21.052 44.1646 21.2442 44.2503 21.4446 44.3116C21.9611 44.4574 21.3138 43.8251 21.7682 43.3386C22.2226 42.8521 22.2847 43.9237 23.1913 43.9237C24.0979 43.9237 23.1913 43.0964 23.1913 43.0964L23.1613 42.522C23.3836 42.717 23.6335 42.8781 23.9029 43C24.0958 43 24.0315 43.9709 25.1888 44.3609C26.0226 44.6396 25.5961 43.6215 25.2853 43.0214C25.8361 43.3407 26.4448 43.6794 26.5477 43.6794C26.7406 43.6794 28.618 42.8049 29.8461 42.5135C31.0742 42.222 29.0703 41.9305 28.7466 41.7848C28.423 41.639 30.3005 41.2489 30.3005 41.2489C30.3005 41.2489 31.8522 41.1996 32.6924 40.9575C33.5325 40.7153 30.817 40.3145 30.817 40.3145C31.0518 40.1422 31.3142 40.011 31.5929 39.9266C31.8921 39.877 32.1942 39.8463 32.4973 39.8344C32.9601 40.0703 33.4806 40.1692 33.9976 40.1194C34.4755 40.0787 34.3555 39.8708 34.0662 39.6501L34.1283 39.6351C34.557 39.5193 34.2891 39.3693 34.0083 39.2686C34.632 39.1464 35.5493 38.9578 36.068 38.8078C36.5866 38.6578 35.2107 38.7156 34.139 38.7799C34.4348 38.5827 34.8013 38.3513 35.0864 38.1755C35.6693 37.8369 32.4352 38.8078 32.6281 38.7113C32.7074 38.6728 32.7331 38.497 32.7266 38.3105C32.9195 38.2462 32.8767 38.1712 32.7074 38.0962C32.6774 37.9183 32.6216 37.8026 32.5638 37.9312C32.5437 37.9651 32.5167 37.9943 32.4845 38.0169C31.9352 37.8761 31.3785 37.7659 30.817 37.6869C31.0518 37.5146 31.3142 37.3834 31.5929 37.2989C31.8921 37.2494 32.1942 37.2186 32.4973 37.2068C32.9602 37.4425 33.4804 37.5421 33.9976 37.494C34.4755 37.4511 34.3555 37.2432 34.0662 37.0225L34.1283 37.0075C34.557 36.8917 34.2891 36.7417 34.0083 36.641C34.632 36.5188 35.5493 36.3323 36.068 36.1802C36.5866 36.028 35.2107 36.088 34.139 36.1544C34.4348 35.9551 34.8013 35.7258 35.0864 35.55C35.6693 35.2093 32.4352 36.1802 32.6281 36.0837C32.821 35.9873 32.6924 35.0121 32.5638 35.3057C32.4973 35.4557 31.7365 35.8287 31.0292 36.0923C30.8829 35.9872 30.7141 35.9175 30.5362 35.8887C30.5877 35.5329 30.0604 35.1192 29.9126 35.3057C29.7256 35.4537 29.5136 35.5669 29.2867 35.6401L29.006 35.5972C29.2408 35.4249 29.5031 35.2937 29.7818 35.2093C30.1698 35.1107 31.5929 35.1107 32.3044 34.9178C33.016 34.7249 31.7879 34.4313 31.7879 34.4313C31.7879 34.4313 32.6924 33.799 33.2753 33.4582C33.8583 33.1175 30.622 34.0905 30.817 33.994C30.8942 33.9555 30.9199 33.7797 30.9156 33.5933C31.1064 33.529 31.0635 33.4539 30.8963 33.3789C30.8663 33.201 30.8106 33.0853 30.7527 33.2139C30.7324 33.2483 30.7046 33.2776 30.6713 33.2996C30.1227 33.1589 29.5667 33.0487 29.006 32.9696C29.2408 32.7973 29.5031 32.6661 29.7818 32.5816C30.1698 32.4852 31.5929 32.4852 32.3044 32.2902C33.016 32.0951 31.7879 31.8036 31.7879 31.8036C31.7879 31.8036 32.6924 31.1714 33.2753 30.8306C33.8583 30.4898 30.622 31.4629 30.817 31.3664C31.012 31.27 30.8813 30.2948 30.7527 30.5884C30.6541 30.8027 29.081 31.4993 28.3437 31.6365C28.2688 31.5407 28.1872 31.4505 28.0994 31.3664L27.3685 31.255C27.1542 31.1371 26.8842 31.0149 26.6355 30.9078C27.3034 30.8799 27.9671 30.7895 28.618 30.6377C29.291 30.4427 27.6879 30.1555 27.0192 30.0483L27.9386 29.6883L28.0158 29.5532C28.6138 29.5061 29.5161 29.4675 30.0412 29.3239C30.7527 29.131 29.5225 28.8374 29.5225 28.8374C29.5225 28.8374 30.4291 28.2073 31.012 27.8665C31.595 27.5257 28.3587 28.5095 28.5537 28.4002C28.6309 28.3616 28.6566 28.1858 28.6502 28.0015C28.8431 27.9372 28.8002 27.8622 28.6309 27.7872C28.6009 27.6115 28.5452 27.4957 28.4873 27.6222C28.4675 27.6568 28.4404 27.6868 28.408 27.71C27.9527 27.5924 27.4912 27.5001 27.0256 27.4336L27.9451 27.0756L28.0222 26.9385C28.6202 26.8913 29.5225 26.8527 30.0476 26.7113C30.7591 26.5163 29.5289 26.2248 29.5289 26.2248C29.5289 26.2248 30.4355 25.5818 31.0185 25.2517C31.6014 24.9217 28.3651 25.8947 28.5602 25.7876C28.6845 25.7233 28.6759 25.2946 28.618 25.0781C28.7381 25.0588 28.8495 25.0353 28.9481 25.0096C29.6597 24.8145 28.4294 24.523 28.4294 24.523C28.4294 24.523 29.336 23.8801 29.919 23.55C30.502 23.2199 27.2656 24.193 27.4585 24.0858C27.5357 24.0472 27.5636 23.8715 27.5571 23.685C27.75 23.6207 27.7072 23.5457 27.5378 23.4707C27.5078 23.2928 27.4521 23.1771 27.3942 23.3057C27.3739 23.34 27.3461 23.3694 27.3128 23.3914C26.7642 23.2507 26.2083 23.1405 25.6475 23.0613C25.8823 22.889 26.1446 22.7579 26.4234 22.6734C26.8113 22.577 28.2365 22.577 28.9481 22.3819C29.6597 22.1869 28.4294 21.8954 28.4294 21.8954C28.4294 21.8954 29.336 21.2524 29.919 20.9245C30.1569 20.7831 29.7518 20.8645 29.2031 21.0038C29.1881 20.9524 29.0874 20.9031 28.946 20.8559C29.276 20.8354 29.6026 20.7764 29.919 20.6802C30.562 20.4659 28.5366 20.3887 28.5366 20.3887C28.5366 20.3887 28.3008 20.2751 28.4294 20.0972C28.558 19.9193 28.0844 20.1444 28.0008 20.1444C27.6352 20.2003 27.2762 20.293 26.9292 20.4209C26.5627 20.5666 26.4319 20.3244 26.4748 20.0651C26.5177 19.8057 26.1297 20.0158 25.8318 20.1787C25.6077 20.284 25.3669 20.3492 25.1203 20.3716C25.1203 20.3716 25.5896 19.9429 25.9776 19.5421C26.1747 19.6171 26.3891 19.6922 26.5734 19.7415C27.0685 19.87 26.8306 19.6922 26.897 19.4821C26.9635 19.2721 26.0269 19.0535 25.8983 18.8091C26.1126 18.7748 26.4448 18.7256 26.7277 18.6784C27.0449 18.7898 27.7586 19.0106 27.9751 18.8499C28.138 18.7256 27.8529 18.5755 27.5871 18.4705L27.6772 18.4448C28.138 18.5305 28.8238 18.6205 29.1389 18.4769C29.321 18.3933 29.1967 18.3076 28.9652 18.2326C29.2953 18.2102 29.6217 18.1505 29.9383 18.0547C30.5813 17.8404 28.5559 17.7632 28.5559 17.7632C28.5559 17.7632 28.3201 17.6496 28.4487 17.4718C28.5773 17.2939 28.1037 17.521 28.0201 17.521C27.6545 17.576 27.2955 17.6679 26.9484 17.7954C26.582 17.9411 26.4512 17.6989 26.4941 17.4396C26.5369 17.1803 26.149 17.3903 25.8511 17.5532C25.7872 17.5874 25.7206 17.6161 25.6518 17.6389C25.5811 17.6003 25.491 17.5575 25.3903 17.5146C25.5746 17.3389 25.8318 17.086 26.0461 16.8566C26.2605 16.6273 25.9926 16.7088 25.6518 16.8566C25.4246 16.7623 24.1858 16.7023 23.4335 16.6616C23.4167 16.5834 23.396 16.5062 23.3714 16.4301C23.2835 16.1537 23.0027 16.3465 22.7584 16.5737C22.6569 16.5348 22.5616 16.4814 22.4755 16.4151L22.3598 16.0744L22.4905 16.0122L22.7048 15.9586C22.7048 15.9586 22.8098 15.9093 23.0092 15.8257C23.1386 15.9095 23.2568 16.0096 23.3606 16.1236C23.575 16.3701 24.1687 16.6359 24.4323 16.5094C24.6959 16.383 23.2942 15.7121 23.2942 15.7121C23.4442 15.6543 23.62 15.5921 23.8236 15.5257C23.9061 15.5904 23.9828 15.6621 24.0529 15.74C24.2672 15.9865 24.8609 16.2522 25.1245 16.1258C25.3389 16.0272 24.5266 15.6007 24.1601 15.4164L24.3165 15.3692C24.5041 15.4113 24.6861 15.4754 24.8588 15.56C25.1824 15.7229 25.8725 15.7872 26.044 15.5921C26.1254 15.5 25.8061 15.4099 25.4439 15.3392C25.5668 15.3108 25.6832 15.2592 25.7868 15.187C25.834 15.1549 25.7868 15.0992 25.6646 15.0349L25.7868 15.0092C27.7264 14.6191 25.3324 14.6041 25.0945 14.7177L25.011 14.7477C24.9445 14.7198 24.8759 14.6962 24.8095 14.6705C24.8674 14.5891 24.9252 14.5012 24.9767 14.4176C25.1848 14.4038 25.3909 14.3686 25.5918 14.3126C25.8061 14.2462 25.5425 14.1947 25.1117 14.1519C25.1417 14.0511 25.1117 14.0061 24.9659 14.0704C24.9252 14.0867 24.8858 14.106 24.8481 14.1283L24.2051 14.0854C24.1858 14.0468 24.1494 14.0318 24.0894 14.0533L24.0401 14.0747L23.4914 14.0447C23.3033 13.8506 23.0719 13.7037 22.8163 13.616C22.9213 13.5818 23.0306 13.5453 23.1678 13.5003C23.2193 13.4827 23.2695 13.4612 23.3178 13.436L23.3606 13.5025C23.575 13.7489 24.1687 14.0147 24.4323 13.8882C24.6166 13.8004 23.9779 13.4403 23.575 13.2453C23.6813 13.1629 23.7758 13.0663 23.8557 12.9581C23.9197 13.0109 23.9792 13.069 24.0336 13.1317C24.248 13.376 24.8416 13.6418 25.1053 13.5153C25.3196 13.4189 24.5073 12.9902 24.1408 12.8059L24.2973 12.7588C24.4846 12.8019 24.6664 12.8659 24.8395 12.9495C25.1631 13.1124 25.8532 13.1767 26.0247 12.9816C26.1576 12.8338 25.2339 12.6859 24.7881 12.6237C25.086 12.5466 25.4117 12.4694 25.7675 12.3987C27.7072 12.0108 25.3132 11.9936 25.0752 12.1072C24.9494 12.1519 24.8195 12.1842 24.6873 12.2036C24.9252 11.88 25.3303 11.2928 24.9467 11.4599C24.6406 11.5935 24.3948 11.8355 24.2565 12.1394L24.1108 12.2915L24.0015 12.3065C24.1236 11.9872 24.3401 11.3442 24.0615 11.4492C23.695 11.58 23.6521 12.0643 23.5878 12.1308C23.5557 12.1608 23.4442 12.2829 23.3371 12.403L23.1978 12.4223C23.2856 12.1565 23.3821 11.7664 23.1356 11.8543C22.8824 11.9803 22.683 12.1934 22.5741 12.4544L22.1861 12.703C21.9997 12.7652 21.8132 12.8295 21.646 12.8788C21.3867 12.7866 20.9495 12.6152 21.2174 12.6152C21.5839 12.6152 21.9933 12.5359 21.7146 12.3901C21.6283 12.3462 21.5387 12.309 21.4467 12.2787C21.7125 12.1844 21.9247 12.1115 21.9825 12.0986C22.2864 11.9598 22.5788 11.7971 22.857 11.6121L22.9534 11.52C23.3092 11.5971 23.5964 11.625 23.4614 11.4342C23.4026 11.3553 23.33 11.2878 23.2471 11.2349C23.4778 11.0202 23.6763 10.7734 23.8365 10.5019C23.8536 10.459 23.8365 10.4398 23.7786 10.4355C23.935 10.2662 24.0058 10.1054 23.8793 10.0583C23.6929 9.98753 22.9792 10.3583 22.5934 10.5748C22.7884 10.3369 23.0349 9.97039 22.6984 9.95967C22.5339 9.95676 22.3713 9.99433 22.2248 10.0691C22.0783 10.1438 21.9524 10.2535 21.8582 10.3883C21.854 10.4294 21.8476 10.4701 21.8389 10.5105L21.5989 10.4033L21.5046 10.3755L21.5775 10.1204C21.5775 10.1204 21.7725 10.024 22.1604 9.87823C22.5484 9.73249 22.0618 9.5846 22.0618 9.5846C22.0618 9.5846 21.6911 9.6489 21.3846 9.67247C21.6868 9.56531 21.9332 9.47958 21.9975 9.45815C22.3014 9.31933 22.5938 9.15665 22.872 8.97163C22.872 8.97163 23.7121 8.19363 23.8429 7.87858C23.9007 7.73284 23.5171 7.84429 23.0842 8.00717C23.2408 7.86716 23.3576 7.68822 23.4228 7.48851C23.4528 7.19702 22.6448 7.80571 22.6448 7.80571L22.1604 7.85286L21.646 8.15506V7.87429L21.5882 7.85714C21.5663 7.81642 21.5389 7.77891 21.5067 7.7457L21.5818 7.48422C21.5818 7.48422 21.7768 7.38777 22.1647 7.24203C22.5526 7.09629 22.0661 6.95055 22.0661 6.95055C22.0661 6.95055 21.226 7.09629 21.0331 7.02342C20.8402 6.95055 20.9795 7.00199 20.9816 6.77052C21.1338 6.63121 21.196 6.51976 21.0759 6.49404C21.0382 6.4897 21.0001 6.4897 20.9624 6.49404C20.9859 6.22185 21.301 6.31615 21.391 6.29472C21.481 6.27328 21.974 6.22185 21.974 6.22185C21.974 6.22185 22.5891 5.78248 22.6855 5.73533C22.782 5.68818 23.3971 5.15237 23.4314 4.85874C23.4657 4.56512 22.6534 5.17594 22.6534 5.17594L22.169 5.22309L21.5539 5.58959C21.5539 5.58959 21.4896 5.29596 21.586 5.27239C21.6825 5.24881 21.2474 4.88446 21.1188 4.71514C20.9902 4.54583 20.4758 5.22524 20.4758 5.22524L19.7643 5.42027C20.2251 5.06449 20.4908 4.6187 20.3665 4.53725C20.9131 4.27363 21.2731 3.91786 21.0695 3.87285C20.9259 3.83856 20.4887 3.95643 20.0665 4.08717C20.2323 3.88221 20.36 3.6492 20.4437 3.39919C20.5723 2.91267 19.7643 3.69067 19.4406 3.98215L19.3485 4.06574C19.3171 3.90051 19.3042 3.73231 19.3099 3.56422C20.1822 3.41634 20.9945 2.83337 20.7266 2.75622C20.5616 2.70692 19.985 2.84195 19.4921 2.97054C20.1715 2.57833 20.5873 1.89892 20.3129 1.89892C20.0793 1.89892 19.3249 2.39186 18.922 2.6662C18.9203 2.31527 18.8996 1.96468 18.8598 1.61601L18.8877 1.48098C18.8877 1.48098 19.0827 0.83801 18.5319 1.02447C18.4895 1.04283 18.4542 1.07441 18.4312 1.11449C18.3369 0.428649 18.2169 0 18.0904 0C17.9639 0 17.8461 0.428649 17.7561 1.11449C17.7325 1.07406 17.6964 1.04244 17.6532 1.02447C17.1024 0.829437 17.2974 1.48098 17.2974 1.48098L17.3253 1.61601C17.2864 1.9633 17.2663 2.31245 17.2652 2.66191C16.8623 2.38758 16.1058 1.89463 15.8743 1.89463C15.6021 1.89463 16.0157 2.58261 16.6951 2.96625C16.2022 2.83552 15.6235 2.70049 15.4606 2.75193C15.1927 2.82909 16.0029 3.41205 16.8773 3.55993C16.8839 3.73159 16.8709 3.90343 16.8387 4.07217L16.7466 3.98858C16.423 3.6971 15.6149 2.91696 15.7435 3.40562C15.8263 3.65601 15.9542 3.88917 16.1208 4.0936C15.6921 3.95858 15.2635 3.8407 15.1177 3.87928C14.9034 3.92429 15.2742 4.28007 15.8207 4.54368C15.6964 4.62513 15.9622 5.07307 16.423 5.4267L15.7114 5.23167C15.7114 5.23167 15.1927 4.55226 15.0684 4.72157C14.9441 4.89089 14.5176 5.25739 14.6162 5.28096C14.7148 5.30454 14.6483 5.59816 14.6483 5.59816L14.0332 5.23167L13.5489 5.18452C13.5489 5.18452 12.7387 4.57583 12.7709 4.86731C12.803 5.1588 13.4138 5.69461 13.5167 5.7439C13.6196 5.7932 14.224 6.21542 14.224 6.21542C14.224 6.21542 14.7084 6.26257 14.8048 6.28829C14.9012 6.31401 15.2099 6.21542 15.2334 6.48761C15.1957 6.48323 15.1576 6.48323 15.1199 6.48761C15.0106 6.51333 15.062 6.62478 15.2142 6.76409C15.2142 6.99556 15.3278 6.95484 15.1627 7.01699C14.9977 7.07915 14.1297 6.94412 14.1297 6.94412C14.1297 6.94412 13.6432 7.08986 14.0311 7.2356C14.419 7.38134 14.614 7.47779 14.614 7.47779L14.6891 7.73927C14.6569 7.77248 14.6295 7.80999 14.6076 7.85072L14.5498 7.86786V8.14863L14.0311 7.84214L13.5446 7.80142C13.5446 7.80142 12.7344 7.19274 12.7666 7.48422C12.8318 7.68394 12.9486 7.86287 13.1052 8.00289C12.6766 7.84 12.2865 7.72855 12.3465 7.87429C12.4772 8.18935 13.3174 8.96735 13.3174 8.96735C13.5956 9.15237 13.888 9.31505 14.1918 9.45386C14.254 9.46887 14.5026 9.5546 14.8048 9.66819C14.4983 9.64461 14.1275 9.58032 14.1275 9.58032C14.1275 9.58032 13.641 9.72606 14.0289 9.87394C14.4169 10.0218 14.6119 10.1161 14.6119 10.1161L14.6848 10.3712L14.5905 10.399L14.359 10.5019C14.3503 10.4616 14.3439 10.4208 14.3397 10.3797C14.2456 10.2449 14.1197 10.1353 13.9732 10.0605C13.8267 9.98576 13.664 9.94819 13.4996 9.9511C13.1631 9.9511 13.4095 10.3283 13.6046 10.5662C13.2124 10.3519 12.4987 9.97896 12.3186 10.0497C12.1922 10.0968 12.2629 10.264 12.4194 10.4269C12.3679 10.4269 12.3443 10.4505 12.3615 10.4933C12.522 10.7589 12.7189 11.0006 12.9466 11.2113C12.8639 11.2646 12.7914 11.3321 12.7323 11.4106C12.5994 11.6014 12.8844 11.5735 13.2402 11.4964L13.3367 11.5885C13.6148 11.7736 13.9072 11.9362 14.2111 12.0751C14.269 12.0879 14.4812 12.1608 14.7469 12.2551C14.6549 12.2854 14.5654 12.3227 14.479 12.3665C14.2004 12.5123 14.6098 12.5916 14.9763 12.5916C15.242 12.5916 14.8048 12.763 14.5476 12.8552C14.3804 12.8059 14.194 12.7416 14.0054 12.6795L13.5981 12.4308C13.4892 12.1698 13.2898 11.9568 13.0366 11.8307C12.7901 11.7429 12.8866 12.1329 12.9745 12.3987L12.8352 12.3794C12.728 12.2594 12.6208 12.1372 12.5844 12.1072C12.5201 12.0408 12.4772 11.5564 12.1107 11.4257C11.8321 11.3271 12.0486 11.97 12.1707 12.283L12.0593 12.2679L11.9157 12.1158C11.7783 11.8113 11.5322 11.569 11.2256 11.4364C10.8441 11.2692 11.247 11.865 11.4849 12.1801C11.3528 12.1606 11.2228 12.1283 11.097 12.0836C10.8591 11.97 8.46507 11.9872 10.4047 12.3751C10.7605 12.4458 11.0863 12.523 11.3842 12.6002C10.9384 12.6623 10.0146 12.8145 10.1475 12.9581C10.319 13.1531 11.0048 13.0888 11.3327 12.9259C11.5059 12.8426 11.6878 12.7786 11.875 12.7352L12.0293 12.7823C11.6649 12.9666 10.8634 13.3953 11.067 13.4917C11.3284 13.6182 11.9243 13.3524 12.1386 13.1081C12.1936 13.046 12.253 12.988 12.3165 12.9345C12.3964 13.0427 12.4909 13.1393 12.5973 13.2217C12.2029 13.4253 11.5642 13.7854 11.74 13.8647C12.0014 13.9911 12.5973 13.7254 12.8116 13.4789L12.8823 13.4039C12.9305 13.4294 12.9806 13.4509 13.0323 13.4682C13.1609 13.5132 13.2788 13.5496 13.3838 13.5839C13.1281 13.6716 12.8968 13.8184 12.7087 14.0126L12.16 14.0426L12.1107 14.0211C12.0486 13.9997 12.0143 14.0211 11.995 14.0533L11.352 14.0961C11.3143 14.0739 11.2749 14.0545 11.2341 14.0383C11.0884 13.974 11.0584 14.019 11.0884 14.1197C10.6598 14.1626 10.3983 14.214 10.6083 14.2805C10.8092 14.3367 11.0153 14.3719 11.2234 14.3855C11.2749 14.4691 11.3327 14.5569 11.3906 14.6384L11.1763 14.7155L11.0948 14.6855C10.8569 14.5719 8.46292 14.5869 10.4026 14.977L10.5247 15.0027C10.4111 15.067 10.3554 15.1228 10.4026 15.1549C10.5061 15.227 10.6225 15.2787 10.7455 15.3071C10.3854 15.3778 10.0639 15.4678 10.1454 15.56C10.3168 15.755 11.0027 15.6907 11.3306 15.5278C11.5034 15.4435 11.6853 15.3795 11.8728 15.3371L12.0271 15.3842C11.6628 15.5685 10.8612 15.9951 11.0648 16.0936C11.3263 16.2201 11.9221 15.9543 12.1365 15.7079C12.2071 15.6305 12.2838 15.5588 12.3658 15.4935C12.5694 15.56 12.7451 15.6221 12.8952 15.68H12.8844C12.8844 15.68 11.4849 16.383 11.7464 16.503C12.0079 16.623 12.6037 16.3637 12.818 16.1172C12.9207 16.0003 13.0381 15.8973 13.1674 15.8107C13.3645 15.8943 13.4696 15.9436 13.4696 15.9436L13.6839 15.9972L13.8146 16.0594L13.731 16.4151C13.6452 16.4818 13.5498 16.5353 13.4481 16.5737C13.2038 16.3465 12.923 16.1451 12.8352 16.4301C12.8105 16.5062 12.7898 16.5834 12.773 16.6616C12.0207 16.7023 10.7819 16.7623 10.5547 16.8566C10.214 16.7045 9.96748 16.6423 10.1604 16.8566C10.3533 17.071 10.6319 17.3389 10.8162 17.5146C10.7155 17.5575 10.6276 17.6003 10.5547 17.6389C10.4854 17.6157 10.4181 17.587 10.3533 17.5532C10.0532 17.3903 9.66314 17.1803 9.71029 17.4396C9.75745 17.6989 9.62242 17.9411 9.25593 17.7954C8.90885 17.6681 8.54982 17.5762 8.1843 17.521C8.09857 17.521 7.62277 17.2939 7.75565 17.4718C7.88853 17.6496 7.64849 17.7632 7.64849 17.7632C7.64849 17.7632 5.62098 17.8447 6.26609 18.0547C6.58269 18.1505 6.90911 18.2102 7.23913 18.2326C7.00766 18.3076 6.88121 18.3933 7.06553 18.4769C7.37844 18.6205 8.06642 18.5305 8.52722 18.4448L8.61938 18.4705C8.35147 18.5755 8.06642 18.7256 8.22931 18.8499C8.44363 19.0106 9.15948 18.7898 9.47668 18.6784C9.75959 18.7256 10.0832 18.7748 10.3061 18.8091C10.1775 19.062 9.24735 19.2849 9.30736 19.4821C9.36737 19.6793 9.1359 19.87 9.63099 19.7415C9.83291 19.6853 10.0318 19.6188 10.2268 19.5421C10.6083 19.9472 11.0841 20.3716 11.0841 20.3716C10.8368 20.3494 10.5953 20.2841 10.3704 20.1787C10.0704 20.0158 9.68029 19.8057 9.72744 20.0651C9.77459 20.3244 9.63957 20.5666 9.27307 20.4209C8.92597 20.2932 8.56698 20.2006 8.20145 20.1444C8.11572 20.1444 7.63992 19.9301 7.7728 20.0972C7.90568 20.2644 7.66563 20.3887 7.66563 20.3887C7.66563 20.3887 5.63812 20.4702 6.28324 20.6802C6.59965 20.7764 6.9262 20.8354 7.25627 20.8559C7.11482 20.9031 7.01409 20.9524 6.99694 21.0038C6.45041 20.8645 6.04534 20.7895 6.28324 20.9245C6.8662 21.2632 7.78351 21.8954 7.78351 21.8954C7.78351 21.8954 6.55329 22.1869 7.26485 22.3819C7.97641 22.577 9.4081 22.577 9.78959 22.6734C10.0683 22.7579 10.3307 22.889 10.5655 23.0613C10.0047 23.1405 9.44872 23.2507 8.90015 23.3914C8.86686 23.3694 8.83901 23.34 8.8187 23.3057C8.76084 23.1771 8.70511 23.2928 8.67511 23.4707C8.50579 23.5436 8.46078 23.6186 8.65582 23.685C8.65582 23.8672 8.67725 24.0472 8.75441 24.0858C8.9473 24.1823 5.71313 23.2114 6.29396 23.55C6.87478 23.8886 7.79423 24.523 7.79423 24.523C7.79423 24.523 6.564 24.8145 7.27556 25.0096C7.37415 25.0353 7.48989 25.0588 7.60562 25.0781C7.54776 25.2925 7.53918 25.7211 7.66349 25.7876C7.85853 25.884 4.62436 24.911 5.20518 25.2517C5.78601 25.5925 6.70546 26.2248 6.70546 26.2248C6.70546 26.2248 5.47523 26.5163 6.18679 26.7113C6.70975 26.8527 7.6142 26.8913 8.21216 26.9385L8.28932 27.0756L9.15734 27.4336C8.68946 27.5037 8.22581 27.5995 7.76851 27.7208C7.73609 27.6975 7.70905 27.6675 7.68921 27.6329C7.63134 27.5064 7.57562 27.6222 7.54561 27.7979C7.3763 27.8729 7.33129 27.9479 7.52632 28.0122C7.52632 28.1944 7.54561 28.3723 7.62277 28.4109C7.81781 28.5095 4.58364 27.5364 5.16446 27.8772C5.74528 28.218 6.66474 28.8481 6.66474 28.8481C6.66474 28.8481 5.43451 29.1417 6.14607 29.3346C6.66902 29.4782 7.57348 29.5168 8.17144 29.564L8.2486 29.699L9.16805 30.059C8.49936 30.1662 6.89621 30.4534 7.56919 30.6484C8.2201 30.8004 8.88386 30.8908 9.55169 30.9185C9.30308 31.0256 9.03088 31.1478 8.81656 31.2657L8.08786 31.3771C8.00006 31.4612 7.91841 31.5515 7.84352 31.6472C7.10625 31.51 5.5331 30.8199 5.43451 30.5991C5.30592 30.3077 5.17518 31.2807 5.37021 31.3771C5.56525 31.4736 2.32894 30.5027 2.91191 30.8413C3.49487 31.18 4.39932 31.8144 4.39932 31.8144C4.39932 31.8144 3.1691 32.1058 3.88066 32.3009C4.59222 32.4959 6.02391 32.4959 6.4054 32.5924C6.68412 32.6768 6.94647 32.808 7.18126 32.9803C6.62048 33.0594 6.06453 33.1696 5.51596 33.3103C5.48267 33.2883 5.45482 33.259 5.43451 33.2246C5.37879 33.096 5.32092 33.2118 5.29091 33.3896C5.12374 33.4625 5.07659 33.5375 5.27163 33.604C5.27163 33.7861 5.29306 33.9662 5.37021 34.0048C5.56311 34.1012 2.32894 33.1282 2.91191 33.4689C3.49487 33.8097 4.39932 34.442 4.39932 34.442C4.39932 34.442 3.1691 34.7335 3.88066 34.9285C4.59222 35.1235 6.02391 35.1214 6.4054 35.22C6.68412 35.3044 6.94647 35.4356 7.18126 35.6079L6.26395 35.3143ZM27.6686 21.0746C27.9629 21.1307 28.2609 21.1658 28.5602 21.1796L27.9879 21.336C27.87 21.2289 27.7304 21.1485 27.5786 21.1003L27.6686 21.0746ZM25.999 21.4218L25.9047 21.4582L25.8897 21.4389L25.999 21.4218ZM24.1772 14.4476H24.4709C24.4451 14.4776 24.4237 14.5055 24.4044 14.5312L24.1751 14.4562C24.1745 14.4539 24.1734 14.4518 24.1719 14.4499C24.1704 14.4481 24.1686 14.4466 24.1665 14.4455L24.1772 14.4476ZM23.2213 15.022H23.2449H23.2192H23.2213ZM11.7871 14.5291L11.7228 14.4455H12.0143L11.7871 14.5291ZM12.9466 15.0242H12.9702H12.9466ZM8.20573 21.3339L7.63349 21.1774C7.9328 21.1636 8.23075 21.1285 8.52508 21.0724L8.61724 21.0981C8.46433 21.1453 8.32379 21.2258 8.20573 21.3339ZM10.289 21.456L10.1947 21.4196L10.304 21.4368L10.289 21.456ZM10.7005 19.5507C10.619 19.5121 10.5397 19.4778 10.469 19.4478C10.6833 19.36 10.8376 19.2892 10.8376 19.2892C10.7802 19.3697 10.734 19.4577 10.7005 19.5507ZM9.24092 28.4259C9.07375 28.3637 8.90443 28.2973 8.74155 28.2287C9.03946 28.2587 9.32237 28.2801 9.54098 28.293L9.24092 28.4259ZM9.45525 25.8776C8.87253 25.6875 8.31373 25.4308 7.78994 25.1124C8.52293 25.2067 9.45525 25.2239 9.75959 25.301C10.0383 25.3855 10.3007 25.5167 10.5354 25.689C10.5354 25.689 9.98463 25.7683 9.45525 25.8776ZM11.5728 24.2787C11.6114 24.5423 10.649 24.2444 9.84532 23.9015C10.4883 23.9701 11.0541 23.9872 11.0541 23.9872C11.0541 23.9872 11.3349 24.0451 11.6585 24.1244C11.6426 24.1286 11.6276 24.1359 11.6146 24.1461C11.6015 24.1562 11.5907 24.1688 11.5827 24.1832C11.5747 24.1977 11.5697 24.2136 11.568 24.23C11.5663 24.2464 11.5679 24.2629 11.5728 24.2787ZM11.3777 17.3003C11.2059 17.1904 11.0285 17.0895 10.8462 16.9981C11.0987 17.0389 11.3536 17.0626 11.6092 17.0688V17.086C11.6264 17.116 11.6456 17.1546 11.6649 17.1953L11.3777 17.3003ZM14.0547 15.3306L13.9861 15.3092L13.7868 15.1806C13.9368 15.0842 14.104 14.9663 14.2518 14.8784L14.0547 15.3306ZM16.528 4.81373L16.4165 4.74944C16.4551 4.74944 16.4915 4.76873 16.5301 4.77516C16.5301 4.78801 16.528 4.80087 16.528 4.81373ZM19.6528 4.77516C19.6914 4.77516 19.7278 4.75801 19.7664 4.74944L19.655 4.81373C19.655 4.80087 19.6528 4.78801 19.6528 4.77516ZM22.1304 15.3306L21.9332 14.8784C22.0811 14.977 22.2483 15.0927 22.3983 15.1806L22.1969 15.3092L22.1304 15.3306ZM27.4328 28.2287C27.2699 28.2973 27.1006 28.3637 26.9334 28.4259L26.6334 28.293C26.8606 28.2909 27.1435 28.2587 27.4328 28.2287ZM25.7054 19.4414C25.6346 19.4714 25.5553 19.5057 25.4739 19.5443C25.4393 19.4517 25.3932 19.3638 25.3367 19.2828C25.3367 19.2828 25.5039 19.36 25.7182 19.4478L25.7054 19.4414ZM24.5609 17.0838V17.0667C24.8165 17.0604 25.0714 17.0368 25.3239 16.996C25.1416 17.0874 24.9641 17.1883 24.7923 17.2981L24.4987 17.1931C24.533 17.146 24.5523 17.116 24.5694 17.086L24.5609 17.0838ZM24.6037 24.2766C24.6086 24.2608 24.6103 24.2442 24.6085 24.2278C24.6068 24.2114 24.6018 24.1955 24.5938 24.1811C24.5858 24.1667 24.575 24.154 24.5619 24.1439C24.5489 24.1338 24.534 24.1264 24.518 24.1222C24.8438 24.0429 25.1224 23.9851 25.1224 23.9851C25.1224 23.9851 25.6946 23.9679 26.3312 23.8994C25.536 24.2444 24.5737 24.5423 24.6123 24.2787L24.6037 24.2766ZM25.6389 25.6868C25.8737 25.5145 26.1361 25.3833 26.4148 25.2989C26.7191 25.2217 27.6514 25.2046 28.3844 25.1103C27.8606 25.4286 27.3018 25.6854 26.7191 25.8754C26.1983 25.7683 25.6475 25.689 25.6475 25.689L25.6389 25.6868ZM28.0972 34.0005H28.0694L28.4852 33.9062C28.4852 33.9062 29.0595 33.889 29.6961 33.8204L28.0972 34.0005Z" fill="#70A047"/>
</svg>
