<svg width="11" height="13" viewBox="0 0 11 13" fill="none" xmlns="http://www.w3.org/2000/svg">
<path d="M7.70129 9.12872C7.97549 8.24241 8.34133 7.36469 9.15318 6.83777C9.67795 6.49341 10.2872 6.30441 10.895 6.18557C10.1159 6.13793 9.33786 6.29438 8.63772 6.63946C7.85665 7.03035 7.45859 7.65392 7.18439 8.46005C7.04551 8.86526 6.92953 9.27835 6.81212 9.69072C6.72835 9.35137 6.825 8.93972 6.89373 8.6061C6.95764 8.24644 6.99378 7.88239 7.00183 7.51718C7.04694 6.63302 7.387 5.688 7.70559 4.87185C7.87383 4.43872 8.06713 3.98482 8.38929 3.63832C7.96618 3.80513 7.64115 4.29267 7.3734 4.64061C7.03018 5.08241 6.75529 5.57329 6.55796 6.09679C6.28806 6.82202 5.99453 7.58519 5.89359 8.35839C6.3482 6.13259 6.28806 4.29553 5.57214 2.05255C5.31204 1.3262 4.95953 0.636351 4.52331 0C4.55696 0.528351 4.81756 1.37815 4.93354 1.90006C5.28577 3.48439 5.26214 4.70003 5.23923 5.91853C5.21346 7.23439 5.18339 8.37915 5.0488 9.68857C4.79753 9.22131 4.6349 8.71158 4.56913 8.18514C4.48823 7.30241 4.2978 6.4612 4.2262 5.58419C4.15397 4.63684 4.19386 3.68427 4.34505 2.74628C4.40089 2.36755 4.41306 1.98024 4.56412 1.62371C3.98709 2.67612 3.69499 3.85954 3.56899 5.04367C3.50312 5.65722 3.60908 6.28651 3.64058 6.90077C3.66206 7.27878 3.81025 8.76217 3.94556 9.12013C3.62411 8.03981 2.46647 6.25644 0.891439 5.54052C1.75055 6.54281 2.18439 6.96234 2.56956 7.68829C3.18239 8.83376 3.32557 9.60123 3.46876 10.4603C2.94327 9.41008 2.27532 8.69416 1.33388 8.18227C2.0498 8.92397 2.54092 9.93056 2.78577 10.9278C2.88743 11.3402 2.6927 11.8643 2.84805 12.2401C3.03205 12.6869 3.52245 12.3582 3.86395 12.3976C4.36509 12.4563 4.5319 12.7334 4.99224 12.3139C5.26501 12.5494 5.68669 12.8816 5.95945 12.4406C6.14598 12.5533 6.36643 12.5961 6.58159 12.5616C7.10421 12.4506 7.05839 11.5886 7.14287 11.1934C7.29536 10.4911 7.49153 9.80813 7.70129 9.12872Z" fill="#34A746"/>
</svg>
