<svg width="11" height="10" viewBox="0 0 11 10" fill="none" xmlns="http://www.w3.org/2000/svg">
<path d="M7.23241 8.86182C7.38646 8.55464 7.564 8.2598 7.76344 7.97995C8.1035 7.50476 8.61612 6.95851 9.18204 6.7612C9.80696 6.54295 10.3925 6.45223 10.895 6.9547C10.4433 5.31087 8.54126 5.92311 7.73743 6.86778C8.56473 5.56655 8.58694 3.87007 7.90809 2.51808C8.10857 3.43992 7.73298 4.67009 7.44622 5.25504C6.99704 6.17307 6.73311 6.80371 6.24777 7.88098C6.4381 5.21634 6.16339 2.8905 8.65863 0C6.72613 1.04619 5.68312 3.11191 5.56575 5.27154C5.54354 5.68392 5.55813 6.10011 5.51689 6.51313C5.35384 6.20289 5.31958 5.73468 5.2314 5.38447C5.09817 4.85789 4.99983 4.64725 4.87231 3.88403C4.82536 3.60043 4.77968 2.98693 4.76699 2.70017C4.74605 2.24147 4.85137 1.857 4.97635 1.43129C4.31654 2.2605 4.25246 3.56617 4.34192 4.57429C4.37618 4.96384 4.35461 5.42444 4.49609 5.79432C4.24231 5.13704 3.8147 4.66882 3.27099 4.23487C2.83767 3.8891 2.49761 3.72732 1.93232 3.72732C1.51804 3.73113 1.2116 3.90623 0.896288 4.16001C1.22821 4.06807 1.57227 4.02763 1.91646 4.0401C2.25335 4.05279 2.53187 4.21266 2.78437 4.42457C3.07685 4.67009 3.32491 5.00508 3.56092 5.30136C3.81802 5.62563 4.04025 5.97608 4.22391 6.34691C4.5019 6.9132 4.67392 7.52558 4.73146 8.15379C4.76191 8.47101 4.7708 8.78823 4.7746 9.10544C4.7746 9.28689 4.81584 9.72465 5.06454 9.77795C5.17303 9.80142 5.32212 9.58762 5.38557 9.51846C5.46868 9.56604 5.58859 9.73798 5.67043 9.75701C5.7878 9.78366 5.85505 9.63012 5.9242 9.55716C6.02952 9.60792 6.06759 9.74749 6.17798 9.73417C6.26046 9.72338 6.37529 9.58698 6.45332 9.54384C6.58021 9.47342 6.58021 9.48357 6.67094 9.56414C6.75341 9.63647 6.79782 9.76716 6.9209 9.66565C6.99296 9.39112 7.09509 9.12537 7.22543 8.87324C7.22796 8.86956 7.23029 8.86575 7.23241 8.86182Z" fill="#97C136"/>
</svg>
