<svg width="1440" height="690" viewBox="0 0 1440 690" fill="none" xmlns="http://www.w3.org/2000/svg">
<g clip-path="url(#clip0_1220_1047)">
<rect width="1440" height="690" fill="white"/>
<path d="M3135.32 658.763C3257.1 551.655 3279.66 373.555 3255.12 220.622C3234.61 92.7889 3180.88 -27.5228 3117.08 -140.184C2957.97 -421.043 2736.26 -662.192 2508.75 -888.855C2324.23 -1072.66 2091.33 -1217.79 1837.34 -1284.07C1638.57 -1335.93 1419.38 -1330.55 1236.48 -1237.06C1065.04 -1149.43 940.106 -994.603 801.32 -861.148C572.419 -641.045 282.801 -490.292 62.5689 -262.65C-95.6622 -99.1025 -217.553 136.697 -73.4977 351.764C44.6882 528.221 315.001 541.947 500.314 485.694C584.57 460.12 663.372 417.884 748.826 396.673C1012.34 331.265 1252.4 492.575 1426.2 675.241C1512.36 765.784 1596.63 861.244 1704.22 924.871C1825.12 996.382 2003.76 1028.15 2115.56 922.338C2221.92 821.684 2224.63 635.519 2347.56 555.932C2423.35 506.862 2525.38 515.675 2606.59 555.13C2702.39 601.679 2772.99 732.26 2876.45 742.687C2923.04 747.041 2970.03 741.843 3014.54 727.413C3059.05 712.982 3100.15 689.623 3135.32 658.763" fill="#2F4858"/>
</g>
<defs>
<clipPath id="clip0_1220_1047">
<rect width="1440" height="690" fill="white"/>
</clipPath>
</defs>
</svg>
