<svg width="45" height="45" viewBox="0 0 45 45" fill="none" xmlns="http://www.w3.org/2000/svg">
<path d="M25.1429 22.4999L33.2054 14.4561C33.5585 14.103 33.7568 13.6242 33.7568 13.1249C33.7568 12.6255 33.5585 12.1467 33.2054 11.7936C32.8523 11.4405 32.3735 11.2422 31.8742 11.2422C31.3748 11.2422 30.896 11.4405 30.5429 11.7936L22.4992 19.8561L14.4554 11.7936C14.1023 11.4405 13.6235 11.2422 13.1242 11.2422C12.6248 11.2422 12.146 11.4405 11.7929 11.7936C11.4398 12.1467 11.2415 12.6255 11.2415 13.1249C11.2415 13.6242 11.4398 14.103 11.7929 14.4561L19.8554 22.4999L11.7929 30.5436C11.6172 30.7179 11.4777 30.9253 11.3825 31.1538C11.2873 31.3823 11.2383 31.6273 11.2383 31.8749C11.2383 32.1224 11.2873 32.3675 11.3825 32.5959C11.4777 32.8244 11.6172 33.0318 11.7929 33.2061C11.9672 33.3818 12.1746 33.5213 12.4031 33.6165C12.6316 33.7117 12.8766 33.7607 13.1242 33.7607C13.3717 33.7607 13.6167 33.7117 13.8452 33.6165C14.0737 33.5213 14.2811 33.3818 14.4554 33.2061L22.4992 25.1436L30.5429 33.2061C30.7172 33.3818 30.9246 33.5213 31.1531 33.6165C31.3816 33.7117 31.6266 33.7607 31.8742 33.7607C32.1217 33.7607 32.3667 33.7117 32.5952 33.6165C32.8237 33.5213 33.0311 33.3818 33.2054 33.2061C33.3811 33.0318 33.5206 32.8244 33.6158 32.5959C33.711 32.3675 33.76 32.1224 33.76 31.8749C33.76 31.6273 33.711 31.3823 33.6158 31.1538C33.5206 30.9253 33.3811 30.7179 33.2054 30.5436L25.1429 22.4999Z" fill="black"/>
</svg>
