<svg width="328" height="232" viewBox="0 0 328 232" fill="none" xmlns="http://www.w3.org/2000/svg">
<g filter="url(#filter0_d_1218_647)">
<path fill-rule="evenodd" clip-rule="evenodd" d="M272 74.5C272 81.5491 270.863 88.3695 268.739 94.8327C300.835 102.264 324 123.483 324 148.5C324 179.704 287.959 205 243.5 205C229.939 205 217.161 202.646 205.95 198.489C193.886 213.855 173.108 224 149.5 224C115.257 224 86.9696 202.657 82.5889 174.996C39.102 174.649 4 149.488 4 118.5C4 96.0759 22.3813 76.7029 49.0199 67.5762C49.7736 40.6203 71.862 19 99 19C107.105 19 114.76 20.9286 121.53 24.3518C137.351 9.39014 160.152 0 185.5 0C233.273 0 272 33.3548 272 74.5Z" fill="#FFF8F7"/>
</g>
<defs>
<filter id="filter0_d_1218_647" x="0" y="0" width="328" height="232" filterUnits="userSpaceOnUse" color-interpolation-filters="sRGB">
<feFlood flood-opacity="0" result="BackgroundImageFix"/>
<feColorMatrix in="SourceAlpha" type="matrix" values="0 0 0 0 0 0 0 0 0 0 0 0 0 0 0 0 0 0 127 0" result="hardAlpha"/>
<feOffset dy="4"/>
<feGaussianBlur stdDeviation="2"/>
<feComposite in2="hardAlpha" operator="out"/>
<feColorMatrix type="matrix" values="0 0 0 0 0 0 0 0 0 0 0 0 0 0 0 0 0 0 0.25 0"/>
<feBlend mode="normal" in2="BackgroundImageFix" result="effect1_dropShadow_1218_647"/>
<feBlend mode="normal" in="SourceGraphic" in2="effect1_dropShadow_1218_647" result="shape"/>
</filter>
</defs>
</svg>
