<svg width="30" height="30" viewBox="0 0 30 30" fill="none" xmlns="http://www.w3.org/2000/svg">
<path d="M8.26125 6.26625C10.1353 4.65025 12.5255 3.75776 15 3.75C20.0438 3.75 24.2306 7.5 24.6863 12.3356C27.6713 12.7575 30 15.2569 30 18.3244C30 21.6919 27.1913 24.375 23.7881 24.375H7.08937C3.2025 24.375 0 21.3112 0 17.4712C0 14.1656 2.37375 11.4281 5.51625 10.7344C5.78437 9.11625 6.825 7.50375 8.26125 6.26625V6.26625ZM9.48563 7.68562C8.06625 8.91 7.32375 10.3856 7.32375 11.5406V12.3806L6.48937 12.4725C3.87 12.7594 1.875 14.91 1.875 17.4712C1.875 20.2219 4.18125 22.5 7.08937 22.5H23.7881C26.2125 22.5 28.125 20.6025 28.125 18.3244C28.125 16.0444 26.2125 14.1469 23.7881 14.1469H22.8506V13.2094C22.8525 9.04688 19.365 5.625 15 5.625C12.9748 5.63309 11.0191 6.36456 9.48563 7.6875V7.68562Z" fill="#2F4858"/>
</svg>
