<svg width="24" height="24" viewBox="0 0 24 24" fill="none" xmlns="http://www.w3.org/2000/svg">
<path fill-rule="evenodd" clip-rule="evenodd" d="M7.24904 17L14.749 12L7.24904 7.00002C7.15055 6.93436 7.06596 6.84994 7.00009 6.75159C6.93422 6.65323 6.88838 6.54287 6.86516 6.4268C6.84195 6.31072 6.84182 6.19122 6.86479 6.07509C6.88776 5.95897 6.93338 5.84851 6.99904 5.75002C7.13165 5.55111 7.33785 5.41302 7.57227 5.36614C7.68834 5.34292 7.80785 5.3428 7.92397 5.36577C8.04009 5.38874 8.15055 5.43436 8.24904 5.50002L16.751 11.168C16.888 11.2593 17.0003 11.3831 17.078 11.5282C17.1556 11.6733 17.1963 11.8354 17.1963 12C17.1963 12.1646 17.1556 12.3267 17.078 12.4718C17.0003 12.617 16.888 12.7407 16.751 12.832L8.24904 18.5C8.15055 18.5657 8.04009 18.6113 7.92397 18.6343C7.80785 18.6572 7.68834 18.6571 7.57227 18.6339C7.45619 18.6107 7.34583 18.5648 7.24748 18.499C7.14912 18.4331 7.06471 18.3485 6.99904 18.25C6.93338 18.1515 6.88776 18.0411 6.86479 17.9249C6.84182 17.8088 6.84195 17.6893 6.86516 17.5732C6.88838 17.4572 6.93422 17.3468 7.00009 17.2485C7.06596 17.1501 7.15055 17.0657 7.24904 17Z" fill="#2F4858"/>
</svg>
