<svg width="1440" height="393" viewBox="0 0 1440 393" fill="none" xmlns="http://www.w3.org/2000/svg">
<g clip-path="url(#clip0_140_6)">
<path d="M1217.49 -2022.24C1063.14 -1967.53 919.646 -1870.01 825.938 -1741.53C709.98 -1583.55 730.242 -1341.85 561.866 -1219.77C475.958 -1157.51 357.29 -1145.21 257.79 -1181.47C158.3 -1217.74 74.7101 -1298.54 -30.8999 -1312.72C-176.24 -1332.72 -311.52 -1212.5 -358.79 -1074.71C-458.65 -784.466 -362.77 -318.301 -217.38 -56.8048C-127.31 103.755 13.2402 230.828 182.91 305.111C383.89 391.546 751.762 361.813 948.538 273.417C1043.9 230.579 1120.19 147.338 1216.84 111.691C1407.11 41.758 1529.38 218.487 1655.33 320.019C1869 491.466 2186.08 461.239 2383.63 280.16C2588.42 92.5748 2640.44 -340.257 2321.66 -451.113C2256.91 -473.705 2186.34 -476.336 2123.76 -503.338C2009.67 -552.733 1942.78 -675.554 1926.68 -797.879C1883.66 -1129.83 2166.58 -1388.29 2128.15 -1701.88C2090.1 -2011.85 1654.1 -2101.68 1391.02 -2065.53C1331.88 -2056.87 1273.74 -2042.44 1217.47 -2022.45" fill="#F2BF61"/>
</g>
<defs>
<clipPath id="clip0_140_6">
<rect width="1440" height="393" fill="white" transform="translate(1440 393) rotate(-180)"/>
</clipPath>
</defs>
</svg>
