<svg width="1440" height="2862" viewBox="0 0 1440 2862" fill="none" xmlns="http://www.w3.org/2000/svg">
<path d="M278.197 2718.32C432.553 2663.06 576.042 2564.54 669.75 2434.76C785.708 2275.17 765.446 2031.01 933.822 1907.69C1019.73 1844.79 1138.4 1832.38 1237.9 1869C1337.39 1905.63 1420.98 1987.26 1526.59 2001.58C1671.93 2021.78 1807.21 1900.34 1854.48 1761.15C1954.34 1467.95 1858.46 997.037 1713.07 732.879C1623 570.684 1482.45 442.318 1312.78 367.28C1111.8 279.965 743.926 310 547.15 399.295C451.789 442.569 375.498 526.657 278.848 562.667C88.5773 633.313 -33.6904 454.785 -159.637 352.219C-373.308 179.027 -690.39 209.562 -887.94 392.485C-1092.73 581.979 -1144.75 1019.21 -825.973 1131.2C-761.221 1154.02 -690.651 1156.68 -628.075 1183.96C-513.981 1233.85 -447.091 1357.93 -430.99 1481.5C-387.976 1816.83 -670.893 2077.92 -632.462 2394.7C-594.414 2707.83 -158.412 2798.57 104.665 2762.05C163.812 2753.31 221.947 2738.73 278.219 2718.53" fill="#F2BF61"/>
</svg>
