<svg width="1440" height="314" viewBox="0 0 1440 314" fill="none" xmlns="http://www.w3.org/2000/svg">
<g clip-path="url(#clip0_142_10)">
<path d="M222.509 2408.82C376.865 2353.56 520.354 2255.04 614.062 2125.26C730.02 1965.67 709.758 1721.51 878.134 1598.19C964.042 1535.29 1082.71 1522.87 1182.21 1559.5C1281.7 1596.13 1365.29 1677.76 1470.9 1692.08C1616.24 1712.28 1751.52 1590.84 1798.79 1451.65C1898.65 1158.45 1802.77 687.541 1657.38 423.383C1567.31 261.189 1426.76 132.823 1257.09 57.7839C1056.11 -29.5308 688.238 0.504303 491.462 89.8C396.101 133.074 319.81 217.162 223.16 253.172C32.8896 323.817 -89.3782 145.289 -215.325 42.7239C-428.996 -130.468 -746.078 -99.9337 -943.628 82.989C-1148.42 272.483 -1200.44 709.72 -881.661 821.705C-816.909 844.526 -746.339 847.184 -683.763 874.461C-569.669 924.359 -502.779 1048.43 -486.678 1172C-443.664 1507.33 -726.581 1768.42 -688.15 2085.2C-650.102 2398.33 -214.1 2489.07 48.9773 2452.55C108.124 2443.81 166.259 2429.23 222.531 2409.03" fill="#F2BF61"/>
</g>
<defs>
<clipPath id="clip0_142_10">
<rect width="1440" height="314" fill="white"/>
</clipPath>
</defs>
</svg>
