<svg width="342" height="271" viewBox="0 0 342 271" fill="none" xmlns="http://www.w3.org/2000/svg">
<path fill-rule="evenodd" clip-rule="evenodd" d="M281.353 77.8715C282.433 73.7109 283 69.4067 283 65C283 29.1015 245.392 0 199 0C158.823 0 125.234 21.8268 116.955 50.9926C111.132 50.3406 105.131 50 99 50C44.3238 50 0 77.0868 0 110.5C0 128.529 12.905 144.717 33.3781 155.801C25.4591 166.535 21 178.662 21 191.5C21 235.407 73.1588 271 137.5 271C189.899 271 234.219 247.393 248.865 214.914C255.548 216.92 262.645 218 270 218C309.764 218 342 186.436 342 147.5C342 112.346 315.723 83.2023 281.353 77.8715Z" fill="#FFF8F7"/>
</svg>
