<svg width="320" height="224" viewBox="0 0 320 224" fill="none" xmlns="http://www.w3.org/2000/svg">
<path fill-rule="evenodd" clip-rule="evenodd" d="M268 74.5C268 81.5491 266.863 88.3695 264.739 94.8327C296.835 102.264 320 123.483 320 148.5C320 179.704 283.959 205 239.5 205C225.939 205 213.161 202.646 201.95 198.489C189.886 213.855 169.108 224 145.5 224C111.257 224 82.9696 202.657 78.5889 174.996C35.102 174.649 0 149.488 0 118.5C0 96.0759 18.3813 76.7029 45.0199 67.5762C45.7737 40.6204 67.862 19 95 19C103.105 19 110.76 20.9286 117.53 24.3518C133.351 9.39014 156.152 0 181.5 0C229.273 0 268 33.3548 268 74.5Z" fill="#FFF8F7"/>
</svg>
