<svg width="170" height="131" viewBox="0 0 170 131" fill="none" xmlns="http://www.w3.org/2000/svg">
<g clip-path="url(#clip0_165_8457)">
<path d="M86.4798 36.5161C81.4708 28.4777 73.9375 22.9266 65.9722 18.5337C57.05 13.6198 47.1009 13.8158 38.1931 18.9301C32.0648 22.4432 26.3639 26.9404 22.0618 32.8247C21.2954 33.8805 20.52 35.2851 18.8744 34.4219C17.3272 33.6075 16.7952 32.0243 17.5828 30.5828C19.0796 27.8375 20.4948 24.8443 22.6933 22.7238C26.0315 19.5073 29.9164 16.8152 33.7547 14.165C35.4837 12.9694 37.5869 12.0528 39.647 11.613C51.9731 8.97916 63.7146 9.4249 74.3643 17.5529C82.6167 23.849 91.3003 29.6331 95.8001 39.4588C97.6573 43.5176 100.121 46.2386 104.753 46.9521C106.645 47.2423 108.39 48.5475 110.169 49.4546C119.007 53.9805 124.666 61.6366 129.682 69.7757C135.907 79.9018 138.982 90.7209 135.859 102.715C134.864 106.517 134.367 110.444 133.552 114.79C134.91 114.42 135.7 114.256 136.454 113.982C138.324 113.299 140.13 112.366 142.05 111.905C144.211 111.384 146.205 112.256 147.006 114.337C147.943 116.774 145.697 117.382 144.104 118.189C143.366 118.567 142.526 118.731 141.768 119.069C138.563 120.472 135.225 121.659 132.207 123.386C127.396 126.132 122.777 125.726 120.347 120.872C117.469 115.101 115.594 108.819 113.435 102.705C113.182 101.983 113.618 100.417 114.175 100.143C115.044 99.7186 116.484 99.6955 117.34 100.15C119.598 101.363 121.094 103.323 121.79 105.893C122.499 108.525 123.397 111.105 124.405 114.343C129.901 103.535 129.116 84.6522 122.311 72.174C117.452 63.2607 111.264 55.2497 100.68 50.9073C100.854 52.9779 101.027 54.2623 101.057 55.5569C101.22 63.2041 101.381 70.8342 97.9373 78.0086C96.6711 80.6501 95.1785 83.135 92.3508 84.0901C81.1575 87.8759 68.1617 76.6975 70.0644 65.0286C70.1443 64.5395 70.3569 64.0698 70.4982 63.5929C72.9428 55.5315 79.0495 51.2176 86.3458 48.1561C87.8477 47.5236 89.4583 47.1315 91.9573 46.3295C89.8797 42.566 88.3146 39.4547 86.4798 36.5161ZM86.3497 55.8897C83.7142 58.1439 81.4828 60.8836 79.1454 63.4737C77.2392 65.5763 77.5479 68.2558 78.0621 70.6105C78.5416 72.8228 79.6573 75.0164 80.9688 76.8901C82.9606 79.7252 87.4681 79.5055 89.3846 76.5798C94.0425 69.4958 94.2815 61.6462 93.1413 52.3996C90.322 53.7993 88.007 54.4658 86.3497 55.8897Z" fill="white"/>
</g>
<defs>
<clipPath id="clip0_165_8457">
<rect width="149.865" height="88.0344" fill="white" transform="translate(142.289 130.631) rotate(-161.704)"/>
</clipPath>
</defs>
</svg>
