<svg width="1440" height="2762" viewBox="0 0 1440 2762" fill="none" xmlns="http://www.w3.org/2000/svg">
<path d="M20.8075 960.199C259.737 1063.2 520.975 1111.77 745.895 1077.99C1023.38 1037.2 1200.69 772.047 1513.64 821.313C1673.3 846.473 1832.04 955.758 1926.08 1094.46C2020.12 1233.16 2056.92 1400.58 2177.14 1523.23C2342.16 1692.52 2612.15 1709.71 2786.8 1618.89C3155.06 1427.87 3425.97 858.221 3463.36 444.728C3485.32 190.024 3416.07 -82.5921 3266.13 -331.71C3087.22 -625.231 2602.17 -972.465 2281.93 -1084.91C2126.74 -1139.4 1961.53 -1133.49 1810.75 -1196.58C1514.13 -1321.02 1509.38 -1625.09 1436.97 -1856.92C1313.47 -2249.4 891.525 -2544.04 492.615 -2563.57C79.1952 -2583.96 -348.771 -2199.72 -42.9924 -1760.69C19.0563 -1671.44 105.118 -1596.4 160.746 -1504.92C262.038 -1337.97 242.726 -1145.19 160.302 -1005C-64.2128 -625.275 -634.775 -654.131 -849.629 -297.667C-1061.92 54.7411 -591.895 592.722 -232.542 825.996C-151.307 877.909 -66.4915 922.94 20.6616 960.43" fill="white"/>
</svg>
