<svg width="177" height="165" viewBox="0 0 177 165" fill="none" xmlns="http://www.w3.org/2000/svg">
<path d="M84.4 68.772C83.728 68.94 83.152 68.916 82.672 68.7C82.192 68.484 81.856 68.112 81.664 67.584C81.496 67.032 81.544 66.516 81.808 66.036C82.096 65.58 82.54 65.28 83.14 65.136C85.66 64.512 87.976 63.6 90.088 62.4C89.608 61.92 89.152 61.416 88.72 60.888C88.312 60.336 87.916 59.772 87.532 59.196C86.596 60.252 85.648 61.2 84.688 62.04C84.16 62.496 83.608 62.724 83.032 62.724C82.48 62.724 82 62.508 81.592 62.076C81.256 61.692 81.1 61.236 81.124 60.708C81.148 60.18 81.376 59.736 81.808 59.376C82.816 58.536 83.884 57.492 85.012 56.244C86.14 54.996 87.148 53.796 88.036 52.644C87.196 52.716 86.404 52.776 85.66 52.824C84.94 52.872 84.304 52.908 83.752 52.932C83.152 52.956 82.648 52.824 82.24 52.536C81.856 52.224 81.64 51.768 81.592 51.168C81.568 50.688 81.724 50.256 82.06 49.872C82.42 49.488 82.876 49.284 83.428 49.26C83.932 49.236 84.496 49.212 85.12 49.188C85.744 49.164 86.416 49.128 87.136 49.08C87.4 48.792 87.7 48.468 88.036 48.108C88.372 47.748 88.72 47.364 89.08 46.956C88.552 46.524 87.964 46.044 87.316 45.516C86.668 44.988 86.032 44.484 85.408 44.004C84.784 43.524 84.268 43.152 83.86 42.888C83.452 42.6 83.188 42.204 83.068 41.7C82.972 41.196 83.08 40.728 83.392 40.296C83.704 39.864 84.112 39.588 84.616 39.468C85.144 39.324 85.636 39.408 86.092 39.72C86.212 39.816 86.356 39.924 86.524 40.044C86.716 40.164 86.896 40.296 87.064 40.44C87.496 39.864 87.988 39.192 88.54 38.424C89.092 37.632 89.524 36.984 89.836 36.48C90.148 36 90.568 35.724 91.096 35.652C91.648 35.556 92.152 35.652 92.608 35.94C93.088 36.228 93.376 36.648 93.472 37.2C93.592 37.728 93.484 38.208 93.148 38.64C92.716 39.24 92.2 39.924 91.6 40.692C91 41.46 90.46 42.12 89.98 42.672C90.292 42.912 90.592 43.152 90.88 43.392C91.168 43.608 91.432 43.812 91.672 44.004C92.608 42.9 93.496 41.82 94.336 40.764C95.2 39.708 95.896 38.808 96.424 38.064C96.76 37.608 97.192 37.344 97.72 37.272C98.272 37.2 98.788 37.332 99.268 37.668C99.7 37.98 99.952 38.4 100.024 38.928C100.096 39.456 99.964 39.936 99.628 40.368C99.1 41.064 98.416 41.892 97.576 42.852C96.76 43.812 95.884 44.808 94.948 45.84C94.036 46.848 93.148 47.808 92.284 48.72C93.196 48.672 94.084 48.612 94.948 48.54C95.812 48.468 96.616 48.396 97.36 48.324C97.264 48.204 97.168 48.096 97.072 48C97 47.904 96.928 47.808 96.856 47.712C96.544 47.352 96.412 46.92 96.46 46.416C96.508 45.912 96.724 45.504 97.108 45.192C97.516 44.856 97.984 44.7 98.512 44.724C99.04 44.748 99.484 44.964 99.844 45.372C100.228 45.78 100.696 46.308 101.248 46.956C101.8 47.604 102.34 48.264 102.868 48.936C103.396 49.584 103.804 50.112 104.092 50.52C104.428 50.976 104.56 51.48 104.488 52.032C104.416 52.56 104.14 52.992 103.66 53.328C103.204 53.64 102.7 53.748 102.148 53.652C101.596 53.556 101.164 53.28 100.852 52.824C100.732 52.656 100.588 52.464 100.42 52.248C100.252 52.008 100.072 51.768 99.88 51.528C98.992 51.624 97.924 51.732 96.676 51.852C95.452 51.972 94.168 52.092 92.824 52.212C92.656 52.524 92.464 52.848 92.248 53.184C92.032 53.496 91.816 53.82 91.6 54.156H95.092C96.652 54.156 97.804 54.504 98.548 55.2C99.292 55.872 99.616 56.712 99.52 57.72C99.448 58.728 98.956 59.748 98.044 60.78C97.54 61.38 96.988 61.932 96.388 62.436C98.452 63.636 100.72 64.452 103.192 64.884C103.816 65.004 104.284 65.304 104.596 65.784C104.908 66.24 104.98 66.756 104.812 67.332C104.644 67.932 104.296 68.34 103.768 68.556C103.24 68.796 102.628 68.832 101.932 68.664C100.396 68.328 98.884 67.848 97.396 67.224C95.908 66.6 94.504 65.844 93.184 64.956C90.64 66.636 87.712 67.908 84.4 68.772ZM77.956 69.132C77.404 69.132 76.924 68.94 76.516 68.556C76.132 68.196 75.94 67.716 75.94 67.116V54.624C75.412 55.056 74.908 55.452 74.428 55.812C73.924 56.196 73.372 56.352 72.772 56.28C72.172 56.208 71.68 55.92 71.296 55.416C70.936 54.96 70.792 54.456 70.864 53.904C70.96 53.328 71.236 52.872 71.692 52.536C72.316 52.08 73.012 51.516 73.78 50.844C74.572 50.172 75.364 49.464 76.156 48.72C76.948 47.952 77.68 47.196 78.352 46.452C79.048 45.708 79.624 45.048 80.08 44.472C80.44 44.04 80.884 43.8 81.412 43.752C81.94 43.704 82.432 43.848 82.888 44.184C83.368 44.52 83.632 44.976 83.68 45.552C83.752 46.104 83.62 46.608 83.284 47.064C82.828 47.64 82.324 48.252 81.772 48.9C81.22 49.524 80.632 50.16 80.008 50.808V67.116C80.008 67.716 79.804 68.196 79.396 68.556C79.012 68.94 78.532 69.132 77.956 69.132ZM75.256 45.336C74.728 45.72 74.164 45.912 73.564 45.912C72.988 45.888 72.496 45.6 72.088 45.048C71.704 44.568 71.572 44.052 71.692 43.5C71.812 42.948 72.1 42.528 72.556 42.24C73.204 41.808 73.936 41.268 74.752 40.62C75.592 39.972 76.396 39.312 77.164 38.64C77.956 37.968 78.604 37.38 79.108 36.876C79.516 36.468 80.008 36.276 80.584 36.3C81.184 36.3 81.652 36.468 81.988 36.804C82.42 37.236 82.636 37.728 82.636 38.28C82.636 38.832 82.444 39.312 82.06 39.72C81.484 40.296 80.788 40.932 79.972 41.628C79.18 42.324 78.364 42.996 77.524 43.644C76.708 44.292 75.952 44.856 75.256 45.336ZM93.256 60.24C93.832 59.784 94.348 59.304 94.804 58.8C95.212 58.344 95.356 57.984 95.236 57.72C95.116 57.456 94.756 57.324 94.156 57.324H90.556C90.94 57.852 91.36 58.368 91.816 58.872C92.272 59.352 92.752 59.808 93.256 60.24ZM84.616 120.124C82.456 120.124 80.764 119.896 79.54 119.44C78.316 119.008 77.452 118.264 76.948 117.208C76.468 116.128 76.228 114.664 76.228 112.816C76.228 110.968 76.468 109.516 76.948 108.46C77.452 107.404 78.316 106.648 79.54 106.192C80.764 105.736 82.456 105.508 84.616 105.508H91.276C93.436 105.508 95.116 105.736 96.316 106.192C97.54 106.648 98.392 107.404 98.872 108.46C99.376 109.516 99.628 110.968 99.628 112.816C99.628 114.664 99.376 116.128 98.872 117.208C98.392 118.264 97.54 119.008 96.316 119.44C95.116 119.896 93.436 120.124 91.276 120.124H84.616ZM103.3 103.564C102.82 103.948 102.268 104.116 101.644 104.068C101.044 103.996 100.54 103.72 100.132 103.24C99.892 102.928 99.604 102.592 99.268 102.232C98.956 101.872 98.632 101.5 98.296 101.116C97.048 101.236 95.596 101.38 93.94 101.548C92.308 101.692 90.58 101.836 88.756 101.98C86.932 102.124 85.108 102.268 83.284 102.412C81.484 102.532 79.78 102.652 78.172 102.772C76.588 102.868 75.196 102.94 73.996 102.988C73.252 103.012 72.652 102.856 72.196 102.52C71.764 102.16 71.524 101.644 71.476 100.972C71.428 100.276 71.62 99.736 72.052 99.352C72.484 98.944 73.036 98.74 73.708 98.74C74.332 98.716 75.04 98.692 75.832 98.668C76.624 98.62 77.464 98.584 78.352 98.56C78.736 97.96 79.18 97.228 79.684 96.364C80.188 95.5 80.692 94.6 81.196 93.664C81.724 92.728 82.204 91.84 82.636 91C83.092 90.16 83.44 89.464 83.68 88.912C83.968 88.288 84.412 87.868 85.012 87.652C85.612 87.412 86.224 87.424 86.848 87.688C87.496 88 87.892 88.432 88.036 88.984C88.18 89.536 88.096 90.112 87.784 90.712C87.448 91.336 87.016 92.104 86.488 93.016C85.984 93.904 85.444 94.828 84.868 95.788C84.316 96.724 83.788 97.576 83.284 98.344C85.324 98.224 87.364 98.104 89.404 97.984C91.468 97.864 93.316 97.744 94.948 97.624C94.108 96.76 93.34 96.028 92.644 95.428C92.188 94.996 91.948 94.516 91.924 93.988C91.924 93.436 92.104 92.968 92.464 92.584C92.872 92.176 93.376 91.96 93.976 91.936C94.6 91.912 95.14 92.092 95.596 92.476C96.364 93.148 97.24 93.964 98.224 94.924C99.208 95.884 100.18 96.856 101.14 97.84C102.1 98.8 102.904 99.64 103.552 100.36C103.96 100.816 104.14 101.368 104.092 102.016C104.068 102.64 103.804 103.156 103.3 103.564ZM84.616 116.02H91.276C92.308 116.02 93.088 115.936 93.616 115.768C94.168 115.576 94.54 115.252 94.732 114.796C94.948 114.316 95.056 113.656 95.056 112.816C95.056 111.976 94.948 111.328 94.732 110.872C94.54 110.416 94.168 110.092 93.616 109.9C93.088 109.708 92.308 109.612 91.276 109.612H84.616C83.584 109.612 82.792 109.708 82.24 109.9C81.688 110.092 81.316 110.416 81.124 110.872C80.932 111.328 80.836 111.976 80.836 112.816C80.836 113.656 80.932 114.316 81.124 114.796C81.316 115.252 81.688 115.576 82.24 115.768C82.792 115.936 83.584 116.02 84.616 116.02Z" fill="#FFF9F9"/>
<path d="M146.844 120.081C145.7 121.23 144.824 122.616 144.277 124.143C143.73 125.669 143.527 127.297 143.681 128.91C144.456 136.379 145.924 143.76 148.068 150.956C132.691 147.395 123.3 143.273 119.034 141.113C116.615 139.887 113.828 139.597 111.208 140.297C103.697 142.299 95.9553 143.307 88.1817 143.295C44.135 143.295 11.0228 112.354 11.0228 77.1589C11.0228 41.9744 44.135 11.0227 88.1817 11.0227C132.228 11.0227 165.341 41.9744 165.341 77.1589C165.341 93.3402 158.54 108.353 146.844 120.081ZM152.279 163.125C154.89 163.643 157.51 164.117 160.138 164.547C162.342 164.9 164.018 162.607 163.147 160.557C162.168 158.248 161.271 155.906 160.458 153.535L160.424 153.425C157.691 145.489 155.464 136.362 154.649 127.863C168.173 114.305 176.363 96.5588 176.363 77.1589C176.363 34.5451 136.88 0 88.1817 0C39.4834 0 0.000137329 34.5451 0.000137329 77.1589C0.000137329 119.773 39.4834 154.318 88.1817 154.318C96.9155 154.33 105.613 153.196 114.052 150.945C119.784 153.844 132.118 159.124 152.279 163.125Z" fill="white"/>
</svg>
