<svg width="1440" height="1024" viewBox="0 0 1440 1024" fill="none" xmlns="http://www.w3.org/2000/svg">
<path d="M515.77 2086.18C640.272 2046.4 757.31 1971.84 835.551 1870.98C932.342 1746.98 922.942 1551.78 1060.49 1458.14C1130.67 1410.38 1225.56 1403.77 1303.82 1435.72C1382.07 1467.68 1446.41 1535.06 1530.16 1549.4C1645.39 1569.53 1756.52 1476.47 1798.03 1366.83C1885.69 1135.87 1822.3 757.824 1713.76 543.224C1646.48 411.437 1538.05 305.218 1404.95 240.702C1247.24 165.532 953.323 179.287 794.086 245.019C716.917 276.874 653.813 341.792 575.818 367.82C422.278 418.866 329.798 273.167 232.288 187.919C66.8399 43.9414 -186.623 59.5006 -349.062 199.846C-517.451 345.23 -570.974 692.331 -320.093 790.429C-269.135 810.414 -212.986 814.487 -163.885 837.964C-74.364 880.9 -24.4991 981.656 -15.0842 1080.61C9.92491 1349.11 -222.685 1549.4 -200.815 1802.99C-179.15 2053.65 165.707 2138.05 376.309 2116.24C423.673 2110.91 470.392 2100.89 515.782 2086.34" fill="#2F4858"/>
</svg>
