<svg width="1440" height="800" viewBox="0 0 1440 800" fill="none" xmlns="http://www.w3.org/2000/svg">
<g clip-path="url(#clip0_79_310)">
<path d="M1707.9 -820.213C1598.08 -849.36 1477.43 -849.525 1372.88 -812.259C1243.91 -766.716 1159.39 -619.29 1014.78 -615.079C941.004 -612.943 868.4 -652.526 826.04 -712.577C783.681 -772.628 768.105 -852.128 713.473 -901.845C638.488 -970.547 513.505 -954.39 431.755 -893.484C259.387 -765.297 128.786 -458.619 107.797 -250.559C95.3641 -122.496 125.047 6.09798 192.337 115.69C272.664 244.61 494.402 372.142 641.828 398.534C713.273 411.324 789.899 393.302 859.22 410.748C995.596 445.234 995.109 595.29 1026.62 703.407C1080.39 886.365 1273.34 993.636 1458.05 966.857C1649.48 939.171 1851.23 709.902 1713.4 520.561C1685.43 482.059 1646.21 452.785 1621.23 412.594C1575.76 339.22 1586.42 242.047 1625.86 165.136C1733.28 -43.3095 1997.47 -81.1593 2100.2 -277.209C2201.71 -471.017 1988.62 -694.325 1824.14 -776.942C1786.95 -795.212 1748.03 -809.749 1707.97 -820.34" fill="#2F4858"/>
</g>
<defs>
<clipPath id="clip0_79_310">
<rect width="1440" height="800" fill="white"/>
</clipPath>
</defs>
</svg>
