<svg width="1440" height="800" viewBox="0 0 1440 800" fill="none" xmlns="http://www.w3.org/2000/svg">
<g clip-path="url(#clip0_79_250)">
<path d="M1013.17 860.019C986.339 750.248 929.056 644.825 846.757 571.283C745.606 480.351 576.658 476.728 504.148 352.466C467.168 289.067 467.168 206.83 499.435 141.257C531.702 75.6847 593.698 24.241 611.1 -47.128C635.391 -145.306 561.793 -246.744 469.706 -289.13C275.742 -378.613 -54.178 -346.66 -245.822 -265.945C-363.549 -215.839 -461.694 -128.706 -525.347 -17.7833C-599.67 113.724 -605.471 368.044 -558.339 509.333C-535.499 577.804 -483.292 636.131 -465.527 704.964C-430.722 840.456 -561.965 911.463 -641.363 990.44C-775.506 1124.48 -777.319 1344.02 -666.017 1492.56C-550.726 1646.53 -254.523 1713.55 -154.822 1503.06C-134.519 1460.32 -127.631 1412.13 -104.427 1371.19C-62.0091 1296.57 27.9031 1259.61 113.827 1257.44C346.947 1252.01 505.743 1464.66 725.811 1461.04C943.341 1457.42 1036.88 1165.06 1030.72 982.107C1028.96 940.937 1023.13 900.041 1013.31 860.019" fill="#F2BF61"/>
</g>
<defs>
<clipPath id="clip0_79_250">
<rect width="1440" height="800" fill="white"/>
</clipPath>
</defs>
</svg>
