<svg width="1440" height="800" viewBox="0 0 1440 800" fill="none" xmlns="http://www.w3.org/2000/svg">
<g clip-path="url(#clip0_79_282)">
<path d="M2514.38 673.466C2483.35 546.5 2417.11 424.563 2321.93 339.5C2204.96 234.324 2009.58 230.134 1925.73 86.4071C1882.96 13.0771 1882.96 -82.0423 1920.28 -157.886C1957.59 -233.731 2029.28 -293.233 2049.41 -375.781C2077.5 -489.338 1992.39 -606.666 1885.9 -655.692C1661.59 -759.192 1280.05 -722.234 1058.43 -628.874C922.283 -570.919 808.784 -470.138 735.172 -341.84C649.222 -189.733 642.514 104.425 697.019 267.846C723.433 347.043 783.807 414.506 804.352 494.122C844.601 650.838 692.826 732.968 601.007 824.316C445.877 979.356 443.781 1233.29 572.496 1405.09C705.824 1583.18 1048.37 1660.7 1163.66 1417.24C1187.14 1367.8 1195.11 1312.06 1221.94 1264.71C1271 1178.39 1374.98 1135.65 1474.34 1133.14C1743.93 1126.85 1927.57 1372.82 2182.07 1368.63C2433.63 1364.44 2541.8 1026.29 2534.67 814.678C2532.65 767.059 2525.9 719.757 2514.55 673.466" fill="#2F4858"/>
</g>
<defs>
<clipPath id="clip0_79_282">
<rect width="1440" height="800" fill="white"/>
</clipPath>
</defs>
</svg>
