<svg width="1440" height="2115" viewBox="0 0 1440 2115" fill="none" xmlns="http://www.w3.org/2000/svg">
<path d="M1026.12 2039.41C1273.68 1964.24 1505.47 1834.46 1659.16 1666.58C1849.31 1460.1 1825.69 1150.56 2097.96 988.477C2236.88 905.808 2426.14 886.214 2583.16 929.545C2740.17 972.875 2870.3 1073.89 3037.84 1088.68C3268.39 1109.67 3487.92 951.035 3568.06 772.687C3737.31 396.985 3601.37 -198.183 3379.36 -529.096C3241.78 -732.252 3022.68 -890.808 2755.36 -980.679C2438.64 -1085.14 1852.23 -1035.14 1535.98 -915.371C1382.72 -857.327 1258.35 -748.045 1103.3 -699.188C798.049 -603.316 609.806 -826.187 413.026 -952.435C79.159 -1165.59 -426.45 -1116.59 -747.244 -877.847C-1079.79 -630.522 -1178.01 -73.3748 -674.736 58.6361C-572.511 85.5454 -460.316 86.6511 -361.712 119.291C-181.932 179.011 -79.8807 334.481 -58.6263 490.952C-2.02748 915.579 -461.417 1256.37 -411.455 1657.59C-361.974 2054.16 328.572 2155.41 748.461 2100.56C842.882 2087.55 935.899 2067.15 1026.15 2039.67" fill="#2F4858"/>
</svg>
