<svg width="1440" height="3192" viewBox="0 0 1440 3192" fill="none" xmlns="http://www.w3.org/2000/svg">
<path d="M3131.39 1674.42C3042.43 1497.74 2864.7 1333.36 2616.75 1225.81C2311.95 1092.73 1816.91 1115.16 1592.82 922.241C1478.53 823.811 1470.73 688.067 1558.99 574.403C1647.26 460.739 1823.91 365.398 1868.1 244.666C1929.92 78.5244 1704.8 -76.5365 1431.14 -131.015C854.713 -246.099 -108.292 -137.87 -661.788 27.5937C-1001.75 130.1 -1280.87 290.43 -1456.74 484.23C-1661.89 713.802 -1654.77 1134.57 -1503.37 1359.86C-1429.99 1469.04 -1271.6 1556.54 -1213.05 1667.17C-1098.3 1884.97 -1475.86 2024.24 -1700.85 2167.96C-2080.93 2411.78 -2065.42 2774.47 -1725.44 3000.93C-1373.26 3235.68 -499.596 3296.5 -227.618 2932.3C-172.223 2858.32 -156.621 2777.63 -92.561 2706.15C24.568 2575.83 284.336 2499.71 535.723 2481.67C1217.8 2433.5 1702.93 2757.82 2346.97 2714.83C2983.57 2672.26 3229.74 2173.95 3194.35 1873C3185.32 1805.33 3164.37 1738.81 3131.82 1674.4" fill="#2F4858"/>
</svg>
