<svg width="1440" height="394" viewBox="0 0 1440 394" fill="none" xmlns="http://www.w3.org/2000/svg">
<g clip-path="url(#clip0_71_2)">
<path d="M3208.57 -637.065C3119.61 -813.745 2941.88 -978.125 2693.93 -1085.67C2389.13 -1218.75 1894.09 -1196.32 1670 -1389.24C1555.71 -1487.67 1547.91 -1623.42 1636.17 -1737.08C1724.44 -1850.75 1901.09 -1946.09 1945.28 -2066.82C2007.1 -2232.96 1781.98 -2388.02 1508.32 -2442.5C931.891 -2557.58 -31.1139 -2449.35 -584.61 -2283.89C-924.572 -2181.38 -1203.69 -2021.05 -1379.56 -1827.25C-1584.71 -1597.68 -1577.59 -1176.91 -1426.19 -951.625C-1352.81 -842.445 -1194.42 -754.945 -1135.87 -644.315C-1021.12 -426.515 -1398.68 -287.245 -1623.67 -143.525C-2003.75 100.295 -1988.24 462.985 -1648.26 689.445C-1296.08 924.195 -422.418 985.015 -150.44 620.815C-95.0448 546.835 -79.4428 466.145 -15.3828 394.665C101.746 264.345 361.514 188.225 612.901 170.185C1294.98 122.015 1780.11 446.335 2424.15 403.345C3060.75 360.775 3306.92 -137.535 3271.53 -438.485C3262.5 -506.155 3241.55 -572.675 3209 -637.085" fill="#2F4858"/>
</g>
<defs>
<clipPath id="clip0_71_2">
<rect width="1440" height="394" fill="white"/>
</clipPath>
</defs>
</svg>
