<svg width="200" height="200" viewBox="0 0 200 200" fill="none" xmlns="http://www.w3.org/2000/svg">
<g clip-path="url(#clip0_51_340)">
<g filter="url(#filter0_d_51_340)">
<path d="M184.376 74.6888C184.376 78.6074 182.688 84.8141 182.688 87.0642C178.463 102.252 160.48 112.378 141.062 112.378C117.14 112.378 97.748 95.5037 97.748 74.6888C97.748 53.8738 117.14 37 141.062 37C164.984 37 184.376 53.8738 184.376 74.6888Z" fill="#A46434"/>
<ellipse cx="127.562" cy="149.504" rx="52.3143" ry="29.251" fill="#A46434"/>
<circle cx="145" cy="71.8763" r="9.00031" fill="#665344"/>
<circle cx="173.126" cy="71.8763" r="9.00031" fill="#665344"/>
<path d="M117.097 176.482C125.042 179.171 128.122 189.318 127.226 191.966C126.329 194.615 122.899 186.071 115.078 182.388C107.257 178.705 99.3586 185.333 100.255 182.684C101.151 180.036 109.151 173.792 117.097 176.482Z" fill="#FF9072"/>
<path d="M123.095 174.989C130.872 178.133 133.36 188.441 132.312 191.033C131.264 193.625 128.334 184.897 120.739 180.768C113.144 176.639 104.875 182.799 105.923 180.207C106.972 177.615 115.319 171.845 123.095 174.989Z" fill="#FF9072"/>
<path d="M111.633 178.039C117.254 180.311 118.157 189.978 117.109 192.57C116.061 195.163 114.669 187.057 109.281 183.82C103.893 180.583 97.0001 187.3 98.0482 184.708C99.0963 182.115 106.011 175.766 111.633 178.039Z" fill="#FF9072"/>
<path d="M152.088 172.238C160.073 174.807 163.306 184.907 162.449 187.568C161.593 190.23 158.035 181.739 150.159 178.174C142.284 174.609 134.485 181.355 135.342 178.693C136.199 176.032 144.103 169.668 152.088 172.238Z" fill="#FF9072"/>
<path d="M155.32 168.647C163.337 171.116 166.697 181.173 165.874 183.845C165.051 186.518 161.386 178.072 153.466 174.607C145.546 171.141 137.834 177.985 138.657 175.313C139.48 172.641 147.304 166.178 155.32 168.647Z" fill="#FF9072"/>
<path d="M146.649 173.877C152.303 176.065 153.352 185.717 152.343 188.325C151.334 190.933 149.82 182.848 144.384 179.693C138.948 176.538 132.157 183.357 133.166 180.749C134.175 178.142 140.994 171.689 146.649 173.877Z" fill="#FF9072"/>
<path d="M190.865 142.292C188.403 163.638 163.995 180.819 130.85 180.819C97.7055 180.819 70.8362 163.57 70.8362 142.292C70.8362 121.015 97.7055 103.766 130.85 103.766C163.995 103.766 194.866 123.55 190.865 142.292Z" fill="#F7D7B1"/>
<path d="M194.502 118.53C195.064 139.875 190.002 170.072 154.563 158.097C133.127 158.097 116.874 138.082 116.874 118.53C116.874 98.9771 134.252 83.1267 155.688 83.1267C177.124 83.1267 194.502 98.9771 194.502 118.53Z" fill="#F7D7B1"/>
<ellipse cx="62.4958" cy="156.327" rx="15.188" ry="26.4384" transform="rotate(26.8779 62.4958 156.327)" fill="#E6BA79"/>
<ellipse cx="47.6873" cy="168.62" rx="16.8756" ry="8.43779" transform="rotate(-36.8091 47.6873 168.62)" fill="#E6BA79"/>
<path d="M85.4678 132.661C91.6285 134.774 91.4064 145.103 88.7475 154.004C85.9183 162.255 87.7577 177.328 70.9358 165.019C64.7751 162.906 62.0744 154.505 64.9036 146.254C67.7329 138.003 79.3071 130.548 85.4678 132.661Z" fill="#E6BA79"/>
<path d="M187.188 101.972C180.353 100.264 177.248 107.136 163.766 101.972C150.283 96.8075 141.246 87.6821 143.579 81.5896C145.913 75.4972 158.734 74.7449 172.217 79.9093C185.699 85.0737 195.063 103.94 187.188 101.972Z" fill="#FFF9F9"/>
<ellipse cx="151.816" cy="88.1729" rx="24.1883" ry="11.8129" transform="rotate(20.9595 151.816 88.1729)" fill="#FFF9F9"/>
<path d="M154 100.359C152.22 105.005 144.924 102.138 132.449 97.3596C119.974 92.5811 108.016 86.0387 109.796 81.3926C111.575 76.7466 127.669 79.9299 134.311 80.4732C146.786 85.2517 155.779 95.7131 154 100.359Z" fill="#FFF9F9"/>
<path d="M139.44 95.2117C137.107 101.304 125.102 102.369 112.627 97.5906C100.152 92.8121 86.6638 79.8136 94.2645 77.907C98.0014 72.9894 94.2645 63.1524 121.078 75.528C135.436 65.4025 162.437 85.0907 139.44 95.2117Z" fill="#FFF9F9"/>
<path d="M182.57 91.675C180.438 97.4781 178.242 102.929 174.942 102.46C171.642 101.991 168.404 94.1837 170.618 89.9777C171.875 84.1996 171.242 76.2234 178.246 79.1927C182.705 65.1658 186.626 73.2897 182.57 91.675Z" fill="#FFF9F9"/>
<ellipse cx="107.768" cy="99.4398" rx="25.8759" ry="25.3134" fill="#9B5E30"/>
<path d="M49.7015 153.288L46.8966 153.297L45.7802 151.62L45.2247 149.941L53.134 133.106L63.2927 114.584L75.6954 96.0533L81.8903 88.7492L87.5177 83.4285L88.0633 83.4267L119.881 121.787L102.506 131.263L85.0879 139.724L67.6715 147.626L49.7015 153.288Z" fill="#9B5E30"/>
<path d="M183.251 79.0244C181.66 85.1237 174.813 85.7746 161.871 87.6512C148.886 87.6512 133.544 81.161 134.192 76.9634C130.732 65.973 148.255 74.1508 161.871 73.0257C175.486 71.9007 186.626 66.0865 183.251 79.0244Z" fill="#665344"/>
<path d="M172.544 88.2804C172.544 95.4761 170.023 101.127 165.054 101.127C160.085 101.127 156.057 95.2941 156.057 88.0984C144.81 80.9917 158.578 75.2515 163.547 75.2515C168.515 75.2515 178.167 80.7789 172.544 88.2804Z" fill="#665344"/>
<path d="M166.423 91.3448C164.001 91.1902 161.587 88.117 159.361 84.8217C157.79 81.3317 152.318 77.06 160.482 75.5273C164.351 74.4224 166.142 76.7819 167.463 80.9038C168.109 84.8442 168.085 89.6657 166.423 91.3448Z" fill="#1D1C1C"/>
<path fill-rule="evenodd" clip-rule="evenodd" d="M107.969 90.0261C106.78 91.5509 104.82 92.9797 102.399 93.9301C97.7024 95.7742 93.0503 95.1187 92.0088 92.466C91.8117 91.964 91.7581 91.4264 91.8324 90.8723C90.2444 92.7142 89.5987 94.8373 90.3118 96.6535C91.5607 99.8345 96.5047 100.87 101.354 98.9655C106.069 97.1144 108.959 93.1671 107.969 90.0261Z" fill="#854A20"/>
<path fill-rule="evenodd" clip-rule="evenodd" d="M122.122 104.895C120.981 106.267 119.148 107.46 116.921 108.13C112.599 109.431 108.429 108.273 107.608 105.544C107.453 105.028 107.428 104.492 107.52 103.954C106.005 105.595 105.327 107.616 105.889 109.484C106.874 112.757 111.29 114.321 115.752 112.978C120.09 111.672 122.875 108.099 122.122 104.895Z" fill="#854A20"/>
<path fill-rule="evenodd" clip-rule="evenodd" d="M70.6168 110.866C67.9688 112.848 66.5664 115.087 67.1288 116.956C68.1138 120.228 74.7527 121.123 81.9573 118.954C88.9611 116.846 93.9211 112.619 93.2873 109.379C91.2703 111.014 88.2021 112.579 84.6061 113.661C77.6284 115.761 71.306 115.252 70.4846 112.523C70.3291 112.006 70.3818 111.448 70.6168 110.866Z" fill="#854A20"/>
<path fill-rule="evenodd" clip-rule="evenodd" d="M76.0668 131.008C74.8403 132.363 72.8963 133.562 70.5543 134.267C66.01 135.634 61.6881 134.624 60.9011 132.009C60.7522 131.514 60.7405 130.998 60.8503 130.476C59.2261 132.099 58.4667 134.069 59.0055 135.859C59.9492 138.994 64.5179 140.391 69.21 138.979C73.7714 137.606 76.7702 134.084 76.0668 131.008Z" fill="#854A20"/>
<path fill-rule="evenodd" clip-rule="evenodd" d="M101.038 122.739C99.8483 123.949 97.9849 125.041 95.7577 125.712C91.4359 127.013 87.3806 126.234 86.7 123.973C86.5712 123.545 86.5724 123.094 86.6884 122.637C85.1169 124.091 84.3533 125.827 84.8193 127.375C85.6355 130.087 89.9146 131.196 94.3769 129.853C98.7149 128.547 101.629 125.404 101.038 122.739Z" fill="#854A20"/>
<line x1="63.0482" y1="156.118" x2="52.6106" y2="168.453" stroke="#CE8045" stroke-width="3" stroke-linecap="round"/>
<line x1="77.4976" y1="156.125" x2="69.4935" y2="164.13" stroke="#CE8045" stroke-width="3" stroke-linecap="round"/>
<circle cx="145" cy="71.8762" r="7.87527" fill="#FFF9F9"/>
<circle cx="173.126" cy="71.8762" r="7.87527" fill="#FFF9F9"/>
<circle cx="145.562" cy="71.3137" r="6.18771" fill="black"/>
<path d="M149.5 70.7513C149.5 71.994 148.493 73.0014 147.25 73.0014C146.007 73.0014 145 71.994 145 70.7513C145 69.5086 146.007 68.5012 147.25 68.5012C148.493 68.5012 149.5 69.5086 149.5 70.7513Z" fill="#FFF9F9"/>
<circle cx="172.563" cy="71.3137" r="6.18771" fill="black"/>
<circle cx="170.876" cy="70.7513" r="2.25008" fill="#FFF9F9"/>
</g>
</g>
<defs>
<filter id="filter0_d_51_340" x="29.2573" y="37" width="169.284" height="164.074" filterUnits="userSpaceOnUse" color-interpolation-filters="sRGB">
<feFlood flood-opacity="0" result="BackgroundImageFix"/>
<feColorMatrix in="SourceAlpha" type="matrix" values="0 0 0 0 0 0 0 0 0 0 0 0 0 0 0 0 0 0 127 0" result="hardAlpha"/>
<feOffset dy="4"/>
<feGaussianBlur stdDeviation="2"/>
<feComposite in2="hardAlpha" operator="out"/>
<feColorMatrix type="matrix" values="0 0 0 0 0 0 0 0 0 0 0 0 0 0 0 0 0 0 0.25 0"/>
<feBlend mode="normal" in2="BackgroundImageFix" result="effect1_dropShadow_51_340"/>
<feBlend mode="normal" in="SourceGraphic" in2="effect1_dropShadow_51_340" result="shape"/>
</filter>
<clipPath id="clip0_51_340">
<rect width="200" height="200" fill="white"/>
</clipPath>
</defs>
</svg>
