<svg width="200" height="200" viewBox="0 0 200 200" fill="none" xmlns="http://www.w3.org/2000/svg">
<g clip-path="url(#clip0_51_229)">
<g filter="url(#filter0_d_51_229)">
<path d="M65.085 164.144C51.8972 177.121 50.3146 187.672 36.1148 182.463C23.4095 177.802 29.7401 172.373 35.0859 150.19C42.8017 136.219 55.7722 128.018 64.0562 131.871C72.3402 135.724 72.8009 150.173 65.085 164.144Z" fill="#212121"/>
<path d="M46.0116 152.587C49.5 156.865 45.2574 165.188 36.5354 171.178C24.9918 180.814 21.2989 180.287 14.4265 174.278C8.63772 169.217 15.1808 161.676 23.9027 155.686C35.0152 146.523 42.5232 148.309 46.0116 152.587Z" fill="#212121"/>
<path d="M76.1007 131.393C83.3017 133.659 83.0421 144.739 79.9342 154.287C76.1008 166.064 76.1007 179.759 59.1151 166.103C51.9142 163.837 48.7574 154.825 52.0644 145.974C55.3713 137.124 68.8998 129.127 76.1007 131.393Z" fill="#212121"/>
<path d="M147.902 167.149C156.116 170.046 159.18 180.621 158.214 183.359C157.249 186.097 153.8 177.181 145.729 173.255C137.658 169.328 129.37 176.105 130.335 173.367C131.301 170.629 139.689 164.253 147.902 167.149Z" fill="#656567"/>
<path d="M151.341 162.939C159.862 164.741 164.279 174.826 163.678 177.667C163.078 180.507 158.497 172.117 149.983 169.276C141.468 166.434 134.134 174.234 134.735 171.393C135.335 168.553 142.821 161.137 151.341 162.939Z" fill="#656567"/>
<path d="M142.208 168.694C148.015 171.128 148.825 181.176 147.702 183.853C146.58 186.531 145.242 178.097 139.691 174.665C134.139 171.234 126.895 178.116 128.017 175.438C129.139 172.761 136.402 166.26 142.208 168.694Z" fill="#656567"/>
<path d="M109.202 173.028C117.451 175.82 120.65 186.355 119.719 189.105C118.788 191.855 115.227 182.984 107.106 179.16C98.9856 175.336 90.7843 182.218 91.7151 179.468C92.6458 176.718 100.952 170.235 109.202 173.028Z" fill="#656567"/>
<path d="M115.431 171.478C123.505 174.742 126.089 185.445 125 188.137C123.912 190.828 120.87 181.766 112.984 177.479C105.098 173.191 96.5127 179.587 97.6009 176.896C98.6892 174.204 107.356 168.213 115.431 171.478Z" fill="#656567"/>
<path d="M103.528 174.644C109.365 177.004 110.303 187.041 109.214 189.733C108.126 192.424 106.681 184.008 101.087 180.647C95.492 177.286 88.3354 184.26 89.4237 181.569C90.512 178.877 97.6917 172.284 103.528 174.644Z" fill="#656567"/>
<path d="M173.404 130.148C174.86 169.325 146.069 178.683 114.436 178.683C82.8023 178.683 44.6816 131.826 44.6816 128.127C44.6816 124.428 73.2563 76.3379 104.89 76.3379C136.523 76.3379 171.948 90.9713 173.404 130.148Z" fill="#212121"/>
<path d="M169.228 78.3523C161.88 108.247 152.423 116.453 129.427 116.453C106.431 116.453 92.688 100.627 91.4634 74.8353C91.4634 51.5266 109.089 36.793 132.085 36.793C155.081 36.793 172.29 54.9056 169.228 78.3523Z" fill="#212121"/>
<path d="M167.082 87.4044C161.632 115.164 154.617 122.784 137.56 122.784C120.502 122.784 110.308 108.088 109.4 84.1386C109.4 62.4948 126.292 54.2021 143.35 54.2021C160.407 54.2021 169.353 65.6324 167.082 87.4044Z" fill="#FFF9F9"/>
<path d="M166.376 73.1939C154.77 83.7449 158.462 81.1071 146.329 89.0204C135.25 76.8867 122.589 84.8 112.565 72.1388C113.621 61.0602 124.771 48.9265 140.504 48.9265C156.237 48.9265 166.376 57.9566 166.376 73.1939Z" fill="#DFA030"/>
<circle cx="130.409" cy="70.141" r="8.17686" fill="#317BA4"/>
<circle cx="131.577" cy="71.3091" r="5.84061" fill="#212121"/>
<circle cx="132.55" cy="69.3622" r="1.94687" fill="#FFF9F9"/>
<circle cx="157.276" cy="70.141" r="8.17686" fill="#317BA4"/>
<circle cx="157.462" cy="70.326" r="5.84061" transform="rotate(-105.57 157.462 70.326)" fill="#212121"/>
<circle cx="155.001" cy="69.0346" r="1.94687" transform="rotate(-105.57 155.001 69.0346)" fill="#FFF9F9"/>
<ellipse rx="17.4381" ry="28.0133" transform="matrix(0.706505 0.706455 -0.709832 0.70563 80.1492 121.6)" fill="#212121"/>
<path d="M67.3205 149.28C59.7732 157.182 33.6238 151.916 25.6439 144.34C17.664 136.764 28.2512 134.484 35.7984 126.583C43.3457 118.681 54.7527 112.645 62.7326 120.221C70.7125 127.797 74.8677 141.379 67.3205 149.28Z" fill="#212121"/>
<path d="M109.594 109.287C106.267 122.841 93.6804 136.623 79.9417 133.28C66.203 129.937 54.3788 124.084 57.7059 110.531C61.0329 96.9767 77.0033 75.3486 90.742 78.692C104.481 82.0353 112.921 95.7332 109.594 109.287Z" fill="#212121"/>
<ellipse rx="17.4309" ry="28.0249" transform="matrix(0.564279 0.824381 -0.827458 0.563293 68.2904 132.063)" fill="#212121"/>
<rect width="19.127" height="66.3012" transform="matrix(0.729931 0.682271 -0.68566 0.729096 69.1904 89.6294)" fill="#212121"/>
<path d="M40.6839 126.138L39.0799 131.816L38.9255 135.426L39.9049 137.2L41.4513 138.058L42.9976 138.915L45.3127 138.249L48.0978 137.039L51.358 134.216L61.1058 125.448" stroke="#35302D" stroke-width="3" stroke-linecap="round"/>
<path d="M63.8967 112.465L62.2928 118.143L62.1384 121.753L63.1178 123.528L64.6642 124.385L66.2105 125.243L68.5256 124.576L71.3107 123.366L74.5709 120.543L84.3187 111.775" stroke="#35302D" stroke-width="3" stroke-linecap="round"/>
<path d="M57.5662 132.512L55.9622 138.19L55.8078 141.8L56.7873 143.574L58.3336 144.432L59.8799 145.289L62.195 144.623L64.9801 143.413L68.2403 140.59L77.9882 131.822" stroke="#35302D" stroke-width="3" stroke-linecap="round"/>
<path d="M62.6711 99.6201L61.4682 103.879L61.3524 106.586L62.0869 107.917L63.2467 108.56L64.4064 109.203L66.1426 108.703L68.2314 107.795L70.6764 105.678L77.987 99.1025" stroke="#35302D" stroke-width="3" stroke-linecap="round"/>
<path d="M191.788 149.03C187.039 143.62 174.575 127.524 154.528 115.916C125.51 105.891 124.364 87.6307 137.024 78.4628C151.074 68.2889 163.789 83.2501 176.853 101.392C187.443 120.396 201.498 147.481 191.788 149.03Z" fill="#FFB74A"/>
<path d="M193.274 146.718C188.533 141.307 176.015 125.222 156.438 113.541C128.363 103.367 126.559 85.2138 138.281 76.1966C151.289 66.1899 164.001 81.1495 177.171 99.2721C188.811 117.982 201.94 144.813 193.274 146.718Z" fill="#F9C740"/>
<path d="M192.226 150.216C191.068 147.92 183.87 140.825 178.193 134.982C175.796 131.136 173.159 126.915 181.599 122.167C189.156 117.916 192.07 127.443 194.652 132.826C199.09 142.085 194.549 148.436 192.226 150.216Z" fill="#212121"/>
<path fill-rule="evenodd" clip-rule="evenodd" d="M130.959 97.1787C132.761 88.8085 136.957 81.8206 143.217 77.787C147.264 76.1226 151.796 75.3913 156.513 75.5654C149.657 71.39 142.325 70.9248 135.298 77.0178C126.498 84.648 127.498 91.424 130.959 97.1787Z" fill="#212121"/>
</g>
</g>
<defs>
<filter id="filter0_d_51_229" x="8.2334" y="36.793" width="192.292" height="161.462" filterUnits="userSpaceOnUse" color-interpolation-filters="sRGB">
<feFlood flood-opacity="0" result="BackgroundImageFix"/>
<feColorMatrix in="SourceAlpha" type="matrix" values="0 0 0 0 0 0 0 0 0 0 0 0 0 0 0 0 0 0 127 0" result="hardAlpha"/>
<feOffset dy="4"/>
<feGaussianBlur stdDeviation="2"/>
<feComposite in2="hardAlpha" operator="out"/>
<feColorMatrix type="matrix" values="0 0 0 0 0 0 0 0 0 0 0 0 0 0 0 0 0 0 0.25 0"/>
<feBlend mode="normal" in2="BackgroundImageFix" result="effect1_dropShadow_51_229"/>
<feBlend mode="normal" in="SourceGraphic" in2="effect1_dropShadow_51_229" result="shape"/>
</filter>
<clipPath id="clip0_51_229">
<rect width="200" height="200" fill="white"/>
</clipPath>
</defs>
</svg>
