<svg width="200" height="200" viewBox="0 0 200 200" fill="none" xmlns="http://www.w3.org/2000/svg">
<g clip-path="url(#clip0_51_7)">
<g filter="url(#filter0_d_51_7)">
<path d="M122.484 178.562C129.262 180.856 131.89 189.511 131.125 191.771C130.361 194.03 127.435 186.742 120.763 183.6C114.091 180.458 107.353 186.112 108.118 183.853C108.882 181.594 115.707 176.267 122.484 178.562Z" fill="#35312D"/>
<path d="M128.562 176.329C135.195 179.011 137.318 187.804 136.424 190.015C135.53 192.227 133.03 184.781 126.552 181.259C120.073 177.737 113.019 182.991 113.913 180.78C114.807 178.569 121.928 173.646 128.562 176.329Z" fill="#35312D"/>
<path d="M152.969 175.543C160.201 177.136 164.075 184.876 163.606 187.006C163.137 189.136 159.147 182.672 151.906 180.294C144.665 177.916 138.569 183.611 139.038 181.481C139.507 179.351 145.736 173.951 152.969 175.543Z" fill="#35312D"/>
<path d="M159.258 173.898C166.71 175.12 171.246 181.789 170.939 183.659C170.632 185.53 166.08 179.979 158.558 178.071C151.035 176.163 145.31 181.278 145.617 179.407C145.923 177.536 151.807 172.676 159.258 173.898Z" fill="#35312D"/>
<path d="M107.639 45.7433C117.208 62.2519 128.777 73.425 133.48 70.6991C138.183 67.9733 134.238 52.3806 124.669 35.872C115.1 19.3635 103.99 6.61374 99.2876 9.3396C94.5849 12.0655 98.0699 29.2347 107.639 45.7433Z" fill="#F9E995"/>
<path d="M102.145 61.4678C114.082 76.3541 127.197 85.6653 131.438 82.2648C135.678 78.8644 129.439 64.0399 117.502 49.1536C105.565 34.2672 92.6682 23.3283 88.4276 26.7288C84.187 30.1292 90.2081 46.5814 102.145 61.4678Z" fill="#F9E995"/>
<path d="M103.498 76.7305C117.095 90.1178 130.795 98.2513 134.097 94.8974C137.399 91.5434 129.053 77.972 115.456 64.5847C101.859 51.1975 88.0739 41.5354 84.7717 44.8894C81.4695 48.2433 89.9007 63.3433 103.498 76.7305Z" fill="#F9E995"/>
<path d="M100.366 87.4658C112.273 99.1894 124.27 106.312 127.162 103.375C130.054 100.438 122.745 88.553 110.838 76.8293C98.9304 65.1057 86.8583 56.6444 83.9665 59.5815C81.0746 62.5187 88.4582 75.7422 100.366 87.4658Z" fill="#F9E995"/>
<path d="M68.9593 154.799C79.1279 146.196 76.7682 133.521 74.3351 130.646C71.9021 127.77 67.6171 134.485 59.9393 144.082C50.3422 153.199 42.573 162.175 45.0061 165.051C47.4391 167.926 58.7907 163.401 68.9593 154.799Z" fill="#D9D9D9"/>
<path d="M68.4266 161.269C77.7851 156.02 84.1597 149.605 82.6647 146.939C81.1697 144.273 72.3712 146.366 63.0127 151.614C53.6542 156.863 46.3968 163.007 47.8918 165.673C49.3868 168.339 59.0681 166.517 68.4266 161.269Z" fill="#F9E995"/>
<path d="M81.7972 161.243C90.6618 155.198 96.4519 148.25 94.7298 145.725C93.0077 143.199 84.4256 146.053 75.5611 152.098C66.6965 158.143 60.0034 164.898 61.7254 167.423C63.4475 169.948 72.9327 167.288 81.7972 161.243Z" fill="#F9E995"/>
<ellipse rx="63.8213" ry="49.4255" transform="matrix(-1 0 0 1 131.942 132.995)" fill="#FBF5EB"/>
<path d="M96.9121 86.928C96.9121 106.804 116.033 122.917 139.62 122.917C163.206 122.917 185.62 113.486 185.206 88.8474C184.848 67.5064 165.162 50.4106 141.575 50.4106C117.988 50.4106 96.9121 67.0515 96.9121 86.928Z" fill="#FBF5EB"/>
<ellipse rx="9.11733" ry="34.5499" transform="matrix(-0.943596 0.331098 0.331098 0.943596 132.534 40.6199)" fill="#FBF5EB"/>
<path d="M132.615 50.5211C142.184 67.0297 153.754 78.2028 158.457 75.477C163.159 72.7511 159.215 57.1585 149.646 40.6499C140.077 24.1413 128.967 11.3916 124.264 14.1174C119.561 16.8433 123.046 34.0125 132.615 50.5211Z" fill="#FBF5EB"/>
<path d="M141.476 96.4916C145.291 103.261 148.669 94.7743 154.239 106.089C156.639 103.906 157.496 95.8683 156.231 92.4818C154.966 89.0954 150.85 83.0892 145.31 84.2174C140.032 87.5764 139.063 92.2101 141.476 96.4916Z" fill="#3A3A3A"/>
<path d="M88.6392 133.219L86.5682 141.496L84.588 146.983L80.2296 151.473L76.6427 155.292" stroke="#E0DEDB" stroke-width="3" stroke-linecap="round"/>
<path d="M102.166 127.716L98.7766 144.867L95.8042 152.889L89.5142 159.544L83.0265 163.342" stroke="#E0DEDB" stroke-width="3" stroke-linecap="round"/>
<path d="M117.285 121.958L117.285 131.698L115.262 142.969L112.753 149.403L103.893 160.358L93.6018 165.013L84.411 165.145" stroke="#E0DEDB" stroke-width="3" stroke-linecap="round"/>
<circle cx="130.173" cy="75.8914" r="8.63747" fill="#FFF9F9"/>
<circle cx="158.965" cy="75.8914" r="8.63747" fill="#FFF9F9"/>
<circle r="5.75832" transform="matrix(-1 0 0 1 157.727 76.8511)" fill="black"/>
<circle r="1.91944" transform="matrix(-1 0 0 1 156.767 75.8914)" fill="#FFF9F9"/>
<circle r="5.75832" transform="matrix(-1 0 0 1 131.814 76.8511)" fill="black"/>
<path d="M130.855 75.8914C130.855 76.9514 131.714 77.8108 132.774 77.8108C133.834 77.8108 134.693 76.9514 134.693 75.8914C134.693 74.8313 133.834 73.9719 132.774 73.9719C131.714 73.9719 130.855 74.8313 130.855 75.8914Z" fill="#FFF9F9"/>
</g>
</g>
<defs>
<filter id="filter0_d_51_7" x="40.5557" y="7.8772" width="159.208" height="192.321" filterUnits="userSpaceOnUse" color-interpolation-filters="sRGB">
<feFlood flood-opacity="0" result="BackgroundImageFix"/>
<feColorMatrix in="SourceAlpha" type="matrix" values="0 0 0 0 0 0 0 0 0 0 0 0 0 0 0 0 0 0 127 0" result="hardAlpha"/>
<feOffset dy="4"/>
<feGaussianBlur stdDeviation="2"/>
<feComposite in2="hardAlpha" operator="out"/>
<feColorMatrix type="matrix" values="0 0 0 0 0 0 0 0 0 0 0 0 0 0 0 0 0 0 0.25 0"/>
<feBlend mode="normal" in2="BackgroundImageFix" result="effect1_dropShadow_51_7"/>
<feBlend mode="normal" in="SourceGraphic" in2="effect1_dropShadow_51_7" result="shape"/>
</filter>
<clipPath id="clip0_51_7">
<rect width="200" height="200" fill="white"/>
</clipPath>
</defs>
</svg>
