<svg width="200" height="200" viewBox="0 0 200 200" fill="none" xmlns="http://www.w3.org/2000/svg">
<g filter="url(#filter0_d_51_266)">
<ellipse rx="16.9536" ry="29.6152" transform="matrix(0.906712 0.421749 -0.483455 0.875369 68.5266 157.119)" fill="#6B7D8E"/>
<ellipse rx="19.6339" ry="10.243" transform="matrix(0.824323 -0.566119 0.631963 0.774999 48.1676 163.54)" fill="#6B7D8E"/>
<path d="M95.1887 130.705C102.568 133.027 102.302 144.383 99.1174 154.168C95.7283 163.238 97.9318 179.808 77.7814 166.276C70.4016 163.954 67.1665 154.719 70.5556 145.648C73.9446 136.578 87.809 128.383 95.1887 130.705Z" fill="#6B7D8E"/>
<path d="M167.405 168.423C175.845 171.327 179.069 182.14 178.101 184.954C177.133 187.767 173.528 178.657 165.226 174.697C156.923 170.737 148.483 177.747 149.451 174.934C150.419 172.12 158.965 165.519 167.405 168.423Z" fill="#FF9072"/>
<path d="M170.896 164.081C179.642 165.86 184.248 176.161 183.655 179.077C183.062 181.992 178.301 173.43 169.553 170.586C160.805 167.741 153.351 175.792 153.944 172.876C154.537 169.961 162.149 162.302 170.896 164.081Z" fill="#FF9072"/>
<path d="M161.582 170.051C167.552 172.499 168.461 182.79 167.332 185.543C166.203 188.296 164.765 179.663 159.049 176.19C153.333 172.717 145.963 179.828 147.092 177.075C148.221 174.322 155.613 167.602 161.582 170.051Z" fill="#FF9072"/>
<path d="M129.111 173.373C137.565 176.235 140.843 187.032 139.889 189.85C138.936 192.668 135.286 183.577 126.964 179.658C118.641 175.739 110.237 182.792 111.19 179.974C112.144 177.156 120.657 170.512 129.111 173.373Z" fill="#FF9072"/>
<path d="M135.495 171.785C143.77 175.131 146.418 186.099 145.302 188.857C144.187 191.616 141.069 182.328 132.987 177.935C124.906 173.541 116.107 180.096 117.222 177.338C118.338 174.579 127.22 168.439 135.495 171.785Z" fill="#FF9072"/>
<path d="M123.297 175.03C129.279 177.449 130.24 187.735 129.125 190.493C128.009 193.251 126.528 184.626 120.795 181.182C115.062 177.738 107.727 184.885 108.843 182.126C109.958 179.368 117.316 172.611 123.297 175.03Z" fill="#FF9072"/>
<path d="M194.907 129.429C196.399 169.579 166.893 179.169 134.475 179.169C102.056 179.169 62.9888 131.149 62.9888 127.358C62.9888 123.567 92.2729 74.283 124.692 74.283C157.11 74.283 193.415 89.2797 194.907 129.429Z" fill="#A3B2C3"/>
<path d="M189.621 77.0682C182.09 107.705 174.241 119.719 150.674 119.719C127.107 119.719 113.022 103.5 111.767 77.0682C111.767 53.1807 128.208 37 151.775 37C175.342 37 192.758 53.0393 189.621 77.0682Z" fill="#6B7D8E"/>
<circle cx="151.504" cy="66.4655" r="7.29877" fill="#CF5700"/>
<circle cx="177.027" cy="66.5805" r="7.02845" fill="#CF5700"/>
<circle cx="176.565" cy="66.6567" r="4.3252" transform="rotate(-105.57 176.565 66.6567)" fill="black"/>
<ellipse cx="175.398" cy="66.5708" rx="1.62195" ry="1.62195" transform="rotate(-105.57 175.398 66.5708)" fill="#FFF9F9"/>
<path d="M171.312 90.723C168.722 92.1869 166.33 88.2577 163.854 85.6579C162.181 82.6976 155.204 80.6255 165.154 76.9961C169.913 75.3756 171.327 75.4721 172.657 79.1092C173.278 83.2487 173.902 89.2592 171.312 90.723Z" fill="#282828"/>
<circle cx="152.856" cy="66.7358" r="4.3252" fill="black"/>
<circle cx="153.396" cy="66.1952" r="1.62195" fill="#FFF9F9"/>
<ellipse cx="163.051" cy="77.954" rx="3.55066" ry="4.0497" transform="rotate(27.5858 163.051 77.954)" fill="#F3F6F5"/>
<ellipse cx="169.917" cy="77.7452" rx="3.59105" ry="4.09577" transform="rotate(-18.5207 169.917 77.7452)" fill="#F3F6F5"/>
<path d="M188.639 106.836C188.639 123.695 177.696 143.95 160.506 143.95C143.316 143.95 125.79 127.29 125.79 110.43C125.79 93.5706 137.331 90.6748 154.521 90.6748C171.711 90.6748 184.449 91.8746 188.639 106.836Z" fill="#6B7D8E"/>
<ellipse cx="71.4352" cy="150.611" rx="16.1612" ry="28.1325" transform="rotate(26.8779 71.4352 150.611)" fill="#A3B2C3"/>
<ellipse cx="55.0715" cy="158.497" rx="17.9569" ry="7.99177" transform="rotate(-36.8091 55.0715 158.497)" fill="#A3B2C3"/>
<path d="M95.8792 125.429C102.435 127.677 102.198 138.668 99.3691 148.14C96.3586 156.919 98.3159 172.958 80.4161 159.86C73.8606 157.612 70.9869 148.673 73.9974 139.893C77.0079 131.114 89.3237 123.181 95.8792 125.429Z" fill="#A3B2C3"/>
<ellipse rx="17.8711" ry="28.7089" transform="matrix(0.706505 0.706455 -0.709832 0.70563 102.335 122.264)" fill="#D2DDDF"/>
<path d="M89.1874 150.631C81.4527 158.729 54.654 153.332 46.4759 145.568C38.2979 137.804 49.148 135.468 56.8826 127.37C64.6173 119.273 76.3075 113.086 84.4856 120.851C92.6636 128.615 96.922 142.534 89.1874 150.631Z" fill="#D2DDDF"/>
<path d="M132.511 109.645C129.101 123.535 116.202 137.66 102.122 134.233C88.0425 130.807 75.9248 124.809 79.3344 110.919C82.7441 97.0286 99.111 74.8635 113.191 78.2899C127.271 81.7162 135.921 95.7542 132.511 109.645Z" fill="#D2DDDF"/>
<ellipse rx="17.8637" ry="28.7208" transform="matrix(0.564279 0.824381 -0.827458 0.563293 90.1815 132.986)" fill="#D2DDDF"/>
<rect width="19.6019" height="67.9474" transform="matrix(0.729931 0.682271 -0.68566 0.729096 91.1035 89.4993)" fill="#D2DDDF"/>
<path d="M77.5693 106.244L79.1445 112.815L82.535 117.9L87.1164 121.509L92.2932 124.38L97.47 127.25L103.158 128.713L109.569 129.878L115.587 129.198L119.532 128.135" stroke="#6B7D8E" stroke-width="3" stroke-linecap="round"/>
<path d="M68.8379 115.335L69.914 123.183L72.6173 129.606L77.0028 133.68L82.2295 136.578L87.4563 139.477L93.5792 140.273L100.862 140.744L106.424 140.616" stroke="#6B7D8E" stroke-width="3" stroke-linecap="round"/>
<path d="M70.5784 146.981C89.9609 154.055 91.2369 155.068 80.2128 155.156C70.7121 156.229 43.7647 151.238 42.6592 141.451C41.8274 139.229 51.9474 131.138 60.7915 122.034C56.5503 141.039 51.1958 139.907 70.5784 146.981Z" fill="#6B7D8E"/>
</g>
<defs>
<filter id="filter0_d_51_266" x="26.7319" y="37" width="172.229" height="162.029" filterUnits="userSpaceOnUse" color-interpolation-filters="sRGB">
<feFlood flood-opacity="0" result="BackgroundImageFix"/>
<feColorMatrix in="SourceAlpha" type="matrix" values="0 0 0 0 0 0 0 0 0 0 0 0 0 0 0 0 0 0 127 0" result="hardAlpha"/>
<feOffset dy="4"/>
<feGaussianBlur stdDeviation="2"/>
<feComposite in2="hardAlpha" operator="out"/>
<feColorMatrix type="matrix" values="0 0 0 0 0 0 0 0 0 0 0 0 0 0 0 0 0 0 0.25 0"/>
<feBlend mode="normal" in2="BackgroundImageFix" result="effect1_dropShadow_51_266"/>
<feBlend mode="normal" in="SourceGraphic" in2="effect1_dropShadow_51_266" result="shape"/>
</filter>
</defs>
</svg>
