<svg width="200" height="200" viewBox="0 0 200 200" fill="none" xmlns="http://www.w3.org/2000/svg">
<g clip-path="url(#clip0_51_155)">
<g filter="url(#filter0_d_51_155)">
<path d="M124.92 175.762C132.118 178.198 134.908 187.389 134.096 189.788C133.284 192.187 130.177 184.448 123.092 181.112C116.008 177.775 108.853 183.779 109.665 181.38C110.477 178.981 117.723 173.326 124.92 175.762Z" fill="#896D64"/>
<path d="M130.354 174.41C137.399 177.258 139.653 186.595 138.703 188.943C137.754 191.291 135.1 183.385 128.22 179.645C121.34 175.905 113.85 181.485 114.799 179.137C115.749 176.789 123.31 171.562 130.354 174.41Z" fill="#896D64"/>
<path d="M119.971 177.172C125.063 179.231 125.881 187.988 124.931 190.336C123.982 192.684 122.721 185.341 117.841 182.409C112.96 179.477 106.716 185.561 107.666 183.213C108.615 180.865 114.879 175.113 119.971 177.172Z" fill="#896D64"/>
<path d="M156.616 171.918C163.849 174.245 166.778 183.394 166.002 185.805C165.226 188.216 162.003 180.524 154.869 177.295C147.735 174.065 140.671 180.176 141.447 177.765C142.223 175.354 149.383 169.59 156.616 171.918Z" fill="#896D64"/>
<path d="M159.544 168.665C166.806 170.901 169.85 180.011 169.104 182.432C168.359 184.852 165.039 177.202 157.865 174.063C150.691 170.924 143.705 177.123 144.45 174.703C145.195 172.282 152.283 166.428 159.544 168.665Z" fill="#896D64"/>
<path d="M151.689 173.403C156.811 175.385 157.761 184.128 156.847 186.49C155.933 188.852 154.562 181.529 149.638 178.671C144.713 175.813 138.562 181.99 139.476 179.628C140.39 177.266 146.566 171.42 151.689 173.403Z" fill="#896D64"/>
<path d="M190.642 144.96C188.412 164.296 166.303 179.859 136.279 179.859C106.255 179.859 81.9165 164.234 81.9165 144.96C81.9165 125.687 106.255 110.062 136.279 110.062C166.303 110.062 194.266 127.983 190.642 144.96Z" fill="#5F5755"/>
<path d="M195.036 123.267C195.545 142.603 190.959 169.956 158.858 159.109C139.44 159.109 124.718 140.978 124.718 123.267C124.718 105.556 140.459 91.1982 159.877 91.1982C179.295 91.1982 195.036 105.556 195.036 123.267Z" fill="#5F5755"/>
<path d="M90.4541 160.89C80.5613 171.929 74.9563 178.209 67.3556 176.031C49.479 170.909 59.9315 160.248 65.911 148.45C71.8906 136.652 82.2322 129.873 89.0095 133.308C95.7869 136.743 96.4336 149.092 90.4541 160.89Z" fill="#5F5755"/>
<path d="M74.1493 159.804C76.6784 163.184 73.2492 170.024 66.4899 175.082C59.7305 180.141 58.9867 178.122 49.6716 178.122C40.3565 178.122 48.6493 172.041 57.3213 161.837C64.4452 148.093 71.6201 156.424 74.1493 159.804Z" fill="#5F5755"/>
<path d="M94.4317 136.382C100.012 138.295 99.8111 147.652 97.4025 155.715C94.8397 163.189 96.5059 176.842 81.2682 165.693C75.6876 163.779 73.2412 156.169 75.804 148.695C78.3669 141.221 88.8511 134.468 94.4317 136.382Z" fill="#5F5755"/>
<path d="M186.373 86.6122C187.392 106.484 168.298 118.714 146.629 118.714C124.96 118.714 107.394 102.973 107.394 83.5549C107.394 64.1373 124.96 48.3962 146.629 48.3962C168.298 48.3962 186.883 66.2304 186.373 86.6122Z" fill="#FFF9F9"/>
<circle cx="154.272" cy="81.0072" r="7.13364" fill="#FFF9F9"/>
<circle cx="177.711" cy="81.0072" r="7.13364" fill="#FFF9F9"/>
<path d="M189.94 106.485C191.469 113.618 172.615 126.867 162.934 126.357C153.253 125.847 119.623 113.239 119.623 106.485C119.623 99.7308 135.364 94.2556 154.781 94.2556C174.199 94.2556 187.392 98.8415 189.94 106.485Z" fill="#FFF9F9"/>
<path d="M176.183 62.1541C175.164 71.326 172.802 73.9905 168.03 78.9692C159.877 75.9119 154.619 68.1437 145.934 56.9419C122.987 39.732 156.253 46.7592 162.726 46.7592C169.198 46.7592 175.187 52.9741 176.183 62.1541Z" fill="#F74634"/>
<path d="M137.966 84.5739C136.281 87.7353 128.302 84.3543 120.337 80.1086C110.96 75.4021 108.922 72.8544 108.922 72.8544C108.922 72.8544 110.341 68.9592 110.926 67.9864C111.46 66.9894 111.699 66.6027 112.44 65.2418C113.483 63.3271 113.333 64.2708 113.863 64.1285C113.863 64.1285 119.788 67.6651 125.97 70.9605C125.97 70.9605 142.067 79.3532 137.966 84.5739Z" fill="#101010"/>
<path d="M168.673 90.6674C167.799 94.4842 154.123 91.8065 147.448 89.6532C140.628 85.809 133.655 84.1391 134.286 80.837C134.916 77.5349 150.917 78.9543 158.336 80.3712C164.463 84.5739 170.068 84.5739 168.673 90.6674Z" fill="#101010"/>
<path d="M182.694 80.2443C183.813 85.9724 183.756 85.0529 175.733 87.5636C169.065 92.2847 169.307 97.3882 164.389 90.564C161.829 87.013 168.124 83.0258 173.725 77.6914C178.653 74.1156 180.851 75.1992 181.893 76.8206C182.593 79.1878 182.335 78.404 182.694 80.2443Z" fill="#101010"/>
<path d="M176.473 81.8827C173.269 78.0225 173.707 78.6771 177.607 74.5536C183.447 70.0106 183.657 69.6735 184.716 73.7941C185.937 78.5417 186.425 78.5173 184.847 80.6232C183.27 82.7291 179.829 85.0376 178.47 84.1522C176.999 82.6247 177.503 83.1229 176.473 81.8827Z" fill="#101010"/>
<path d="M190.45 114.637C192.488 124.828 194.017 125.338 170.122 127.885C146.227 130.433 118.518 137.934 135.929 123.299C137.967 121.586 166.439 107.554 170.122 104.446C177.109 105.482 194.526 108.523 190.45 114.637Z" fill="#5F5755"/>
<path d="M156.874 85.2115C157.712 80.2426 156.133 79.9767 147.138 78.4595C138.143 76.9423 127.266 70.8163 124.197 75.8465C123.359 80.8154 129.972 86.0734 138.967 87.5905C151.214 91.1982 156.036 90.1804 156.874 85.2115Z" fill="#101010"/>
<ellipse cx="107.512" cy="112.534" rx="23.4391" ry="22.9296" transform="rotate(-12.472 107.512 112.534)" fill="#101010"/>
<path d="M66.6888 171.519L64.2097 172.076L62.8942 170.811L62.0745 169.435L65.7766 152.998L71.138 134.628L78.4826 115.813L82.5328 108.141L86.4691 102.334L86.9513 102.226L122.597 129.929L109.083 141.709L95.333 152.601L81.4747 162.996L66.6888 171.519Z" fill="#101010"/>
<circle cx="154.781" cy="82.536" r="6.6241" fill="#DC9513"/>
<circle cx="155.291" cy="82.0263" r="4.07637" fill="black"/>
<circle cx="156.82" cy="81.5169" r="1.52864" fill="#FFF9F9"/>
<circle cx="177.201" cy="82.536" r="6.6241" fill="#DC9513"/>
<circle cx="176.692" cy="82.0263" r="4.07637" fill="black"/>
<circle cx="175.163" cy="81.5169" r="1.52864" fill="#FFF9F9"/>
<path d="M186.736 126.524C177.436 117.714 175.453 114.926 169.12 107.623C163.872 100.106 151.717 92.923 163.611 88.3833C173.218 84.7166 173.905 94.3757 179.111 103.107C182.782 112.205 185.87 118.685 186.736 126.524Z" fill="#393838"/>
<path d="M159.957 41.9417C159.957 46.1769 144.081 55.53 123.19 56.0396C102.861 56.0396 90.1729 48.4775 90.1729 44.2422C88.6393 29.672 88.2485 38.8742 108.578 38.8742C128.907 38.8742 159.957 37.7064 159.957 41.9417Z" fill="#F74634"/>
<path d="M175.652 59.4421C174.123 60.4612 168.366 53.4616 160.697 51.2705C149.961 48.2031 150.475 42.9691 152.054 40.7532C153.633 38.5373 159.666 40.1281 165.529 44.3063C171.393 48.4845 175.142 56.8943 175.652 59.4421Z" fill="#F74634"/>
<path d="M143.086 51.1439C143.086 55.3791 127.52 67.2479 117.779 67.2479C108.038 67.2479 104.743 61.514 104.743 57.2788C104.743 53.0435 112.639 49.6102 122.38 49.6102C132.121 49.6102 143.086 46.9087 143.086 51.1439Z" fill="#F74634"/>
<path d="M116.033 47.9571C122.509 55.2344 127.305 61.5494 123.19 65.2112C119.074 68.873 107.606 68.495 101.131 61.2177C94.6553 53.9405 87.5913 44.8365 91.7066 41.1747C95.8219 37.5129 109.558 40.6799 116.033 47.9571Z" fill="#F74634"/>
</g>
</g>
<defs>
<filter id="filter0_d_51_155" x="41.5713" y="36.0076" width="157.5" height="162.784" filterUnits="userSpaceOnUse" color-interpolation-filters="sRGB">
<feFlood flood-opacity="0" result="BackgroundImageFix"/>
<feColorMatrix in="SourceAlpha" type="matrix" values="0 0 0 0 0 0 0 0 0 0 0 0 0 0 0 0 0 0 127 0" result="hardAlpha"/>
<feOffset dy="4"/>
<feGaussianBlur stdDeviation="2"/>
<feComposite in2="hardAlpha" operator="out"/>
<feColorMatrix type="matrix" values="0 0 0 0 0 0 0 0 0 0 0 0 0 0 0 0 0 0 0.25 0"/>
<feBlend mode="normal" in2="BackgroundImageFix" result="effect1_dropShadow_51_155"/>
<feBlend mode="normal" in="SourceGraphic" in2="effect1_dropShadow_51_155" result="shape"/>
</filter>
<clipPath id="clip0_51_155">
<rect width="200" height="200" fill="white"/>
</clipPath>
</defs>
</svg>
