<svg width="200" height="200" viewBox="0 0 200 200" fill="none" xmlns="http://www.w3.org/2000/svg">
<g filter="url(#filter0_d_51_118)">
<path d="M159.782 170.028C167.284 172.387 170.54 182.262 169.806 184.901C169.073 187.54 165.552 179.255 158.128 175.913C150.704 172.571 143.601 179.38 144.335 176.741C145.069 174.102 152.28 167.668 159.782 170.028Z" fill="#35302D"/>
<path d="M165.311 168.342C172.673 171.156 175.384 181.21 174.507 183.799C173.63 186.388 170.568 177.904 163.337 174.115C156.107 170.326 148.641 176.687 149.519 174.098C150.396 171.509 157.949 165.529 165.311 168.342Z" fill="#35302D"/>
<path d="M154.753 171.758C160.075 173.791 161.285 183.272 160.408 185.861C159.531 188.45 157.926 180.523 152.784 177.532C147.643 174.542 141.48 181.401 142.357 178.812C143.235 176.223 149.432 169.724 154.753 171.758Z" fill="#35302D"/>
<path d="M126.647 174.589C134.472 177.238 137.506 187.232 136.623 189.84C135.741 192.448 132.362 184.034 124.659 180.406C116.957 176.779 109.177 183.307 110.06 180.698C110.943 178.09 118.822 171.941 126.647 174.589Z" fill="#35302D"/>
<path d="M132.555 173.119C140.214 176.216 142.665 186.368 141.633 188.921C140.601 191.474 137.715 182.878 130.235 178.811C122.755 174.745 114.611 180.812 115.643 178.259C116.675 175.706 124.897 170.022 132.555 173.119Z" fill="#35302D"/>
<path d="M121.266 176.123C126.803 178.361 127.692 187.882 126.66 190.435C125.628 192.988 124.257 185.005 118.95 181.817C113.643 178.629 106.855 185.244 107.887 182.691C108.919 180.138 115.73 173.884 121.266 176.123Z" fill="#35302D"/>
<ellipse cx="86.1683" cy="158.063" rx="14.9584" ry="26.0388" transform="rotate(26.8779 86.1683 158.063)" fill="#F1914C"/>
<ellipse cx="71.5839" cy="170.171" rx="16.6205" ry="8.31024" transform="rotate(-36.8091 71.5839 170.171)" fill="#F1914C"/>
<path d="M108.795 134.755C114.862 136.836 114.644 147.01 112.025 155.776C109.238 163.902 111.05 178.747 94.4825 166.624C88.4149 164.544 85.755 156.269 88.5415 148.143C91.3279 140.017 102.727 132.675 108.795 134.755Z" fill="#F1914C"/>
<path d="M158.163 47.705C148.015 52.1687 149.113 47.7341 148.004 41.6096C146.976 35.9386 144.867 31.3567 147.547 29.7707C150.226 28.1847 153.966 31.4941 157.706 35.8662C162.482 41.4498 170.196 46.6345 158.163 47.705Z" fill="#EF8132"/>
<ellipse cx="138.062" cy="124.197" rx="55.9556" ry="54.8476" fill="#EF8132"/>
<ellipse cx="140.833" cy="77.6595" rx="43.2133" ry="40.4432" fill="#EF8132"/>
<circle cx="167.425" cy="71.5654" r="15.5125" fill="#F3AD71"/>
<ellipse cx="103.887" cy="111.604" rx="25.4847" ry="24.2458" transform="rotate(-14.8581 103.887 111.604)" fill="#CF5700"/>
<path d="M68.5843 169.317L66.001 169.915L64.5064 168.612L63.5285 167.19L66.1492 150.089L70.3754 130.966L76.6682 111.365L80.3528 103.363L84.0645 97.3005L84.567 97.1841L124.544 125.665L111.155 138.01L97.4444 149.434L83.5802 160.344L68.5843 169.317Z" fill="#CF5700"/>
<path d="M112.803 52.8937C105.93 61.5927 104.822 57.1606 100.972 52.2704C97.4062 47.7423 93.3961 44.6831 95.0195 42.0264C96.643 39.3697 101.498 40.5401 106.851 42.6497C113.687 45.3438 119.227 44.9722 112.803 52.8937Z" fill="#EF8132"/>
<circle cx="138.616" cy="72.6733" r="15.5125" fill="#F3AD71"/>
<circle cx="140.833" cy="75.9974" r="9.97229" fill="#FFF9F9"/>
<circle r="9.97229" transform="matrix(-1 0 0 1 169.641 74.8895)" fill="#FFF9F9"/>
<circle cx="141.979" cy="76.1478" r="7.13098" fill="black"/>
<circle cx="143.564" cy="74.5633" r="2.37699" fill="#FFF9F9"/>
<circle r="6.9806" transform="matrix(-1 0 0 1 168.645 75.8866)" fill="black"/>
<circle r="2.49993" transform="matrix(-1 0 0 1 166.159 74.3976)" fill="#FFF9F9"/>
<path d="M159.669 85.9504C158.93 90.9036 156.345 92.9483 154.867 93.7258C153.021 92.9483 150.805 88.283 150.805 85.9504C150.805 83.6178 153.021 78.5638 155.237 78.2134C157.084 78.9525 158.93 81.5731 159.669 85.9504Z" fill="#3A3A3A"/>
<path d="M120.337 168.534C114.239 148.573 115.901 145.249 136.399 124.197C155.236 115.332 170.194 113.116 183.679 129.816C195.369 144.294 183.692 161.702 166.201 172.394C148.709 183.086 124.864 183.354 120.337 168.534Z" fill="#F3AD71"/>
<path fill-rule="evenodd" clip-rule="evenodd" d="M95.7306 125.542C94.3878 126.812 92.3059 127.977 89.8341 128.721C85.0376 130.165 80.5892 129.475 79.8982 127.179C79.7675 126.745 79.7807 126.284 79.9206 125.812C78.1504 127.341 77.2634 129.137 77.7365 130.709C78.565 133.461 83.2514 134.484 88.2039 132.994C93.0182 131.545 96.3117 128.254 95.7306 125.542Z" fill="#854A20"/>
<path fill-rule="evenodd" clip-rule="evenodd" d="M106.123 99.4394C105.077 100.722 103.393 101.833 101.342 102.45C97.362 103.648 93.5089 102.536 92.7357 99.9675C92.5894 99.4814 92.5638 98.978 92.6455 98.4731C91.2568 100.006 90.6432 101.901 91.1725 103.66C92.0998 106.741 96.1826 108.235 100.292 106.998C104.287 105.796 106.836 102.455 106.123 99.4394Z" fill="#854A20"/>
<path fill-rule="evenodd" clip-rule="evenodd" d="M91.0111 146.202C90.1492 147.244 88.7636 148.149 87.079 148.656C83.8102 149.64 80.6536 148.754 80.0286 146.678C79.9104 146.285 79.8912 145.877 79.96 145.468C78.8152 146.714 78.3049 148.251 78.7328 149.672C79.4823 152.162 82.8259 153.357 86.201 152.341C89.4821 151.354 91.5851 148.64 91.0111 146.202Z" fill="#854A20"/>
<path fill-rule="evenodd" clip-rule="evenodd" d="M117.299 114.24C116.088 115.423 114.201 116.501 111.954 117.177C107.595 118.489 103.531 117.793 102.877 115.621C102.754 115.21 102.761 114.776 102.884 114.333C101.285 115.756 100.495 117.44 100.943 118.927C101.727 121.531 106.011 122.544 110.512 121.19C114.888 119.872 117.857 116.803 117.299 114.24Z" fill="#854A20"/>
<path d="M144.157 138.047L145.134 140.794L146.438 142.443L148.067 143.541L149.697 143.587L151.326 143.541L152.956 142.443L154.259 140.794L155.237 138.047" stroke="#EF8132" stroke-linecap="round"/>
<path d="M130.86 158.964L131.838 161.711L133.142 163.359L134.771 164.458L136.401 164.504L138.03 164.458L139.659 163.359L140.963 161.711L141.941 158.964" stroke="#EF8132" stroke-linecap="round"/>
<path d="M157.453 153.424L158.431 156.171L159.734 157.819L161.364 158.918L162.993 158.964L164.623 158.918L166.252 157.819L167.556 156.171L168.533 153.424" stroke="#EF8132" stroke-linecap="round"/>
<path d="M165.209 132.507L166.284 135.254L167.718 136.903L169.511 138.001L171.303 138.047L173.096 138.001L174.888 136.903L176.322 135.254L177.397 132.507" stroke="#EF8132" stroke-linecap="round"/>
</g>
<defs>
<filter id="filter0_d_51_118" x="53.3721" y="29.3672" width="144.646" height="169.563" filterUnits="userSpaceOnUse" color-interpolation-filters="sRGB">
<feFlood flood-opacity="0" result="BackgroundImageFix"/>
<feColorMatrix in="SourceAlpha" type="matrix" values="0 0 0 0 0 0 0 0 0 0 0 0 0 0 0 0 0 0 127 0" result="hardAlpha"/>
<feOffset dy="4"/>
<feGaussianBlur stdDeviation="2"/>
<feComposite in2="hardAlpha" operator="out"/>
<feColorMatrix type="matrix" values="0 0 0 0 0 0 0 0 0 0 0 0 0 0 0 0 0 0 0.25 0"/>
<feBlend mode="normal" in2="BackgroundImageFix" result="effect1_dropShadow_51_118"/>
<feBlend mode="normal" in="SourceGraphic" in2="effect1_dropShadow_51_118" result="shape"/>
</filter>
</defs>
</svg>
