<svg width="200" height="200" viewBox="0 0 200 200" fill="none" xmlns="http://www.w3.org/2000/svg">
<g clip-path="url(#clip0_51_303)">
<g filter="url(#filter0_d_51_303)">
<path d="M108.076 173.906C115.576 176.589 118.484 186.712 117.638 189.354C116.792 191.996 113.554 183.473 106.17 179.798C98.7871 176.124 91.3304 182.736 92.1767 180.094C93.023 177.452 100.575 171.223 108.076 173.906Z" fill="#35302D"/>
<path d="M113.739 172.417C121.08 175.554 123.43 185.837 122.44 188.423C121.451 191.009 118.684 182.302 111.515 178.183C104.345 174.064 96.5388 180.209 97.5282 177.623C98.5177 175.037 106.398 169.28 113.739 172.417Z" fill="#35302D"/>
<path d="M102.918 175.459C108.225 177.727 109.077 187.371 108.088 189.957C107.098 192.543 105.784 184.456 100.698 181.227C95.611 177.998 89.1042 184.699 90.0937 182.113C91.0831 179.527 97.611 173.192 102.918 175.459Z" fill="#35302D"/>
<path d="M150.558 171.661C158.059 174.344 160.967 184.467 160.121 187.109C159.275 189.751 156.036 181.228 148.653 177.554C141.27 173.879 133.813 180.492 134.66 177.849C135.506 175.207 143.058 168.978 150.558 171.661Z" fill="#35302D"/>
<path d="M156.222 170.172C163.563 173.309 165.913 183.593 164.923 186.179C163.934 188.765 161.167 180.058 153.998 175.938C146.828 171.819 139.022 177.964 140.011 175.378C141.001 172.792 148.881 167.036 156.222 170.172Z" fill="#35302D"/>
<path d="M145.401 173.215C150.707 175.482 151.56 185.126 150.57 187.712C149.581 190.298 148.267 182.212 143.181 178.982C138.094 175.753 131.587 182.454 132.577 179.868C133.566 177.282 140.094 170.947 145.401 173.215Z" fill="#35302D"/>
<path d="M185.025 74.5995C185.025 95.3634 186.663 113.321 163.735 113.321C140.807 113.321 92.4547 115.005 101.434 74.5995C104.24 55.5192 120.582 39.2449 143.51 39.2449C166.438 39.2449 185.025 55.0737 185.025 74.5995Z" fill="#213D71"/>
<path d="M181.095 101.812C181.095 121.143 169.219 136.813 154.57 136.813C139.92 136.813 128.044 121.143 128.044 101.812C128.044 82.4818 134.336 68.4268 148.985 68.4268C183.887 68.4268 181.095 82.4818 181.095 101.812Z" fill="#FFF9F9"/>
<path d="M174.245 160.321C174.245 173.894 130.7 185.431 102.024 176.883C73.3484 172.075 65.3829 165.663 46.2656 154.444C46.2656 140.871 73.5758 127.73 102.024 127.73C130.473 127.73 174.245 146.747 174.245 160.321Z" fill="#FFF9F9"/>
<ellipse cx="138.665" cy="130.402" rx="36.1103" ry="33.6589" fill="#FFF9F9"/>
<path d="M195.151 120.781C191.784 139.978 182.244 173.623 161.48 164.551C140.405 164.551 116.585 137.76 116.585 119.193C116.585 100.627 145.455 80.7727 166.531 80.7727C187.606 80.7727 194.029 103.705 195.151 120.781Z" fill="#FFF9F9"/>
<path d="M168.85 88.3388C168.85 99.9559 172.297 119.646 149.759 111.33C127.221 103.014 125.921 99.9559 125.921 88.3388C125.921 76.7217 135.531 67.3042 147.385 67.3042C159.24 67.3042 184.948 70.7284 168.85 88.3388Z" fill="#FF8D5F"/>
<path d="M184.995 93.3769C184.995 105.498 181.347 116.688 172.61 116.688C167.969 116.688 127.331 111.202 144.788 79.7769C144.788 67.6556 171.183 68.4367 179.921 68.4367C186.686 69.9331 184.995 81.2557 184.995 93.3769Z" fill="#FF8D5F"/>
<path d="M191.234 100.976C194.991 112.761 178.573 114.444 170.647 120.617C142.694 110.018 145.489 109.955 155.454 102.162C155.454 91.934 164.331 75.1611 173.903 75.1611C180.612 79.0894 188.929 93.7441 191.234 100.976Z" fill="#FF8D5F"/>
<ellipse rx="22.3808" ry="3.70849" transform="matrix(0.966452 -0.256848 -0.231508 -0.972833 119.734 46.3562)" fill="#213D71"/>
<ellipse rx="22.3808" ry="4.41766" transform="matrix(0.966452 -0.256848 -0.231508 -0.972833 117.774 52.658)" fill="#213D71"/>
<ellipse rx="19.0198" ry="3.38247" transform="matrix(0.814982 -0.579486 -0.537071 -0.843537 109.252 55.3643)" fill="#213D71"/>
<ellipse rx="19.0198" ry="2.54118" transform="matrix(0.814982 -0.579486 -0.537071 -0.843537 111.987 58.022)" fill="#213D71"/>
<path d="M25.2648 138.883C52.7641 161.229 42.3328 158.213 39.331 160.448C32.4587 165.565 21.9594 157.633 13.859 145.483C5.75863 133.334 3.95714 119.141 4.03809 116.335C6.70287 117.933 14.0175 128.746 25.2648 138.883Z" fill="#213D71"/>
<path d="M43.2598 135.561C70.8736 157.822 60.3658 154.863 57.3232 157.128C54.2806 159.394 43.2144 155.775 35.114 143.625C26.0864 132.401 21.8782 115.874 21.9769 113.055C24.6562 114.642 31.9718 125.454 43.2598 135.561Z" fill="#213D71"/>
<circle cx="173.826" cy="69.5488" r="8.97896" fill="#FFF9F9"/>
<ellipse cx="114.687" cy="115.528" rx="24.4276" ry="25.2533" transform="rotate(14.3181 114.687 115.528)" fill="#213D71"/>
<path d="M15.5866 170.494L12.0565 170.337L8.1309 167.973L6.48909 165.816L6.25991 163.123L11.6149 163.615L16.3543 162.225L31.5601 149.889L54.0977 131.02L79.3287 110.239L90.2764 100.735L100.171 95.162L100.858 95.1926L120.498 139.701L93.6345 149.188L67.2547 157.545L41.1746 165.28L15.5866 170.494Z" fill="#213D71"/>
<ellipse rx="6.90344" ry="7.29541" transform="matrix(-1 0 0 1 172.873 68.9875)" fill="black"/>
<ellipse rx="2.30115" ry="2.4318" transform="matrix(-1 0 0 1 171.34 67.3661)" fill="#FFF9F9"/>
<circle cx="144.644" cy="69.5488" r="8.97896" fill="#FFF9F9"/>
<ellipse cx="145.569" cy="68.9875" rx="6.90344" ry="7.29541" fill="black"/>
<ellipse cx="147.34" cy="67.4911" rx="2.30115" ry="2.4318" fill="#FFF9F9"/>
<path d="M163.179 93.0968C161.845 91.5453 158.124 88.7124 156.098 84.4399C154.846 80.0361 152.286 79.7381 160.148 76.6396C164.486 76.5471 164.339 76.2099 165.961 80.8067C166.921 85.3647 164.788 90.5288 163.179 93.0968Z" fill="#F9C740"/>
<path d="M47.7465 141.645L48.4939 143.49L49.9625 144.324L52.2518 143.595L55.8843 141.398L58.9941 139.106L61.5813 136.72L64.2677 133.782L69.0187 128.364" stroke="#122C5D" stroke-linecap="round"/>
<path d="M35.4457 154.543L36.1931 156.388L37.6618 157.222L39.951 156.493L43.5835 154.295L46.6933 152.004L49.2805 149.618L51.967 146.68L56.718 141.262" stroke="#122C5D" stroke-linecap="round"/>
<path d="M51.8681 147.232L52.6155 149.077L54.0841 149.911L56.3734 149.183L60.0058 146.985L63.1157 144.693L65.7028 142.307L68.3893 139.369L73.1403 133.952" stroke="#122C5D" stroke-linecap="round"/>
<path d="M68.0913 141.026L68.8386 142.871L70.3073 143.705L72.5965 142.977L76.229 140.779L79.3388 138.487L81.926 136.101L84.6125 133.163L89.3635 127.746" stroke="#122C5D" stroke-linecap="round"/>
<path d="M62.6142 135.48L63.3616 137.325L64.8302 138.159L67.1195 137.43L70.7519 135.233L73.8618 132.941L76.4489 130.555L79.1354 127.617L83.8864 122.199" stroke="#122C5D" stroke-linecap="round"/>
<path d="M85.7573 132.799L86.5046 134.644L87.9733 135.479L90.2625 134.75L93.895 132.552L97.0048 130.26L99.592 127.875L102.278 124.936L107.029 119.519" stroke="#122C5D" stroke-linecap="round"/>
<path d="M78.8373 129.274L79.5847 131.119L81.0534 131.953L83.3426 131.224L86.9751 129.027L90.0849 126.735L92.6721 124.349L95.3586 121.411L100.11 115.993" stroke="#122C5D" stroke-linecap="round"/>
</g>
</g>
<defs>
<filter id="filter0_d_51_303" x="0.0356445" y="39.2449" width="199.116" height="159.214" filterUnits="userSpaceOnUse" color-interpolation-filters="sRGB">
<feFlood flood-opacity="0" result="BackgroundImageFix"/>
<feColorMatrix in="SourceAlpha" type="matrix" values="0 0 0 0 0 0 0 0 0 0 0 0 0 0 0 0 0 0 127 0" result="hardAlpha"/>
<feOffset dy="4"/>
<feGaussianBlur stdDeviation="2"/>
<feComposite in2="hardAlpha" operator="out"/>
<feColorMatrix type="matrix" values="0 0 0 0 0 0 0 0 0 0 0 0 0 0 0 0 0 0 0.25 0"/>
<feBlend mode="normal" in2="BackgroundImageFix" result="effect1_dropShadow_51_303"/>
<feBlend mode="normal" in="SourceGraphic" in2="effect1_dropShadow_51_303" result="shape"/>
</filter>
<clipPath id="clip0_51_303">
<rect width="200" height="200" fill="white"/>
</clipPath>
</defs>
</svg>
