<svg width="60" height="47" viewBox="0 0 60 47" fill="none" xmlns="http://www.w3.org/2000/svg">
<path d="M59.9799 19.3723C59.6497 13.063 53.9873 8.33278 47.6696 8.33278H46.6935C41.1915 8.33278 35.8342 6.64008 31.304 3.51613C26.9301 0.499481 21.2999 -0.819263 15.3447 0.526564C13.4687 0.949479 -0.00832943 4.81613 3.86292e-06 19.9994C0.00417051 27.39 4.02915 33.8327 9.99892 37.292V44.9993C9.99892 45.9201 10.7447 46.6659 11.6656 46.6659H13.3322C14.2531 46.6659 14.9989 45.9201 14.9989 44.9993V39.3472C16.5989 39.7597 18.2697 39.9993 19.9989 39.9993C20.5655 39.9993 21.1114 39.9233 21.6655 39.8764V44.9993C21.6655 45.9201 22.4114 46.6659 23.3322 46.6659H24.9988C25.9197 46.6659 26.6655 45.9201 26.6655 44.9993V38.8087C28.1488 38.2816 29.5697 37.6222 30.8676 36.7764C35.6321 33.6712 41.0269 31.666 46.7144 31.666C49.3685 31.666 48.3821 31.6337 49.1154 31.5848L56.8664 45.7972C57.1643 46.342 57.731 46.6659 58.3299 46.6659C58.4664 46.6659 58.6049 46.6493 58.7414 46.6139C59.4799 46.4264 59.9966 45.7607 59.9966 44.9993C59.9966 44.9993 60.0112 19.9744 59.9799 19.3723ZM48.33 22.4994C46.9498 22.4994 45.83 21.3796 45.83 19.9994C45.83 18.6181 46.9498 17.4994 48.33 17.4994C49.7102 17.4994 50.83 18.6181 50.83 19.9994C50.83 21.3796 49.7102 22.4994 48.33 22.4994ZM56.6633 38.4629L52.5112 30.8504C54.0862 30.2431 55.5039 29.3296 56.6633 28.1441V38.4629Z" fill="#2F4858"/>
</svg>
