<svg width="163" height="163" viewBox="0 0 163 163" fill="none" xmlns="http://www.w3.org/2000/svg">
<g clip-path="url(#clip0_165_5535)">
<path d="M90.8189 13.0997C90.4956 8.96856 92.1872 5.46967 94.5939 5.28133C97.0029 5.09281 99.216 8.28849 99.5391 12.4173L100.891 29.6918C101.214 33.8229 99.525 37.3216 97.116 37.5101C94.7093 37.6985 92.4938 34.503 92.1707 30.3742L90.8189 13.0997ZM58.541 15.6256C58.2178 11.4945 59.9093 7.99557 62.316 7.80724C64.7227 7.6189 66.9382 10.8144 67.2613 14.9432L68.6131 32.2177C68.9364 36.3488 67.2448 39.8477 64.8381 40.036C62.4314 40.2244 60.216 37.0289 59.8929 32.9001L58.541 15.6256Z" fill="#F79420"/>
<path d="M154.045 54.8412C154.813 64.6502 140.329 62.8168 128.954 63.707C117.57 64.5978 107.474 65.5713 106.707 55.7669C105.938 45.9438 114.546 37.27 125.92 36.3799C137.304 35.4891 153.277 45.0204 154.045 54.8412ZM5.74795 66.4462C6.51556 76.2553 20.5381 72.1911 31.9244 71.3C43.306 70.4094 53.4308 69.8004 52.6635 59.996C51.8948 50.1729 42.043 42.9437 30.6614 43.8344C19.2844 44.7247 4.97943 56.6254 5.74795 66.4462Z" fill="#58767D"/>
<path d="M136.42 62.8266C134.655 40.2619 108.04 23.9558 76.9355 26.3899C45.8376 28.8235 22.0767 49.0694 23.8427 71.6363C25.6068 94.1799 55.1504 147.829 86.2483 145.396C117.353 142.961 138.185 85.3701 136.42 62.8266Z" fill="#7094A6"/>
<path d="M105.148 90.5581C98.7837 91.0561 94.1137 97.7158 94.7176 105.433C95.3215 113.15 100.971 119.002 107.335 118.504C113.7 118.006 118.37 111.346 117.766 103.629C117.162 95.9121 111.513 90.06 105.148 90.5581Z" fill="#F4F5F5"/>
<path d="M98.5545 104.591C98.1537 99.4696 101.254 95.0517 105.47 94.7218C109.694 94.3913 113.444 98.2707 113.845 103.395C114.246 108.51 111.145 112.935 106.921 113.265C102.706 113.595 98.9548 109.706 98.5545 104.591Z" fill="#25333A"/>
<path d="M58.9657 94.1718C52.6011 94.6699 47.9311 101.33 48.535 109.047C49.1389 116.764 54.788 122.616 61.1526 122.118C67.5172 121.62 72.1872 114.96 71.5833 107.243C70.9794 99.5259 65.3303 93.6738 58.9657 94.1718Z" fill="#F4F5F5"/>
<path d="M59.2916 98.3356C55.0705 98.6659 51.9734 103.085 52.3741 108.205C52.7748 113.326 56.5216 117.209 60.7427 116.879C64.9638 116.549 68.0609 112.13 67.6602 107.009C67.2595 101.889 63.5127 98.0052 59.2916 98.3356Z" fill="#25333A"/>
<path d="M96.2697 90.5076C96.799 97.2721 90.0319 92.6602 82.1809 93.2746C74.3252 93.8893 68.3649 99.4972 67.8355 92.7327C67.3053 85.9565 72.6662 72.6587 80.5195 72.0441C88.3705 71.4298 95.7394 83.7314 96.2697 90.5076Z" fill="#F05A2A"/>
<path d="M96.631 95.1201C97.1603 101.885 90.391 97.2752 82.5447 97.8892C74.6984 98.5032 68.7283 104.107 68.1991 97.345C67.669 90.5712 73.037 77.2728 80.8833 76.6588C88.7296 76.0448 96.1009 88.3462 96.631 95.1201Z" fill="#F79420"/>
</g>
<defs>
<clipPath id="clip0_165_5535">
<rect width="150" height="150" fill="white" transform="translate(162.155 150.453) rotate(175.525)"/>
</clipPath>
</defs>
</svg>
