<svg width="415" height="227" viewBox="0 0 415 227" fill="none" xmlns="http://www.w3.org/2000/svg">
<path fill-rule="evenodd" clip-rule="evenodd" d="M115.271 190.55C103.125 201.283 85.7698 208 66.5 208C29.7731 208 0 183.6 0 153.5C0 135.982 10.0854 120.394 25.7573 110.423C24.6049 106.571 24 102.584 24 98.5C24 65.6391 63.1751 39 111.5 39C123.594 39 135.116 40.6686 145.593 43.6857C157.168 18.084 185.449 0 218.5 0C253.713 0 283.511 20.5272 293.46 48.8032C303.141 46.3426 313.596 45 324.5 45C374.482 45 415 73.2061 415 108C415 140.382 379.905 167.057 334.749 170.6C322.218 202.946 274.926 227 218.5 227C174.47 227 136.001 212.354 115.271 190.55Z" fill="#FFF8F7"/>
</svg>
