<svg width="357" height="231" viewBox="0 0 357 231" fill="none" xmlns="http://www.w3.org/2000/svg">
<g filter="url(#filter0_d_936_652)">
<path fill-rule="evenodd" clip-rule="evenodd" d="M287.999 57.7874C287.999 57.8588 287.998 57.9302 287.997 58.0016C288.165 58.0005 288.332 58 288.5 58C324.122 58 353 81.505 353 110.5C353 139.495 324.122 163 288.5 163C280.939 163 273.681 161.941 266.939 159.995C266.979 160.826 267 161.661 267 162.5C267 195.913 234.541 223 194.5 223C163.078 223 136.325 206.319 126.264 182.99C114.179 188.079 100.07 191 85 191C40.265 191 4 165.256 4 133.5C4 109.487 24.7358 88.9118 54.1899 80.3057C54.064 78.8841 54 77.4482 54 76C54 43.9675 85.3401 18 124 18C135.856 18 147.023 20.4422 156.81 24.7526C169.81 9.79425 191.473 0 216 0C255.765 0 288 25.7436 288 57.5C288 57.5959 288 57.6917 287.999 57.7874Z" fill="#FFF8F7"/>
</g>
<defs>
<filter id="filter0_d_936_652" x="0" y="0" width="357" height="231" filterUnits="userSpaceOnUse" color-interpolation-filters="sRGB">
<feFlood flood-opacity="0" result="BackgroundImageFix"/>
<feColorMatrix in="SourceAlpha" type="matrix" values="0 0 0 0 0 0 0 0 0 0 0 0 0 0 0 0 0 0 127 0" result="hardAlpha"/>
<feOffset dy="4"/>
<feGaussianBlur stdDeviation="2"/>
<feComposite in2="hardAlpha" operator="out"/>
<feColorMatrix type="matrix" values="0 0 0 0 0 0 0 0 0 0 0 0 0 0 0 0 0 0 0.25 0"/>
<feBlend mode="normal" in2="BackgroundImageFix" result="effect1_dropShadow_936_652"/>
<feBlend mode="normal" in="SourceGraphic" in2="effect1_dropShadow_936_652" result="shape"/>
</filter>
</defs>
</svg>
