<svg width="478" height="329" viewBox="0 0 478 329" fill="none" xmlns="http://www.w3.org/2000/svg">
<path fill-rule="evenodd" clip-rule="evenodd" d="M334.253 302.09C343.101 305.878 353.022 308 363.5 308C400.779 308 431 281.137 431 248C431 243.386 430.414 238.893 429.305 234.578C457.913 222.089 478 192.729 478 158.5C478 112.937 442.407 76 398.5 76C396.446 76 394.411 76.0808 392.397 76.2395C376.143 32.1154 326.374 0 267.5 0C207.795 0 157.454 33.0286 141.935 78.1155C133.748 76.7305 125.236 76 116.5 76C52.1588 76 0 115.623 0 164.5C0 207.267 39.9337 242.949 93.0204 251.202C101.438 295.032 160.899 329 233 329C272.731 329 308.624 318.686 334.253 302.09Z" fill="#FFF8F7"/>
</svg>
