<svg width="1440" height="1094" viewBox="0 0 1440 1094" fill="none" xmlns="http://www.w3.org/2000/svg">
<g clip-path="url(#clip0_1221_653)">
<g filter="url(#filter0_d_1221_653)">
<path fill-rule="evenodd" clip-rule="evenodd" d="M1356.27 114.197C1356.27 117.485 1356.03 120.731 1355.57 123.926C1392.16 137.557 1417 164.124 1417 194.664C1417 220.998 1398.53 244.378 1369.98 259.058C1371.2 264.281 1371.83 269.652 1371.83 275.131C1371.83 327.119 1314.82 369.263 1244.49 369.263C1215.88 369.263 1189.48 362.291 1168.22 350.52C1133.98 368.12 1089.49 378.751 1040.85 378.751C932.687 378.751 845 326.156 845 261.277C845 221.763 877.525 186.805 927.394 165.511C928.992 114.366 997.616 73.2049 1082.04 73.2049C1097.96 73.2049 1113.32 74.6688 1127.77 77.3875C1146.56 46.49 1188.27 25 1236.71 25C1302.74 25 1356.27 64.9349 1356.27 114.197Z" fill="#FFF8F7"/>
</g>
<g filter="url(#filter1_d_1221_653)">
<path fill-rule="evenodd" clip-rule="evenodd" d="M643.543 388.776C621.886 407.914 590.939 419.892 556.578 419.892C491.089 419.892 438 376.382 438 322.711C438 291.473 455.984 263.678 483.929 245.9C481.874 239.03 480.795 231.92 480.795 224.638C480.795 166.043 550.649 118.542 636.819 118.542C658.385 118.542 678.929 121.517 697.612 126.897C718.252 81.2461 768.68 49 827.614 49C890.404 49 943.537 85.6027 961.279 136.023C978.541 131.635 997.182 129.241 1016.63 129.241C1105.75 129.241 1178 179.536 1178 241.578C1178 299.319 1115.42 346.885 1034.9 353.203C1012.56 410.88 928.229 453.771 827.615 453.771C749.103 453.771 680.508 427.655 643.543 388.776Z" fill="#FFF8F7"/>
</g>
<g filter="url(#filter2_d_1221_653)">
<path fill-rule="evenodd" clip-rule="evenodd" d="M437.167 117.077C438.749 110.982 439.579 104.677 439.579 98.2214C439.579 45.6321 384.486 3 316.524 3C257.667 3 208.46 34.9751 196.333 77.7013C187.803 76.7462 179.012 76.2472 170.03 76.2472C89.9319 76.2472 25 115.928 25 164.876C25 191.288 43.9052 215.002 73.8971 231.239C62.2962 246.965 55.7638 264.73 55.7638 283.537C55.7638 347.858 132.174 400 226.43 400C303.192 400 368.118 365.417 389.574 317.837C399.364 320.776 409.761 322.358 420.535 322.358C478.788 322.358 526.011 276.119 526.011 219.079C526.011 167.581 487.517 124.887 437.167 117.077Z" fill="#FFF8F7"/>
</g>
<g filter="url(#filter3_d_1221_653)">
<path fill-rule="evenodd" clip-rule="evenodd" d="M1062.48 694.123C1064.97 686.262 1066.27 678.13 1066.27 669.804C1066.27 601.981 979.592 547 872.666 547C780.063 547 702.645 588.237 683.565 643.34C670.144 642.108 656.312 641.465 642.18 641.465C516.16 641.465 414 692.64 414 755.767C414 789.83 443.744 820.413 490.932 841.354C472.68 861.634 462.402 884.546 462.402 908.801C462.402 991.753 582.62 1059 730.917 1059C851.69 1059 953.839 1014.4 987.597 953.037C1003 956.827 1019.36 958.867 1036.31 958.867C1127.96 958.867 1202.26 899.233 1202.26 825.672C1202.26 759.256 1141.7 704.194 1062.48 694.123Z" fill="#FFF8F7"/>
</g>
<g filter="url(#filter4_d_1221_653)">
<path fill-rule="evenodd" clip-rule="evenodd" d="M1273.25 994.09C1282.1 997.878 1292.02 1000 1302.5 1000C1339.78 1000 1370 973.137 1370 940C1370 935.386 1369.41 930.893 1368.3 926.578C1396.91 914.089 1417 884.729 1417 850.5C1417 804.937 1381.41 768 1337.5 768C1335.45 768 1333.41 768.081 1331.4 768.24C1315.14 724.115 1265.37 692 1206.5 692C1146.79 692 1096.45 725.029 1080.94 770.116C1072.75 768.731 1064.24 768 1055.5 768C991.159 768 939 807.623 939 856.5C939 899.267 978.934 934.949 1032.02 943.202C1040.44 987.032 1099.9 1021 1172 1021C1211.73 1021 1247.62 1010.69 1273.25 994.09Z" fill="#FFF8F7"/>
</g>
<g filter="url(#filter5_d_1221_653)">
<path fill-rule="evenodd" clip-rule="evenodd" d="M1056.8 661.33C1046.65 665.672 1035.28 668.105 1023.27 668.105C980.529 668.105 945.883 637.308 945.883 599.318C945.883 594.028 946.555 588.878 947.826 583.931C915.029 569.612 892 535.952 892 496.711C892 444.475 932.806 402.13 983.142 402.13C985.497 402.13 987.83 402.222 990.139 402.404C1008.77 351.819 1065.83 315 1133.33 315C1201.78 315 1259.49 352.865 1277.28 404.555C1286.67 402.967 1296.42 402.13 1306.44 402.13C1380.2 402.13 1440 447.555 1440 503.59C1440 552.62 1394.22 593.528 1333.36 602.989C1323.71 653.238 1255.54 692.18 1172.88 692.18C1127.33 692.18 1086.18 680.355 1056.8 661.33Z" fill="#FFF8F7"/>
</g>
<g filter="url(#filter6_d_1221_653)">
<path fill-rule="evenodd" clip-rule="evenodd" d="M713.752 419.39C713.752 435.323 711.182 450.739 706.381 465.347C778.927 482.144 831.285 530.105 831.285 586.65C831.285 657.179 749.823 714.355 649.334 714.355C618.682 714.355 589.8 709.035 564.461 699.639C537.192 734.37 490.23 757.3 436.869 757.3C359.471 757.3 295.534 709.059 285.632 646.539C187.34 645.754 108 588.883 108 518.842C108 468.157 149.547 424.369 209.757 403.74C211.46 342.813 261.386 293.945 322.725 293.945C341.045 293.945 358.347 298.304 373.65 306.042C409.41 272.224 460.946 251 518.238 251C626.217 251 713.752 326.391 713.752 419.39Z" fill="#FFF8F7"/>
</g>
<g filter="url(#filter7_d_1221_653)">
<path fill-rule="evenodd" clip-rule="evenodd" d="M129.663 749.702C129.663 750.035 129.664 750.369 129.668 750.702C129.334 750.7 129 750.699 128.665 750.699C57.6053 750.699 0 797.587 0 855.426C0 913.265 57.6053 960.154 128.665 960.154C143.749 960.154 158.226 958.041 171.675 954.159C171.595 955.816 171.554 957.482 171.554 959.156C171.554 1025.81 236.304 1079.84 316.177 1079.84C378.858 1079.84 432.225 1046.57 452.296 1000.03C476.403 1010.18 504.547 1016.01 534.609 1016.01C623.847 1016.01 696.188 964.655 696.188 901.307C696.188 853.405 654.825 812.362 596.069 795.195C596.32 792.359 596.448 789.495 596.448 786.606C596.448 722.707 533.931 670.907 456.812 670.907C433.161 670.907 410.884 675.779 391.362 684.377C365.429 654.538 322.216 635 273.289 635C193.966 635 129.663 686.354 129.663 749.702Z" fill="#FFF8F7"/>
</g>
</g>
<defs>
<filter id="filter0_d_1221_653" x="841" y="25" width="580" height="361.751" filterUnits="userSpaceOnUse" color-interpolation-filters="sRGB">
<feFlood flood-opacity="0" result="BackgroundImageFix"/>
<feColorMatrix in="SourceAlpha" type="matrix" values="0 0 0 0 0 0 0 0 0 0 0 0 0 0 0 0 0 0 127 0" result="hardAlpha"/>
<feOffset dy="4"/>
<feGaussianBlur stdDeviation="2"/>
<feComposite in2="hardAlpha" operator="out"/>
<feColorMatrix type="matrix" values="0 0 0 0 0 0 0 0 0 0 0 0 0 0 0 0 0 0 0.25 0"/>
<feBlend mode="normal" in2="BackgroundImageFix" result="effect1_dropShadow_1221_653"/>
<feBlend mode="normal" in="SourceGraphic" in2="effect1_dropShadow_1221_653" result="shape"/>
</filter>
<filter id="filter1_d_1221_653" x="434" y="49" width="748" height="412.771" filterUnits="userSpaceOnUse" color-interpolation-filters="sRGB">
<feFlood flood-opacity="0" result="BackgroundImageFix"/>
<feColorMatrix in="SourceAlpha" type="matrix" values="0 0 0 0 0 0 0 0 0 0 0 0 0 0 0 0 0 0 127 0" result="hardAlpha"/>
<feOffset dy="4"/>
<feGaussianBlur stdDeviation="2"/>
<feComposite in2="hardAlpha" operator="out"/>
<feColorMatrix type="matrix" values="0 0 0 0 0 0 0 0 0 0 0 0 0 0 0 0 0 0 0.25 0"/>
<feBlend mode="normal" in2="BackgroundImageFix" result="effect1_dropShadow_1221_653"/>
<feBlend mode="normal" in="SourceGraphic" in2="effect1_dropShadow_1221_653" result="shape"/>
</filter>
<filter id="filter2_d_1221_653" x="21" y="3" width="509.011" height="405" filterUnits="userSpaceOnUse" color-interpolation-filters="sRGB">
<feFlood flood-opacity="0" result="BackgroundImageFix"/>
<feColorMatrix in="SourceAlpha" type="matrix" values="0 0 0 0 0 0 0 0 0 0 0 0 0 0 0 0 0 0 127 0" result="hardAlpha"/>
<feOffset dy="4"/>
<feGaussianBlur stdDeviation="2"/>
<feComposite in2="hardAlpha" operator="out"/>
<feColorMatrix type="matrix" values="0 0 0 0 0 0 0 0 0 0 0 0 0 0 0 0 0 0 0.25 0"/>
<feBlend mode="normal" in2="BackgroundImageFix" result="effect1_dropShadow_1221_653"/>
<feBlend mode="normal" in="SourceGraphic" in2="effect1_dropShadow_1221_653" result="shape"/>
</filter>
<filter id="filter3_d_1221_653" x="410" y="547" width="796.259" height="520" filterUnits="userSpaceOnUse" color-interpolation-filters="sRGB">
<feFlood flood-opacity="0" result="BackgroundImageFix"/>
<feColorMatrix in="SourceAlpha" type="matrix" values="0 0 0 0 0 0 0 0 0 0 0 0 0 0 0 0 0 0 127 0" result="hardAlpha"/>
<feOffset dy="4"/>
<feGaussianBlur stdDeviation="2"/>
<feComposite in2="hardAlpha" operator="out"/>
<feColorMatrix type="matrix" values="0 0 0 0 0 0 0 0 0 0 0 0 0 0 0 0 0 0 0.25 0"/>
<feBlend mode="normal" in2="BackgroundImageFix" result="effect1_dropShadow_1221_653"/>
<feBlend mode="normal" in="SourceGraphic" in2="effect1_dropShadow_1221_653" result="shape"/>
</filter>
<filter id="filter4_d_1221_653" x="935" y="692" width="486" height="337" filterUnits="userSpaceOnUse" color-interpolation-filters="sRGB">
<feFlood flood-opacity="0" result="BackgroundImageFix"/>
<feColorMatrix in="SourceAlpha" type="matrix" values="0 0 0 0 0 0 0 0 0 0 0 0 0 0 0 0 0 0 127 0" result="hardAlpha"/>
<feOffset dy="4"/>
<feGaussianBlur stdDeviation="2"/>
<feComposite in2="hardAlpha" operator="out"/>
<feColorMatrix type="matrix" values="0 0 0 0 0 0 0 0 0 0 0 0 0 0 0 0 0 0 0.25 0"/>
<feBlend mode="normal" in2="BackgroundImageFix" result="effect1_dropShadow_1221_653"/>
<feBlend mode="normal" in="SourceGraphic" in2="effect1_dropShadow_1221_653" result="shape"/>
</filter>
<filter id="filter5_d_1221_653" x="888" y="315" width="556" height="385.18" filterUnits="userSpaceOnUse" color-interpolation-filters="sRGB">
<feFlood flood-opacity="0" result="BackgroundImageFix"/>
<feColorMatrix in="SourceAlpha" type="matrix" values="0 0 0 0 0 0 0 0 0 0 0 0 0 0 0 0 0 0 127 0" result="hardAlpha"/>
<feOffset dy="4"/>
<feGaussianBlur stdDeviation="2"/>
<feComposite in2="hardAlpha" operator="out"/>
<feColorMatrix type="matrix" values="0 0 0 0 0 0 0 0 0 0 0 0 0 0 0 0 0 0 0.25 0"/>
<feBlend mode="normal" in2="BackgroundImageFix" result="effect1_dropShadow_1221_653"/>
<feBlend mode="normal" in="SourceGraphic" in2="effect1_dropShadow_1221_653" result="shape"/>
</filter>
<filter id="filter6_d_1221_653" x="104" y="251" width="731.285" height="514.3" filterUnits="userSpaceOnUse" color-interpolation-filters="sRGB">
<feFlood flood-opacity="0" result="BackgroundImageFix"/>
<feColorMatrix in="SourceAlpha" type="matrix" values="0 0 0 0 0 0 0 0 0 0 0 0 0 0 0 0 0 0 127 0" result="hardAlpha"/>
<feOffset dy="4"/>
<feGaussianBlur stdDeviation="2"/>
<feComposite in2="hardAlpha" operator="out"/>
<feColorMatrix type="matrix" values="0 0 0 0 0 0 0 0 0 0 0 0 0 0 0 0 0 0 0.25 0"/>
<feBlend mode="normal" in2="BackgroundImageFix" result="effect1_dropShadow_1221_653"/>
<feBlend mode="normal" in="SourceGraphic" in2="effect1_dropShadow_1221_653" result="shape"/>
</filter>
<filter id="filter7_d_1221_653" x="-4" y="635" width="704.188" height="452.842" filterUnits="userSpaceOnUse" color-interpolation-filters="sRGB">
<feFlood flood-opacity="0" result="BackgroundImageFix"/>
<feColorMatrix in="SourceAlpha" type="matrix" values="0 0 0 0 0 0 0 0 0 0 0 0 0 0 0 0 0 0 127 0" result="hardAlpha"/>
<feOffset dy="4"/>
<feGaussianBlur stdDeviation="2"/>
<feComposite in2="hardAlpha" operator="out"/>
<feColorMatrix type="matrix" values="0 0 0 0 0 0 0 0 0 0 0 0 0 0 0 0 0 0 0.25 0"/>
<feBlend mode="normal" in2="BackgroundImageFix" result="effect1_dropShadow_1221_653"/>
<feBlend mode="normal" in="SourceGraphic" in2="effect1_dropShadow_1221_653" result="shape"/>
</filter>
<clipPath id="clip0_1221_653">
<rect width="1440" height="1094" fill="white"/>
</clipPath>
</defs>
</svg>
