<svg width="349" height="223" viewBox="0 0 349 223" fill="none" xmlns="http://www.w3.org/2000/svg">
<path fill-rule="evenodd" clip-rule="evenodd" d="M283.999 57.7874C283.999 57.8588 283.998 57.9302 283.997 58.0016C284.165 58.0005 284.332 58 284.5 58C320.122 58 349 81.505 349 110.5C349 139.495 320.122 163 284.5 163C276.939 163 269.681 161.941 262.939 159.995C262.979 160.826 263 161.661 263 162.5C263 195.913 230.541 223 190.5 223C159.078 223 132.325 206.319 122.264 182.99C110.179 188.079 96.0699 191 81 191C36.265 191 0 165.256 0 133.5C0 109.487 20.7358 88.9118 50.1899 80.3057C50.064 78.8841 50 77.4482 50 76C50 43.9675 81.3401 18 120 18C131.856 18 143.023 20.4422 152.81 24.7526C165.81 9.79425 187.473 0 212 0C251.765 0 284 25.7436 284 57.5C284 57.5959 284 57.6917 283.999 57.7874Z" fill="#FFF8F7"/>
</svg>
