<svg width="300" height="186" viewBox="0 0 300 186" fill="none" xmlns="http://www.w3.org/2000/svg">
<path fill-rule="evenodd" clip-rule="evenodd" d="M268.149 46.7817C268.149 48.506 268.024 50.2085 267.78 51.8844C286.973 59.0337 300 72.9671 300 88.9847C300 102.796 290.314 115.059 275.341 122.758C275.978 125.497 276.311 128.314 276.311 131.188C276.311 158.454 246.408 180.557 209.522 180.557C194.52 180.557 180.672 176.901 169.522 170.728C151.562 179.958 128.227 185.534 102.721 185.534C45.9896 185.534 0 157.949 0 123.922C0 103.198 17.0587 84.8634 43.2133 73.695C44.051 46.8704 80.0428 25.282 124.32 25.282C132.67 25.282 140.725 26.0498 148.306 27.4757C158.16 11.2709 180.036 0 205.441 0C240.074 0 268.149 20.9449 268.149 46.7817Z" fill="#FFF8F7"/>
</svg>
