<svg width="1440" height="1094" viewBox="0 0 1440 1094" fill="none" xmlns="http://www.w3.org/2000/svg">
<g clip-path="url(#clip0_1221_653)">
<g filter="url(#filter0_d_1221_653)">
<path fill-rule="evenodd" clip-rule="evenodd" d="M1348.37 250.42C1348.37 253.052 1348.18 255.652 1347.81 258.21C1377.11 269.125 1397 290.397 1397 314.85C1397 335.936 1382.21 354.656 1359.35 366.41C1360.33 370.592 1360.83 374.893 1360.83 379.28C1360.83 420.907 1315.18 454.651 1258.87 454.651C1235.97 454.651 1214.83 449.069 1197.8 439.644C1170.38 453.736 1134.76 462.249 1095.82 462.249C1009.21 462.249 939 420.136 939 368.187C939 336.548 965.043 308.558 1004.97 291.507C1006.25 250.556 1061.2 217.598 1128.8 217.598C1141.54 217.598 1153.84 218.77 1165.41 220.947C1180.46 196.207 1213.86 179 1252.64 179C1305.51 179 1348.37 210.976 1348.37 250.42Z" fill="#FFF8F7"/>
</g>
<g filter="url(#filter1_d_1221_653)">
<path fill-rule="evenodd" clip-rule="evenodd" d="M697.128 315.887C679.098 331.821 653.332 341.793 624.725 341.793C570.201 341.793 526 305.568 526 260.883C526 234.876 540.973 211.734 564.239 196.933C562.528 191.214 561.63 185.294 561.63 179.231C561.63 130.447 619.789 90.8987 691.531 90.8987C709.486 90.8987 726.59 93.3758 742.145 97.855C759.329 59.8472 801.314 33 850.381 33C902.658 33 946.895 63.4743 961.666 105.452C976.038 101.799 991.558 99.8062 1007.75 99.8062C1081.95 99.8062 1142.1 141.68 1142.1 193.335C1142.1 241.408 1090 281.01 1022.96 286.27C1004.36 334.29 934.15 370 850.381 370C785.014 370 727.905 348.256 697.128 315.887Z" fill="#FFF8F7"/>
</g>
<g filter="url(#filter2_d_1221_653)">
<path fill-rule="evenodd" clip-rule="evenodd" d="M489.167 179.077C490.749 172.982 491.579 166.677 491.579 160.221C491.579 107.632 436.486 65 368.524 65C309.667 65 260.46 96.9751 248.333 139.701C239.803 138.746 231.012 138.247 222.03 138.247C141.932 138.247 77 177.928 77 226.876C77 253.288 95.9052 277.002 125.897 293.239C114.296 308.965 107.764 326.73 107.764 345.537C107.764 409.858 184.174 462 278.43 462C355.192 462 420.118 427.417 441.574 379.837C451.364 382.776 461.761 384.358 472.535 384.358C530.788 384.358 578.011 338.119 578.011 281.079C578.011 229.581 539.517 186.887 489.167 179.077Z" fill="#FFF8F7"/>
</g>
<g filter="url(#filter3_d_1221_653)">
<path fill-rule="evenodd" clip-rule="evenodd" d="M1068.15 728.824C1070.18 722.422 1071.25 715.799 1071.25 709.018C1071.25 653.78 1000.65 609 913.562 609C838.141 609 775.088 642.586 759.548 687.464C748.617 686.461 737.352 685.937 725.842 685.937C623.204 685.937 540 727.617 540 779.031C540 806.774 564.225 831.682 602.657 848.737C587.792 865.255 579.421 883.915 579.421 903.67C579.421 971.231 677.333 1026 798.114 1026C896.478 1026 979.674 989.675 1007.17 939.698C1019.71 942.785 1033.04 944.447 1046.84 944.447C1121.49 944.447 1182 895.878 1182 835.965C1182 781.873 1132.67 737.027 1068.15 728.824Z" fill="#FFF8F7"/>
</g>
<g filter="url(#filter4_d_1221_653)">
<path fill-rule="evenodd" clip-rule="evenodd" d="M334.253 652.09C343.101 655.878 353.022 658 363.5 658C400.779 658 431 631.137 431 598C431 593.386 430.414 588.893 429.305 584.578C457.913 572.089 478 542.729 478 508.5C478 462.937 442.407 426 398.5 426C396.446 426 394.411 426.081 392.397 426.24C376.143 382.115 326.374 350 267.5 350C207.795 350 157.454 383.029 141.935 428.116C133.748 426.731 125.236 426 116.5 426C52.1588 426 0 465.623 0 514.5C0 557.267 39.9337 592.949 93.0204 601.202C101.438 645.032 160.899 679 233 679C272.731 679 308.624 668.686 334.253 652.09Z" fill="#FFF8F7"/>
</g>
<g filter="url(#filter5_d_1221_653)">
<path fill-rule="evenodd" clip-rule="evenodd" d="M1046.75 746.09C1037.9 749.878 1027.98 752 1017.5 752C980.221 752 950 725.137 950 692C950 687.386 950.586 682.893 951.695 678.578C923.087 666.089 903 636.729 903 602.5C903 556.937 938.593 520 982.5 520C984.554 520 986.589 520.081 988.603 520.24C1004.86 476.115 1054.63 444 1113.5 444C1173.21 444 1223.55 477.029 1239.06 522.116C1247.25 520.731 1255.76 520 1264.5 520C1328.84 520 1381 559.623 1381 608.5C1381 651.267 1341.07 686.949 1287.98 695.202C1279.56 739.032 1220.1 773 1148 773C1108.27 773 1072.38 762.686 1046.75 746.09Z" fill="#FFF8F7"/>
</g>
<g filter="url(#filter6_d_1221_653)">
<path fill-rule="evenodd" clip-rule="evenodd" d="M847.696 472.77C847.696 482.494 846.128 491.903 843.198 500.818C887.473 511.07 919.429 540.341 919.429 574.85C919.429 617.895 869.711 652.79 808.382 652.79C789.674 652.79 772.048 649.543 756.583 643.809C739.941 665.006 711.279 679 678.712 679C631.475 679 592.454 649.558 586.411 611.401C526.422 610.922 478 576.213 478 533.467C478 502.533 503.356 475.809 540.103 463.219C541.143 426.034 571.613 396.21 609.049 396.21C620.23 396.21 630.789 398.87 640.129 403.592C661.953 382.953 693.407 370 728.373 370C794.273 370 847.696 416.012 847.696 472.77Z" fill="#FFF8F7"/>
</g>
<g filter="url(#filter7_d_1221_653)">
<path fill-rule="evenodd" clip-rule="evenodd" d="M163.232 806.282C163.232 806.504 163.233 806.726 163.236 806.948C163.014 806.946 162.791 806.946 162.569 806.946C115.31 806.946 77 838.128 77 876.595C77 915.061 115.31 946.244 162.569 946.244C172.6 946.244 182.228 944.839 191.173 942.257C191.119 943.359 191.092 944.467 191.092 945.58C191.092 989.908 234.154 1025.84 287.274 1025.84C328.96 1025.84 364.452 1003.71 377.799 972.763C393.832 979.514 412.549 983.39 432.542 983.39C491.889 983.39 540 949.237 540 907.107C540 875.251 512.491 847.955 473.416 836.537C473.583 834.651 473.668 832.747 473.668 830.825C473.668 788.329 432.09 753.88 380.802 753.88C365.074 753.88 350.258 757.12 337.275 762.838C320.028 742.994 291.29 730 258.751 730C205.997 730 163.232 764.153 163.232 806.282Z" fill="#FFF8F7"/>
</g>
</g>
<defs>
<filter id="filter0_d_1221_653" x="935" y="179" width="466" height="291.249" filterUnits="userSpaceOnUse" color-interpolation-filters="sRGB">
<feFlood flood-opacity="0" result="BackgroundImageFix"/>
<feColorMatrix in="SourceAlpha" type="matrix" values="0 0 0 0 0 0 0 0 0 0 0 0 0 0 0 0 0 0 127 0" result="hardAlpha"/>
<feOffset dy="4"/>
<feGaussianBlur stdDeviation="2"/>
<feComposite in2="hardAlpha" operator="out"/>
<feColorMatrix type="matrix" values="0 0 0 0 0 0 0 0 0 0 0 0 0 0 0 0 0 0 0.25 0"/>
<feBlend mode="normal" in2="BackgroundImageFix" result="effect1_dropShadow_1221_653"/>
<feBlend mode="normal" in="SourceGraphic" in2="effect1_dropShadow_1221_653" result="shape"/>
</filter>
<filter id="filter1_d_1221_653" x="522" y="33" width="624.101" height="345" filterUnits="userSpaceOnUse" color-interpolation-filters="sRGB">
<feFlood flood-opacity="0" result="BackgroundImageFix"/>
<feColorMatrix in="SourceAlpha" type="matrix" values="0 0 0 0 0 0 0 0 0 0 0 0 0 0 0 0 0 0 127 0" result="hardAlpha"/>
<feOffset dy="4"/>
<feGaussianBlur stdDeviation="2"/>
<feComposite in2="hardAlpha" operator="out"/>
<feColorMatrix type="matrix" values="0 0 0 0 0 0 0 0 0 0 0 0 0 0 0 0 0 0 0.25 0"/>
<feBlend mode="normal" in2="BackgroundImageFix" result="effect1_dropShadow_1221_653"/>
<feBlend mode="normal" in="SourceGraphic" in2="effect1_dropShadow_1221_653" result="shape"/>
</filter>
<filter id="filter2_d_1221_653" x="73" y="65" width="509.011" height="405" filterUnits="userSpaceOnUse" color-interpolation-filters="sRGB">
<feFlood flood-opacity="0" result="BackgroundImageFix"/>
<feColorMatrix in="SourceAlpha" type="matrix" values="0 0 0 0 0 0 0 0 0 0 0 0 0 0 0 0 0 0 127 0" result="hardAlpha"/>
<feOffset dy="4"/>
<feGaussianBlur stdDeviation="2"/>
<feComposite in2="hardAlpha" operator="out"/>
<feColorMatrix type="matrix" values="0 0 0 0 0 0 0 0 0 0 0 0 0 0 0 0 0 0 0.25 0"/>
<feBlend mode="normal" in2="BackgroundImageFix" result="effect1_dropShadow_1221_653"/>
<feBlend mode="normal" in="SourceGraphic" in2="effect1_dropShadow_1221_653" result="shape"/>
</filter>
<filter id="filter3_d_1221_653" x="536" y="609" width="650" height="425" filterUnits="userSpaceOnUse" color-interpolation-filters="sRGB">
<feFlood flood-opacity="0" result="BackgroundImageFix"/>
<feColorMatrix in="SourceAlpha" type="matrix" values="0 0 0 0 0 0 0 0 0 0 0 0 0 0 0 0 0 0 127 0" result="hardAlpha"/>
<feOffset dy="4"/>
<feGaussianBlur stdDeviation="2"/>
<feComposite in2="hardAlpha" operator="out"/>
<feColorMatrix type="matrix" values="0 0 0 0 0 0 0 0 0 0 0 0 0 0 0 0 0 0 0.25 0"/>
<feBlend mode="normal" in2="BackgroundImageFix" result="effect1_dropShadow_1221_653"/>
<feBlend mode="normal" in="SourceGraphic" in2="effect1_dropShadow_1221_653" result="shape"/>
</filter>
<filter id="filter4_d_1221_653" x="-4" y="350" width="486" height="337" filterUnits="userSpaceOnUse" color-interpolation-filters="sRGB">
<feFlood flood-opacity="0" result="BackgroundImageFix"/>
<feColorMatrix in="SourceAlpha" type="matrix" values="0 0 0 0 0 0 0 0 0 0 0 0 0 0 0 0 0 0 127 0" result="hardAlpha"/>
<feOffset dy="4"/>
<feGaussianBlur stdDeviation="2"/>
<feComposite in2="hardAlpha" operator="out"/>
<feColorMatrix type="matrix" values="0 0 0 0 0 0 0 0 0 0 0 0 0 0 0 0 0 0 0.25 0"/>
<feBlend mode="normal" in2="BackgroundImageFix" result="effect1_dropShadow_1221_653"/>
<feBlend mode="normal" in="SourceGraphic" in2="effect1_dropShadow_1221_653" result="shape"/>
</filter>
<filter id="filter5_d_1221_653" x="899" y="444" width="486" height="337" filterUnits="userSpaceOnUse" color-interpolation-filters="sRGB">
<feFlood flood-opacity="0" result="BackgroundImageFix"/>
<feColorMatrix in="SourceAlpha" type="matrix" values="0 0 0 0 0 0 0 0 0 0 0 0 0 0 0 0 0 0 127 0" result="hardAlpha"/>
<feOffset dy="4"/>
<feGaussianBlur stdDeviation="2"/>
<feComposite in2="hardAlpha" operator="out"/>
<feColorMatrix type="matrix" values="0 0 0 0 0 0 0 0 0 0 0 0 0 0 0 0 0 0 0.25 0"/>
<feBlend mode="normal" in2="BackgroundImageFix" result="effect1_dropShadow_1221_653"/>
<feBlend mode="normal" in="SourceGraphic" in2="effect1_dropShadow_1221_653" result="shape"/>
</filter>
<filter id="filter6_d_1221_653" x="474" y="370" width="449.428" height="317" filterUnits="userSpaceOnUse" color-interpolation-filters="sRGB">
<feFlood flood-opacity="0" result="BackgroundImageFix"/>
<feColorMatrix in="SourceAlpha" type="matrix" values="0 0 0 0 0 0 0 0 0 0 0 0 0 0 0 0 0 0 127 0" result="hardAlpha"/>
<feOffset dy="4"/>
<feGaussianBlur stdDeviation="2"/>
<feComposite in2="hardAlpha" operator="out"/>
<feColorMatrix type="matrix" values="0 0 0 0 0 0 0 0 0 0 0 0 0 0 0 0 0 0 0.25 0"/>
<feBlend mode="normal" in2="BackgroundImageFix" result="effect1_dropShadow_1221_653"/>
<feBlend mode="normal" in="SourceGraphic" in2="effect1_dropShadow_1221_653" result="shape"/>
</filter>
<filter id="filter7_d_1221_653" x="73" y="730" width="471" height="303.842" filterUnits="userSpaceOnUse" color-interpolation-filters="sRGB">
<feFlood flood-opacity="0" result="BackgroundImageFix"/>
<feColorMatrix in="SourceAlpha" type="matrix" values="0 0 0 0 0 0 0 0 0 0 0 0 0 0 0 0 0 0 127 0" result="hardAlpha"/>
<feOffset dy="4"/>
<feGaussianBlur stdDeviation="2"/>
<feComposite in2="hardAlpha" operator="out"/>
<feColorMatrix type="matrix" values="0 0 0 0 0 0 0 0 0 0 0 0 0 0 0 0 0 0 0.25 0"/>
<feBlend mode="normal" in2="BackgroundImageFix" result="effect1_dropShadow_1221_653"/>
<feBlend mode="normal" in="SourceGraphic" in2="effect1_dropShadow_1221_653" result="shape"/>
</filter>
<clipPath id="clip0_1221_653">
<rect width="1440" height="1094" fill="white"/>
</clipPath>
</defs>
</svg>
