<svg width="216" height="208" viewBox="0 0 216 208" fill="none" xmlns="http://www.w3.org/2000/svg">
<path d="M63.4269 112.706L64.7563 116.245C67.2282 115.15 70.3102 113.783 73.1742 112.477L72.2227 109.115C69.0414 110.463 65.7055 111.863 63.4269 112.706ZM62.6293 102.807L63.0813 106.298L71.6498 105.188L71.1978 101.697L62.6293 102.807ZM64.9588 96.3743L68.3195 122.334C68.3729 122.746 68.2624 122.89 67.8816 122.939C67.5366 123.016 66.4259 123.16 65.3111 123.272C65.8745 124.135 66.4801 125.573 66.6904 126.449C68.658 126.194 69.9744 125.895 70.7932 125.24C71.6395 124.55 71.806 123.592 71.5923 121.942L68.2275 95.9512L64.9588 96.3743ZM72.2423 104.531L72.7024 108.085L81.5248 106.943L81.0646 103.389L72.2423 104.531ZM74.5706 97.8404L78.0833 124.974L81.352 124.551L77.8393 97.4172L74.5706 97.8404ZM78.5508 94.9374C76.6624 96.053 73.5916 97.2573 70.797 98.1031C71.3082 98.8113 71.9127 99.9914 72.17 100.733C75.1356 99.9614 78.6671 98.8266 81.2648 97.4578L78.5508 94.9374ZM75.0899 105.84C74.8695 109.87 73.7168 114.923 72.0473 117.979C72.7377 118.825 73.7835 120.174 74.2682 121.176C76.1658 117.639 77.1858 111.312 77.497 106.238L75.0899 105.84ZM79.1921 108.116L78.1251 110.093C79.0635 111.359 81.1286 114.351 81.9893 116.014L83.2081 112.468C82.6735 111.828 79.8896 108.768 79.1921 108.116ZM81.5992 101.287C81.9966 104.107 82.1659 107.408 81.5197 109.396L84.0306 110.845C84.8055 108.357 84.6422 104.603 84.1432 101.248L81.5992 101.287ZM89.4572 100.172C89.616 102.895 89.5378 106.777 89.3064 109.227L91.9151 109.438C92.2263 107.106 92.4285 103.434 92.6094 100.345L89.4572 100.172ZM83.9898 94.33L85.0868 102.803C85.8263 108.516 86.2788 115.749 82.6336 121.739C83.4017 122.188 84.6256 123.417 85.2125 124.212C89.6395 117.283 89.1589 109.084 88.292 102.388L87.1951 93.9151L83.9898 94.33ZM88.3299 104.674L85.7563 105.233C87.3188 113.066 89.2535 119.785 93.3673 122.898C93.7518 121.881 94.6818 120.341 95.2978 119.615C91.644 117.314 89.728 111.237 88.3299 104.674ZM107.646 120.534C105.89 120.761 104.403 120.824 103.185 120.724C101.97 120.645 100.962 120.334 100.161 119.793C99.3832 119.269 98.7631 118.468 98.3006 117.387C97.8381 116.307 97.4945 114.9 97.2699 113.165L95.7868 101.708C95.5594 99.9525 95.5332 98.5038 95.7082 97.3626C95.8803 96.2002 96.2744 95.2565 96.8904 94.5314C97.5276 93.8035 98.4235 93.2466 99.5782 92.8605C100.73 92.4532 102.184 92.1359 103.94 91.9086L112.858 90.7541C114.614 90.5267 116.09 90.4647 117.286 90.5679C118.501 90.6473 119.509 90.9577 120.311 91.4993C121.112 92.0409 121.734 92.8531 122.175 93.9361C122.635 94.9952 122.979 96.4027 123.206 98.1587L124.689 109.615C124.914 111.35 124.94 112.799 124.768 113.961C124.617 115.121 124.221 116.054 123.581 116.76C122.944 117.488 122.048 118.045 120.894 118.431C119.763 118.836 118.319 119.152 116.563 119.379L107.646 120.534ZM107.272 117.646L116.19 116.491C117.755 116.289 118.943 115.995 119.754 115.61C120.562 115.205 121.073 114.579 121.286 113.734C121.499 112.889 121.504 111.684 121.302 110.118L119.802 98.5349C119.599 96.9693 119.287 95.805 118.866 95.0422C118.444 94.2793 117.793 93.8151 116.911 93.6496C116.026 93.463 114.801 93.471 113.236 93.6737L110.126 94.0763C110.158 94.1582 110.179 94.2415 110.19 94.3261C110.22 94.3868 110.241 94.4701 110.255 94.5759L110.411 95.7818L117.456 94.8697C117.752 94.8314 118.021 94.9149 118.263 95.1202C118.502 95.3044 118.641 95.5446 118.679 95.8408C118.714 96.1158 118.643 96.394 118.464 96.6752C118.283 96.9354 118.044 97.0846 117.748 97.1229L110.703 98.035L110.814 98.8919L113.574 98.5344C114.992 98.3509 116.005 98.4457 116.612 98.8188C117.241 99.1891 117.624 99.9032 117.761 100.961L117.954 102.453C118.05 103.193 117.989 103.803 117.771 104.283C117.572 104.739 117.178 105.102 116.589 105.372C117.051 105.613 117.539 105.894 118.054 106.215C118.59 106.533 118.978 106.794 119.22 107C119.48 107.181 119.622 107.442 119.644 107.784C119.664 108.104 119.573 108.395 119.37 108.658C119.165 108.9 118.904 109.041 118.586 109.082C118.266 109.102 117.975 109.011 117.712 108.808C117.613 108.713 117.483 108.623 117.322 108.536C117.178 108.426 117.012 108.307 116.824 108.181L116.07 108.343L116.243 109.676L119.543 109.249C119.84 109.21 120.109 109.294 120.35 109.499C120.589 109.683 120.728 109.924 120.766 110.22C120.805 110.516 120.733 110.794 120.552 111.054C120.37 111.314 120.131 111.464 119.835 111.502L116.535 111.929L116.72 113.357C116.848 114.352 116.664 115.085 116.166 115.559C115.668 116.032 114.743 116.367 113.392 116.563C113.032 116.61 112.712 116.544 112.43 116.365C112.146 116.165 111.958 115.877 111.867 115.502C111.807 115.209 111.855 114.912 112.01 114.612C112.183 114.289 112.437 114.095 112.773 114.03C113.318 113.916 113.648 113.809 113.764 113.708C113.877 113.585 113.912 113.355 113.868 113.017L113.774 112.287L108.633 112.952C108.874 113.158 109.119 113.384 109.366 113.632C109.634 113.877 109.819 114.057 109.92 114.173C110.188 114.418 110.305 114.736 110.27 115.128C110.234 115.52 110.081 115.83 109.809 116.059C109.538 116.288 109.218 116.394 108.85 116.377C108.48 116.339 108.169 116.185 107.919 115.916C107.816 115.779 107.641 115.597 107.397 115.371C107.15 115.123 106.904 114.886 106.66 114.66C106.434 114.409 106.247 114.218 106.101 114.087C105.881 113.879 105.783 113.622 105.808 113.318L102.444 113.753C102.148 113.792 101.879 113.708 101.637 113.503C101.396 113.298 101.256 113.047 101.217 112.751C101.179 112.454 101.252 112.187 101.436 111.948C101.618 111.688 101.856 111.539 102.153 111.5L113.482 110.033L113.326 108.828C112.168 109.02 110.958 109.231 109.697 109.459C108.454 109.663 107.243 109.862 106.064 110.058C104.882 110.233 103.816 110.392 102.867 110.537C102.573 110.596 102.309 110.544 102.072 110.381C101.854 110.194 101.714 109.944 101.652 109.629C101.611 109.312 101.673 109.045 101.839 108.83C102.026 108.613 102.257 108.486 102.532 108.45C103.336 108.346 104.299 108.222 105.42 108.076C106.56 107.907 107.742 107.733 108.966 107.553L108.843 106.601L106.082 106.958C104.664 107.142 103.641 107.048 103.013 106.678C102.405 106.305 102.033 105.589 101.896 104.531L101.703 103.04C101.566 101.982 101.744 101.195 102.236 100.68C102.75 100.162 103.715 99.8108 105.133 99.6273L107.894 99.2698L107.783 98.413L100.801 99.3169C100.526 99.3525 100.268 99.2676 100.026 99.0623C99.7817 98.8358 99.6417 98.585 99.606 98.31C99.5677 98.0138 99.6406 97.7462 99.8248 97.5073C100.006 97.2471 100.234 97.0993 100.51 97.0637L107.491 96.1598L107.335 94.9539C107.31 94.7635 107.32 94.5901 107.365 94.4338L104.318 94.8282C102.752 95.0309 101.555 95.3365 100.726 95.745C99.9153 96.1296 99.4034 96.7444 99.1901 97.5894C98.9768 98.4345 98.9715 99.6398 99.1742 101.205L100.674 112.789C100.876 114.354 101.189 115.519 101.61 116.281C102.031 117.044 102.684 117.519 103.569 117.706C104.472 117.868 105.706 117.848 107.272 117.646ZM106.383 105.048L108.605 104.76L108.477 103.776L104.828 104.249C104.901 104.648 105.041 104.899 105.248 105.001C105.455 105.103 105.833 105.119 106.383 105.048ZM111.524 104.382L113.746 104.094C114.296 104.023 114.658 103.912 114.832 103.76C115.006 103.609 115.077 103.331 115.046 102.926L111.397 103.398L111.524 104.382ZM104.602 102.503L108.251 102.031L108.132 101.11L105.911 101.398C105.382 101.467 105.018 101.567 104.821 101.701C104.644 101.831 104.571 102.099 104.602 102.503ZM111.171 101.653L114.789 101.184C114.716 100.785 114.577 100.545 114.373 100.464C114.19 100.38 113.823 100.374 113.273 100.445L111.052 100.733L111.171 101.653ZM111.882 107.143L114.476 106.743L114.44 106.715C114.156 106.515 114.025 106.252 114.048 105.927L111.763 106.223L111.882 107.143ZM156.667 113.865C156.246 114.263 155.732 114.448 155.126 114.419C154.541 114.387 154.06 114.159 153.682 113.735C153.432 113.466 153.157 113.168 152.856 112.841C152.559 112.536 152.237 112.212 151.892 111.869C150.98 112.138 149.869 112.443 148.558 112.785C147.268 113.124 145.883 113.475 144.403 113.839C142.922 114.203 141.442 114.567 139.962 114.93C138.503 115.291 137.136 115.619 135.862 115.913C134.588 116.207 133.511 116.443 132.63 116.622C131.983 116.77 131.437 116.711 130.994 116.446C130.551 116.181 130.267 115.734 130.143 115.104C130.027 114.539 130.115 114.054 130.407 113.65C130.698 113.247 131.15 112.995 131.761 112.894C132.221 112.792 132.744 112.681 133.331 112.562C133.918 112.443 134.547 112.318 135.219 112.189C135.496 111.507 135.819 110.68 136.188 109.708C136.557 108.735 136.932 107.729 137.314 106.69C137.696 105.651 138.016 104.717 138.274 103.888L129.134 105.071C128.669 105.131 128.235 105.015 127.831 104.723C127.446 104.407 127.222 104.006 127.159 103.52C127.096 103.033 127.212 102.598 127.506 102.216C127.822 101.831 128.213 101.608 128.678 101.548L139.691 100.123L139.115 95.6796L130.864 96.7478C130.399 96.8081 129.975 96.6909 129.593 96.3962C129.207 96.0803 128.985 95.6897 128.925 95.2242C128.862 94.7376 128.979 94.3137 129.276 93.9526C129.571 93.5702 129.951 93.3489 130.416 93.2887L138.667 92.2205L138.269 89.1422C138.19 88.5286 138.328 88.016 138.683 87.6043C139.036 87.1714 139.487 86.9194 140.037 86.8482C140.587 86.777 141.077 86.9071 141.507 87.2386C141.956 87.5463 142.22 88.0068 142.299 88.6204L142.698 91.6987L151.076 90.6141C151.563 90.5511 151.986 90.6683 152.348 90.9657C152.727 91.2392 152.949 91.6193 153.012 92.1059C153.072 92.5713 152.956 93.0058 152.664 93.4093C152.39 93.7889 152.01 94.0102 151.524 94.0732L143.146 95.1578L143.721 99.6007L154.701 98.1792C155.188 98.1162 155.622 98.2321 156.005 98.5267C156.387 98.8214 156.61 99.2121 156.673 99.6987C156.736 100.185 156.621 100.63 156.329 101.034C156.035 101.416 155.644 101.639 155.157 101.702L142.844 103.296C142.627 103.948 142.352 104.726 142.017 105.629C141.682 106.533 141.32 107.473 140.93 108.448C140.558 109.4 140.192 110.308 139.83 111.172C141.437 110.792 143.057 110.421 144.688 110.059C146.316 109.676 147.755 109.329 149.005 109.016C148.591 108.64 148.19 108.283 147.802 107.946C147.412 107.588 147.048 107.269 146.71 106.99C146.277 106.637 146.028 106.207 145.962 105.699C145.918 105.189 146.092 104.704 146.484 104.244C146.839 103.833 147.283 103.603 147.815 103.556C148.365 103.485 148.868 103.635 149.325 104.006C149.874 104.429 150.489 104.941 151.169 105.542C151.849 106.142 152.544 106.773 153.253 107.434C153.963 108.095 154.626 108.73 155.242 109.338C155.856 109.925 156.363 110.43 156.761 110.852C157.16 111.273 157.363 111.763 157.371 112.321C157.382 112.901 157.147 113.415 156.667 113.865Z" fill="#2F4858"/>
<path d="M153.745 51.3496C152.327 50.5638 151.099 49.4748 150.151 48.1604C149.202 46.846 148.554 45.3385 148.255 43.7453C146.926 36.3549 146.289 28.8569 146.351 21.3483C132.567 29.0363 124.689 35.6032 121.19 38.8626C119.206 40.7114 116.609 41.7637 113.898 41.8183C106.126 41.979 98.4085 43.1591 90.9437 45.3283C48.6272 57.5525 25.4027 96.4674 35.1705 130.28C44.9351 164.083 85.3366 184.629 127.653 172.405C169.969 160.18 193.191 121.255 183.426 87.4527C178.935 71.907 168.235 59.3714 153.745 51.3496ZM147.019 8.48874C149.385 7.26655 151.77 6.08397 154.175 4.94151C156.195 3.99081 158.441 5.7285 158.174 7.93985C157.874 10.429 157.662 12.9279 157.538 15.4319L157.537 15.547C157.114 23.9302 157.507 33.3164 159.082 41.7075C175.839 50.9793 188.632 65.7557 194.016 84.3936C205.842 125.333 177.497 169.479 130.712 182.994C83.9268 196.51 36.4073 174.279 24.5808 133.339C12.7542 92.3996 41.0993 48.2538 87.8845 34.7386C96.272 32.3034 104.943 30.979 113.675 30.7993C118.377 26.4235 128.761 17.9279 147.019 8.48874Z" fill="#2F4858"/>
</svg>
