<svg width="1440" height="153" viewBox="0 0 1440 153" fill="none" xmlns="http://www.w3.org/2000/svg">
<g clip-path="url(#clip0_1208_651)">
<path d="M-80.0013 622.5C74.3553 567.24 -350.347 152.78 -256.638 23C-80.0012 -137 4.49905 123 404.499 123C619.499 123 764.499 60.5 1304.5 98C1504.5 123 1510.45 108.68 1616.07 123C1761.41 143.2 1731.73 -72.81 1779 -212C1878.86 -505.202 1789.39 -467.842 1644 -732C1553.93 -894.194 1419.17 -946.666 1249.5 -1021.71C1048.51 -1109.02 816.275 -1111 619.499 -1021.71C524.138 -978.431 435.149 -922 279.499 -922C44.4989 -922 -130.691 -966.215 -256.638 -1068.78C-470.308 -1241.97 -787.391 -1211.44 -984.941 -1028.51C-1189.73 -839.021 -1241.75 -401.785 -922.974 -289.8C-858.222 -266.978 -787.652 -264.32 -725.076 -237.043C-610.982 -187.145 -544.092 -63.07 -527.991 60.5C-484.977 395.83 -693.432 106.22 -655.001 423C-616.953 736.13 -603.079 719.01 -340.001 682.5C-280.854 673.76 -291.273 627.71 -235.001 607.5" fill="white"/>
</g>
<defs>
<clipPath id="clip0_1208_651">
<rect width="1440" height="153" fill="white"/>
</clipPath>
</defs>
</svg>
