<svg width="1440" height="544" viewBox="0 0 1440 544" fill="none" xmlns="http://www.w3.org/2000/svg">
<g clip-path="url(#clip0_1208_654)">
<path d="M-112.001 545.5C-112.001 418.5 -310.71 637.28 -217.001 507.5C-52.501 523.5 98.1485 544.65 426.499 375.5C525.499 324.5 1052.5 3.49904 1592.5 41.001C1792.5 66 1738.45 304.18 1844.07 318.5C1989.41 338.7 1959.73 122.69 2007 -16.4999C2106.86 -309.702 2017.39 -272.342 1872 -536.5C1781.93 -698.694 1651.22 -761.074 1477.5 -826.205C1246 -913 1058.28 -915.5 861.499 -826.205C766.138 -782.931 729.478 -699.583 590.499 -629.5C356.499 -511.5 -23.5544 -478.434 -149.501 -581C-363.172 -754.192 -559.391 -1015.94 -756.941 -833.015C-961.73 -643.521 -1013.75 -206.285 -694.974 -94.2999C-630.222 -71.4779 -559.652 -68.82 -497.076 -41.543C-382.982 8.35403 -316.092 132.43 -299.991 256C-256.977 591.33 -465.433 301.72 -427.002 618.5C-388.953 931.63 -375.079 914.51 -112.001 878C-52.8546 869.26 -63.2731 823.21 -7.00153 803" fill="white"/>
</g>
<defs>
<clipPath id="clip0_1208_654">
<rect width="1440" height="544" fill="white"/>
</clipPath>
</defs>
</svg>
