<svg width="1440" height="422" viewBox="0 0 1440 422" fill="none" xmlns="http://www.w3.org/2000/svg">
<g clip-path="url(#clip0_1208_654)">
<path d="M-112.001 1441.5C-112.001 1314.5 -310.71 1533.28 -217.001 1403.5C-52.501 1419.5 98.1485 1440.65 426.499 1271.5C525.499 1220.5 1052.5 899.499 1592.5 937.001C1792.5 962 1738.45 1200.18 1844.07 1214.5C1989.41 1234.7 1959.73 1018.69 2007 879.5C2106.86 586.298 2017.39 623.658 1872 359.5C1781.93 197.306 1651.22 134.926 1477.5 69.7955C1246 -16.9999 1058.28 -19.5 861.499 69.7955C766.138 113.069 729.478 196.417 590.499 266.5C356.499 384.5 -23.5544 417.566 -149.501 315C-363.172 141.808 -559.391 -119.938 -756.941 62.9848C-961.73 252.479 -1013.75 689.715 -694.974 801.7C-630.222 824.522 -559.652 827.18 -497.076 854.457C-382.982 904.354 -316.092 1028.43 -299.991 1152C-256.977 1487.33 -465.433 1197.72 -427.002 1514.5C-388.953 1827.63 -375.079 1810.51 -112.001 1774C-52.8546 1765.26 -63.2731 1719.21 -7.00153 1699" fill="white"/>
</g>
<defs>
<clipPath id="clip0_1208_654">
<rect width="1440" height="422" fill="white"/>
</clipPath>
</defs>
</svg>
