<svg width="1440" height="239" viewBox="0 0 1440 239" fill="none" xmlns="http://www.w3.org/2000/svg">
<g clip-path="url(#clip0_1208_651)">
<path d="M-80.0013 1721.5C74.3553 1666.24 -350.347 1251.78 -256.638 1122C-80.0012 962 4.49905 1222 404.499 1222C619.499 1222 764.499 1159.5 1304.5 1197C1504.5 1222 1510.45 1207.68 1616.07 1222C1761.41 1242.2 1731.73 1026.19 1779 887C1878.86 593.798 1789.39 631.158 1644 367C1553.93 204.806 1419.17 152.334 1249.5 77.295C1048.51 -10.0197 816.275 -12.0001 619.499 77.295C524.138 120.569 435.149 177 279.499 177C44.4989 177 -130.691 132.785 -256.638 30.2191C-470.308 -142.973 -787.391 -112.438 -984.941 70.485C-1189.73 259.979 -1241.75 697.215 -922.974 809.2C-858.222 832.022 -787.652 834.68 -725.076 861.957C-610.982 911.855 -544.092 1035.93 -527.991 1159.5C-484.977 1494.83 -693.432 1205.22 -655.001 1522C-616.953 1835.13 -603.079 1818.01 -340.001 1781.5C-280.854 1772.76 -291.273 1726.71 -235.001 1706.5" fill="white"/>
</g>
<defs>
<clipPath id="clip0_1208_651">
<rect width="1440" height="239" fill="white"/>
</clipPath>
</defs>
</svg>
