<svg width="72" height="86" viewBox="0 0 72 86" fill="none" xmlns="http://www.w3.org/2000/svg">
<path d="M32.8259 27.0438L23.4641 3.86287L31.191 0.742254L40.5529 23.9232C41.4111 26.0481 40.3746 28.4888 38.2497 29.347C36.1248 30.2052 33.6841 29.1687 32.8259 27.0438ZM69.2374 43.2099L65.1057 43.2159L56.8286 18.1589L42.7 18.113L44.4164 22.3629C46.1327 26.6127 44.0598 31.4941 39.81 33.2105C35.5602 34.9268 30.6788 32.854 28.9624 28.6041L24.7028 18.0568L15.1703 18.042L6.74222 43.0153L2.5949 42.9826L2.56081 51.3545L69.2264 51.5276L69.2374 43.2099ZM71.0105 69.186L65.0489 75.0089L57.7356 67.5821L63.6972 61.7593L71.0105 69.186ZM39.7169 72.7022L39.5959 85.1984L31.2626 85.1487L31.3524 72.5753L39.7169 72.7022ZM6.01894 74.4932L0.157476 68.5472L7.58424 61.2339L13.4071 67.1955L6.01894 74.4932Z" fill="#2F4858"/>
</svg>
