<svg width="50" height="35" viewBox="0 0 50 35" fill="none" xmlns="http://www.w3.org/2000/svg">
<path d="M13.7688 4.19375C16.8921 1.50042 20.8758 0.0129329 25 0C33.4062 0 40.3844 6.25 41.1438 14.3094C46.1188 15.0125 50 19.1781 50 24.2906C50 29.9031 45.3188 34.375 39.6469 34.375H11.8156C5.3375 34.375 0 29.2687 0 22.8687C0 17.3594 3.95625 12.7969 9.19375 11.6406C9.64062 8.94375 11.375 6.25625 13.7688 4.19375ZM15.8094 6.55937C13.4438 8.6 12.2062 11.0594 12.2062 12.9844V14.3844L10.8156 14.5375C6.45 15.0156 3.125 18.6 3.125 22.8687C3.125 27.4531 6.96875 31.25 11.8156 31.25H39.6469C43.6875 31.25 46.875 28.0875 46.875 24.2906C46.875 20.4906 43.6875 17.3281 39.6469 17.3281H38.0844V15.7656C38.0875 8.82812 32.275 3.125 25 3.125C21.6246 3.13848 18.3651 4.3576 15.8094 6.5625V6.55937Z" fill="#2F4858"/>
<path d="M18.75 17.1875C18.3356 17.1875 17.9382 17.3521 17.6451 17.6451C17.3521 17.9382 17.1875 18.3356 17.1875 18.75C17.1875 19.1644 17.3521 19.5618 17.6451 19.8549C17.9382 20.1479 18.3356 20.3125 18.75 20.3125H31.25C31.6644 20.3125 32.0618 20.1479 32.3549 19.8549C32.6479 19.5618 32.8125 19.1644 32.8125 18.75C32.8125 18.3356 32.6479 17.9382 32.3549 17.6451C32.0618 17.3521 31.6644 17.1875 31.25 17.1875H18.75Z" fill="#2F4858"/>
</svg>
