<svg width="50" height="35" viewBox="0 0 50 35" fill="none" xmlns="http://www.w3.org/2000/svg">
<path fill-rule="evenodd" clip-rule="evenodd" d="M25 11.1875C25.4144 11.1875 25.8118 11.3521 26.1049 11.6451C26.3979 11.9382 26.5625 12.3356 26.5625 12.75V17.4375H31.25C31.6644 17.4375 32.0618 17.6021 32.3549 17.8951C32.6479 18.1882 32.8125 18.5856 32.8125 19C32.8125 19.4144 32.6479 19.8118 32.3549 20.1049C32.0618 20.3979 31.6644 20.5625 31.25 20.5625H26.5625V25.25C26.5625 25.6644 26.3979 26.0618 26.1049 26.3549C25.8118 26.6479 25.4144 26.8125 25 26.8125C24.5856 26.8125 24.1882 26.6479 23.8951 26.3549C23.6021 26.0618 23.4375 25.6644 23.4375 25.25V20.5625H18.75C18.3356 20.5625 17.9382 20.3979 17.6451 20.1049C17.3521 19.8118 17.1875 19.4144 17.1875 19C17.1875 18.5856 17.3521 18.1882 17.6451 17.8951C17.9382 17.6021 18.3356 17.4375 18.75 17.4375H23.4375V12.75C23.4375 12.3356 23.6021 11.9382 23.8951 11.6451C24.1882 11.3521 24.5856 11.1875 25 11.1875Z" fill="#F2BF61"/>
<path d="M13.7688 4.44375C16.8921 1.75042 20.8758 0.262933 25 0.25C33.4062 0.25 40.3844 6.5 41.1438 14.5594C46.1188 15.2625 50 19.4281 50 24.5406C50 30.1531 45.3188 34.625 39.6469 34.625H11.8156C5.3375 34.625 0 29.5187 0 23.1187C0 17.6094 3.95625 13.0469 9.19375 11.8906C9.64062 9.19375 11.375 6.50625 13.7688 4.44375ZM15.8094 6.80937C13.4438 8.85 12.2062 11.3094 12.2062 13.2344V14.6344L10.8156 14.7875C6.45 15.2656 3.125 18.85 3.125 23.1187C3.125 27.7031 6.96875 31.5 11.8156 31.5H39.6469C43.6875 31.5 46.875 28.3375 46.875 24.5406C46.875 20.7406 43.6875 17.5781 39.6469 17.5781H38.0844V16.0156C38.0875 9.07812 32.275 3.375 25 3.375C21.6246 3.38848 18.3651 4.6076 15.8094 6.8125V6.80937Z" fill="#F2BF61"/>
</svg>
