<svg width="100" height="100" viewBox="0 0 100 100" fill="none" xmlns="http://www.w3.org/2000/svg">
<g clip-path="url(#clip0_1363_647)">
<path d="M83.2625 74.3375C82.6138 74.9887 82.1167 75.775 81.8066 76.6403C81.4966 77.5057 81.3812 78.4287 81.4688 79.3438C81.908 83.5786 82.7408 87.7634 83.9563 91.8438C75.2375 89.825 69.9125 87.4875 67.4937 86.2625C66.1219 85.5677 64.5419 85.403 63.0563 85.8C58.7973 86.9354 54.4077 87.507 50 87.5C25.025 87.5 6.25 69.9562 6.25 50C6.25 30.05 25.025 12.5 50 12.5C74.975 12.5 93.75 30.05 93.75 50C93.75 59.175 89.8938 67.6875 83.2625 74.3375ZM86.3438 98.7438C87.8246 99.0373 89.3102 99.3061 90.8 99.55C92.05 99.75 93 98.45 92.5062 97.2875C91.9513 95.9787 91.4427 94.6508 90.9812 93.3063L90.9625 93.2438C89.4125 88.7438 88.15 83.5688 87.6875 78.75C95.3562 71.0625 100 61 100 50C100 25.8375 77.6125 6.25 50 6.25C22.3875 6.25 1.63398e-08 25.8375 3.64961e-08 50C5.66524e-08 74.1625 22.3875 93.75 50 93.75C54.9522 93.7567 59.8838 93.1137 64.6688 91.8375C67.9188 93.4813 74.9125 96.475 86.3438 98.7438Z" fill="#F2BF61"/>
<path d="M64.5302 36.7836C63.4064 33.3327 60.6272 30.5771 56.8042 29.1232C52.9811 27.6692 48.4273 27.636 44.1445 29.0307C39.8616 30.4254 36.2007 33.1339 33.9669 36.5603C31.7332 39.9867 31.1097 43.8504 32.2335 47.3013C32.4583 47.9915 33.0141 48.5426 33.7787 48.8334C34.5433 49.1242 35.4541 49.1308 36.3106 48.8519C37.1672 48.5729 37.8994 48.0313 38.3461 47.346C38.7929 46.6607 38.9176 45.888 38.6928 45.1978C38.19 43.6537 38.2667 41.9592 38.9132 40.3286C39.5598 38.6981 40.7471 37.2046 42.3251 36.0372C43.9031 34.8697 45.8009 34.0807 47.7785 33.7698C49.7561 33.459 51.7246 33.6403 53.4352 34.2909C55.1458 34.9414 56.5217 36.032 57.3887 37.4247C58.2557 38.8174 58.5751 40.4496 58.3063 42.115C58.0375 43.7803 57.1927 45.4041 55.8787 46.7808C54.5648 48.1575 52.8406 49.2255 50.9243 49.8495C50.0677 50.1285 49.3355 50.6702 48.8888 51.3554C48.442 52.0407 48.3173 52.8135 48.5421 53.5036L50.2371 58.7083C50.4618 59.3985 51.0176 59.9496 51.7823 60.2404C52.5469 60.5312 53.4576 60.5379 54.3142 60.2589C55.1708 59.98 55.903 59.4383 56.3497 58.753C56.7965 58.0677 56.9212 57.295 56.6964 56.6048L55.7642 53.7422C59.2163 51.9545 61.9744 49.2899 63.5719 46.1996C65.1693 43.1093 65.5078 39.783 64.5302 36.7836V36.7836Z" fill="#F2BF61"/>
<path d="M57.7059 70.6686C59.4896 70.0877 60.5561 68.4517 60.0881 67.0144C59.62 65.5772 57.7946 64.883 56.0109 65.4639C54.2272 66.0447 53.1607 67.6807 53.6287 69.118C54.0968 70.5552 55.9222 71.2494 57.7059 70.6686Z" fill="#F2BF61"/>
</g>
<defs>
<clipPath id="clip0_1363_647">
<rect width="100" height="100" fill="white" transform="matrix(-1 8.34197e-10 8.34197e-10 1 100 0)"/>
</clipPath>
</defs>
</svg>
