<svg width="100" height="100" viewBox="0 0 100 100" fill="none" xmlns="http://www.w3.org/2000/svg">
<g clip-path="url(#clip0_1453_644)">
<path d="M16.7375 74.3375C17.3862 74.9887 17.8833 75.775 18.1934 76.6403C18.5034 77.5057 18.6188 78.4287 18.5312 79.3437C18.092 83.5786 17.2592 87.7634 16.0437 91.8437C24.7625 89.825 30.0875 87.4875 32.5063 86.2625C33.8781 85.5677 35.4581 85.403 36.9437 85.8C41.2027 86.9354 45.5923 87.507 50 87.5C74.975 87.5 93.75 69.9563 93.75 50C93.75 30.05 74.975 12.5 50 12.5C25.025 12.5 6.25 30.05 6.25 50C6.25 59.175 10.1062 67.6875 16.7375 74.3375ZM13.6562 98.7437C12.1754 99.0373 10.6898 99.3061 9.2 99.55C7.95 99.75 7 98.45 7.49375 97.2875C8.0487 95.9787 8.55735 94.6508 9.01875 93.3062L9.0375 93.2437C10.5875 88.7437 11.85 83.5688 12.3125 78.75C4.64375 71.0625 -4.56723e-08 61 -3.64961e-08 50C-1.63398e-08 25.8375 22.3875 6.25 50 6.25C77.6125 6.25 100 25.8375 100 50C100 74.1625 77.6125 93.75 50 93.75C45.0478 93.7567 40.1162 93.1137 35.3312 91.8375C32.0812 93.4813 25.0875 96.475 13.6562 98.7437V98.7437Z" fill="#2F4858"/>
<path d="M67.6306 46.4518C68.5959 42.9532 67.7968 39.122 65.4091 35.801C63.0214 32.4801 59.2407 29.9414 54.8988 28.7434C50.5568 27.5455 46.0092 27.7864 42.2564 29.4132C38.5036 31.04 35.8531 33.9195 34.8878 37.4181C34.6948 38.1178 34.8546 38.884 35.3321 39.5482C35.8097 40.2124 36.5658 40.7201 37.4342 40.9597C38.3026 41.1993 39.2121 41.1511 39.9627 40.8258C40.7132 40.5004 41.2433 39.9245 41.4364 39.2248C41.8683 37.6594 42.8666 36.2881 44.305 35.2843C45.7435 34.2805 47.5575 33.6892 49.5177 33.5854C51.4778 33.4815 53.4961 33.8697 55.3173 34.7008C57.1385 35.5319 58.6808 36.7687 59.7491 38.2546C60.8175 39.7405 61.3639 41.4089 61.3193 43.0488C61.2748 44.6888 60.6412 46.2265 59.4987 47.4676C58.3562 48.7088 56.7561 49.5976 54.9008 50.0216C53.0455 50.4456 51.0183 50.3858 49.0755 49.8498C48.2071 49.6102 47.2976 49.6584 46.547 49.9838C45.7965 50.3091 45.2664 50.885 45.0733 51.5847L43.6175 56.8613C43.4244 57.5611 43.5843 58.3273 44.0618 58.9915C44.5393 59.6557 45.2955 60.1634 46.1639 60.403C47.0323 60.6426 47.9418 60.5944 48.6923 60.269C49.4429 59.9437 49.973 59.3678 50.1661 58.6681L50.9668 55.766C54.8324 56.178 58.6026 55.4759 61.6392 53.7786C64.6758 52.0813 66.7924 49.493 67.6306 46.4518V46.4518Z" fill="#2F4858"/>
<path d="M43.2521 70.9558C45.0604 71.4548 46.8522 70.678 47.2543 69.2209C47.6563 67.7638 46.5162 66.1782 44.7079 65.6793C42.8995 65.1803 41.1077 65.9571 40.7057 67.4142C40.3037 68.8713 41.4437 70.4569 43.2521 70.9558Z" fill="#2F4858"/>
</g>
<defs>
<clipPath id="clip0_1453_644">
<rect width="100" height="100" fill="white"/>
</clipPath>
</defs>
</svg>
