<svg width="100" height="94" viewBox="0 0 100 94" fill="none" xmlns="http://www.w3.org/2000/svg">
<path d="M83.2625 68.0875C82.6138 68.7387 82.1167 69.525 81.8066 70.3903C81.4966 71.2557 81.3812 72.1787 81.4688 73.0938C81.908 77.3286 82.7408 81.5134 83.9563 85.5938C75.2375 83.575 69.9125 81.2375 67.4937 80.0125C66.1219 79.3177 64.5419 79.153 63.0563 79.55C58.7973 80.6854 54.4077 81.257 50 81.25C25.025 81.25 6.25 63.7062 6.25 43.75C6.25 23.8 25.025 6.25 50 6.25C74.975 6.25 93.75 23.8 93.75 43.75C93.75 52.925 89.8938 61.4375 83.2625 68.0875ZM86.3438 92.4938C87.8246 92.7873 89.3102 93.0561 90.8 93.3C92.05 93.5 93 92.2 92.5062 91.0375C91.9513 89.7287 91.4427 88.4008 90.9812 87.0563L90.9625 86.9938C89.4125 82.4938 88.15 77.3188 87.6875 72.5C95.3562 64.8125 100 54.75 100 43.75C100 19.5875 77.6125 1.86756e-08 50 4.17098e-08C22.3875 6.47441e-08 1.63398e-08 19.5875 3.64961e-08 43.75C5.66524e-08 67.9125 22.3875 87.5 50 87.5C54.9522 87.5067 59.8838 86.8637 64.6688 85.5875C67.9188 87.2313 74.9125 90.225 86.3438 92.4938Z" fill="#F2BF61"/>
<path d="M16.078 43.412V44.672H20.306V43.412H16.078ZM16.12 39.548V40.822H20.264V39.548H16.12ZM16.078 45.316V46.59H20.306V45.316H16.078ZM15.406 41.438V42.768H20.768V41.438H15.406ZM16.806 47.262V48.592H18.892V50.188H16.806V51.518H20.32V47.262H16.806ZM16.05 47.262V52.078H17.464V47.262H16.05ZM21.104 39.87V41.074H28.244V39.87H21.104ZM21.454 41.578V42.712H28.02V41.578H21.454ZM20.768 43.258V44.462H28.51V43.258H20.768ZM23.82 39.114V44.28H25.416V39.114H23.82ZM21.72 44.994V52.246H23.274V46.184H27.096V44.994H21.72ZM26.172 44.994V50.678C26.172 50.832 26.13 50.888 25.948 50.888C25.766 50.888 25.178 50.902 24.66 50.874C24.842 51.238 25.052 51.812 25.094 52.218C26.004 52.218 26.662 52.204 27.138 51.994C27.6 51.77 27.74 51.406 27.74 50.692V44.994H26.172ZM22.406 46.814V47.906H26.984V46.814H22.406ZM22.406 48.564V49.656H26.984V48.564H22.406ZM32.528 44.574H29.504V46.128H30.96V49.726H32.528V44.574ZM32.528 49.082H31.128C30.54 49.6 29.868 50.132 29.308 50.524L30.106 52.134C30.764 51.504 31.324 50.972 31.856 50.412C32.696 51.504 33.844 51.924 35.552 51.994C37.302 52.064 40.41 52.036 42.202 51.952C42.272 51.49 42.524 50.748 42.706 50.384C40.718 50.538 37.274 50.58 35.538 50.51C34.096 50.44 33.074 50.034 32.528 49.082ZM29.42 40.276C30.134 40.99 30.974 42.012 31.296 42.684L32.724 41.746C32.346 41.06 31.478 40.108 30.736 39.436L29.42 40.276ZM33.382 44.84V46.058H41.964V44.84H33.382ZM32.962 46.996V48.242H42.398V46.996H32.962ZM35.244 44.098V47.598H36.826V44.098H35.244ZM38.45 44.098V47.598H40.046V44.098H38.45ZM33.76 41.186V42.25H37.218V39.548H33.144V40.598H35.804V41.186H33.76ZM33.34 41.186V42.558C33.34 43.678 33.69 44 34.936 44C35.202 44 36.14 44 36.406 44C37.26 44 37.638 43.734 37.778 42.782C37.4 42.712 36.868 42.53 36.616 42.348C36.56 42.81 36.504 42.894 36.224 42.894C36.014 42.894 35.3 42.894 35.146 42.894C34.782 42.894 34.726 42.838 34.726 42.544V41.186H33.34ZM38.366 41.186V42.25H41.852V39.548H37.694V40.598H40.424V41.186H38.366ZM37.946 41.186V42.544C37.946 43.678 38.296 44 39.556 44C39.822 44 40.802 44 41.068 44C41.936 44 42.314 43.734 42.454 42.768C42.076 42.684 41.544 42.516 41.292 42.334C41.236 42.81 41.18 42.894 40.886 42.894C40.676 42.894 39.934 42.894 39.766 42.894C39.402 42.894 39.332 42.838 39.332 42.544V41.186H37.946ZM38.212 48.83C39.136 49.306 40.13 49.936 40.648 50.384L42.384 49.754C41.684 49.278 40.452 48.606 39.444 48.144L38.212 48.83ZM35.762 48.144C35.16 48.62 34.124 49.068 33.144 49.362C33.494 49.586 34.096 50.09 34.362 50.37C35.328 49.978 36.504 49.334 37.232 48.662L35.762 48.144ZM53.892 40.724H54.76V41.648H53.892V40.724ZM51.764 40.724H52.618V41.648H51.764V40.724ZM49.678 40.724H50.49V41.648H49.678V40.724ZM48.376 39.618V42.754H56.132V39.618H48.376ZM48.544 43.314V44.504H55.922V43.314H48.544ZM47.844 45.148V46.408H56.538V45.148H47.844ZM47.97 47.458V48.704H56.384V47.458H47.97ZM48.334 49.348V50.566H56.048V49.348H48.334ZM51.33 42.46V45.708H52.926V42.46H51.33ZM51.33 48.074V52.33H52.926V48.074H51.33ZM49.496 46.492C49.65 46.884 49.804 47.402 49.86 47.724L51.288 47.388C51.218 47.066 51.022 46.576 50.868 46.212L49.496 46.492ZM53.598 46.016C53.486 46.422 53.262 47.01 53.066 47.43L54.312 47.766C54.536 47.416 54.83 46.912 55.138 46.38L53.598 46.016ZM43.28 46.156L43.658 47.766C44.89 47.416 46.43 46.968 47.872 46.52L47.648 45.008C46.066 45.456 44.4 45.904 43.28 46.156ZM43.504 41.774V43.314H47.788V41.774H43.504ZM44.988 39.128V50.482C44.988 50.678 44.918 50.72 44.75 50.72C44.582 50.734 44.092 50.734 43.588 50.706C43.784 51.168 43.98 51.854 44.022 52.274C44.932 52.274 45.534 52.218 45.954 51.952C46.388 51.7 46.528 51.266 46.528 50.482V39.128H44.988ZM65.666 40.304V51.392H67.276V40.304H65.666ZM62.516 41.564V42.866H70.314V41.564H62.516ZM62.096 50.706V52.036H70.608V50.706H62.096ZM62.88 48.788V50.062H70.09V48.788H62.88ZM69.334 39.226C67.682 39.548 64.966 39.73 62.656 39.8C62.81 40.136 62.992 40.696 63.02 41.06C65.4 41.032 68.27 40.864 70.3 40.472L69.334 39.226ZM64.434 46.282H68.564V46.996H64.434V46.282ZM64.434 44.602H68.564V45.302H64.434V44.602ZM62.978 43.44V48.158H70.09V43.44H62.978ZM59.576 40.416V52.246H61.214V40.416H59.576ZM57.56 43.048V44.616H62.698V43.048H57.56ZM59.674 43.678C59.226 45.232 58.246 47.262 57.266 48.382C57.532 48.802 57.896 49.502 58.05 49.992C59.128 48.606 60.122 46.114 60.654 44.112L59.674 43.678ZM61.76 39.254C60.682 39.744 58.946 40.15 57.392 40.416C57.588 40.766 57.798 41.326 57.868 41.69C59.506 41.48 61.452 41.102 62.88 40.556L61.76 39.254ZM61.172 44.994L60.444 45.652C60.878 46.24 61.718 47.514 62.054 48.186L63.006 46.87C62.74 46.548 61.522 45.288 61.172 44.994ZM71.63 46.8V48.242H77.692V46.8H71.63ZM71.63 41.508V42.81H77.58V41.508H71.63ZM76.264 39.352C76.124 39.856 75.858 40.584 75.62 41.074L76.698 41.424C76.964 40.99 77.3 40.36 77.65 39.716L76.264 39.352ZM73.87 39.282V45.54H75.326V39.282H73.87ZM71.742 39.828C72.05 40.346 72.33 41.032 72.4 41.48L73.59 41.018C73.492 40.57 73.184 39.912 72.862 39.408L71.742 39.828ZM74.024 49.362C74.878 49.95 76.054 50.832 76.6 51.378L77.636 50.244C77.048 49.712 75.858 48.886 75.004 48.354L74.024 49.362ZM75.256 42.768L74.43 43.482C75.06 43.902 76.348 44.896 76.894 45.414L77.762 44.238C77.384 43.972 75.76 43.006 75.256 42.768ZM73.772 42.25C73.254 43.174 72.26 44.168 71.322 44.686C71.63 44.938 72.078 45.442 72.288 45.764C73.282 45.092 74.29 43.832 74.85 42.642L73.772 42.25ZM77.748 39.66V41.102H84.426V39.66H77.748ZM79.652 45.26H82.466V46.114H79.652V45.26ZM79.652 47.276H82.466V48.158H79.652V47.276ZM79.652 43.244H82.466V44.098H79.652V43.244ZM78.14 41.984V49.404H84.048V41.984H78.14ZM80.212 40.43C80.114 41.102 79.904 42.04 79.694 42.684L81.094 42.964C81.374 42.376 81.738 41.508 82.06 40.64L80.212 40.43ZM79.344 49.418C78.798 50.02 77.692 50.79 76.726 51.196C77.09 51.476 77.552 51.952 77.818 52.274C78.826 51.826 80.002 51.028 80.716 50.3L79.344 49.418ZM81.234 50.342C82.004 50.902 83.026 51.728 83.488 52.246L84.776 51.35C84.244 50.818 83.194 50.034 82.424 49.516L81.234 50.342ZM73.828 45.834V47.318C73.828 48.466 73.548 49.894 71.266 50.832C71.56 51.112 71.994 51.714 72.162 52.078C74.934 50.888 75.34 48.956 75.34 47.36V45.834H73.828Z" fill="#F2BF61"/>
</svg>
