<svg width="100" height="94" viewBox="0 0 100 94" fill="none" xmlns="http://www.w3.org/2000/svg">
<path d="M16.7375 68.0875C17.3862 68.7387 17.8833 69.525 18.1934 70.3903C18.5034 71.2557 18.6188 72.1787 18.5312 73.0938C18.092 77.3286 17.2592 81.5134 16.0437 85.5938C24.7625 83.575 30.0875 81.2375 32.5063 80.0125C33.8781 79.3177 35.4581 79.153 36.9437 79.55C41.2027 80.6854 45.5923 81.257 50 81.25C74.975 81.25 93.75 63.7062 93.75 43.75C93.75 23.8 74.975 6.25 50 6.25C25.025 6.25 6.25 23.8 6.25 43.75C6.25 52.925 10.1062 61.4375 16.7375 68.0875ZM13.6562 92.4938C12.1754 92.7873 10.6898 93.0561 9.2 93.3C7.95 93.5 7 92.2 7.49375 91.0375C8.0487 89.7287 8.55735 88.4008 9.01875 87.0563L9.0375 86.9938C10.5875 82.4938 11.85 77.3188 12.3125 72.5C4.64375 64.8125 -4.56723e-08 54.75 -3.64961e-08 43.75C-1.63398e-08 19.5875 22.3875 1.86756e-08 50 4.17098e-08C77.6125 6.47441e-08 100 19.5875 100 43.75C100 67.9125 77.6125 87.5 50 87.5C45.0478 87.5067 40.1162 86.8637 35.3312 85.5875C32.0812 87.2313 25.0875 90.225 13.6562 92.4938Z" fill="#2F4858"/>
<path d="M16.078 41.412V42.672H20.306V41.412H16.078ZM16.12 37.548V38.822H20.264V37.548H16.12ZM16.078 43.316V44.59H20.306V43.316H16.078ZM15.406 39.438V40.768H20.768V39.438H15.406ZM16.806 45.262V46.592H18.892V48.188H16.806V49.518H20.32V45.262H16.806ZM16.05 45.262V50.078H17.464V45.262H16.05ZM21.104 37.87V39.074H28.244V37.87H21.104ZM21.454 39.578V40.712H28.02V39.578H21.454ZM20.768 41.258V42.462H28.51V41.258H20.768ZM23.82 37.114V42.28H25.416V37.114H23.82ZM21.72 42.994V50.246H23.274V44.184H27.096V42.994H21.72ZM26.172 42.994V48.678C26.172 48.832 26.13 48.888 25.948 48.888C25.766 48.888 25.178 48.902 24.66 48.874C24.842 49.238 25.052 49.812 25.094 50.218C26.004 50.218 26.662 50.204 27.138 49.994C27.6 49.77 27.74 49.406 27.74 48.692V42.994H26.172ZM22.406 44.814V45.906H26.984V44.814H22.406ZM22.406 46.564V47.656H26.984V46.564H22.406ZM32.528 42.574H29.504V44.128H30.96V47.726H32.528V42.574ZM32.528 47.082H31.128C30.54 47.6 29.868 48.132 29.308 48.524L30.106 50.134C30.764 49.504 31.324 48.972 31.856 48.412C32.696 49.504 33.844 49.924 35.552 49.994C37.302 50.064 40.41 50.036 42.202 49.952C42.272 49.49 42.524 48.748 42.706 48.384C40.718 48.538 37.274 48.58 35.538 48.51C34.096 48.44 33.074 48.034 32.528 47.082ZM29.42 38.276C30.134 38.99 30.974 40.012 31.296 40.684L32.724 39.746C32.346 39.06 31.478 38.108 30.736 37.436L29.42 38.276ZM33.382 42.84V44.058H41.964V42.84H33.382ZM32.962 44.996V46.242H42.398V44.996H32.962ZM35.244 42.098V45.598H36.826V42.098H35.244ZM38.45 42.098V45.598H40.046V42.098H38.45ZM33.76 39.186V40.25H37.218V37.548H33.144V38.598H35.804V39.186H33.76ZM33.34 39.186V40.558C33.34 41.678 33.69 42 34.936 42C35.202 42 36.14 42 36.406 42C37.26 42 37.638 41.734 37.778 40.782C37.4 40.712 36.868 40.53 36.616 40.348C36.56 40.81 36.504 40.894 36.224 40.894C36.014 40.894 35.3 40.894 35.146 40.894C34.782 40.894 34.726 40.838 34.726 40.544V39.186H33.34ZM38.366 39.186V40.25H41.852V37.548H37.694V38.598H40.424V39.186H38.366ZM37.946 39.186V40.544C37.946 41.678 38.296 42 39.556 42C39.822 42 40.802 42 41.068 42C41.936 42 42.314 41.734 42.454 40.768C42.076 40.684 41.544 40.516 41.292 40.334C41.236 40.81 41.18 40.894 40.886 40.894C40.676 40.894 39.934 40.894 39.766 40.894C39.402 40.894 39.332 40.838 39.332 40.544V39.186H37.946ZM38.212 46.83C39.136 47.306 40.13 47.936 40.648 48.384L42.384 47.754C41.684 47.278 40.452 46.606 39.444 46.144L38.212 46.83ZM35.762 46.144C35.16 46.62 34.124 47.068 33.144 47.362C33.494 47.586 34.096 48.09 34.362 48.37C35.328 47.978 36.504 47.334 37.232 46.662L35.762 46.144ZM53.892 38.724H54.76V39.648H53.892V38.724ZM51.764 38.724H52.618V39.648H51.764V38.724ZM49.678 38.724H50.49V39.648H49.678V38.724ZM48.376 37.618V40.754H56.132V37.618H48.376ZM48.544 41.314V42.504H55.922V41.314H48.544ZM47.844 43.148V44.408H56.538V43.148H47.844ZM47.97 45.458V46.704H56.384V45.458H47.97ZM48.334 47.348V48.566H56.048V47.348H48.334ZM51.33 40.46V43.708H52.926V40.46H51.33ZM51.33 46.074V50.33H52.926V46.074H51.33ZM49.496 44.492C49.65 44.884 49.804 45.402 49.86 45.724L51.288 45.388C51.218 45.066 51.022 44.576 50.868 44.212L49.496 44.492ZM53.598 44.016C53.486 44.422 53.262 45.01 53.066 45.43L54.312 45.766C54.536 45.416 54.83 44.912 55.138 44.38L53.598 44.016ZM43.28 44.156L43.658 45.766C44.89 45.416 46.43 44.968 47.872 44.52L47.648 43.008C46.066 43.456 44.4 43.904 43.28 44.156ZM43.504 39.774V41.314H47.788V39.774H43.504ZM44.988 37.128V48.482C44.988 48.678 44.918 48.72 44.75 48.72C44.582 48.734 44.092 48.734 43.588 48.706C43.784 49.168 43.98 49.854 44.022 50.274C44.932 50.274 45.534 50.218 45.954 49.952C46.388 49.7 46.528 49.266 46.528 48.482V37.128H44.988ZM64.728 38.864V40.39H70.412V38.864H64.728ZM64.616 37.114C64.266 38.766 63.58 40.376 62.614 41.37C62.992 41.594 63.678 42.098 63.972 42.378C64.966 41.216 65.792 39.354 66.254 37.422L64.616 37.114ZM66.128 39.774V50.26H67.654V39.774H66.128ZM68.662 41.874V46.69C68.662 46.802 68.62 46.844 68.522 46.844C68.41 46.844 68.102 46.844 67.808 46.83C68.004 47.222 68.2 47.824 68.27 48.244C68.9 48.244 69.376 48.23 69.754 47.978C70.146 47.74 70.244 47.348 70.244 46.704V41.874H68.662ZM63.734 41.874V48.174H65.232V43.344H69.306V41.874H63.734ZM60.108 39.774V41.524H61.494V39.774H60.108ZM58.274 40.936V48.72H59.758V40.936H58.274ZM59.24 42.812V43.89H62.278V42.812H59.24ZM57.42 48.3L57.882 49.84C59.156 49.49 60.78 49.042 62.306 48.608L62.152 47.278C60.416 47.67 58.61 48.076 57.42 48.3ZM60.682 46.508C61.326 47.558 61.97 48.958 62.18 49.854L63.622 49.21C63.37 48.3 62.67 46.956 61.998 45.948L60.682 46.508ZM59.1 40.936V42.14H61.48V44.604H59.1V45.808H62.95V40.936H59.1ZM59.702 37.114C59.24 38.22 58.4 39.536 57.14 40.53C57.476 40.754 57.952 41.286 58.162 41.636C59.632 40.404 60.528 38.948 61.088 37.884V37.422H60.612V37.114H59.702ZM60.108 37.114V38.262H60.374C61.158 38.864 62.068 40.012 62.46 40.712L63.524 39.466C63.062 38.752 62.068 37.786 61.228 37.114H60.108ZM75.522 39.27H80.45V41.16H75.522V39.27ZM73.898 37.674V42.756H82.172V37.674H73.898ZM71.98 43.932V50.26H73.562V45.528H75.648V50.176H77.328V43.932H71.98ZM78.518 43.932V50.26H80.128V45.528H82.368V50.19H84.062V43.932H78.518ZM72.68 47.95V49.56H76.348V47.95H72.68ZM79.288 47.95V49.56H83.208V47.95H79.288Z" fill="#2F4858"/>
</svg>
