<svg width="142" height="182" viewBox="0 0 142 182" fill="none" xmlns="http://www.w3.org/2000/svg">
<g filter="url(#filter0_d_165_9098)">
<path d="M73.0904 161.313C79.0245 163.322 81.3253 170.9 80.6558 172.878C79.9862 174.856 77.4243 168.475 71.5831 165.724C65.7418 162.974 59.8424 167.924 60.5119 165.946C61.1814 163.968 67.1562 159.304 73.0904 161.313Z" fill="#35312D"/>
<path d="M78.4165 159.358C84.2246 161.707 86.0832 169.405 85.3004 171.341C84.5176 173.277 82.3291 166.759 76.6566 163.675C70.9842 160.591 64.8084 165.192 65.5912 163.256C66.374 161.32 72.6085 157.01 78.4165 159.358Z" fill="#35312D"/>
<path d="M99.7834 158.67C106.116 160.065 109.508 166.842 109.097 168.707C108.686 170.572 105.193 164.912 98.8531 162.83C92.5134 160.748 87.1756 165.734 87.5862 163.869C87.9969 162.004 93.4511 157.276 99.7834 158.67Z" fill="#35312D"/>
<path d="M105.286 157.229C111.811 158.299 115.782 164.138 115.513 165.776C115.245 167.414 111.259 162.554 104.673 160.883C98.0867 159.213 93.0739 163.691 93.3425 162.053C93.6111 160.415 98.7623 156.159 105.286 157.229Z" fill="#35312D"/>
<path d="M60.0928 35.672C68.4708 50.1258 78.6002 59.9082 82.7176 57.5216C86.835 55.135 83.3811 41.4832 75.0032 27.0294C66.6252 12.5756 56.8984 1.41288 52.781 3.79946C48.6637 6.18604 51.7149 21.2182 60.0928 35.672Z" fill="#98E27D"/>
<path d="M55.283 49.4395C65.7344 62.473 77.2166 70.6252 80.9294 67.648C84.6422 64.6707 79.1795 51.6915 68.7282 38.658C58.2769 25.6246 46.9856 16.0472 43.2728 19.0244C39.56 22.0016 44.8317 36.406 55.283 49.4395Z" fill="#98E27D"/>
<path d="M56.4683 62.8029C68.373 74.5238 80.3674 81.645 83.2586 78.7085C86.1498 75.772 78.8429 63.8898 66.9382 52.1689C55.0335 40.4479 42.9642 31.9884 40.073 34.9249C37.1818 37.8614 44.5636 51.0819 56.4683 62.8029Z" fill="#98E27D"/>
<path d="M53.7255 72.2014C64.1508 82.4657 74.6547 88.702 77.1866 86.1304C79.7184 83.5588 73.3196 73.1532 62.8943 62.8888C52.469 52.6245 41.8995 45.2162 39.3676 47.7878C36.8357 50.3594 43.3002 61.937 53.7255 72.2014Z" fill="#98E27D"/>
<path d="M26.2303 140.508C35.1332 132.976 33.0672 121.879 30.937 119.361C28.8068 116.844 25.0552 122.723 18.333 131.125C9.9304 139.108 3.12829 146.966 5.25849 149.484C7.3887 152.002 17.3274 148.04 26.2303 140.508Z" fill="#096A59"/>
<path d="M25.7619 146.173C33.9555 141.578 39.5367 135.961 38.2278 133.627C36.9189 131.293 29.2155 133.125 21.0219 137.72C12.8282 142.315 6.47411 147.695 7.78303 150.029C9.09195 152.363 17.5682 150.768 25.7619 146.173Z" fill="#98E27D"/>
<path d="M37.4699 146.15C45.2311 140.857 50.3005 134.774 48.7928 132.563C47.285 130.353 39.7711 132.851 32.0099 138.144C24.2488 143.436 18.3887 149.35 19.8964 151.561C21.4041 153.772 29.7087 151.443 37.4699 146.15Z" fill="#98E27D"/>
<ellipse rx="55.8775" ry="43.2736" transform="matrix(-1 0 0 1 81.3725 121.418)" fill="#61B7E8"/>
<path d="M50.7025 81.0853C50.7025 98.4878 67.4433 112.595 88.0942 112.595C108.745 112.595 128.369 104.337 128.007 82.7659C127.693 64.0812 110.457 49.1133 89.8063 49.1133C69.1554 49.1133 50.7025 63.6829 50.7025 81.0853Z" fill="#61B7E8"/>
<ellipse rx="7.98251" ry="30.2495" transform="matrix(-0.943596 0.331098 0.331098 0.943596 81.8895 31.1863)" fill="#61B7E8"/>
<path d="M81.96 39.8546C90.338 54.3084 100.467 64.0908 104.585 61.7042C108.702 59.3177 105.248 45.6658 96.8704 31.212C88.4924 16.7583 78.7656 5.5955 74.6482 7.98208C70.5308 10.3687 73.5821 25.4008 81.96 39.8546Z" fill="#61B7E8"/>
<path d="M89.7212 89.4585C93.061 95.3853 96.0192 87.9549 100.895 97.8611C102.997 95.95 103.747 88.9127 102.64 85.9478C101.532 82.9828 97.9283 77.7243 93.0783 78.712C88.4569 81.6529 87.6089 85.7098 89.7212 89.4585Z" fill="#3A3A3A"/>
<path d="M43.457 121.614L41.6438 128.862L39.9101 133.666L36.0942 137.597L32.9537 140.94" stroke="#096A59" stroke-width="3" stroke-linecap="round"/>
<path d="M55.3047 116.797L52.3372 131.813L49.7347 138.837L44.2276 144.663L38.5474 147.988" stroke="#096A59" stroke-width="3" stroke-linecap="round"/>
<path d="M68.537 111.755L68.537 120.283L66.7654 130.151L64.5689 135.785L56.812 145.376L47.8015 149.452L39.7546 149.567" stroke="#096A59" stroke-width="3" stroke-linecap="round"/>
<circle cx="79.8202" cy="71.4222" r="7.56237" fill="#FFF9F9"/>
<circle cx="105.031" cy="71.4222" r="7.56237" fill="#FFF9F9"/>
<circle r="5.04158" transform="matrix(-1 0 0 1 103.951 72.2628)" fill="black"/>
<circle r="1.68053" transform="matrix(-1 0 0 1 103.112 71.4227)" fill="#FFF9F9"/>
<circle r="5.04158" transform="matrix(-1 0 0 1 81.2592 72.2628)" fill="black"/>
<path d="M80.4163 71.4227C80.4163 72.3508 81.1687 73.1032 82.0968 73.1032C83.025 73.1032 83.7774 72.3508 83.7774 71.4227C83.7774 70.4946 83.025 69.7422 82.0968 69.7422C81.1687 69.7422 80.4163 70.4946 80.4163 71.4227Z" fill="#FFF9F9"/>
</g>
<defs>
<filter id="filter0_d_165_9098" x="0.863281" y="2.51904" width="140.387" height="178.733" filterUnits="userSpaceOnUse" color-interpolation-filters="sRGB">
<feFlood flood-opacity="0" result="BackgroundImageFix"/>
<feColorMatrix in="SourceAlpha" type="matrix" values="0 0 0 0 0 0 0 0 0 0 0 0 0 0 0 0 0 0 127 0" result="hardAlpha"/>
<feOffset dy="4"/>
<feGaussianBlur stdDeviation="2"/>
<feComposite in2="hardAlpha" operator="out"/>
<feColorMatrix type="matrix" values="0 0 0 0 0 0 0 0 0 0 0 0 0 0 0 0 0 0 0.25 0"/>
<feBlend mode="normal" in2="BackgroundImageFix" result="effect1_dropShadow_165_9098"/>
<feBlend mode="normal" in="SourceGraphic" in2="effect1_dropShadow_165_9098" result="shape"/>
</filter>
</defs>
</svg>
