<svg width="1440" height="1508" viewBox="0 0 1440 1508" fill="none" xmlns="http://www.w3.org/2000/svg">
<path d="M2323.84 1157.32C2279.23 1052.51 2186.12 952.712 2053.65 884.259C1890.81 799.604 1621.3 800.769 1503.59 683.276C1443.56 623.331 1442.2 544.253 1492.57 480.312C1542.95 416.37 1640.97 365.197 1667.54 296.091C1704.65 201.017 1585.59 105.501 1438.02 67.2769C1127.19 -13.4312 601.534 26.3721 297.225 109.26C110.295 160.68 -44.7882 247.166 -144.468 355.579C-260.822 484.079 -265.854 728.788 -188.341 863.351C-150.778 928.563 -66.5459 983.213 -37.071 1048.91C20.6861 1178.24 -187.453 1250.13 -312.773 1328.26C-524.492 1460.84 -523.741 1672 -343.762 1811.77C-157.333 1956.65 316.186 2012.94 471.706 1807.8C503.377 1766.14 513.564 1719.62 549.891 1679.61C616.305 1606.68 759.091 1568.68 896.094 1564.22C1267.8 1552.58 1524.59 1752.7 1875.51 1743.16C2222.38 1733.69 2366.72 1449.99 2353.85 1274.24C2350.37 1234.7 2340.4 1195.53 2324.07 1157.32" fill="white"/>
</svg>
