<svg width="1440" height="482" viewBox="0 0 1440 482" fill="none" xmlns="http://www.w3.org/2000/svg">
<g clip-path="url(#clip0_1196_634)">
<path d="M3230.54 -606.565C3141.58 -783.245 2963.85 -947.625 2715.9 -1055.17C2411.1 -1188.25 1916.06 -1165.82 1691.97 -1358.74C1577.68 -1457.17 1569.88 -1592.92 1658.14 -1706.58C1746.41 -1820.25 1923.06 -1915.59 1967.25 -2036.32C2029.07 -2202.46 1803.95 -2357.52 1530.29 -2412C953.864 -2527.08 -9.14124 -2418.85 -562.637 -2253.39C-902.599 -2150.88 -1181.72 -1990.55 -1357.59 -1796.75C-1562.74 -1567.18 -1555.62 -1146.41 -1404.22 -921.125C-1330.84 -811.945 -1172.45 -724.445 -1113.9 -613.815C-999.149 -396.015 -1376.71 -256.745 -1601.7 -113.025C-1981.78 130.795 -1966.27 493.485 -1626.29 719.945C-1274.11 954.695 -400.445 1015.52 -128.467 651.315C-73.0722 577.335 -69.3491 506.262 -5.28906 434.782C82.7109 374.282 366.711 254.528 664.711 219.782C1328.55 142.378 1802.08 476.835 2446.12 433.845C3082.72 391.275 3328.89 -107.035 3293.5 -407.985C3284.47 -475.655 3263.52 -542.175 3230.97 -606.585" fill="#2F4858"/>
</g>
<defs>
<clipPath id="clip0_1196_634">
<rect width="1440" height="482" fill="white"/>
</clipPath>
</defs>
</svg>
