<svg width="1127" height="1099" viewBox="0 0 1127 1099" fill="none" xmlns="http://www.w3.org/2000/svg">
<g style="mix-blend-mode:multiply">
<g filter="url(#filter0_d_165_8999)">
<path d="M671.008 848.242C707.34 815.412 737.911 776.646 747.914 733.209C748.528 730.268 747.755 727.253 745.742 724.732C743.728 722.21 740.613 720.359 736.987 719.527C733.36 718.695 729.472 718.94 726.059 720.217C722.646 721.493 719.944 723.712 718.464 726.453L717.504 728.221L715.103 732.64C693.827 765.819 662.249 794.208 623.312 815.159C625.793 739.396 629.314 654.604 629.314 653.279C629.357 652.523 629.201 651.768 628.857 651.062C628.513 650.356 627.987 649.713 627.313 649.175C626.649 648.612 625.843 648.164 624.948 647.86C624.052 647.556 623.087 647.401 622.112 647.407H505.112C504.137 647.401 503.172 647.556 502.276 647.86C501.381 648.164 500.575 648.612 499.911 649.175C499.237 649.713 498.711 650.356 498.367 651.062C498.023 651.768 497.867 652.523 497.91 653.279C497.91 655.362 506.393 858.66 506.393 915.482C506.307 944.546 497.096 973.141 479.585 998.712C462.073 1024.28 436.805 1046.03 406.039 1062.02C404.619 1062.77 403.582 1063.89 403.113 1065.19C402.644 1066.48 402.773 1067.86 403.478 1069.09C404.188 1070.24 405.356 1071.17 406.802 1071.74C408.248 1072.31 409.893 1072.49 411.481 1072.25L502.151 1053.31L489.747 1083.55C489.278 1084.67 489.256 1085.88 489.686 1087.01C490.115 1088.13 490.975 1089.13 492.148 1089.86C493.464 1090.59 495.025 1090.98 496.629 1091C497.993 1091.01 499.33 1090.7 500.471 1090.12C500.951 1090.12 546.566 1066.69 587.94 1042.07L715.103 1072.06C716.756 1072.45 718.533 1072.36 720.11 1071.81C721.688 1071.26 722.961 1070.28 723.698 1069.05C724.435 1067.81 724.586 1066.41 724.125 1065.1C723.664 1063.79 722.621 1062.65 721.185 1061.89C690.429 1045.9 665.169 1024.15 647.658 998.578C630.148 973.009 620.931 944.418 620.831 915.356C620.831 907.906 620.831 897.867 620.831 886.124C638.79 874.554 655.567 861.888 671.008 848.242Z" fill="#8B603F"/>
</g>
<g filter="url(#filter1_d_165_8999)">
<path d="M257.015 342.061C247.523 326.19 240.995 308.784 237.739 290.662C234.044 270.337 234.473 249.498 239.001 229.336C243.529 209.175 252.067 190.088 264.126 173.169C276.185 156.25 291.527 141.831 309.275 130.739C327.023 119.647 346.827 112.099 367.553 108.528C372.847 107.589 378.186 106.908 383.549 106.488C393.378 78.085 411.298 53.0401 435.186 34.3193C459.074 15.5985 487.93 3.98585 518.336 0.856522C548.743 -2.27281 579.427 3.21225 606.754 16.6622C634.082 30.1121 656.909 50.9635 672.531 76.7473C675.091 76.198 677.65 75.4917 680.53 75.0209C716.173 68.8671 752.859 76.5535 782.831 96.4548C812.803 116.356 833.712 146.913 841.137 181.664C861.078 186.043 879.857 194.488 896.255 206.449C912.653 218.41 926.304 233.622 936.322 251.095C946.339 268.568 952.5 287.913 954.402 307.873C956.305 327.834 953.908 347.964 947.367 366.956C940.826 385.949 930.287 403.38 916.434 418.117C902.581 432.854 885.723 444.569 866.956 452.5C848.19 460.431 827.932 464.401 807.5 464.152C787.068 463.904 766.917 459.443 748.356 451.058C738.621 472.355 724.168 491.254 706.048 506.378C687.928 521.501 666.598 532.47 643.611 538.484C620.624 544.498 596.56 545.406 573.17 541.142C549.781 536.878 527.655 527.55 508.404 513.836C486.674 530.703 460.85 541.743 433.463 545.874C406.077 550.005 378.065 547.087 352.174 537.404C326.283 527.721 303.399 511.605 285.764 490.637C268.129 469.668 256.349 444.565 251.576 417.786C246.983 392.491 248.851 366.474 257.015 342.061Z" fill="#61AA31"/>
</g>
<g filter="url(#filter2_d_165_8999)">
<path d="M612.486 549.153C595.905 529.737 585.526 505.957 582.645 480.785C579.763 455.613 584.508 430.167 596.286 407.626C608.064 385.085 626.352 366.45 648.865 354.05C671.377 341.65 697.116 336.035 722.863 337.907C730.713 317.082 743.976 298.633 761.336 284.389C785.909 264.166 817.175 253.465 849.237 254.304C881.299 255.142 911.94 267.462 935.381 288.94C952.769 280.833 971.762 276.577 991.014 276.475C1010.27 276.373 1029.31 280.428 1046.78 288.351C1064.26 296.275 1079.74 307.873 1092.14 322.324C1104.54 336.775 1113.54 353.725 1118.52 371.971C1123.49 390.218 1124.31 409.315 1120.93 427.909C1117.54 446.502 1110.02 464.137 1098.91 479.562C1087.8 494.987 1073.37 507.826 1056.63 517.167C1039.9 526.509 1021.28 532.124 1002.09 533.616C996.088 556.555 983.754 577.424 966.442 593.928C949.131 610.431 927.514 621.928 903.97 627.153C880.427 632.378 855.871 631.128 833.005 623.541C810.14 615.954 789.851 602.324 774.373 584.152C773.573 583.289 772.933 582.269 772.214 581.327C745.792 594.42 715.635 598.367 686.64 592.527C657.644 586.686 631.511 571.401 612.486 549.153Z" fill="#3D9738"/>
</g>
<g filter="url(#filter3_d_165_8999)">
<path d="M4.44623 457.106C2.13945 431.013 8.82245 404.916 23.4254 382.992C38.0283 361.068 59.7067 344.584 84.99 336.18C86.8262 314.417 94.4162 293.5 107.011 275.495C119.605 257.489 136.768 243.018 156.806 233.51C176.843 224.001 199.062 219.785 221.268 221.276C243.474 222.767 264.9 229.915 283.43 242.014C298.138 231.52 315.035 224.359 332.904 221.045C350.773 217.732 369.169 218.349 386.766 222.853C404.363 227.357 420.722 235.634 434.664 247.09C448.606 258.545 459.785 272.892 467.393 289.097C501.375 288.358 534.387 300.235 559.825 322.353C585.263 344.47 601.25 375.197 604.586 408.383C607.922 441.569 598.361 474.767 577.817 501.334C557.274 527.901 527.262 545.877 493.788 551.664C490.315 572.848 481.562 592.861 468.308 609.927C455.053 626.993 437.708 640.583 417.812 649.489C397.915 658.395 376.085 662.341 354.26 660.977C332.436 659.614 311.292 652.982 292.708 641.672C272.418 658.589 247.254 668.876 220.723 671.099C186.65 674.016 152.789 663.549 126.576 641.995C100.363 620.44 83.9388 589.561 80.9108 556.137C59.963 548.355 41.6765 534.935 28.1511 517.418C14.6257 499.901 6.40964 478.997 4.44623 457.106Z" fill="#8FBF3E"/>
</g>
<g filter="url(#filter4_d_165_8999)">
<path d="M156.656 659.642C156.662 686.047 166.1 711.615 183.328 731.901C200.557 752.187 224.486 765.909 250.957 770.68C254.727 789.125 262.747 806.481 274.403 821.418C286.06 836.356 301.044 848.48 318.211 856.863C335.377 865.246 354.27 869.666 373.445 869.785C392.62 869.904 411.569 865.718 428.841 857.548C447.134 871.748 469.134 880.604 492.32 883.101C515.506 885.598 538.94 881.636 559.937 871.668C580.933 861.699 598.642 846.129 611.034 826.741C623.426 807.353 629.999 784.932 630.001 762.048C630.001 762.048 630.001 762.048 630.001 761.577C633.28 761.577 636.56 762.048 639.919 762.048C669.304 761.217 697.356 749.83 718.75 730.049C740.143 710.268 753.39 683.469 755.975 654.739C758.56 626.009 750.303 597.348 732.773 574.195C715.242 551.043 689.657 535.011 660.875 529.143C655.938 508.433 645.436 489.399 630.461 474.021C615.486 458.642 596.584 447.481 575.723 441.697C554.861 435.913 532.801 435.719 511.837 441.133C490.873 446.548 471.771 457.374 456.516 472.486C438.866 456.981 417.238 446.494 393.963 442.155C370.688 437.816 346.647 439.789 324.43 447.862C302.213 455.935 282.662 469.802 267.883 487.969C253.104 506.135 243.657 527.914 240.559 550.958C216.413 557.628 195.148 571.855 180.003 591.475C164.857 611.094 156.659 635.03 156.656 659.642Z" fill="#61AA31"/>
</g>
<g filter="url(#filter5_d_165_8999)">
<path d="M956.656 687.97C965.191 674.526 969.709 659.001 969.693 643.163C969.705 627.197 965.163 611.547 956.58 597.983C947.996 584.419 935.715 573.482 921.125 566.411C906.535 559.339 890.219 556.416 874.023 557.97C857.827 559.524 842.398 565.495 829.481 575.206C814.723 565.341 797.504 559.606 779.674 558.618C761.844 557.631 744.077 561.427 728.28 569.599C712.484 577.772 699.255 590.012 690.014 605.005C680.774 619.998 675.871 637.177 675.832 654.698C675.832 657.209 675.832 659.642 675.832 662.545C665.476 670.02 657.362 680.094 652.344 691.709C647.327 703.323 645.59 716.049 647.316 728.549C649.043 741.049 654.169 752.862 662.157 762.747C670.144 772.633 680.698 780.225 692.709 784.726C692.709 787.316 692.709 789.984 692.709 792.573C692.714 811.967 699.43 830.784 711.758 845.944C724.086 861.104 741.296 871.709 760.568 876.021C779.841 880.333 800.035 878.098 817.843 869.681C835.652 861.264 850.02 847.164 858.596 829.69C868.017 836.735 878.801 841.824 890.291 844.648C901.782 847.472 913.738 847.97 925.432 846.114C937.125 844.258 948.311 840.085 958.307 833.85C968.304 827.615 976.902 819.449 983.578 809.849C990.253 800.248 994.867 789.415 997.137 778.009C999.408 766.603 999.287 754.863 996.783 743.504C994.279 732.145 989.445 721.405 982.573 711.938C975.702 702.472 966.938 694.477 956.816 688.441L956.656 687.97Z" fill="#8FBF3E"/>
</g>
</g>
<defs>
<filter id="filter0_d_165_8999" x="398.836" y="647.407" width="353.285" height="451.593" filterUnits="userSpaceOnUse" color-interpolation-filters="sRGB">
<feFlood flood-opacity="0" result="BackgroundImageFix"/>
<feColorMatrix in="SourceAlpha" type="matrix" values="0 0 0 0 0 0 0 0 0 0 0 0 0 0 0 0 0 0 127 0" result="hardAlpha"/>
<feOffset dy="4"/>
<feGaussianBlur stdDeviation="2"/>
<feComposite in2="hardAlpha" operator="out"/>
<feColorMatrix type="matrix" values="0 0 0 0 0 0 0 0 0 0 0 0 0 0 0 0 0 0 0.25 0"/>
<feBlend mode="normal" in2="BackgroundImageFix" result="effect1_dropShadow_165_8999"/>
<feBlend mode="normal" in="SourceGraphic" in2="effect1_dropShadow_165_8999" result="shape"/>
</filter>
<filter id="filter1_d_165_8999" x="231.254" y="0" width="727.781" height="555.697" filterUnits="userSpaceOnUse" color-interpolation-filters="sRGB">
<feFlood flood-opacity="0" result="BackgroundImageFix"/>
<feColorMatrix in="SourceAlpha" type="matrix" values="0 0 0 0 0 0 0 0 0 0 0 0 0 0 0 0 0 0 127 0" result="hardAlpha"/>
<feOffset dy="4"/>
<feGaussianBlur stdDeviation="2"/>
<feComposite in2="hardAlpha" operator="out"/>
<feColorMatrix type="matrix" values="0 0 0 0 0 0 0 0 0 0 0 0 0 0 0 0 0 0 0.25 0"/>
<feBlend mode="normal" in2="BackgroundImageFix" result="effect1_dropShadow_165_8999"/>
<feBlend mode="normal" in="SourceGraphic" in2="effect1_dropShadow_165_8999" result="shape"/>
</filter>
<filter id="filter2_d_165_8999" x="577.824" y="254.258" width="549.152" height="384.066" filterUnits="userSpaceOnUse" color-interpolation-filters="sRGB">
<feFlood flood-opacity="0" result="BackgroundImageFix"/>
<feColorMatrix in="SourceAlpha" type="matrix" values="0 0 0 0 0 0 0 0 0 0 0 0 0 0 0 0 0 0 127 0" result="hardAlpha"/>
<feOffset dy="4"/>
<feGaussianBlur stdDeviation="2"/>
<feComposite in2="hardAlpha" operator="out"/>
<feColorMatrix type="matrix" values="0 0 0 0 0 0 0 0 0 0 0 0 0 0 0 0 0 0 0.25 0"/>
<feBlend mode="normal" in2="BackgroundImageFix" result="effect1_dropShadow_165_8999"/>
<feBlend mode="normal" in="SourceGraphic" in2="effect1_dropShadow_165_8999" result="shape"/>
</filter>
<filter id="filter3_d_165_8999" x="0" y="218.947" width="609.238" height="460.631" filterUnits="userSpaceOnUse" color-interpolation-filters="sRGB">
<feFlood flood-opacity="0" result="BackgroundImageFix"/>
<feColorMatrix in="SourceAlpha" type="matrix" values="0 0 0 0 0 0 0 0 0 0 0 0 0 0 0 0 0 0 127 0" result="hardAlpha"/>
<feOffset dy="4"/>
<feGaussianBlur stdDeviation="2"/>
<feComposite in2="hardAlpha" operator="out"/>
<feColorMatrix type="matrix" values="0 0 0 0 0 0 0 0 0 0 0 0 0 0 0 0 0 0 0.25 0"/>
<feBlend mode="normal" in2="BackgroundImageFix" result="effect1_dropShadow_165_8999"/>
<feBlend mode="normal" in="SourceGraphic" in2="effect1_dropShadow_165_8999" result="shape"/>
</filter>
<filter id="filter4_d_165_8999" x="152.656" y="437.211" width="607.785" height="454.617" filterUnits="userSpaceOnUse" color-interpolation-filters="sRGB">
<feFlood flood-opacity="0" result="BackgroundImageFix"/>
<feColorMatrix in="SourceAlpha" type="matrix" values="0 0 0 0 0 0 0 0 0 0 0 0 0 0 0 0 0 0 127 0" result="hardAlpha"/>
<feOffset dy="4"/>
<feGaussianBlur stdDeviation="2"/>
<feComposite in2="hardAlpha" operator="out"/>
<feColorMatrix type="matrix" values="0 0 0 0 0 0 0 0 0 0 0 0 0 0 0 0 0 0 0.25 0"/>
<feBlend mode="normal" in2="BackgroundImageFix" result="effect1_dropShadow_165_8999"/>
<feBlend mode="normal" in="SourceGraphic" in2="effect1_dropShadow_165_8999" result="shape"/>
</filter>
<filter id="filter5_d_165_8999" x="642.668" y="557.563" width="360.086" height="328.601" filterUnits="userSpaceOnUse" color-interpolation-filters="sRGB">
<feFlood flood-opacity="0" result="BackgroundImageFix"/>
<feColorMatrix in="SourceAlpha" type="matrix" values="0 0 0 0 0 0 0 0 0 0 0 0 0 0 0 0 0 0 127 0" result="hardAlpha"/>
<feOffset dy="4"/>
<feGaussianBlur stdDeviation="2"/>
<feComposite in2="hardAlpha" operator="out"/>
<feColorMatrix type="matrix" values="0 0 0 0 0 0 0 0 0 0 0 0 0 0 0 0 0 0 0.25 0"/>
<feBlend mode="normal" in2="BackgroundImageFix" result="effect1_dropShadow_165_8999"/>
<feBlend mode="normal" in="SourceGraphic" in2="effect1_dropShadow_165_8999" result="shape"/>
</filter>
</defs>
</svg>
