<svg width="60" height="60" viewBox="0 0 60 60" fill="none" xmlns="http://www.w3.org/2000/svg">
<path d="M18.7498 15.9374C18.7498 16.4937 18.9147 17.0374 19.2238 17.4999C19.5328 17.9624 19.9721 18.3229 20.486 18.5358C20.9999 18.7487 21.5654 18.8044 22.111 18.6959C22.6565 18.5873 23.1577 18.3195 23.551 17.9261C23.9443 17.5328 24.2122 17.0317 24.3207 16.4861C24.4293 15.9405 24.3736 15.375 24.1607 14.8611C23.9478 14.3472 23.5873 13.9079 23.1248 13.5989C22.6623 13.2898 22.1185 13.1249 21.5623 13.1249C20.8164 13.1249 20.101 13.4212 19.5735 13.9487C19.0461 14.4761 18.7498 15.1915 18.7498 15.9374ZM30.6795 30.4452C30.8651 30.2837 31.0815 30.1613 31.3156 30.0855C31.5497 30.0096 31.7967 29.9817 32.0419 30.0036C32.287 30.0255 32.5251 30.0967 32.7421 30.2128C32.9591 30.329 33.1503 30.4877 33.3045 30.6796L42.6795 41.9296C42.841 42.1153 42.9633 42.3316 43.0392 42.5657C43.1151 42.7998 43.1429 43.0469 43.121 43.292C43.0992 43.5371 43.028 43.7753 42.9119 43.9922C42.7957 44.2092 42.6369 44.4005 42.4451 44.5546C42.2594 44.7161 42.043 44.8385 41.8089 44.9143C41.5748 44.9902 41.3278 45.018 41.0827 44.9962C40.8376 44.9743 40.5994 44.9031 40.3824 44.787C40.1655 44.6708 39.9742 44.5121 39.8201 44.3202L30.4451 33.0702C30.2836 32.8845 30.1612 32.6682 30.0853 32.434C30.0095 32.1999 29.9816 31.9529 30.0035 31.7078C30.0254 31.4627 30.0966 31.2245 30.2127 31.0076C30.3289 30.7906 30.4876 30.5993 30.6795 30.4452ZM3.74977 18.7499C3.74691 19.0615 3.82274 19.3688 3.97023 19.6433C4.11772 19.9178 4.33211 20.1506 4.59353 20.3202L9.37477 23.5077V28.1249C9.38717 34.5857 11.9592 40.7784 16.5277 45.3469C21.0963 49.9155 27.2889 52.4875 33.7498 52.4999H58.1248C58.4771 52.4979 58.8218 52.3967 59.1193 52.2078C59.4167 52.019 59.655 51.7501 59.8066 51.4321C59.9583 51.114 60.0173 50.7597 59.9769 50.4096C59.9364 50.0596 59.7981 49.7281 59.5779 49.453L37.4998 21.8436V17.8124C37.4989 14.4554 36.2972 11.2094 34.1117 8.66115C31.9263 6.11292 28.9013 4.43058 25.5836 3.91821C22.2659 3.40583 18.8744 4.09723 16.022 5.86743C13.1696 7.63763 11.0446 10.3698 10.031 13.5702L4.59353 17.1796C4.33211 17.3492 4.11772 17.582 3.97023 17.8565C3.82274 18.131 3.74691 18.4383 3.74977 18.7499ZM8.99977 18.7499L12.6795 16.289C13.0632 16.0391 13.3392 15.6544 13.4529 15.2108C14.0814 12.7792 15.5757 10.6604 17.6554 9.25227C19.7351 7.8441 22.2572 7.2433 24.7484 7.56261C27.2396 7.88192 29.5286 9.09939 31.1859 10.9866C32.8432 12.8737 33.7549 15.3008 33.7498 17.8124V22.4999C33.7469 22.9282 33.8964 23.3436 34.1717 23.6718L54.2342 48.7499H33.7498C28.2816 48.7437 23.0391 46.5687 19.1726 42.7021C15.306 38.8355 13.131 33.5931 13.1248 28.1249V22.4999C13.1276 22.1883 13.0518 21.881 12.9043 21.6065C12.7568 21.332 12.5424 21.0992 12.281 20.9296L8.99977 18.7499Z" fill="#F8F8F8"/>
</svg>
