<svg width="113" height="88" viewBox="0 0 113 88" fill="none" xmlns="http://www.w3.org/2000/svg">
<path d="M0.0375824 36.3232C0.656731 24.4932 11.2739 15.624 23.1196 15.624H24.9497C35.2661 15.624 45.311 12.4502 53.8052 6.59278C62.0063 0.936531 72.563 -1.53613 83.729 0.987312C87.2466 1.78028 112.516 9.03028 112.5 37.499C112.493 51.3565 104.946 63.4365 93.7524 69.9229V84.374C93.7524 86.1006 92.354 87.499 90.6274 87.499H87.5024C85.7759 87.499 84.3774 86.1006 84.3774 84.374V73.7764C81.3774 74.5498 78.2446 74.999 75.0024 74.999C73.9399 74.999 72.9165 74.8565 71.8774 74.7686V84.374C71.8774 86.1006 70.479 87.499 68.7524 87.499H65.6274C63.9009 87.499 62.5024 86.1006 62.5024 84.374V72.7666C59.7212 71.7783 57.0571 70.542 54.6235 68.9561C45.6899 63.1338 35.5747 59.374 24.9106 59.374C19.9341 59.374 21.7837 59.3135 20.4087 59.2217L5.87548 85.8701C5.31689 86.8916 4.25439 87.499 3.13134 87.499C2.87548 87.499 2.61572 87.4678 2.35986 87.4014C0.97509 87.0498 0.00634003 85.8018 0.00634003 84.374C0.00634003 84.374 -0.0210114 37.4522 0.0375824 36.3232ZM21.8813 42.1865C24.4692 42.1865 26.5688 40.0869 26.5688 37.499C26.5688 34.9092 24.4692 32.8115 21.8813 32.8115C19.2934 32.8115 17.1938 34.9092 17.1938 37.499C17.1938 40.0869 19.2934 42.1865 21.8813 42.1865ZM6.25634 72.1182L14.0415 57.8447C11.0884 56.7061 8.43017 54.9932 6.25634 52.7705V72.1182Z" fill="#F2BF61"/>
</svg>
