<svg width="94" height="82" viewBox="0 0 94 82" fill="none" xmlns="http://www.w3.org/2000/svg">
<path d="M92.3262 22.3769L83.2637 16.3613C81.5745 11.0274 78.0328 6.47368 73.2788 3.52335C68.5248 0.57302 62.8723 -0.579307 57.3428 0.274652C51.8133 1.12861 46.7717 3.93251 43.1292 8.17955C39.4868 12.4266 37.4839 17.8366 37.4825 23.4316V30.1504L0.685589 76.166C0.31854 76.6244 0.0880934 77.177 0.0206673 77.7604C-0.0467588 78.3438 0.0515643 78.9343 0.304365 79.4644C0.557166 79.9945 0.954213 80.4426 1.44999 80.7573C1.94577 81.0721 2.52021 81.2408 3.10746 81.2441H43.7325C54.5005 81.2235 64.8217 76.9367 72.4359 69.3225C80.0501 61.7083 84.3368 51.3872 84.3575 40.6191V32.9238L92.3262 27.6113C92.7615 27.3273 93.119 26.9393 93.3665 26.4823C93.614 26.0253 93.7436 25.5138 93.7436 24.9941C93.7436 24.4744 93.614 23.9629 93.3665 23.5059C93.119 23.049 92.7615 22.6609 92.3262 22.3769ZM42.9903 48.8613L27.3653 67.6113C26.8099 68.1433 26.0778 68.4517 25.3092 68.4777C24.5405 68.5036 23.7893 68.2452 23.1993 67.7519C22.6093 67.2586 22.2219 66.5651 22.1113 65.804C22.0006 65.0429 22.1745 64.2678 22.5997 63.6269L38.2247 44.8769C38.4676 44.5107 38.7851 44.1998 39.1563 43.9646C39.5276 43.7294 39.9443 43.5752 40.3792 43.512C40.8141 43.4487 41.2575 43.478 41.6803 43.5977C42.1032 43.7175 42.496 43.9251 42.8332 44.207C43.1704 44.4889 43.4443 44.8387 43.6371 45.2337C43.8298 45.6286 43.9371 46.0598 43.952 46.499C43.9668 46.9383 43.8888 47.3757 43.7231 47.7828C43.5574 48.1898 43.3077 48.5573 42.9903 48.8613ZM64.045 24.9941C63.1179 24.9941 62.2116 24.7192 61.4407 24.2041C60.6699 23.6891 60.0691 22.957 59.7143 22.1005C59.3595 21.2439 59.2667 20.3014 59.4475 19.3921C59.6284 18.4828 60.0748 17.6476 60.7304 16.9921C61.386 16.3365 62.2212 15.8901 63.1305 15.7092C64.0398 15.5283 64.9823 15.6212 65.8388 15.9759C66.6953 16.3307 67.4274 16.9315 67.9425 17.7024C68.4575 18.4732 68.7325 19.3795 68.7325 20.3066C68.7325 21.5498 68.2386 22.7421 67.3595 23.6212C66.4805 24.5003 65.2882 24.9941 64.045 24.9941Z" fill="#F2BF61"/>
</svg>
