<svg width="93" height="63" viewBox="0 0 93 63" fill="none" xmlns="http://www.w3.org/2000/svg">
<path d="M78.306 10.7851L88.7227 23.431C88.7227 23.431 84.8685 37.9414 74.1393 48.2851C53.5352 68.1456 23.4435 55.1664 11.6393 46.2018C0.47891 37.0976 5.97891 35.0935 9.55599 35.7851L19.9727 37.8685C1.08724 8.07473 6.27474 4.89348 11.6393 6.61848L30.3893 14.9518C42.4081 21.5706 48.0977 18.0768 51.2227 14.9518L57.4727 8.70181C66.8477 0.368481 76.1602 8.36848 78.306 10.7851Z" stroke="#F2BF61" stroke-width="8.33333" stroke-linecap="round" stroke-linejoin="round"/>
<path d="M67.8894 27.452C65.5882 27.452 63.7227 25.5865 63.7227 23.2853C63.7227 20.9841 65.5882 19.1187 67.8894 19.1187C70.1906 19.1187 72.056 20.9841 72.056 23.2853C72.056 25.5865 70.1906 27.452 67.8894 27.452Z" fill="#F2BF61"/>
</svg>
